%TF.GenerationSoftware,KiCad,Pcbnew,10.0.6*%
%TF.CreationDate,2026-09-07T22:25:18+05:30*%
%TF.ProjectId,remote,72656d6f-7465-42e6-9b69-6361645f7063,A3*%
%TF.SameCoordinates,Original*%
%TF.FileFunction,Copper,L2,Bot*%
%TF.FilePolarity,Positive*%
%FSLAX46Y46*%
G04 Gerber Fmt 4.6, Leading zero omitted, Abs format (unit mm)*
G04 Created by KiCad (PCBNEW 10.0.6) date 2026-09-07 22:25:18*
%MOMM*%
%LPD*%
G01*
G04 APERTURE LIST*
G04 Aperture macros list*
%AMRoundRect*
0 Rectangle with rounded corners*
0 $1 Rounding radius*
0 $2 $3 $4 $5 $6 $7 $8 $9 X,Y pos of 4 corners*
0 Add a 4 corners polygon primitive as box body*
4,1,4,$2,$3,$4,$5,$6,$7,$8,$9,$2,$3,0*
0 Add four circle primitives for the rounded corners*
1,1,$1+$1,$2,$3*
1,1,$1+$1,$4,$5*
1,1,$1+$1,$6,$7*
1,1,$1+$1,$8,$9*
0 Add four rect primitives between the rounded corners*
20,1,$1+$1,$2,$3,$4,$5,0*
20,1,$1+$1,$4,$5,$6,$7,0*
20,1,$1+$1,$6,$7,$8,$9,0*
20,1,$1+$1,$8,$9,$2,$3,0*%
G04 Aperture macros list end*
%TA.AperFunction,ComponentPad*%
%ADD10C,1.600000*%
%TD*%
%TA.AperFunction,ComponentPad*%
%ADD11C,1.500000*%
%TD*%
%TA.AperFunction,ComponentPad*%
%ADD12RoundRect,0.250000X-0.550000X-0.550000X0.550000X-0.550000X0.550000X0.550000X-0.550000X0.550000X0*%
%TD*%
%TA.AperFunction,ComponentPad*%
%ADD13R,1.900000X1.900000*%
%TD*%
%TA.AperFunction,ComponentPad*%
%ADD14C,1.900000*%
%TD*%
%TA.AperFunction,ComponentPad*%
%ADD15R,1.524000X1.524000*%
%TD*%
%TA.AperFunction,ComponentPad*%
%ADD16C,1.524000*%
%TD*%
%TA.AperFunction,ComponentPad*%
%ADD17R,2.500000X1.300000*%
%TD*%
%TA.AperFunction,ComponentPad*%
%ADD18O,2.500000X1.300000*%
%TD*%
%TA.AperFunction,ComponentPad*%
%ADD19R,3.000000X3.000000*%
%TD*%
%TA.AperFunction,ComponentPad*%
%ADD20C,3.000000*%
%TD*%
%TA.AperFunction,ComponentPad*%
%ADD21O,2.900000X1.700000*%
%TD*%
%TA.AperFunction,ComponentPad*%
%ADD22R,2.200000X2.200000*%
%TD*%
%TA.AperFunction,ComponentPad*%
%ADD23C,2.200000*%
%TD*%
%TA.AperFunction,ComponentPad*%
%ADD24RoundRect,0.250000X0.625000X-0.350000X0.625000X0.350000X-0.625000X0.350000X-0.625000X-0.350000X0*%
%TD*%
%TA.AperFunction,ComponentPad*%
%ADD25O,1.750000X1.200000*%
%TD*%
%TA.AperFunction,ComponentPad*%
%ADD26RoundRect,0.250000X-0.350000X-0.625000X0.350000X-0.625000X0.350000X0.625000X-0.350000X0.625000X0*%
%TD*%
%TA.AperFunction,ComponentPad*%
%ADD27O,1.200000X1.750000*%
%TD*%
%TA.AperFunction,ViaPad*%
%ADD28C,0.700000*%
%TD*%
%TA.AperFunction,Conductor*%
%ADD29C,0.250000*%
%TD*%
%TA.AperFunction,Conductor*%
%ADD30C,0.500000*%
%TD*%
%TA.AperFunction,Conductor*%
%ADD31C,1.000000*%
%TD*%
G04 APERTURE END LIST*
D10*
%TO.P,C7,1*%
%TO.N,/BUTTON*%
X107000000Y-100000000D03*
%TO.P,C7,2*%
%TO.N,/GND*%
X112000000Y-100000000D03*
%TD*%
D11*
%TO.P,TP6,1*%
%TO.N,/I2S_MIC_SD*%
X104000000Y-90000000D03*
%TD*%
D10*
%TO.P,R4,1*%
%TO.N,/+3V3*%
X107000000Y-93000000D03*
%TO.P,R4,2*%
%TO.N,/BUTTON*%
X107000000Y-82840000D03*
%TD*%
%TO.P,R2,1*%
%TO.N,/VBAT_SW*%
X104000000Y-59000000D03*
%TO.P,R2,2*%
%TO.N,/VBAT_SENSE*%
X114160000Y-59000000D03*
%TD*%
D12*
%TO.P,C3,1*%
%TO.N,/VBAT_SW*%
X135000000Y-140000000D03*
D10*
%TO.P,C3,2*%
%TO.N,/GND*%
X137500000Y-140000000D03*
%TD*%
D13*
%TO.P,U3,1*%
%TO.N,/VBAT_SW*%
X114880000Y-141000000D03*
D14*
%TO.P,U3,2*%
%TO.N,/GND*%
X117420000Y-141000000D03*
%TO.P,U3,3*%
%TO.N,/AMP_SD_SAFE*%
X119960000Y-141000000D03*
%TO.P,U3,4*%
%TO.N,/AMP_GAIN*%
X122500000Y-141000000D03*
%TO.P,U3,5*%
%TO.N,/I2S_AMP_BCLK*%
X127580000Y-141000000D03*
%TO.P,U3,6*%
%TO.N,/I2S_AMP_LRC*%
X130120000Y-141000000D03*
%TO.P,U3,7*%
%TO.N,/I2S_AMP_DIN*%
X125040000Y-141000000D03*
%TD*%
D11*
%TO.P,TP3,1*%
%TO.N,/I2S_AMP_DIN*%
X104000000Y-122000000D03*
%TD*%
D15*
%TO.P,J4,1*%
%TO.N,unconnected-(J4-Pin_1-Pad1)*%
X138620000Y-68620000D03*
D16*
%TO.P,J4,2*%
%TO.N,/I2S_MIC_SCK*%
X138620000Y-66080000D03*
%TO.P,J4,3*%
%TO.N,/I2S_MIC_WS*%
X138620000Y-63540000D03*
%TO.P,J4,4*%
%TO.N,/I2S_MIC_SD*%
X138620000Y-61000000D03*
%TO.P,J4,5*%
%TO.N,/+3V3*%
X138620000Y-58460000D03*
%TO.P,J4,6*%
%TO.N,/GND*%
X138620000Y-55920001D03*
%TO.P,J4,7*%
%TO.N,unconnected-(J4-Pin_7-Pad7)*%
X138620000Y-53380000D03*
%TD*%
D10*
%TO.P,C2,1*%
%TO.N,/+3V3*%
X105000000Y-79000000D03*
%TO.P,C2,2*%
%TO.N,/GND*%
X110000000Y-79000000D03*
%TD*%
%TO.P,C6,1*%
%TO.N,/VBAT_SENSE*%
X105000000Y-68000000D03*
%TO.P,C6,2*%
%TO.N,/GND*%
X110000000Y-68000000D03*
%TD*%
D11*
%TO.P,TP11,1*%
%TO.N,/GND*%
X104000000Y-158000000D03*
%TD*%
%TO.P,TP9,1*%
%TO.N,/VBAT_SENSE*%
X118000000Y-68000000D03*
%TD*%
D12*
%TO.P,C5,1*%
%TO.N,/VBAT_SW*%
X135000000Y-154000000D03*
D10*
%TO.P,C5,2*%
%TO.N,/GND*%
X137500000Y-154000000D03*
%TD*%
D12*
%TO.P,C1,1*%
%TO.N,/+3V3*%
X105000000Y-73000000D03*
D10*
%TO.P,C1,2*%
%TO.N,/GND*%
X107500000Y-73000000D03*
%TD*%
D11*
%TO.P,TP5,1*%
%TO.N,/I2S_MIC_WS*%
X104000000Y-86000000D03*
%TD*%
D10*
%TO.P,R3,1*%
%TO.N,/VBAT_SENSE*%
X114160000Y-63500000D03*
%TO.P,R3,2*%
%TO.N,/GND*%
X104000000Y-63500000D03*
%TD*%
D11*
%TO.P,TP1,1*%
%TO.N,/I2S_AMP_BCLK*%
X104000000Y-114000000D03*
%TD*%
D13*
%TO.P,U2,1*%
%TO.N,/+3V3*%
X122500000Y-84810000D03*
D14*
%TO.P,U2,2*%
%TO.N,/GND*%
X119960000Y-84810000D03*
%TO.P,U2,3*%
%TO.N,/I2S_MIC_SD*%
X125040000Y-84810000D03*
%TO.P,U2,4*%
%TO.N,/GND*%
X119960000Y-77190000D03*
%TO.P,U2,5*%
%TO.N,/I2S_MIC_WS*%
X122500000Y-77190000D03*
%TO.P,U2,6*%
%TO.N,/I2S_MIC_SCK*%
X125040000Y-77190000D03*
%TD*%
D10*
%TO.P,R7,1*%
%TO.N,/AMP_SD_SAFE*%
X117500000Y-120000000D03*
%TO.P,R7,2*%
%TO.N,/GND*%
X127660000Y-120000000D03*
%TD*%
D17*
%TO.P,J6,1*%
%TO.N,/VBAT_SW*%
X126555000Y-60618000D03*
D18*
%TO.P,J6,2*%
%TO.N,/GND*%
X126555000Y-58713000D03*
%TD*%
D19*
%TO.P,SW2,1*%
%TO.N,/VBAT_SW*%
X134000000Y-129700000D03*
D20*
%TO.P,SW2,2*%
%TO.N,/VBAT_IN*%
X134000000Y-125000000D03*
%TO.P,SW2,3*%
%TO.N,unconnected-(SW2-C-Pad3)*%
X134000000Y-120300000D03*
%TD*%
D15*
%TO.P,J3,1*%
%TO.N,/I2S_AMP_BCLK*%
X123380000Y-53380000D03*
D16*
%TO.P,J3,2*%
%TO.N,/I2S_AMP_LRC*%
X123380000Y-55920000D03*
%TO.P,J3,3*%
%TO.N,/I2S_AMP_DIN*%
X123380000Y-58460000D03*
%TO.P,J3,4*%
%TO.N,/BUTTON*%
X123380000Y-61000000D03*
%TO.P,J3,5*%
%TO.N,/AMP_SD*%
X123380000Y-63540000D03*
%TO.P,J3,6*%
%TO.N,/VBAT_SENSE*%
X123380000Y-66079999D03*
%TO.P,J3,7*%
%TO.N,unconnected-(J3-Pin_7-Pad7)*%
X123380000Y-68620000D03*
%TD*%
D10*
%TO.P,C4,1*%
%TO.N,/VBAT_SW*%
X135000000Y-146000000D03*
%TO.P,C4,2*%
%TO.N,/GND*%
X140000000Y-146000000D03*
%TD*%
D11*
%TO.P,TP10,1*%
%TO.N,/GND*%
X137000000Y-88000000D03*
%TD*%
%TO.P,TP7,1*%
%TO.N,/BUTTON*%
X137000000Y-99000000D03*
%TD*%
D21*
%TO.P,SW1,1*%
%TO.N,/GND*%
X116250000Y-94000000D03*
X128750000Y-94000000D03*
%TO.P,SW1,2*%
%TO.N,/BUTTON*%
X116250000Y-99000000D03*
X128750000Y-99000000D03*
%TD*%
D22*
%TO.P,J5,1*%
%TO.N,/SPK+*%
X120800000Y-153954000D03*
D23*
%TO.P,J5,2*%
%TO.N,/SPK-*%
X124300000Y-153954000D03*
%TD*%
D10*
%TO.P,R1,1*%
%TO.N,/AMP_GAIN*%
X117500000Y-128000000D03*
%TO.P,R1,2*%
%TO.N,/GND*%
X127660000Y-128000000D03*
%TD*%
D11*
%TO.P,TP4,1*%
%TO.N,/I2S_MIC_SCK*%
X104000000Y-82000000D03*
%TD*%
%TO.P,TP2,1*%
%TO.N,/I2S_AMP_LRC*%
X104000000Y-118000000D03*
%TD*%
D10*
%TO.P,R5,1*%
%TO.N,/AMP_GAIN*%
X117500000Y-133000000D03*
%TO.P,R5,2*%
%TO.N,/GND*%
X127660000Y-133000000D03*
%TD*%
D24*
%TO.P,J1,1*%
%TO.N,/VBAT_IN*%
X136000000Y-115000000D03*
D25*
%TO.P,J1,2*%
%TO.N,/GND*%
X136000000Y-113000000D03*
%TD*%
D11*
%TO.P,TP8,1*%
%TO.N,/VBAT_SW*%
X140000000Y-131000000D03*
%TD*%
D10*
%TO.P,R6,1*%
%TO.N,/AMP_SD*%
X117500000Y-115000000D03*
%TO.P,R6,2*%
%TO.N,/AMP_SD_SAFE*%
X127660000Y-115000000D03*
%TD*%
D26*
%TO.P,J2,1*%
%TO.N,/SPK+*%
X121500000Y-163000000D03*
D27*
%TO.P,J2,2*%
%TO.N,/SPK-*%
X123500000Y-163000000D03*
%TD*%
D28*
%TO.N,/GND*%
X102000000Y-136000000D03*
X112000000Y-112000000D03*
X143000000Y-124000000D03*
X143000000Y-112000000D03*
X102000000Y-100000000D03*
X143000000Y-136000000D03*
X143000000Y-88000000D03*
X132000000Y-161000000D03*
X112000000Y-136000000D03*
X102000000Y-160000000D03*
X102000000Y-76000000D03*
X143000000Y-76000000D03*
X143000000Y-64000000D03*
X130000000Y-112000000D03*
X102000000Y-88000000D03*
X143000000Y-100000000D03*
X102000000Y-64000000D03*
X102000000Y-148000000D03*
X102000000Y-112000000D03*
X143000000Y-160000000D03*
X143000000Y-148000000D03*
%TO.N,/I2S_MIC_SD*%
X131802000Y-83633000D03*
%TO.N,/I2S_AMP_BCLK*%
X105356400Y-61921800D03*
%TO.N,/I2S_AMP_LRC*%
X112047200Y-68279600D03*
%TD*%
%TO.N,/BUTTON*%
D29*
X114318000Y-98844800D02*
X108155000Y-98844800D01*
X114473000Y-99000000D02*
X114318000Y-98844800D01*
X137000000Y-99000000D02*
X128750000Y-99000000D01*
X108155000Y-98844800D02*
X107000000Y-100000000D01*
X116250000Y-99000000D02*
X114473000Y-99000000D01*
X116250000Y-99000000D02*
X128750000Y-99000000D01*
%TO.N,/I2S_MIC_SD*%
X104000000Y-90000000D02*
X119850000Y-90000000D01*
X119850000Y-90000000D02*
X125040000Y-84810000D01*
X131802000Y-83633000D02*
X130626000Y-84810000D01*
X130626000Y-84810000D02*
X125040000Y-84810000D01*
%TO.N,/+3V3*%
D30*
X107000000Y-93000000D02*
X105251000Y-93000000D01*
X125913000Y-71166900D02*
X106833000Y-71166900D01*
X138620000Y-58460000D02*
X125913000Y-71166900D01*
X104227000Y-88001800D02*
X119308000Y-88001800D01*
X102747000Y-89482200D02*
X104227000Y-88001800D01*
X105251000Y-93000000D02*
X102747000Y-90495200D01*
X102747000Y-90495200D02*
X102747000Y-89482200D01*
X119308000Y-88001800D02*
X122500000Y-84810000D01*
X106833000Y-71166900D02*
X105000000Y-73000000D01*
%TO.N,/VBAT_SW*%
D31*
X134000000Y-129700000D02*
X138700000Y-129700000D01*
X124478400Y-51916300D02*
X128506700Y-55944600D01*
X114880000Y-141000000D02*
X119880000Y-146000000D01*
X111083700Y-51916300D02*
X124478400Y-51916300D01*
X104000000Y-59000000D02*
X111083700Y-51916300D01*
X126555000Y-60618000D02*
X128506700Y-60618000D01*
X138700000Y-129700000D02*
X140000000Y-131000000D01*
X128506700Y-55944600D02*
X128506700Y-60618000D01*
X119880000Y-146000000D02*
X135000000Y-146000000D01*
%TO.N,/VBAT_SENSE*%
D29*
X105000000Y-68000000D02*
X106130000Y-69129700D01*
X105000000Y-68000000D02*
X109500000Y-63500000D01*
X123380000Y-66080000D02*
X119920000Y-66080000D01*
X109500000Y-63500000D02*
X114160000Y-63500000D01*
X116870000Y-69129700D02*
X118000000Y-68000000D01*
X119920000Y-66080000D02*
X118000000Y-68000000D01*
X106130000Y-69129700D02*
X116870000Y-69129700D01*
%TO.N,/AMP_SD_SAFE*%
X127660000Y-115000000D02*
X122660000Y-120000000D01*
X122660000Y-120000000D02*
X117500000Y-120000000D01*
%TO.N,/AMP_GAIN*%
X117500000Y-128000000D02*
X117500000Y-133000000D01*
%TO.N,/I2S_AMP_BCLK*%
X102908500Y-118922900D02*
X110422100Y-126436500D01*
X110422100Y-127525000D02*
X119826000Y-136928900D01*
X104000000Y-114000000D02*
X102908500Y-115091500D01*
X113898200Y-53380000D02*
X123380000Y-53380000D01*
X119826000Y-136928900D02*
X123508900Y-136928900D01*
X102908500Y-115091500D02*
X102908500Y-118922900D01*
X105356400Y-61921800D02*
X113898200Y-53380000D01*
X110422100Y-126436500D02*
X110422100Y-127525000D01*
X123508900Y-136928900D02*
X127580000Y-141000000D01*
%TO.N,/I2S_AMP_LRC*%
X112047200Y-68279600D02*
X112047200Y-67252800D01*
X130120000Y-141000000D02*
X130120000Y-139021900D01*
X109098100Y-118000000D02*
X104000000Y-118000000D01*
X112047200Y-67252800D02*
X123380000Y-55920000D01*
X130120000Y-139021900D02*
X109098100Y-118000000D01*
%TO.N,/I2S_AMP_DIN*%
X101999999Y-89300000D02*
X101999999Y-97600000D01*
X119199999Y-70400000D02*
X109699999Y-70400000D01*
X103899999Y-121700000D02*
X103899999Y-121900000D01*
X102799999Y-87700000D02*
X102799999Y-88400000D01*
X103699999Y-121300000D02*
X103699999Y-121400000D01*
X102799999Y-114300000D02*
X102399999Y-114700000D01*
X102399999Y-119300000D02*
X103099999Y-120000000D01*
X103399999Y-120600000D02*
X103399999Y-120700000D01*
X109699999Y-70400000D02*
X109599999Y-70500000D01*
X124499999Y-67400000D02*
X122199999Y-67400000D01*
X106499999Y-70500000D02*
X106399999Y-70600000D01*
X106399999Y-70600000D02*
X106299999Y-70600000D01*
X106299999Y-70600000D02*
X105199999Y-71700000D01*
X103599999Y-121200000D02*
X103699999Y-121300000D01*
X103399999Y-120700000D02*
X103499999Y-120800000D01*
X102099999Y-89100000D02*
X102099999Y-89200000D01*
X102699999Y-87600000D02*
X102799999Y-87700000D01*
X103799999Y-121500000D02*
X103799999Y-121600000D01*
X107899999Y-103500000D02*
X110499999Y-103500000D01*
X102799999Y-112800000D02*
X102799999Y-114300000D01*
X103299999Y-120500000D02*
X103399999Y-120600000D01*
X102399999Y-119200000D02*
X102399999Y-119300000D01*
X102399999Y-114700000D02*
X102399999Y-114800000D01*
X103199999Y-120300000D02*
X103299999Y-120400000D01*
X123092000Y-139052000D02*
X125040000Y-141000000D01*
X123380000Y-58460000D02*
X123399999Y-58500000D01*
X104000000Y-122000000D02*
X121052000Y-139052000D01*
X110499999Y-110500000D02*
X108199999Y-112800000D01*
X121052000Y-139052000D02*
X123092000Y-139052000D01*
X102299999Y-114900000D02*
X102299999Y-119100000D01*
X103499999Y-120800000D02*
X103499999Y-121000000D01*
X103799999Y-121600000D02*
X103899999Y-121700000D01*
X108199999Y-112800000D02*
X102799999Y-112800000D01*
X122199999Y-67400000D02*
X119199999Y-70400000D01*
X103699999Y-71700000D02*
X103699999Y-77800000D01*
X103699999Y-77800000D02*
X102299999Y-79200000D01*
X102299999Y-87100000D02*
X102699999Y-87500000D01*
X124599999Y-67300000D02*
X124499999Y-67400000D01*
X109599999Y-70500000D02*
X106499999Y-70500000D01*
X124599999Y-59800000D02*
X124599999Y-67300000D01*
X110499999Y-103500000D02*
X110499999Y-110500000D01*
X102699999Y-87500000D02*
X102699999Y-87600000D01*
X103199999Y-120200000D02*
X103199999Y-120300000D01*
X103499999Y-121000000D02*
X103599999Y-121100000D01*
X101999999Y-97600000D02*
X107899999Y-103500000D01*
X103299999Y-120400000D02*
X103299999Y-120500000D01*
X103599999Y-121100000D02*
X103599999Y-121200000D01*
X123399999Y-58500000D02*
X123399999Y-58600000D01*
X102799999Y-88400000D02*
X102099999Y-89100000D01*
X102299999Y-79200000D02*
X102299999Y-87100000D01*
X103899999Y-121900000D02*
X103999999Y-122000000D01*
X102299999Y-119100000D02*
X102399999Y-119200000D01*
X103099999Y-120100000D02*
X103199999Y-120200000D01*
X102099999Y-89200000D02*
X101999999Y-89300000D01*
X103999999Y-122000000D02*
X104000000Y-122000000D01*
X105199999Y-71700000D02*
X103699999Y-71700000D01*
X103099999Y-120000000D02*
X103099999Y-120100000D01*
X123399999Y-58600000D02*
X124599999Y-59800000D01*
X103699999Y-121400000D02*
X103799999Y-121500000D01*
X102399999Y-114800000D02*
X102299999Y-114900000D01*
%TO.N,/I2S_MIC_SCK*%
X108369000Y-77630800D02*
X108371000Y-77630800D01*
X125040000Y-75431000D02*
X134391000Y-66080000D01*
X108371000Y-77630800D02*
X110571000Y-75431000D01*
X110571000Y-75431000D02*
X125040000Y-75431000D01*
X134391000Y-66080000D02*
X138620000Y-66080000D01*
X125040000Y-77190000D02*
X125040000Y-75431000D01*
X104000000Y-82000000D02*
X108369000Y-77630800D01*
%TO.N,/I2S_MIC_WS*%
X108636000Y-73763900D02*
X102862000Y-79537800D01*
X105465000Y-82095300D02*
X105465000Y-81864500D01*
X104009000Y-85990600D02*
X104009000Y-83550600D01*
X102862000Y-79537800D02*
X102862000Y-82403700D01*
X104009000Y-83550600D02*
X105465000Y-82095300D01*
X111446000Y-75882700D02*
X121193000Y-75882700D01*
X105465000Y-81864500D02*
X111446000Y-75882700D01*
X138620000Y-63540000D02*
X135549000Y-63540000D01*
X135549000Y-63540000D02*
X125325000Y-73763900D01*
X104000000Y-86000000D02*
X104009000Y-85990600D01*
X102862000Y-82403700D02*
X104009000Y-83550600D01*
X121193000Y-75882700D02*
X122500000Y-77190000D01*
X125325000Y-73763900D02*
X108636000Y-73763900D01*
%TD*%
%TA.AperFunction,Conductor*%
%TO.N,/GND*%
G36*
X137002107Y-50400571D02*
G01*
X137514388Y-50418071D01*
X137522811Y-50418648D01*
X138030610Y-50470851D01*
X138038948Y-50471997D01*
X138541994Y-50558732D01*
X138550283Y-50560454D01*
X139046219Y-50681310D01*
X139054333Y-50683583D01*
X139540895Y-50838011D01*
X139548852Y-50840840D01*
X140023717Y-51028103D01*
X140031473Y-51031472D01*
X140492445Y-51250701D01*
X140499937Y-51254582D01*
X140922045Y-51491921D01*
X140944884Y-51504763D01*
X140952118Y-51509162D01*
X141378952Y-51789122D01*
X141385853Y-51793995D01*
X141609399Y-51963514D01*
X141792582Y-52102426D01*
X141799150Y-52107770D01*
X142183867Y-52443226D01*
X142190055Y-52449005D01*
X142550994Y-52809944D01*
X142556773Y-52816132D01*
X142892229Y-53200849D01*
X142897573Y-53207417D01*
X143205999Y-53614138D01*
X143210882Y-53621055D01*
X143490837Y-54047881D01*
X143495236Y-54055115D01*
X143745410Y-54500049D01*
X143749305Y-54507567D01*
X143968523Y-54968516D01*
X143971896Y-54976282D01*
X144159159Y-55451147D01*
X144161993Y-55459121D01*
X144240943Y-55707869D01*
X144316410Y-55945647D01*
X144318694Y-55953800D01*
X144439544Y-56449715D01*
X144441267Y-56458005D01*
X144527998Y-56961026D01*
X144529151Y-56969414D01*
X144581350Y-57477175D01*
X144581928Y-57485622D01*
X144595028Y-57869089D01*
X144598830Y-57980401D01*
X144599428Y-57997891D01*
X144599500Y-58002125D01*
X144599500Y-161997874D01*
X144599428Y-162002108D01*
X144581928Y-162514377D01*
X144581350Y-162522824D01*
X144529151Y-163030585D01*
X144527998Y-163038973D01*
X144441267Y-163541994D01*
X144439544Y-163550284D01*
X144318694Y-164046199D01*
X144316410Y-164054352D01*
X144161995Y-164540874D01*
X144159159Y-164548852D01*
X143971896Y-165023717D01*
X143968523Y-165031483D01*
X143749305Y-165492432D01*
X143745410Y-165499950D01*
X143495236Y-165944884D01*
X143490837Y-165952118D01*
X143210882Y-166378944D01*
X143205999Y-166385861D01*
X142897573Y-166792582D01*
X142892229Y-166799150D01*
X142556773Y-167183867D01*
X142550994Y-167190055D01*
X142190055Y-167550994D01*
X142183867Y-167556773D01*
X141799150Y-167892229D01*
X141792582Y-167897573D01*
X141385861Y-168205999D01*
X141378944Y-168210882D01*
X140952118Y-168490837D01*
X140944884Y-168495236D01*
X140499950Y-168745410D01*
X140492432Y-168749305D01*
X140031483Y-168968523D01*
X140023717Y-168971896D01*
X139548852Y-169159159D01*
X139540874Y-169161995D01*
X139054352Y-169316410D01*
X139046199Y-169318694D01*
X138550284Y-169439544D01*
X138541994Y-169441267D01*
X138038973Y-169527998D01*
X138030585Y-169529151D01*
X137522824Y-169581350D01*
X137514377Y-169581928D01*
X137041825Y-169598071D01*
X137002106Y-169599428D01*
X136997875Y-169599500D01*
X108002125Y-169599500D01*
X107997893Y-169599428D01*
X107955682Y-169597986D01*
X107485622Y-169581928D01*
X107477175Y-169581350D01*
X106969414Y-169529151D01*
X106961026Y-169527998D01*
X106458005Y-169441267D01*
X106449715Y-169439544D01*
X105953800Y-169318694D01*
X105945647Y-169316410D01*
X105459125Y-169161995D01*
X105451147Y-169159159D01*
X104976282Y-168971896D01*
X104968516Y-168968523D01*
X104507567Y-168749305D01*
X104500049Y-168745410D01*
X104055115Y-168495236D01*
X104047881Y-168490837D01*
X103621055Y-168210882D01*
X103614138Y-168205999D01*
X103207417Y-167897573D01*
X103200849Y-167892229D01*
X102816132Y-167556773D01*
X102809944Y-167550994D01*
X102449005Y-167190055D01*
X102443226Y-167183867D01*
X102107770Y-166799150D01*
X102102426Y-166792582D01*
X101926880Y-166561090D01*
X101793995Y-166385853D01*
X101789117Y-166378944D01*
X101782509Y-166368870D01*
X101509162Y-165952118D01*
X101504763Y-165944884D01*
X101445140Y-165838845D01*
X101254582Y-165499937D01*
X101250701Y-165492445D01*
X101031472Y-165031473D01*
X101028102Y-165023717D01*
X101003236Y-164960662D01*
X100969076Y-164874038D01*
X103399500Y-164874038D01*
X103399500Y-165125961D01*
X103438910Y-165374785D01*
X103516760Y-165614383D01*
X103631132Y-165838848D01*
X103779201Y-166042649D01*
X103779205Y-166042654D01*
X103957345Y-166220794D01*
X103957350Y-166220798D01*
X104135117Y-166349952D01*
X104161155Y-166368870D01*
X104297635Y-166438410D01*
X104385616Y-166483239D01*
X104385618Y-166483239D01*
X104385621Y-166483241D01*
X104625215Y-166561090D01*
X104874038Y-166600500D01*
X104874039Y-166600500D01*
X105125961Y-166600500D01*
X105125962Y-166600500D01*
X105374785Y-166561090D01*
X105614379Y-166483241D01*
X105838845Y-166368870D01*
X106042656Y-166220793D01*
X106220793Y-166042656D01*
X106368870Y-165838845D01*
X106483241Y-165614379D01*
X106561090Y-165374785D01*
X106600500Y-165125962D01*
X106600500Y-164874038D01*
X138399500Y-164874038D01*
X138399500Y-165125961D01*
X138438910Y-165374785D01*
X138516760Y-165614383D01*
X138631132Y-165838848D01*
X138779201Y-166042649D01*
X138779205Y-166042654D01*
X138957345Y-166220794D01*
X138957350Y-166220798D01*
X139135117Y-166349952D01*
X139161155Y-166368870D01*
X139297635Y-166438410D01*
X139385616Y-166483239D01*
X139385618Y-166483239D01*
X139385621Y-166483241D01*
X139625215Y-166561090D01*
X139874038Y-166600500D01*
X139874039Y-166600500D01*
X140125961Y-166600500D01*
X140125962Y-166600500D01*
X140374785Y-166561090D01*
X140614379Y-166483241D01*
X140838845Y-166368870D01*
X141042656Y-166220793D01*
X141220793Y-166042656D01*
X141368870Y-165838845D01*
X141483241Y-165614379D01*
X141561090Y-165374785D01*
X141600500Y-165125962D01*
X141600500Y-164874038D01*
X141561090Y-164625215D01*
X141483241Y-164385621D01*
X141483239Y-164385618D01*
X141483239Y-164385616D01*
X141441747Y-164304184D01*
X141368870Y-164161155D01*
X141301768Y-164068797D01*
X141220798Y-163957350D01*
X141220794Y-163957345D01*
X141042654Y-163779205D01*
X141042649Y-163779201D01*
X140838848Y-163631132D01*
X140838847Y-163631131D01*
X140838845Y-163631130D01*
X140768747Y-163595413D01*
X140614383Y-163516760D01*
X140374785Y-163438910D01*
X140125962Y-163399500D01*
X139874038Y-163399500D01*
X139749626Y-163419205D01*
X139625214Y-163438910D01*
X139385616Y-163516760D01*
X139161151Y-163631132D01*
X138957350Y-163779201D01*
X138957345Y-163779205D01*
X138779205Y-163957345D01*
X138779201Y-163957350D01*
X138631132Y-164161151D01*
X138516760Y-164385616D01*
X138438910Y-164625214D01*
X138399500Y-164874038D01*
X106600500Y-164874038D01*
X106561090Y-164625215D01*
X106483241Y-164385621D01*
X106483239Y-164385618D01*
X106483239Y-164385616D01*
X106441747Y-164304184D01*
X106368870Y-164161155D01*
X106301768Y-164068797D01*
X106220798Y-163957350D01*
X106220794Y-163957345D01*
X106042654Y-163779205D01*
X106042649Y-163779201D01*
X105838848Y-163631132D01*
X105838847Y-163631131D01*
X105838845Y-163631130D01*
X105768747Y-163595413D01*
X105614383Y-163516760D01*
X105374785Y-163438910D01*
X105125962Y-163399500D01*
X104874038Y-163399500D01*
X104749626Y-163419205D01*
X104625214Y-163438910D01*
X104385616Y-163516760D01*
X104161151Y-163631132D01*
X103957350Y-163779201D01*
X103957345Y-163779205D01*
X103779205Y-163957345D01*
X103779201Y-163957350D01*
X103631132Y-164161151D01*
X103516760Y-164385616D01*
X103438910Y-164625214D01*
X103399500Y-164874038D01*
X100969076Y-164874038D01*
X100870953Y-164625215D01*
X100840840Y-164548852D01*
X100838011Y-164540895D01*
X100683583Y-164054333D01*
X100681310Y-164046219D01*
X100560454Y-163550283D01*
X100558732Y-163541994D01*
X100527140Y-163358767D01*
X100471997Y-163038948D01*
X100470851Y-163030610D01*
X100418648Y-162522811D01*
X100418071Y-162514376D01*
X100416791Y-162476918D01*
X100411675Y-162327135D01*
X120649500Y-162327135D01*
X120649500Y-163672870D01*
X120649501Y-163672876D01*
X120655908Y-163732483D01*
X120706202Y-163867328D01*
X120706206Y-163867335D01*
X120792452Y-163982544D01*
X120792455Y-163982547D01*
X120907664Y-164068793D01*
X120907671Y-164068797D01*
X121042517Y-164119091D01*
X121042516Y-164119091D01*
X121049444Y-164119835D01*
X121102127Y-164125500D01*
X121897872Y-164125499D01*
X121957483Y-164119091D01*
X122092331Y-164068796D01*
X122207546Y-163982546D01*
X122293796Y-163867331D01*
X122344091Y-163732483D01*
X122350500Y-163672873D01*
X122350499Y-162641228D01*
X122649500Y-162641228D01*
X122649500Y-163358771D01*
X122682182Y-163523074D01*
X122682184Y-163523082D01*
X122746295Y-163677860D01*
X122839373Y-163817162D01*
X122957837Y-163935626D01*
X123028055Y-163982544D01*
X123097137Y-164028703D01*
X123251918Y-164092816D01*
X123416223Y-164125498D01*
X123416228Y-164125499D01*
X123416232Y-164125500D01*
X123416233Y-164125500D01*
X123583768Y-164125500D01*
X123583769Y-164125499D01*
X123748082Y-164092816D01*
X123902863Y-164028703D01*
X124042162Y-163935626D01*
X124160626Y-163817162D01*
X124253703Y-163677863D01*
X124317816Y-163523082D01*
X124350500Y-163358767D01*
X124350500Y-162641233D01*
X124317816Y-162476918D01*
X124255771Y-162327129D01*
X124253704Y-162322139D01*
X124160626Y-162182837D01*
X124042162Y-162064373D01*
X123902860Y-161971295D01*
X123748082Y-161907184D01*
X123748074Y-161907182D01*
X123583771Y-161874500D01*
X123583767Y-161874500D01*
X123416233Y-161874500D01*
X123416228Y-161874500D01*
X123251925Y-161907182D01*
X123251917Y-161907184D01*
X123097139Y-161971295D01*
X122957837Y-162064373D01*
X122839373Y-162182837D01*
X122746295Y-162322139D01*
X122682184Y-162476917D01*
X122682182Y-162476925D01*
X122649500Y-162641228D01*
X122350499Y-162641228D01*
X122350499Y-162327128D01*
X122344091Y-162267517D01*
X122312507Y-162182837D01*
X122293797Y-162132671D01*
X122293793Y-162132664D01*
X122207547Y-162017455D01*
X122207544Y-162017452D01*
X122092335Y-161931206D01*
X122092328Y-161931202D01*
X121957482Y-161880908D01*
X121957483Y-161880908D01*
X121897883Y-161874501D01*
X121897881Y-161874500D01*
X121897873Y-161874500D01*
X121897864Y-161874500D01*
X121102129Y-161874500D01*
X121102123Y-161874501D01*
X121042516Y-161880908D01*
X120907671Y-161931202D01*
X120907664Y-161931206D01*
X120792455Y-162017452D01*
X120792452Y-162017455D01*
X120706206Y-162132664D01*
X120706202Y-162132671D01*
X120655908Y-162267517D01*
X120650036Y-162322139D01*
X120649501Y-162327123D01*
X120649500Y-162327135D01*
X100411675Y-162327135D01*
X100400572Y-162002107D01*
X100400500Y-161997874D01*
X100400500Y-157896579D01*
X102950000Y-157896579D01*
X102950000Y-158103420D01*
X102990348Y-158306266D01*
X102990350Y-158306274D01*
X103069502Y-158497363D01*
X103069502Y-158497364D01*
X103158021Y-158629843D01*
X103158023Y-158629843D01*
X103669397Y-158118470D01*
X103673852Y-158135095D01*
X103719930Y-158214905D01*
X103785095Y-158280070D01*
X103864905Y-158326148D01*
X103881529Y-158330602D01*
X103370155Y-158841975D01*
X103502631Y-158930494D01*
X103502641Y-158930499D01*
X103693725Y-159009649D01*
X103693733Y-159009651D01*
X103896579Y-159049999D01*
X103896583Y-159050000D01*
X104103417Y-159050000D01*
X104103420Y-159049999D01*
X104306266Y-159009651D01*
X104306274Y-159009649D01*
X104497359Y-158930499D01*
X104629844Y-158841976D01*
X104118471Y-158330602D01*
X104135095Y-158326148D01*
X104214905Y-158280070D01*
X104280070Y-158214905D01*
X104326148Y-158135095D01*
X104330602Y-158118470D01*
X104841976Y-158629844D01*
X104930499Y-158497359D01*
X105009649Y-158306274D01*
X105009651Y-158306266D01*
X105049999Y-158103420D01*
X105050000Y-158103417D01*
X105050000Y-157896583D01*
X105049999Y-157896579D01*
X105009651Y-157693733D01*
X105009649Y-157693725D01*
X104930499Y-157502641D01*
X104930494Y-157502631D01*
X104841975Y-157370155D01*
X104330602Y-157881528D01*
X104326148Y-157864905D01*
X104280070Y-157785095D01*
X104214905Y-157719930D01*
X104135095Y-157673852D01*
X104118470Y-157669397D01*
X104629843Y-157158023D01*
X104629843Y-157158021D01*
X104497363Y-157069502D01*
X104306274Y-156990350D01*
X104306266Y-156990348D01*
X104103420Y-156950000D01*
X103896579Y-156950000D01*
X103693733Y-156990348D01*
X103693725Y-156990350D01*
X103502639Y-157069501D01*
X103370155Y-157158023D01*
X103370154Y-157158023D01*
X103881529Y-157669397D01*
X103864905Y-157673852D01*
X103785095Y-157719930D01*
X103719930Y-157785095D01*
X103673852Y-157864905D01*
X103669397Y-157881528D01*
X103158023Y-157370154D01*
X103158023Y-157370155D01*
X103069501Y-157502639D01*
X102990350Y-157693725D01*
X102990348Y-157693733D01*
X102950000Y-157896579D01*
X100400500Y-157896579D01*
X100400500Y-152829321D01*
X119449500Y-152829321D01*
X119449500Y-155078678D01*
X119464032Y-155151735D01*
X119464033Y-155151739D01*
X119464034Y-155151740D01*
X119519399Y-155234601D01*
X119602260Y-155289966D01*
X119602264Y-155289967D01*
X119675321Y-155304499D01*
X119675324Y-155304500D01*
X119675326Y-155304500D01*
X121924676Y-155304500D01*
X121924677Y-155304499D01*
X121997740Y-155289966D01*
X122080601Y-155234601D01*
X122135966Y-155151740D01*
X122150500Y-155078674D01*
X122150500Y-153847713D01*
X122949500Y-153847713D01*
X122949500Y-154060286D01*
X122982753Y-154270239D01*
X123048444Y-154472414D01*
X123144951Y-154661820D01*
X123269890Y-154833786D01*
X123420213Y-154984109D01*
X123592179Y-155109048D01*
X123592181Y-155109049D01*
X123592184Y-155109051D01*
X123781588Y-155205557D01*
X123983757Y-155271246D01*
X124193713Y-155304500D01*
X124193714Y-155304500D01*
X124406286Y-155304500D01*
X124406287Y-155304500D01*
X124616243Y-155271246D01*
X124818412Y-155205557D01*
X125007816Y-155109051D01*
X125088405Y-155050500D01*
X125179786Y-154984109D01*
X125179788Y-154984106D01*
X125179792Y-154984104D01*
X125330104Y-154833792D01*
X125330106Y-154833788D01*
X125330109Y-154833786D01*
X125455048Y-154661820D01*
X125455047Y-154661820D01*
X125455051Y-154661816D01*
X125551557Y-154472412D01*
X125617246Y-154270243D01*
X125650500Y-154060287D01*
X125650500Y-153847713D01*
X125617246Y-153637757D01*
X125551557Y-153435588D01*
X125534512Y-153402135D01*
X133949500Y-153402135D01*
X133949500Y-154597870D01*
X133949501Y-154597876D01*
X133955908Y-154657483D01*
X134006202Y-154792328D01*
X134006206Y-154792335D01*
X134092452Y-154907544D01*
X134092455Y-154907547D01*
X134207664Y-154993793D01*
X134207671Y-154993797D01*
X134342517Y-155044091D01*
X134342516Y-155044091D01*
X134349444Y-155044835D01*
X134402127Y-155050500D01*
X135597872Y-155050499D01*
X135657483Y-155044091D01*
X135792331Y-154993796D01*
X135907546Y-154907546D01*
X135993796Y-154792331D01*
X136044091Y-154657483D01*
X136050500Y-154597873D01*
X136050499Y-153913428D01*
X136400000Y-153913428D01*
X136400000Y-154086571D01*
X136427085Y-154257584D01*
X136480591Y-154422257D01*
X136559198Y-154576528D01*
X136623219Y-154664646D01*
X136623220Y-154664647D01*
X137129533Y-154158334D01*
X137179920Y-154245606D01*
X137254394Y-154320080D01*
X137341665Y-154370465D01*
X136835351Y-154876778D01*
X136835352Y-154876780D01*
X136923471Y-154940801D01*
X137077742Y-155019408D01*
X137242415Y-155072914D01*
X137413429Y-155100000D01*
X137586571Y-155100000D01*
X137757584Y-155072914D01*
X137922257Y-155019408D01*
X138076525Y-154940803D01*
X138164646Y-154876778D01*
X138164647Y-154876778D01*
X137658334Y-154370465D01*
X137745606Y-154320080D01*
X137820080Y-154245606D01*
X137870466Y-154158334D01*
X138376778Y-154664647D01*
X138376778Y-154664646D01*
X138440803Y-154576525D01*
X138519408Y-154422257D01*
X138572914Y-154257584D01*
X138600000Y-154086571D01*
X138600000Y-153913428D01*
X138572914Y-153742415D01*
X138519408Y-153577742D01*
X138440801Y-153423471D01*
X138376780Y-153335352D01*
X138376778Y-153335351D01*
X137870465Y-153841664D01*
X137820080Y-153754394D01*
X137745606Y-153679920D01*
X137658334Y-153629534D01*
X138164647Y-153123220D01*
X138164646Y-153123219D01*
X138076528Y-153059198D01*
X137922257Y-152980591D01*
X137757584Y-152927085D01*
X137586571Y-152900000D01*
X137413429Y-152900000D01*
X137242415Y-152927085D01*
X137077742Y-152980591D01*
X136923478Y-153059194D01*
X136835352Y-153123220D01*
X137341665Y-153629533D01*
X137254394Y-153679920D01*
X137179920Y-153754394D01*
X137129534Y-153841665D01*
X136623220Y-153335352D01*
X136559194Y-153423478D01*
X136480591Y-153577742D01*
X136427085Y-153742415D01*
X136400000Y-153913428D01*
X136050499Y-153913428D01*
X136050499Y-153402128D01*
X136044091Y-153342517D01*
X136041419Y-153335352D01*
X135996088Y-153213812D01*
X135993797Y-153207672D01*
X135993797Y-153207671D01*
X135993796Y-153207669D01*
X135993794Y-153207666D01*
X135993793Y-153207664D01*
X135907547Y-153092455D01*
X135907544Y-153092452D01*
X135792335Y-153006206D01*
X135792328Y-153006202D01*
X135657482Y-152955908D01*
X135657483Y-152955908D01*
X135597883Y-152949501D01*
X135597881Y-152949500D01*
X135597873Y-152949500D01*
X135597864Y-152949500D01*
X134402129Y-152949500D01*
X134402123Y-152949501D01*
X134342516Y-152955908D01*
X134207671Y-153006202D01*
X134207664Y-153006206D01*
X134092455Y-153092452D01*
X134092452Y-153092455D01*
X134006206Y-153207664D01*
X134006202Y-153207671D01*
X133955908Y-153342517D01*
X133949501Y-153402116D01*
X133949501Y-153402123D01*
X133949500Y-153402135D01*
X125534512Y-153402135D01*
X125455051Y-153246184D01*
X125455049Y-153246181D01*
X125455048Y-153246179D01*
X125330109Y-153074213D01*
X125179786Y-152923890D01*
X125007820Y-152798951D01*
X124818414Y-152702444D01*
X124818413Y-152702443D01*
X124818412Y-152702443D01*
X124616243Y-152636754D01*
X124616241Y-152636753D01*
X124616240Y-152636753D01*
X124454957Y-152611208D01*
X124406287Y-152603500D01*
X124193713Y-152603500D01*
X124145042Y-152611208D01*
X123983760Y-152636753D01*
X123781585Y-152702444D01*
X123592179Y-152798951D01*
X123420213Y-152923890D01*
X123269890Y-153074213D01*
X123144951Y-153246179D01*
X123048444Y-153435585D01*
X122982753Y-153637760D01*
X122949500Y-153847713D01*
X122150500Y-153847713D01*
X122150500Y-152829326D01*
X122150500Y-152829323D01*
X122150499Y-152829321D01*
X122135967Y-152756264D01*
X122135966Y-152756260D01*
X122080601Y-152673399D01*
X121997740Y-152618034D01*
X121997739Y-152618033D01*
X121997735Y-152618032D01*
X121924677Y-152603500D01*
X121924674Y-152603500D01*
X119675326Y-152603500D01*
X119675323Y-152603500D01*
X119602264Y-152618032D01*
X119602260Y-152618033D01*
X119519399Y-152673399D01*
X119464033Y-152756260D01*
X119464032Y-152756264D01*
X119449500Y-152829321D01*
X100400500Y-152829321D01*
X100400500Y-110124000D01*
X100420185Y-110056961D01*
X100472989Y-110011206D01*
X100524500Y-110000000D01*
X110000499Y-110000000D01*
X110067538Y-110019685D01*
X110113293Y-110072489D01*
X110124499Y-110124000D01*
X110124499Y-110293101D01*
X110104814Y-110360140D01*
X110088180Y-110380782D01*
X108080781Y-112388181D01*
X108019458Y-112421666D01*
X107993100Y-112424500D01*
X102849434Y-112424500D01*
X102750564Y-112424500D01*
X102655061Y-112450090D01*
X102655059Y-112450091D01*
X102655058Y-112450091D01*
X102569435Y-112499526D01*
X102499525Y-112569436D01*
X102450090Y-112655059D01*
X102450090Y-112655060D01*
X102450089Y-112655062D01*
X102424499Y-112750565D01*
X102424499Y-112750567D01*
X102424499Y-114093101D01*
X102404814Y-114160140D01*
X102388180Y-114180782D01*
X102099526Y-114469435D01*
X102099524Y-114469437D01*
X102099524Y-114469438D01*
X102089078Y-114487530D01*
X102050088Y-114555062D01*
X102050088Y-114555063D01*
X102038174Y-114599526D01*
X102035332Y-114610133D01*
X102003243Y-114665719D01*
X101999524Y-114669437D01*
X101999521Y-114669442D01*
X101950090Y-114755059D01*
X101950089Y-114755061D01*
X101950089Y-114755062D01*
X101940453Y-114791025D01*
X101924802Y-114849436D01*
X101924499Y-114850565D01*
X101924499Y-119050564D01*
X101924499Y-119149436D01*
X101924802Y-119150565D01*
X101950089Y-119244938D01*
X101950090Y-119244939D01*
X101996537Y-119325388D01*
X101999522Y-119330559D01*
X101999527Y-119330565D01*
X102003237Y-119334275D01*
X102035330Y-119389861D01*
X102050088Y-119444936D01*
X102050088Y-119444937D01*
X102050089Y-119444938D01*
X102099524Y-119530562D01*
X102099525Y-119530563D01*
X102099526Y-119530564D01*
X102703238Y-120134276D01*
X102735332Y-120189863D01*
X102750089Y-120244939D01*
X102750090Y-120244940D01*
X102793472Y-120320080D01*
X102799525Y-120330563D01*
X102803238Y-120334276D01*
X102835332Y-120389863D01*
X102850089Y-120444939D01*
X102850090Y-120444940D01*
X102899525Y-120530563D01*
X102903238Y-120534276D01*
X102935332Y-120589863D01*
X102950089Y-120644939D01*
X102950090Y-120644940D01*
X102999525Y-120730563D01*
X103003237Y-120734275D01*
X103035330Y-120789861D01*
X103050087Y-120844933D01*
X103050088Y-120844937D01*
X103050089Y-120844938D01*
X103099524Y-120930562D01*
X103099525Y-120930563D01*
X103103588Y-120937600D01*
X103102226Y-120938386D01*
X103124069Y-120994881D01*
X103124499Y-121005201D01*
X103124499Y-121049436D01*
X103129859Y-121069438D01*
X103131584Y-121075876D01*
X103150089Y-121144939D01*
X103150090Y-121144940D01*
X103199526Y-121230565D01*
X103204473Y-121237012D01*
X103201792Y-121239068D01*
X103227774Y-121286650D01*
X103222790Y-121356342D01*
X103209710Y-121381899D01*
X103113371Y-121526079D01*
X103113364Y-121526092D01*
X103037950Y-121708160D01*
X103037947Y-121708170D01*
X102999500Y-121901456D01*
X102999500Y-121901458D01*
X102999500Y-121901459D01*
X102999500Y-122098541D01*
X102999500Y-122098543D01*
X102999499Y-122098543D01*
X103037947Y-122291829D01*
X103037950Y-122291839D01*
X103113364Y-122473907D01*
X103113371Y-122473920D01*
X103222860Y-122637781D01*
X103222863Y-122637785D01*
X103362214Y-122777136D01*
X103362218Y-122777139D01*
X103526079Y-122886628D01*
X103526092Y-122886635D01*
X103668265Y-122945524D01*
X103708165Y-122962051D01*
X103708169Y-122962051D01*
X103708170Y-122962052D01*
X103901456Y-123000500D01*
X103901459Y-123000500D01*
X104098543Y-123000500D01*
X104228582Y-122974632D01*
X104291835Y-122962051D01*
X104313702Y-122952992D01*
X104383171Y-122945524D01*
X104445650Y-122976799D01*
X104448835Y-122979872D01*
X120821437Y-139352475D01*
X120907063Y-139401911D01*
X121002564Y-139427500D01*
X121002565Y-139427500D01*
X122885101Y-139427500D01*
X122952140Y-139447185D01*
X122972782Y-139463819D01*
X123305995Y-139797032D01*
X123339480Y-139858355D01*
X123334496Y-139928047D01*
X123292624Y-139983980D01*
X123227160Y-140008397D01*
X123158887Y-139993545D01*
X123145429Y-139985031D01*
X123129202Y-139973242D01*
X123129201Y-139973241D01*
X123129199Y-139973240D01*
X123046110Y-139930904D01*
X122960836Y-139887454D01*
X122781118Y-139829059D01*
X122594486Y-139799500D01*
X122594481Y-139799500D01*
X122405519Y-139799500D01*
X122405514Y-139799500D01*
X122218881Y-139829059D01*
X122039163Y-139887454D01*
X121870800Y-139973240D01*
X121812178Y-140015832D01*
X121717927Y-140084310D01*
X121717925Y-140084312D01*
X121717924Y-140084312D01*
X121584312Y-140217924D01*
X121584312Y-140217925D01*
X121584310Y-140217927D01*
X121536610Y-140283579D01*
X121473240Y-140370800D01*
X121387454Y-140539163D01*
X121347931Y-140660803D01*
X121308493Y-140718478D01*
X121244134Y-140745676D01*
X121175288Y-140733761D01*
X121123812Y-140686516D01*
X121112069Y-140660803D01*
X121101649Y-140628734D01*
X121072547Y-140539168D01*
X121072545Y-140539165D01*
X121072545Y-140539163D01*
X121004537Y-140405691D01*
X120986760Y-140370801D01*
X120875690Y-140217927D01*
X120742073Y-140084310D01*
X120589199Y-139973240D01*
X120420836Y-139887454D01*
X120241118Y-139829059D01*
X120054486Y-139799500D01*
X120054481Y-139799500D01*
X119865519Y-139799500D01*
X119865514Y-139799500D01*
X119678881Y-139829059D01*
X119499163Y-139887454D01*
X119330800Y-139973240D01*
X119272178Y-140015832D01*
X119177927Y-140084310D01*
X119177925Y-140084312D01*
X119177924Y-140084312D01*
X119044312Y-140217924D01*
X119044312Y-140217925D01*
X119044310Y-140217927D01*
X118996610Y-140283579D01*
X118933240Y-140370800D01*
X118847452Y-140539167D01*
X118833953Y-140580714D01*
X118794515Y-140638389D01*
X118730156Y-140665586D01*
X118661310Y-140653670D01*
X118609835Y-140606426D01*
X118598092Y-140580712D01*
X118578418Y-140520164D01*
X118489099Y-140344864D01*
X118489095Y-140344858D01*
X118404166Y-140227964D01*
X118404166Y-140227963D01*
X117863670Y-140768460D01*
X117820099Y-140692993D01*
X117727007Y-140599901D01*
X117651539Y-140556329D01*
X118192035Y-140015833D01*
X118192034Y-140015832D01*
X118075143Y-139930904D01*
X117899835Y-139841581D01*
X117712705Y-139780778D01*
X117518382Y-139750000D01*
X117321618Y-139750000D01*
X117127294Y-139780778D01*
X116940164Y-139841581D01*
X116764855Y-139930905D01*
X116764852Y-139930907D01*
X116647964Y-140015832D01*
X116647963Y-140015832D01*
X117188461Y-140556329D01*
X117112993Y-140599901D01*
X117019901Y-140692993D01*
X116976329Y-140768461D01*
X116435832Y-140227963D01*
X116435832Y-140227964D01*
X116350907Y-140344852D01*
X116350905Y-140344855D01*
X116314985Y-140415353D01*
X116267010Y-140466149D01*
X116199189Y-140482944D01*
X116133054Y-140460407D01*
X116089603Y-140405691D01*
X116080500Y-140359058D01*
X116080500Y-140025323D01*
X116080499Y-140025321D01*
X116065967Y-139952264D01*
X116065966Y-139952260D01*
X116062678Y-139947339D01*
X116010601Y-139869399D01*
X115927740Y-139814034D01*
X115927739Y-139814033D01*
X115927735Y-139814032D01*
X115854677Y-139799500D01*
X115854674Y-139799500D01*
X113905326Y-139799500D01*
X113905323Y-139799500D01*
X113832264Y-139814032D01*
X113832260Y-139814033D01*
X113749399Y-139869399D01*
X113694033Y-139952260D01*
X113694032Y-139952264D01*
X113679500Y-140025321D01*
X113679500Y-141974678D01*
X113694032Y-142047735D01*
X113694033Y-142047739D01*
X113694034Y-142047740D01*
X113749399Y-142130601D01*
X113809772Y-142170940D01*
X113832260Y-142185966D01*
X113832264Y-142185967D01*
X113905321Y-142200499D01*
X113905324Y-142200500D01*
X113905326Y-142200500D01*
X114967770Y-142200500D01*
X115034809Y-142220185D01*
X115055451Y-142236819D01*
X119401586Y-146582954D01*
X119427056Y-146599971D01*
X119465265Y-146625501D01*
X119524505Y-146665084D01*
X119524507Y-146665085D01*
X119524511Y-146665087D01*
X119661082Y-146721656D01*
X119661087Y-146721658D01*
X119661091Y-146721658D01*
X119661092Y-146721659D01*
X119806079Y-146750500D01*
X119806082Y-146750500D01*
X119806083Y-146750500D01*
X119953918Y-146750500D01*
X134213505Y-146750500D01*
X134280544Y-146770185D01*
X134301186Y-146786819D01*
X134330342Y-146815975D01*
X134330345Y-146815977D01*
X134502402Y-146930941D01*
X134693580Y-147010130D01*
X134896530Y-147050499D01*
X134896534Y-147050500D01*
X134896535Y-147050500D01*
X135103466Y-147050500D01*
X135103467Y-147050499D01*
X135306420Y-147010130D01*
X135497598Y-146930941D01*
X135669655Y-146815977D01*
X135698813Y-146786819D01*
X135743795Y-146741838D01*
X135815974Y-146669658D01*
X135815975Y-146669657D01*
X135815977Y-146669655D01*
X135930941Y-146497598D01*
X136010130Y-146306420D01*
X136050500Y-146103465D01*
X136050500Y-145913428D01*
X138900000Y-145913428D01*
X138900000Y-146086571D01*
X138927085Y-146257584D01*
X138980591Y-146422257D01*
X139059198Y-146576528D01*
X139123219Y-146664646D01*
X139123220Y-146664647D01*
X139629533Y-146158334D01*
X139679920Y-146245606D01*
X139754394Y-146320080D01*
X139841665Y-146370465D01*
X139335351Y-146876778D01*
X139335352Y-146876780D01*
X139423471Y-146940801D01*
X139577742Y-147019408D01*
X139742415Y-147072914D01*
X139913429Y-147100000D01*
X140086571Y-147100000D01*
X140257584Y-147072914D01*
X140422257Y-147019408D01*
X140576525Y-146940803D01*
X140664646Y-146876778D01*
X140664647Y-146876778D01*
X140158334Y-146370465D01*
X140245606Y-146320080D01*
X140320080Y-146245606D01*
X140370465Y-146158334D01*
X140876778Y-146664647D01*
X140876778Y-146664646D01*
X140940803Y-146576525D01*
X141019408Y-146422257D01*
X141072914Y-146257584D01*
X141100000Y-146086571D01*
X141100000Y-145913428D01*
X141072914Y-145742415D01*
X141019408Y-145577742D01*
X140940801Y-145423471D01*
X140876780Y-145335352D01*
X140876778Y-145335351D01*
X140370465Y-145841664D01*
X140320080Y-145754394D01*
X140245606Y-145679920D01*
X140158334Y-145629534D01*
X140664647Y-145123220D01*
X140664646Y-145123219D01*
X140576528Y-145059198D01*
X140422257Y-144980591D01*
X140257584Y-144927085D01*
X140086571Y-144900000D01*
X139913429Y-144900000D01*
X139742415Y-144927085D01*
X139577742Y-144980591D01*
X139423478Y-145059194D01*
X139335352Y-145123220D01*
X139841665Y-145629533D01*
X139754394Y-145679920D01*
X139679920Y-145754394D01*
X139629533Y-145841665D01*
X139123220Y-145335352D01*
X139059194Y-145423478D01*
X138980591Y-145577742D01*
X138927085Y-145742415D01*
X138900000Y-145913428D01*
X136050500Y-145913428D01*
X136050500Y-145896535D01*
X136010130Y-145693580D01*
X135930941Y-145502402D01*
X135815977Y-145330345D01*
X135815975Y-145330342D01*
X135669657Y-145184024D01*
X135578655Y-145123219D01*
X135497598Y-145069059D01*
X135306420Y-144989870D01*
X135306412Y-144989868D01*
X135103469Y-144949500D01*
X135103465Y-144949500D01*
X134896535Y-144949500D01*
X134896530Y-144949500D01*
X134693587Y-144989868D01*
X134693579Y-144989870D01*
X134502403Y-145069058D01*
X134330342Y-145184024D01*
X134330341Y-145184025D01*
X134301186Y-145213181D01*
X134239863Y-145246666D01*
X134213505Y-145249500D01*
X120242230Y-145249500D01*
X120175191Y-145229815D01*
X120154549Y-145213181D01*
X117403049Y-142461681D01*
X117369564Y-142400358D01*
X117374548Y-142330666D01*
X117416420Y-142274733D01*
X117481884Y-142250316D01*
X117490730Y-142250000D01*
X117518382Y-142250000D01*
X117712705Y-142219221D01*
X117899835Y-142158418D01*
X118075143Y-142069095D01*
X118192034Y-141984166D01*
X117651538Y-141443670D01*
X117727007Y-141400099D01*
X117820099Y-141307007D01*
X117863670Y-141231539D01*
X118404166Y-141772035D01*
X118404166Y-141772034D01*
X118489095Y-141655143D01*
X118578418Y-141479835D01*
X118598092Y-141419287D01*
X118637529Y-141361612D01*
X118701888Y-141334413D01*
X118770734Y-141346327D01*
X118822210Y-141393571D01*
X118833954Y-141419286D01*
X118847454Y-141460836D01*
X118933240Y-141629199D01*
X119044310Y-141782073D01*
X119177927Y-141915690D01*
X119330801Y-142026760D01*
X119371967Y-142047735D01*
X119499163Y-142112545D01*
X119499165Y-142112545D01*
X119499168Y-142112547D01*
X119595497Y-142143846D01*
X119678881Y-142170940D01*
X119865514Y-142200500D01*
X119865519Y-142200500D01*
X120054486Y-142200500D01*
X120241118Y-142170940D01*
X120420832Y-142112547D01*
X120589199Y-142026760D01*
X120742073Y-141915690D01*
X120875690Y-141782073D01*
X120986760Y-141629199D01*
X121072547Y-141460832D01*
X121112069Y-141339195D01*
X121151507Y-141281521D01*
X121215866Y-141254323D01*
X121284712Y-141266238D01*
X121336188Y-141313482D01*
X121347931Y-141339196D01*
X121387454Y-141460836D01*
X121473240Y-141629199D01*
X121584310Y-141782073D01*
X121717927Y-141915690D01*
X121870801Y-142026760D01*
X121911967Y-142047735D01*
X122039163Y-142112545D01*
X122039165Y-142112545D01*
X122039168Y-142112547D01*
X122135497Y-142143846D01*
X122218881Y-142170940D01*
X122405514Y-142200500D01*
X122405519Y-142200500D01*
X122594486Y-142200500D01*
X122781118Y-142170940D01*
X122960832Y-142112547D01*
X123129199Y-142026760D01*
X123282073Y-141915690D01*
X123415690Y-141782073D01*
X123526760Y-141629199D01*
X123612547Y-141460832D01*
X123652069Y-141339195D01*
X123691507Y-141281521D01*
X123755866Y-141254323D01*
X123824712Y-141266238D01*
X123876188Y-141313482D01*
X123887931Y-141339196D01*
X123927454Y-141460836D01*
X124013240Y-141629199D01*
X124124310Y-141782073D01*
X124257927Y-141915690D01*
X124410801Y-142026760D01*
X124451967Y-142047735D01*
X124579163Y-142112545D01*
X124579165Y-142112545D01*
X124579168Y-142112547D01*
X124675497Y-142143846D01*
X124758881Y-142170940D01*
X124945514Y-142200500D01*
X124945519Y-142200500D01*
X125134486Y-142200500D01*
X125321118Y-142170940D01*
X125500832Y-142112547D01*
X125669199Y-142026760D01*
X125822073Y-141915690D01*
X125955690Y-141782073D01*
X126066760Y-141629199D01*
X126152547Y-141460832D01*
X126192069Y-141339195D01*
X126231507Y-141281521D01*
X126295866Y-141254323D01*
X126364712Y-141266238D01*
X126416188Y-141313482D01*
X126427931Y-141339196D01*
X126467454Y-141460836D01*
X126553240Y-141629199D01*
X126664310Y-141782073D01*
X126797927Y-141915690D01*
X126950801Y-142026760D01*
X126991967Y-142047735D01*
X127119163Y-142112545D01*
X127119165Y-142112545D01*
X127119168Y-142112547D01*
X127215497Y-142143846D01*
X127298881Y-142170940D01*
X127485514Y-142200500D01*
X127485519Y-142200500D01*
X127674486Y-142200500D01*
X127861118Y-142170940D01*
X128040832Y-142112547D01*
X128209199Y-142026760D01*
X128362073Y-141915690D01*
X128495690Y-141782073D01*
X128606760Y-141629199D01*
X128692547Y-141460832D01*
X128732069Y-141339195D01*
X128771507Y-141281521D01*
X128835866Y-141254323D01*
X128904712Y-141266238D01*
X128956188Y-141313482D01*
X128967931Y-141339196D01*
X129007454Y-141460836D01*
X129093240Y-141629199D01*
X129204310Y-141782073D01*
X129337927Y-141915690D01*
X129490801Y-142026760D01*
X129531967Y-142047735D01*
X129659163Y-142112545D01*
X129659165Y-142112545D01*
X129659168Y-142112547D01*
X129755497Y-142143846D01*
X129838881Y-142170940D01*
X130025514Y-142200500D01*
X130025519Y-142200500D01*
X130214486Y-142200500D01*
X130401118Y-142170940D01*
X130580832Y-142112547D01*
X130749199Y-142026760D01*
X130902073Y-141915690D01*
X131035690Y-141782073D01*
X131146760Y-141629199D01*
X131232547Y-141460832D01*
X131290940Y-141281118D01*
X131295184Y-141254323D01*
X131320500Y-141094486D01*
X131320500Y-140905513D01*
X131290940Y-140718881D01*
X131263846Y-140635497D01*
X131232547Y-140539168D01*
X131232545Y-140539165D01*
X131232545Y-140539163D01*
X131164537Y-140405691D01*
X131146760Y-140370801D01*
X131035690Y-140217927D01*
X130902073Y-140084310D01*
X130749199Y-139973240D01*
X130580830Y-139887451D01*
X130576339Y-139885592D01*
X130576768Y-139884556D01*
X130523489Y-139848107D01*
X130496305Y-139783743D01*
X130495500Y-139769635D01*
X130495500Y-139402135D01*
X133949500Y-139402135D01*
X133949500Y-140597870D01*
X133949501Y-140597876D01*
X133955908Y-140657483D01*
X134006202Y-140792328D01*
X134006206Y-140792335D01*
X134092452Y-140907544D01*
X134092455Y-140907547D01*
X134207664Y-140993793D01*
X134207671Y-140993797D01*
X134342517Y-141044091D01*
X134342516Y-141044091D01*
X134349444Y-141044835D01*
X134402127Y-141050500D01*
X135597872Y-141050499D01*
X135657483Y-141044091D01*
X135792331Y-140993796D01*
X135907546Y-140907546D01*
X135993796Y-140792331D01*
X136044091Y-140657483D01*
X136050500Y-140597873D01*
X136050499Y-139913428D01*
X136400000Y-139913428D01*
X136400000Y-140086571D01*
X136427085Y-140257584D01*
X136480591Y-140422257D01*
X136559198Y-140576528D01*
X136623219Y-140664646D01*
X136623220Y-140664647D01*
X137129533Y-140158334D01*
X137179920Y-140245606D01*
X137254394Y-140320080D01*
X137341665Y-140370465D01*
X136835351Y-140876778D01*
X136835352Y-140876780D01*
X136923471Y-140940801D01*
X137077742Y-141019408D01*
X137242415Y-141072914D01*
X137413429Y-141100000D01*
X137586571Y-141100000D01*
X137757584Y-141072914D01*
X137922257Y-141019408D01*
X138076525Y-140940803D01*
X138164646Y-140876778D01*
X138164647Y-140876778D01*
X137658334Y-140370465D01*
X137745606Y-140320080D01*
X137820080Y-140245606D01*
X137870466Y-140158334D01*
X138376778Y-140664647D01*
X138376778Y-140664646D01*
X138440803Y-140576525D01*
X138519408Y-140422257D01*
X138572914Y-140257584D01*
X138600000Y-140086571D01*
X138600000Y-139913428D01*
X138572914Y-139742415D01*
X138519408Y-139577742D01*
X138440801Y-139423471D01*
X138376780Y-139335352D01*
X138376778Y-139335351D01*
X137870465Y-139841664D01*
X137820080Y-139754394D01*
X137745606Y-139679920D01*
X137658334Y-139629534D01*
X138164647Y-139123220D01*
X138164646Y-139123219D01*
X138076528Y-139059198D01*
X137922257Y-138980591D01*
X137757584Y-138927085D01*
X137586571Y-138900000D01*
X137413429Y-138900000D01*
X137242415Y-138927085D01*
X137077742Y-138980591D01*
X136923478Y-139059194D01*
X136835352Y-139123220D01*
X137341665Y-139629533D01*
X137254394Y-139679920D01*
X137179920Y-139754394D01*
X137129534Y-139841665D01*
X136623220Y-139335352D01*
X136559194Y-139423478D01*
X136480591Y-139577742D01*
X136427085Y-139742415D01*
X136400000Y-139913428D01*
X136050499Y-139913428D01*
X136050499Y-139402128D01*
X136044091Y-139342517D01*
X136041419Y-139335352D01*
X135996088Y-139213812D01*
X135993797Y-139207672D01*
X135993797Y-139207671D01*
X135993796Y-139207669D01*
X135993794Y-139207666D01*
X135993793Y-139207664D01*
X135907547Y-139092455D01*
X135907544Y-139092452D01*
X135792335Y-139006206D01*
X135792328Y-139006202D01*
X135657482Y-138955908D01*
X135657483Y-138955908D01*
X135597883Y-138949501D01*
X135597881Y-138949500D01*
X135597873Y-138949500D01*
X135597864Y-138949500D01*
X134402129Y-138949500D01*
X134402123Y-138949501D01*
X134342516Y-138955908D01*
X134207671Y-139006202D01*
X134207664Y-139006206D01*
X134092455Y-139092452D01*
X134092452Y-139092455D01*
X134006206Y-139207664D01*
X134006202Y-139207671D01*
X133955908Y-139342517D01*
X133949523Y-139401909D01*
X133949501Y-139402123D01*
X133949500Y-139402135D01*
X130495500Y-139402135D01*
X130495500Y-138972467D01*
X130495500Y-138972465D01*
X130469910Y-138876962D01*
X130420475Y-138791338D01*
X130350562Y-138721425D01*
X124542565Y-132913428D01*
X126560000Y-132913428D01*
X126560000Y-133086571D01*
X126587085Y-133257584D01*
X126640591Y-133422257D01*
X126719198Y-133576528D01*
X126783219Y-133664646D01*
X126783220Y-133664647D01*
X127289533Y-133158334D01*
X127339920Y-133245606D01*
X127414394Y-133320080D01*
X127501665Y-133370465D01*
X126995351Y-133876778D01*
X126995352Y-133876780D01*
X127083471Y-133940801D01*
X127237742Y-134019408D01*
X127402415Y-134072914D01*
X127573429Y-134100000D01*
X127746571Y-134100000D01*
X127917584Y-134072914D01*
X128082257Y-134019408D01*
X128236525Y-133940803D01*
X128324646Y-133876778D01*
X128324647Y-133876778D01*
X127818334Y-133370465D01*
X127905606Y-133320080D01*
X127980080Y-133245606D01*
X128030465Y-133158334D01*
X128536778Y-133664647D01*
X128536778Y-133664646D01*
X128600803Y-133576525D01*
X128679408Y-133422257D01*
X128732914Y-133257584D01*
X128760000Y-133086571D01*
X128760000Y-132913428D01*
X128732914Y-132742415D01*
X128679408Y-132577742D01*
X128600801Y-132423471D01*
X128536780Y-132335352D01*
X128536778Y-132335351D01*
X128030465Y-132841664D01*
X127980080Y-132754394D01*
X127905606Y-132679920D01*
X127818334Y-132629534D01*
X128324647Y-132123220D01*
X128324646Y-132123219D01*
X128236528Y-132059198D01*
X128082257Y-131980591D01*
X127917584Y-131927085D01*
X127746571Y-131900000D01*
X127573429Y-131900000D01*
X127402415Y-131927085D01*
X127237742Y-131980591D01*
X127083478Y-132059194D01*
X126995352Y-132123220D01*
X127501665Y-132629533D01*
X127414394Y-132679920D01*
X127339920Y-132754394D01*
X127289533Y-132841665D01*
X126783220Y-132335352D01*
X126719194Y-132423478D01*
X126640591Y-132577742D01*
X126587085Y-132742415D01*
X126560000Y-132913428D01*
X124542565Y-132913428D01*
X119542565Y-127913428D01*
X126560000Y-127913428D01*
X126560000Y-128086571D01*
X126587085Y-128257584D01*
X126640591Y-128422257D01*
X126719198Y-128576528D01*
X126783219Y-128664646D01*
X126783220Y-128664647D01*
X127289533Y-128158334D01*
X127339920Y-128245606D01*
X127414394Y-128320080D01*
X127501665Y-128370465D01*
X126995351Y-128876778D01*
X126995352Y-128876780D01*
X127083471Y-128940801D01*
X127237742Y-129019408D01*
X127402415Y-129072914D01*
X127573429Y-129100000D01*
X127746571Y-129100000D01*
X127917584Y-129072914D01*
X128082257Y-129019408D01*
X128236525Y-128940803D01*
X128324646Y-128876778D01*
X128324647Y-128876778D01*
X127818334Y-128370465D01*
X127905606Y-128320080D01*
X127980080Y-128245606D01*
X128030465Y-128158334D01*
X128536778Y-128664647D01*
X128536778Y-128664646D01*
X128600803Y-128576525D01*
X128679408Y-128422257D01*
X128732914Y-128257584D01*
X128745943Y-128175321D01*
X132249500Y-128175321D01*
X132249500Y-131224678D01*
X132264032Y-131297735D01*
X132264033Y-131297739D01*
X132264034Y-131297740D01*
X132319399Y-131380601D01*
X132402260Y-131435966D01*
X132402264Y-131435967D01*
X132475321Y-131450499D01*
X132475324Y-131450500D01*
X132475326Y-131450500D01*
X135524676Y-131450500D01*
X135524677Y-131450499D01*
X135597740Y-131435966D01*
X135680601Y-131380601D01*
X135735966Y-131297740D01*
X135750500Y-131224674D01*
X135750500Y-130574500D01*
X135770185Y-130507461D01*
X135822989Y-130461706D01*
X135874500Y-130450500D01*
X138337770Y-130450500D01*
X138404809Y-130470185D01*
X138425451Y-130486819D01*
X138964010Y-131025377D01*
X138997495Y-131086700D01*
X138998831Y-131095183D01*
X139037947Y-131291829D01*
X139037950Y-131291839D01*
X139113364Y-131473907D01*
X139113371Y-131473920D01*
X139222860Y-131637781D01*
X139222863Y-131637785D01*
X139362214Y-131777136D01*
X139362218Y-131777139D01*
X139526079Y-131886628D01*
X139526092Y-131886635D01*
X139708160Y-131962049D01*
X139708165Y-131962051D01*
X139708169Y-131962051D01*
X139708170Y-131962052D01*
X139901456Y-132000500D01*
X139901459Y-132000500D01*
X140098543Y-132000500D01*
X140228582Y-131974632D01*
X140291835Y-131962051D01*
X140473914Y-131886632D01*
X140637782Y-131777139D01*
X140777139Y-131637782D01*
X140886632Y-131473914D01*
X140962051Y-131291835D01*
X141000500Y-131098541D01*
X141000500Y-130901459D01*
X141000500Y-130901456D01*
X140962052Y-130708170D01*
X140962051Y-130708169D01*
X140962051Y-130708165D01*
X140906686Y-130574500D01*
X140886635Y-130526092D01*
X140886628Y-130526079D01*
X140777139Y-130362218D01*
X140777136Y-130362214D01*
X140637785Y-130222863D01*
X140637781Y-130222860D01*
X140473920Y-130113371D01*
X140473907Y-130113364D01*
X140291839Y-130037950D01*
X140291829Y-130037947D01*
X140092566Y-129998311D01*
X140092923Y-129996513D01*
X140036102Y-129973559D01*
X140025377Y-129964010D01*
X139178421Y-129117052D01*
X139178414Y-129117046D01*
X139078818Y-129050499D01*
X139078817Y-129050499D01*
X139055495Y-129034916D01*
X139055488Y-129034912D01*
X138918917Y-128978343D01*
X138918907Y-128978340D01*
X138773920Y-128949500D01*
X138773918Y-128949500D01*
X135874500Y-128949500D01*
X135807461Y-128929815D01*
X135761706Y-128877011D01*
X135750500Y-128825500D01*
X135750500Y-128175323D01*
X135750499Y-128175321D01*
X135735967Y-128102264D01*
X135735966Y-128102260D01*
X135725483Y-128086571D01*
X135680601Y-128019399D01*
X135597740Y-127964034D01*
X135597739Y-127964033D01*
X135597735Y-127964032D01*
X135524677Y-127949500D01*
X135524674Y-127949500D01*
X132475326Y-127949500D01*
X132475323Y-127949500D01*
X132402264Y-127964032D01*
X132402260Y-127964033D01*
X132319399Y-128019399D01*
X132264033Y-128102260D01*
X132264032Y-128102264D01*
X132249500Y-128175321D01*
X128745943Y-128175321D01*
X128749980Y-128149836D01*
X128760000Y-128086571D01*
X128760000Y-127913428D01*
X128732914Y-127742415D01*
X128679408Y-127577742D01*
X128600801Y-127423471D01*
X128536780Y-127335352D01*
X128536778Y-127335351D01*
X128030465Y-127841664D01*
X127980080Y-127754394D01*
X127905606Y-127679920D01*
X127818334Y-127629534D01*
X128324647Y-127123220D01*
X128324646Y-127123219D01*
X128236528Y-127059198D01*
X128082257Y-126980591D01*
X127917584Y-126927085D01*
X127746571Y-126900000D01*
X127573429Y-126900000D01*
X127402415Y-126927085D01*
X127237742Y-126980591D01*
X127083478Y-127059194D01*
X126995352Y-127123220D01*
X127501665Y-127629533D01*
X127414394Y-127679920D01*
X127339920Y-127754394D01*
X127289533Y-127841665D01*
X126783220Y-127335352D01*
X126719194Y-127423478D01*
X126640591Y-127577742D01*
X126587085Y-127742415D01*
X126560000Y-127913428D01*
X119542565Y-127913428D01*
X116514395Y-124885258D01*
X132249500Y-124885258D01*
X132249500Y-125114741D01*
X132274446Y-125304215D01*
X132279452Y-125342238D01*
X132279453Y-125342240D01*
X132338842Y-125563887D01*
X132426650Y-125775876D01*
X132426657Y-125775890D01*
X132541392Y-125974617D01*
X132681081Y-126156661D01*
X132681089Y-126156670D01*
X132843330Y-126318911D01*
X132843338Y-126318918D01*
X133025382Y-126458607D01*
X133025385Y-126458608D01*
X133025388Y-126458611D01*
X133224112Y-126573344D01*
X133224117Y-126573346D01*
X133224123Y-126573349D01*
X133315480Y-126611190D01*
X133436113Y-126661158D01*
X133657762Y-126720548D01*
X133885266Y-126750500D01*
X133885273Y-126750500D01*
X134114727Y-126750500D01*
X134114734Y-126750500D01*
X134342238Y-126720548D01*
X134563887Y-126661158D01*
X134775888Y-126573344D01*
X134974612Y-126458611D01*
X135156661Y-126318919D01*
X135156665Y-126318914D01*
X135156670Y-126318911D01*
X135318911Y-126156670D01*
X135318914Y-126156665D01*
X135318919Y-126156661D01*
X135458611Y-125974612D01*
X135573344Y-125775888D01*
X135661158Y-125563887D01*
X135720548Y-125342238D01*
X135750500Y-125114734D01*
X135750500Y-124885266D01*
X135720548Y-124657762D01*
X135661158Y-124436113D01*
X135573344Y-124224112D01*
X135458611Y-124025388D01*
X135458608Y-124025385D01*
X135458607Y-124025382D01*
X135318918Y-123843338D01*
X135318911Y-123843330D01*
X135156670Y-123681089D01*
X135156661Y-123681081D01*
X134974617Y-123541392D01*
X134775890Y-123426657D01*
X134775876Y-123426650D01*
X134563887Y-123338842D01*
X134342238Y-123279452D01*
X134304215Y-123274446D01*
X134114741Y-123249500D01*
X134114734Y-123249500D01*
X133885266Y-123249500D01*
X133885258Y-123249500D01*
X133668715Y-123278009D01*
X133657762Y-123279452D01*
X133564076Y-123304554D01*
X133436112Y-123338842D01*
X133224123Y-123426650D01*
X133224109Y-123426657D01*
X133025382Y-123541392D01*
X132843338Y-123681081D01*
X132681081Y-123843338D01*
X132541392Y-124025382D01*
X132426657Y-124224109D01*
X132426650Y-124224123D01*
X132338842Y-124436112D01*
X132279453Y-124657759D01*
X132279451Y-124657770D01*
X132249500Y-124885258D01*
X116514395Y-124885258D01*
X111525667Y-119896530D01*
X116449500Y-119896530D01*
X116449500Y-120103469D01*
X116489868Y-120306412D01*
X116489870Y-120306420D01*
X116537851Y-120422257D01*
X116569059Y-120497598D01*
X116593566Y-120534276D01*
X116684024Y-120669657D01*
X116830342Y-120815975D01*
X116830345Y-120815977D01*
X117002402Y-120930941D01*
X117193580Y-121010130D01*
X117391181Y-121049435D01*
X117396530Y-121050499D01*
X117396534Y-121050500D01*
X117396535Y-121050500D01*
X117603466Y-121050500D01*
X117603467Y-121050499D01*
X117806420Y-121010130D01*
X117997598Y-120930941D01*
X118169655Y-120815977D01*
X118195771Y-120789861D01*
X118243795Y-120741838D01*
X118315974Y-120669658D01*
X118315975Y-120669657D01*
X118315977Y-120669655D01*
X118430941Y-120497598D01*
X118449809Y-120452047D01*
X118493650Y-120397644D01*
X118559944Y-120375579D01*
X118564370Y-120375500D01*
X122709435Y-120375500D01*
X122709436Y-120375500D01*
X122757186Y-120362705D01*
X122804938Y-120349910D01*
X122890562Y-120300475D01*
X122960475Y-120230562D01*
X122960474Y-120230562D01*
X123019043Y-120171993D01*
X123019042Y-120171993D01*
X123277607Y-119913428D01*
X126560000Y-119913428D01*
X126560000Y-120086571D01*
X126587085Y-120257584D01*
X126640591Y-120422257D01*
X126719198Y-120576528D01*
X126783219Y-120664646D01*
X126783220Y-120664647D01*
X127289533Y-120158334D01*
X127339920Y-120245606D01*
X127414394Y-120320080D01*
X127501665Y-120370465D01*
X126995351Y-120876778D01*
X126995352Y-120876780D01*
X127083471Y-120940801D01*
X127237742Y-121019408D01*
X127402415Y-121072914D01*
X127573429Y-121100000D01*
X127746571Y-121100000D01*
X127917584Y-121072914D01*
X128082257Y-121019408D01*
X128236525Y-120940803D01*
X128324646Y-120876778D01*
X128324647Y-120876778D01*
X127818334Y-120370465D01*
X127905606Y-120320080D01*
X127980080Y-120245606D01*
X128030465Y-120158334D01*
X128536778Y-120664647D01*
X128536778Y-120664646D01*
X128600803Y-120576525D01*
X128679408Y-120422257D01*
X128732914Y-120257584D01*
X128732914Y-120257583D01*
X128744369Y-120185258D01*
X132249500Y-120185258D01*
X132249500Y-120414741D01*
X132270801Y-120576528D01*
X132279452Y-120642238D01*
X132315159Y-120775500D01*
X132338842Y-120863887D01*
X132426650Y-121075876D01*
X132426657Y-121075890D01*
X132541392Y-121274617D01*
X132681081Y-121456661D01*
X132681089Y-121456670D01*
X132843330Y-121618911D01*
X132843338Y-121618918D01*
X133025382Y-121758607D01*
X133025385Y-121758608D01*
X133025388Y-121758611D01*
X133224112Y-121873344D01*
X133224117Y-121873346D01*
X133224123Y-121873349D01*
X133291980Y-121901456D01*
X133436113Y-121961158D01*
X133657762Y-122020548D01*
X133885266Y-122050500D01*
X133885273Y-122050500D01*
X134114727Y-122050500D01*
X134114734Y-122050500D01*
X134342238Y-122020548D01*
X134563887Y-121961158D01*
X134775888Y-121873344D01*
X134974612Y-121758611D01*
X135156661Y-121618919D01*
X135156665Y-121618914D01*
X135156670Y-121618911D01*
X135318911Y-121456670D01*
X135318914Y-121456665D01*
X135318919Y-121456661D01*
X135458611Y-121274612D01*
X135573344Y-121075888D01*
X135661158Y-120863887D01*
X135720548Y-120642238D01*
X135750500Y-120414734D01*
X135750500Y-120185266D01*
X135720548Y-119957762D01*
X135661158Y-119736113D01*
X135584900Y-119552011D01*
X135573346Y-119524116D01*
X135573342Y-119524109D01*
X135560810Y-119502403D01*
X135458611Y-119325388D01*
X135458608Y-119325385D01*
X135458607Y-119325382D01*
X135350137Y-119184023D01*
X135318919Y-119143339D01*
X135318918Y-119143338D01*
X135318911Y-119143330D01*
X135156670Y-118981089D01*
X135156661Y-118981081D01*
X134974617Y-118841392D01*
X134775890Y-118726657D01*
X134775876Y-118726650D01*
X134563887Y-118638842D01*
X134559931Y-118637782D01*
X134342238Y-118579452D01*
X134304215Y-118574446D01*
X134114741Y-118549500D01*
X134114734Y-118549500D01*
X133885266Y-118549500D01*
X133885258Y-118549500D01*
X133668715Y-118578009D01*
X133657762Y-118579452D01*
X133564076Y-118604554D01*
X133436112Y-118638842D01*
X133224123Y-118726650D01*
X133224109Y-118726657D01*
X133025382Y-118841392D01*
X132843338Y-118981081D01*
X132681081Y-119143338D01*
X132541392Y-119325382D01*
X132426657Y-119524109D01*
X132426654Y-119524116D01*
X132338842Y-119736112D01*
X132279453Y-119957759D01*
X132279451Y-119957770D01*
X132249500Y-120185258D01*
X128744369Y-120185258D01*
X128748083Y-120161810D01*
X128748083Y-120161808D01*
X128760000Y-120086569D01*
X128760000Y-119913428D01*
X128732914Y-119742415D01*
X128679408Y-119577742D01*
X128600801Y-119423471D01*
X128536780Y-119335352D01*
X128536778Y-119335351D01*
X128030465Y-119841664D01*
X127980080Y-119754394D01*
X127905606Y-119679920D01*
X127818334Y-119629534D01*
X128324647Y-119123220D01*
X128324646Y-119123219D01*
X128236528Y-119059198D01*
X128082257Y-118980591D01*
X127917584Y-118927085D01*
X127746571Y-118900000D01*
X127573429Y-118900000D01*
X127402415Y-118927085D01*
X127237742Y-118980591D01*
X127083478Y-119059194D01*
X126995352Y-119123220D01*
X127501665Y-119629533D01*
X127414394Y-119679920D01*
X127339920Y-119754394D01*
X127289533Y-119841665D01*
X126783220Y-119335352D01*
X126719194Y-119423478D01*
X126640591Y-119577742D01*
X126587085Y-119742415D01*
X126560000Y-119913428D01*
X123277607Y-119913428D01*
X127172897Y-116018139D01*
X127234218Y-115984656D01*
X127303910Y-115989640D01*
X127307989Y-115991245D01*
X127353580Y-116010130D01*
X127556530Y-116050499D01*
X127556534Y-116050500D01*
X127556535Y-116050500D01*
X127763466Y-116050500D01*
X127763467Y-116050499D01*
X127966420Y-116010130D01*
X128157598Y-115930941D01*
X128329655Y-115815977D01*
X128475977Y-115669655D01*
X128590941Y-115497598D01*
X128670130Y-115306420D01*
X128710500Y-115103465D01*
X128710500Y-114896535D01*
X128670130Y-114693580D01*
X128658590Y-114665719D01*
X128650529Y-114646258D01*
X128632253Y-114602135D01*
X134874500Y-114602135D01*
X134874500Y-115397870D01*
X134874501Y-115397876D01*
X134880908Y-115457483D01*
X134931202Y-115592328D01*
X134931206Y-115592335D01*
X135017452Y-115707544D01*
X135017455Y-115707547D01*
X135132664Y-115793793D01*
X135132671Y-115793797D01*
X135267517Y-115844091D01*
X135267516Y-115844091D01*
X135274444Y-115844835D01*
X135327127Y-115850500D01*
X136672872Y-115850499D01*
X136732483Y-115844091D01*
X136867331Y-115793796D01*
X136982546Y-115707546D01*
X137068796Y-115592331D01*
X137119091Y-115457483D01*
X137125500Y-115397873D01*
X137125499Y-114602128D01*
X137119091Y-114542517D01*
X137104129Y-114502403D01*
X137068797Y-114407671D01*
X137068793Y-114407664D01*
X136982547Y-114292455D01*
X136982544Y-114292452D01*
X136867335Y-114206206D01*
X136867328Y-114206202D01*
X136732482Y-114155908D01*
X136732483Y-114155908D01*
X136672883Y-114149501D01*
X136672881Y-114149500D01*
X136672873Y-114149500D01*
X136672864Y-114149500D01*
X135327129Y-114149500D01*
X135327123Y-114149501D01*
X135267516Y-114155908D01*
X135132671Y-114206202D01*
X135132664Y-114206206D01*
X135017455Y-114292452D01*
X135017452Y-114292455D01*
X134931206Y-114407664D01*
X134931202Y-114407671D01*
X134880908Y-114542517D01*
X134874501Y-114602116D01*
X134874501Y-114602123D01*
X134874500Y-114602135D01*
X128632253Y-114602135D01*
X128590942Y-114502403D01*
X128475975Y-114330342D01*
X128329657Y-114184024D01*
X128201721Y-114098541D01*
X128157598Y-114069059D01*
X127966420Y-113989870D01*
X127966412Y-113989868D01*
X127763469Y-113949500D01*
X127763465Y-113949500D01*
X127556535Y-113949500D01*
X127556530Y-113949500D01*
X127353587Y-113989868D01*
X127353579Y-113989870D01*
X127162403Y-114069058D01*
X126990342Y-114184024D01*
X126844024Y-114330342D01*
X126729058Y-114502403D01*
X126649870Y-114693579D01*
X126649868Y-114693587D01*
X126609500Y-114896530D01*
X126609500Y-115103469D01*
X126649868Y-115306412D01*
X126649871Y-115306424D01*
X126668737Y-115351970D01*
X126676206Y-115421439D01*
X126644931Y-115483918D01*
X126641857Y-115487103D01*
X122540782Y-119588181D01*
X122479459Y-119621666D01*
X122453101Y-119624500D01*
X118564370Y-119624500D01*
X118497331Y-119604815D01*
X118451576Y-119552011D01*
X118449809Y-119547953D01*
X118439935Y-119524116D01*
X118430941Y-119502402D01*
X118315977Y-119330345D01*
X118315975Y-119330342D01*
X118169657Y-119184024D01*
X118018160Y-119082798D01*
X117997598Y-119069059D01*
X117952947Y-119050564D01*
X117806420Y-118989870D01*
X117806412Y-118989868D01*
X117603469Y-118949500D01*
X117603465Y-118949500D01*
X117396535Y-118949500D01*
X117396530Y-118949500D01*
X117193587Y-118989868D01*
X117193579Y-118989870D01*
X117002403Y-119069058D01*
X116830342Y-119184024D01*
X116684024Y-119330342D01*
X116569058Y-119502403D01*
X116489870Y-119693579D01*
X116489868Y-119693587D01*
X116449500Y-119896530D01*
X111525667Y-119896530D01*
X109328663Y-117699526D01*
X109328662Y-117699525D01*
X109243038Y-117650090D01*
X109195286Y-117637295D01*
X109195284Y-117637294D01*
X109195282Y-117637293D01*
X109147536Y-117624500D01*
X109147535Y-117624500D01*
X105010250Y-117624500D01*
X104943211Y-117604815D01*
X104897456Y-117552011D01*
X104895702Y-117547983D01*
X104886632Y-117526086D01*
X104886628Y-117526080D01*
X104777139Y-117362217D01*
X104637785Y-117222863D01*
X104637781Y-117222860D01*
X104473920Y-117113371D01*
X104473907Y-117113364D01*
X104291839Y-117037950D01*
X104291829Y-117037947D01*
X104098543Y-116999500D01*
X104098541Y-116999500D01*
X103901459Y-116999500D01*
X103901457Y-116999500D01*
X103708170Y-117037947D01*
X103708160Y-117037950D01*
X103526092Y-117113364D01*
X103526081Y-117113370D01*
X103476890Y-117146239D01*
X103410213Y-117167116D01*
X103342833Y-117148631D01*
X103296143Y-117096652D01*
X103284000Y-117043136D01*
X103284000Y-115298398D01*
X103303685Y-115231359D01*
X103320315Y-115210721D01*
X103551165Y-114979870D01*
X103612486Y-114946387D01*
X103682177Y-114951371D01*
X103686243Y-114952970D01*
X103708165Y-114962051D01*
X103708169Y-114962051D01*
X103708170Y-114962052D01*
X103901456Y-115000500D01*
X103901459Y-115000500D01*
X104098543Y-115000500D01*
X104228582Y-114974632D01*
X104291835Y-114962051D01*
X104450018Y-114896530D01*
X116449500Y-114896530D01*
X116449500Y-115103469D01*
X116489868Y-115306412D01*
X116489870Y-115306420D01*
X116569058Y-115497596D01*
X116684024Y-115669657D01*
X116830342Y-115815975D01*
X116830345Y-115815977D01*
X117002402Y-115930941D01*
X117193580Y-116010130D01*
X117396530Y-116050499D01*
X117396534Y-116050500D01*
X117396535Y-116050500D01*
X117603466Y-116050500D01*
X117603467Y-116050499D01*
X117806420Y-116010130D01*
X117997598Y-115930941D01*
X118169655Y-115815977D01*
X118315977Y-115669655D01*
X118430941Y-115497598D01*
X118510130Y-115306420D01*
X118550500Y-115103465D01*
X118550500Y-114896535D01*
X118510130Y-114693580D01*
X118430941Y-114502402D01*
X118315977Y-114330345D01*
X118315975Y-114330342D01*
X118169657Y-114184024D01*
X118041721Y-114098541D01*
X117997598Y-114069059D01*
X117806420Y-113989870D01*
X117806412Y-113989868D01*
X117603469Y-113949500D01*
X117603465Y-113949500D01*
X117396535Y-113949500D01*
X117396530Y-113949500D01*
X117193587Y-113989868D01*
X117193579Y-113989870D01*
X117002403Y-114069058D01*
X116830342Y-114184024D01*
X116684024Y-114330342D01*
X116569058Y-114502403D01*
X116489870Y-114693579D01*
X116489868Y-114693587D01*
X116449500Y-114896530D01*
X104450018Y-114896530D01*
X104473914Y-114886632D01*
X104637782Y-114777139D01*
X104777139Y-114637782D01*
X104886632Y-114473914D01*
X104962051Y-114291835D01*
X104983496Y-114184024D01*
X105000500Y-114098543D01*
X105000500Y-113901456D01*
X104962052Y-113708170D01*
X104962051Y-113708169D01*
X104962051Y-113708165D01*
X104958285Y-113699073D01*
X104886635Y-113526092D01*
X104886628Y-113526079D01*
X104781264Y-113368391D01*
X104760386Y-113301713D01*
X104778871Y-113234333D01*
X104830849Y-113187643D01*
X104884366Y-113175500D01*
X108249434Y-113175500D01*
X108249435Y-113175500D01*
X108297185Y-113162705D01*
X108344937Y-113149910D01*
X108430561Y-113100475D01*
X108500474Y-113030562D01*
X108681037Y-112849999D01*
X134837204Y-112849999D01*
X134837205Y-112850000D01*
X135653590Y-112850000D01*
X135650556Y-112855255D01*
X135625000Y-112950630D01*
X135625000Y-113049370D01*
X135650556Y-113144745D01*
X135653590Y-113150000D01*
X134837204Y-113150000D01*
X134859584Y-113262512D01*
X134859587Y-113262522D01*
X134927428Y-113426307D01*
X134927433Y-113426316D01*
X135025923Y-113573716D01*
X135025926Y-113573720D01*
X135151279Y-113699073D01*
X135151283Y-113699076D01*
X135298683Y-113797566D01*
X135298692Y-113797571D01*
X135462479Y-113865413D01*
X135462487Y-113865415D01*
X135636353Y-113899999D01*
X135636357Y-113900000D01*
X135850000Y-113900000D01*
X135850000Y-113346410D01*
X135855255Y-113349444D01*
X135950630Y-113375000D01*
X136049370Y-113375000D01*
X136144745Y-113349444D01*
X136150000Y-113346410D01*
X136150000Y-113900000D01*
X136363643Y-113900000D01*
X136363646Y-113899999D01*
X136537512Y-113865415D01*
X136537520Y-113865413D01*
X136701307Y-113797571D01*
X136701316Y-113797566D01*
X136848716Y-113699076D01*
X136848720Y-113699073D01*
X136974073Y-113573720D01*
X136974076Y-113573716D01*
X137072566Y-113426316D01*
X137072571Y-113426307D01*
X137140412Y-113262522D01*
X137140415Y-113262512D01*
X137162795Y-113150000D01*
X136346410Y-113150000D01*
X136349444Y-113144745D01*
X136375000Y-113049370D01*
X136375000Y-112950630D01*
X136349444Y-112855255D01*
X136346410Y-112850000D01*
X137162795Y-112850000D01*
X137162795Y-112849999D01*
X137140415Y-112737487D01*
X137140412Y-112737477D01*
X137072571Y-112573692D01*
X137072566Y-112573683D01*
X136974076Y-112426283D01*
X136974073Y-112426279D01*
X136848720Y-112300926D01*
X136848716Y-112300923D01*
X136701316Y-112202433D01*
X136701307Y-112202428D01*
X136537520Y-112134586D01*
X136537512Y-112134584D01*
X136363646Y-112100000D01*
X136150000Y-112100000D01*
X136150000Y-112653589D01*
X136144745Y-112650556D01*
X136049370Y-112625000D01*
X135950630Y-112625000D01*
X135855255Y-112650556D01*
X135850000Y-112653589D01*
X135850000Y-112100000D01*
X135636353Y-112100000D01*
X135462487Y-112134584D01*
X135462479Y-112134586D01*
X135298692Y-112202428D01*
X135298683Y-112202433D01*
X135151283Y-112300923D01*
X135151279Y-112300926D01*
X135025926Y-112426279D01*
X135025923Y-112426283D01*
X134927433Y-112573683D01*
X134927428Y-112573692D01*
X134859587Y-112737477D01*
X134859584Y-112737487D01*
X134837204Y-112849999D01*
X108681037Y-112849999D01*
X110800473Y-110730563D01*
X110800474Y-110730562D01*
X110849909Y-110644938D01*
X110875499Y-110549435D01*
X110875499Y-103450565D01*
X110849909Y-103355062D01*
X110800474Y-103269438D01*
X110730561Y-103199525D01*
X110644937Y-103150090D01*
X110549434Y-103124500D01*
X110549432Y-103124500D01*
X108106898Y-103124500D01*
X108039859Y-103104815D01*
X108019217Y-103088181D01*
X104827566Y-99896530D01*
X105949500Y-99896530D01*
X105949500Y-100103469D01*
X105989868Y-100306412D01*
X105989870Y-100306420D01*
X106069058Y-100497596D01*
X106184024Y-100669657D01*
X106330342Y-100815975D01*
X106330345Y-100815977D01*
X106502402Y-100930941D01*
X106693580Y-101010130D01*
X106896530Y-101050499D01*
X106896534Y-101050500D01*
X106896535Y-101050500D01*
X107103466Y-101050500D01*
X107103467Y-101050499D01*
X107306420Y-101010130D01*
X107497598Y-100930941D01*
X107529765Y-100909448D01*
X121349500Y-100909448D01*
X121349500Y-101090551D01*
X121377829Y-101269410D01*
X121433787Y-101441636D01*
X121433788Y-101441639D01*
X121516006Y-101602997D01*
X121622441Y-101749494D01*
X121622445Y-101749499D01*
X121750500Y-101877554D01*
X121750505Y-101877558D01*
X121878287Y-101970396D01*
X121897006Y-101983996D01*
X122002484Y-102037740D01*
X122058360Y-102066211D01*
X122058363Y-102066212D01*
X122144476Y-102094191D01*
X122230591Y-102122171D01*
X122313429Y-102135291D01*
X122409449Y-102150500D01*
X122409454Y-102150500D01*
X122590551Y-102150500D01*
X122677259Y-102136765D01*
X122769409Y-102122171D01*
X122941639Y-102066211D01*
X123102994Y-101983996D01*
X123249501Y-101877553D01*
X123377553Y-101749501D01*
X123483996Y-101602994D01*
X123566211Y-101441639D01*
X123622171Y-101269409D01*
X123636765Y-101177259D01*
X123650500Y-101090551D01*
X123650500Y-100909448D01*
X123634019Y-100805397D01*
X123622171Y-100730591D01*
X123566211Y-100558361D01*
X123566211Y-100558360D01*
X123537740Y-100502484D01*
X123483996Y-100397006D01*
X123418176Y-100306412D01*
X123377558Y-100250505D01*
X123377554Y-100250500D01*
X123249499Y-100122445D01*
X123249494Y-100122441D01*
X123102997Y-100016006D01*
X123102996Y-100016005D01*
X123102994Y-100016004D01*
X123051300Y-99989664D01*
X122941639Y-99933788D01*
X122941636Y-99933787D01*
X122769410Y-99877829D01*
X122590551Y-99849500D01*
X122590546Y-99849500D01*
X122409454Y-99849500D01*
X122409449Y-99849500D01*
X122230589Y-99877829D01*
X122058363Y-99933787D01*
X122058360Y-99933788D01*
X121897002Y-100016006D01*
X121750505Y-100122441D01*
X121750500Y-100122445D01*
X121622445Y-100250500D01*
X121622441Y-100250505D01*
X121516006Y-100397002D01*
X121433788Y-100558360D01*
X121433787Y-100558363D01*
X121377829Y-100730589D01*
X121349500Y-100909448D01*
X107529765Y-100909448D01*
X107669655Y-100815977D01*
X107815977Y-100669655D01*
X107930941Y-100497598D01*
X108010130Y-100306420D01*
X108050500Y-100103465D01*
X108050500Y-99896535D01*
X108010130Y-99693580D01*
X107991223Y-99647937D01*
X107983754Y-99578469D01*
X108015028Y-99515989D01*
X108018067Y-99512838D01*
X108274236Y-99256625D01*
X108335557Y-99223136D01*
X108361925Y-99220300D01*
X114110901Y-99220300D01*
X114177940Y-99239985D01*
X114198582Y-99256619D01*
X114207293Y-99265330D01*
X114207332Y-99265403D01*
X114207349Y-99265387D01*
X114233758Y-99291829D01*
X114242244Y-99300326D01*
X114242252Y-99300330D01*
X114242381Y-99300430D01*
X114242431Y-99300469D01*
X114242435Y-99300472D01*
X114242438Y-99300475D01*
X114242440Y-99300476D01*
X114285430Y-99325296D01*
X114285501Y-99325337D01*
X114327834Y-99349815D01*
X114327835Y-99349815D01*
X114327838Y-99349817D01*
X114327840Y-99349817D01*
X114327917Y-99349849D01*
X114328058Y-99349908D01*
X114328062Y-99349910D01*
X114328065Y-99349910D01*
X114328068Y-99349912D01*
X114375402Y-99362594D01*
X114375476Y-99362639D01*
X114375483Y-99362616D01*
X114403258Y-99370077D01*
X114423322Y-99375468D01*
X114423326Y-99375468D01*
X114423369Y-99375474D01*
X114423492Y-99375490D01*
X114423562Y-99375499D01*
X114423565Y-99375500D01*
X114423568Y-99375500D01*
X114472758Y-99375500D01*
X114522194Y-99375532D01*
X114522194Y-99375531D01*
X114530304Y-99375537D01*
X114530301Y-99379507D01*
X114580635Y-99386239D01*
X114633887Y-99431471D01*
X114640722Y-99443240D01*
X114706021Y-99571397D01*
X114708768Y-99576788D01*
X114810586Y-99716928D01*
X114933072Y-99839414D01*
X115073212Y-99941232D01*
X115227555Y-100019873D01*
X115392299Y-100073402D01*
X115563389Y-100100500D01*
X115563390Y-100100500D01*
X116936610Y-100100500D01*
X116936611Y-100100500D01*
X117107701Y-100073402D01*
X117272445Y-100019873D01*
X117426788Y-99941232D01*
X117566928Y-99839414D01*
X117689414Y-99716928D01*
X117791232Y-99576788D01*
X117829133Y-99502402D01*
X117859295Y-99443206D01*
X117907269Y-99392409D01*
X117969780Y-99375500D01*
X127030220Y-99375500D01*
X127097259Y-99395185D01*
X127140705Y-99443206D01*
X127208766Y-99576786D01*
X127209989Y-99578469D01*
X127310586Y-99716928D01*
X127433072Y-99839414D01*
X127573212Y-99941232D01*
X127727555Y-100019873D01*
X127892299Y-100073402D01*
X128063389Y-100100500D01*
X128063390Y-100100500D01*
X129436610Y-100100500D01*
X129436611Y-100100500D01*
X129607701Y-100073402D01*
X129772445Y-100019873D01*
X129926788Y-99941232D01*
X130066928Y-99839414D01*
X130189414Y-99716928D01*
X130291232Y-99576788D01*
X130329133Y-99502402D01*
X130359295Y-99443206D01*
X130407269Y-99392409D01*
X130469780Y-99375500D01*
X135989750Y-99375500D01*
X136056789Y-99395185D01*
X136102544Y-99447989D01*
X136104297Y-99452016D01*
X136111558Y-99469546D01*
X136113367Y-99473912D01*
X136113371Y-99473919D01*
X136222860Y-99637782D01*
X136362214Y-99777136D01*
X136362218Y-99777139D01*
X136526079Y-99886628D01*
X136526092Y-99886635D01*
X136657903Y-99941232D01*
X136708165Y-99962051D01*
X136708169Y-99962051D01*
X136708170Y-99962052D01*
X136901456Y-100000500D01*
X136901459Y-100000500D01*
X137098543Y-100000500D01*
X137228582Y-99974632D01*
X137291835Y-99962051D01*
X137473914Y-99886632D01*
X137637782Y-99777139D01*
X137777139Y-99637782D01*
X137886632Y-99473914D01*
X137899338Y-99443240D01*
X137948191Y-99325296D01*
X137962051Y-99291835D01*
X137983496Y-99184024D01*
X138000500Y-99098543D01*
X138000500Y-98901456D01*
X137962052Y-98708170D01*
X137962051Y-98708169D01*
X137962051Y-98708165D01*
X137927396Y-98624500D01*
X137886635Y-98526092D01*
X137886628Y-98526079D01*
X137777139Y-98362218D01*
X137777136Y-98362214D01*
X137637785Y-98222863D01*
X137637781Y-98222860D01*
X137473920Y-98113371D01*
X137473907Y-98113364D01*
X137291839Y-98037950D01*
X137291829Y-98037947D01*
X137098543Y-97999500D01*
X137098541Y-97999500D01*
X136901459Y-97999500D01*
X136901457Y-97999500D01*
X136708170Y-98037947D01*
X136708160Y-98037950D01*
X136526092Y-98113364D01*
X136526079Y-98113371D01*
X136362218Y-98222860D01*
X136362214Y-98222863D01*
X136222860Y-98362217D01*
X136113371Y-98526080D01*
X136113367Y-98526087D01*
X136109201Y-98536144D01*
X136104310Y-98547952D01*
X136060471Y-98602355D01*
X135994177Y-98624421D01*
X135989750Y-98624500D01*
X130469780Y-98624500D01*
X130402741Y-98604815D01*
X130359295Y-98556794D01*
X130291233Y-98423213D01*
X130246914Y-98362214D01*
X130189414Y-98283072D01*
X130066928Y-98160586D01*
X129926788Y-98058768D01*
X129772445Y-97980127D01*
X129607701Y-97926598D01*
X129607699Y-97926597D01*
X129607698Y-97926597D01*
X129476271Y-97905781D01*
X129436611Y-97899500D01*
X128063389Y-97899500D01*
X128023728Y-97905781D01*
X127892302Y-97926597D01*
X127727552Y-97980128D01*
X127573211Y-98058768D01*
X127498067Y-98113364D01*
X127433072Y-98160586D01*
X127433070Y-98160588D01*
X127433069Y-98160588D01*
X127310588Y-98283069D01*
X127310588Y-98283070D01*
X127310586Y-98283072D01*
X127279996Y-98325174D01*
X127208766Y-98423213D01*
X127140705Y-98556794D01*
X127092731Y-98607591D01*
X127030220Y-98624500D01*
X117969780Y-98624500D01*
X117902741Y-98604815D01*
X117859295Y-98556794D01*
X117791233Y-98423213D01*
X117746914Y-98362214D01*
X117689414Y-98283072D01*
X117566928Y-98160586D01*
X117426788Y-98058768D01*
X117272445Y-97980127D01*
X117107701Y-97926598D01*
X117107699Y-97926597D01*
X117107698Y-97926597D01*
X116976271Y-97905781D01*
X116936611Y-97899500D01*
X115563389Y-97899500D01*
X115523728Y-97905781D01*
X115392302Y-97926597D01*
X115227552Y-97980128D01*
X115073211Y-98058768D01*
X114998067Y-98113364D01*
X114933072Y-98160586D01*
X114933070Y-98160588D01*
X114933069Y-98160588D01*
X114810588Y-98283069D01*
X114810588Y-98283070D01*
X114810586Y-98283072D01*
X114759677Y-98353142D01*
X114708766Y-98423214D01*
X114683990Y-98471839D01*
X114636015Y-98522635D01*
X114568194Y-98539429D01*
X114511514Y-98522935D01*
X114509469Y-98521754D01*
X114505907Y-98519698D01*
X114505838Y-98519658D01*
X114463155Y-98494978D01*
X114462953Y-98494894D01*
X114459773Y-98494042D01*
X114415710Y-98482235D01*
X114415709Y-98482234D01*
X114415711Y-98482224D01*
X114415633Y-98482214D01*
X114367663Y-98469327D01*
X114367454Y-98469300D01*
X114367435Y-98469300D01*
X114318242Y-98469300D01*
X114268806Y-98469268D01*
X114268805Y-98469268D01*
X114261058Y-98469263D01*
X114260493Y-98469300D01*
X108212524Y-98469300D01*
X108212447Y-98469295D01*
X108154981Y-98469299D01*
X108154967Y-98469300D01*
X108105565Y-98469300D01*
X108105550Y-98469303D01*
X108105531Y-98469304D01*
X108053278Y-98483310D01*
X108010062Y-98494890D01*
X108010048Y-98494897D01*
X108010033Y-98494902D01*
X107970039Y-98517996D01*
X107924438Y-98544325D01*
X107924425Y-98544337D01*
X107924411Y-98544346D01*
X107919454Y-98549303D01*
X107919453Y-98549304D01*
X107891216Y-98577547D01*
X107891208Y-98577555D01*
X107849873Y-98618889D01*
X107849815Y-98618952D01*
X107487019Y-98981812D01*
X107425699Y-99015302D01*
X107356007Y-99010324D01*
X107351878Y-99008699D01*
X107306421Y-98989870D01*
X107306412Y-98989867D01*
X107103469Y-98949500D01*
X107103465Y-98949500D01*
X106896535Y-98949500D01*
X106896530Y-98949500D01*
X106693587Y-98989868D01*
X106693579Y-98989870D01*
X106502403Y-99069058D01*
X106330342Y-99184024D01*
X106184024Y-99330342D01*
X106069058Y-99502403D01*
X105989870Y-99693579D01*
X105989868Y-99693587D01*
X105949500Y-99896530D01*
X104827566Y-99896530D01*
X102411818Y-97480782D01*
X102378333Y-97419459D01*
X102375499Y-97393101D01*
X102375499Y-91130936D01*
X102395184Y-91063897D01*
X102447988Y-91018142D01*
X102517146Y-91008198D01*
X102580702Y-91037223D01*
X102587179Y-91043255D01*
X104666082Y-93122823D01*
X104845077Y-93301875D01*
X104845205Y-93302020D01*
X104896683Y-93353497D01*
X104896699Y-93353513D01*
X104943619Y-93400449D01*
X104943681Y-93400496D01*
X104943683Y-93400497D01*
X104943686Y-93400500D01*
X105001056Y-93433622D01*
X105001070Y-93433636D01*
X105001073Y-93433632D01*
X105057739Y-93466361D01*
X105057740Y-93466361D01*
X105057752Y-93466368D01*
X105057793Y-93466384D01*
X105057806Y-93466387D01*
X105057814Y-93466392D01*
X105121956Y-93483578D01*
X105121970Y-93483587D01*
X105121972Y-93483583D01*
X105185027Y-93500489D01*
X105185040Y-93500491D01*
X105185107Y-93500499D01*
X105185108Y-93500500D01*
X105254056Y-93500500D01*
X105254064Y-93500500D01*
X105316812Y-93500510D01*
X105316816Y-93500508D01*
X105324908Y-93500510D01*
X105325075Y-93500500D01*
X106004719Y-93500500D01*
X106071758Y-93520185D01*
X106107819Y-93555607D01*
X106158590Y-93631592D01*
X106184024Y-93669657D01*
X106330342Y-93815975D01*
X106330345Y-93815977D01*
X106502402Y-93930941D01*
X106693580Y-94010130D01*
X106896530Y-94050499D01*
X106896534Y-94050500D01*
X106896535Y-94050500D01*
X107103466Y-94050500D01*
X107103467Y-94050499D01*
X107306420Y-94010130D01*
X107497598Y-93930941D01*
X107618736Y-93850000D01*
X114509423Y-93850000D01*
X115669027Y-93850000D01*
X115650000Y-93921009D01*
X115650000Y-94078991D01*
X115669027Y-94150000D01*
X114509423Y-94150000D01*
X114528317Y-94269293D01*
X114584251Y-94441444D01*
X114584252Y-94441447D01*
X114666434Y-94602734D01*
X114772823Y-94749169D01*
X114900830Y-94877176D01*
X115047265Y-94983565D01*
X115208552Y-95065747D01*
X115208555Y-95065748D01*
X115380706Y-95121682D01*
X115559494Y-95150000D01*
X116100000Y-95150000D01*
X116100000Y-94580973D01*
X116171009Y-94600000D01*
X116328991Y-94600000D01*
X116400000Y-94580973D01*
X116400000Y-95150000D01*
X116940506Y-95150000D01*
X117119293Y-95121682D01*
X117291444Y-95065748D01*
X117291447Y-95065747D01*
X117452734Y-94983565D01*
X117599169Y-94877176D01*
X117727176Y-94749169D01*
X117833565Y-94602734D01*
X117915747Y-94441447D01*
X117915748Y-94441444D01*
X117971682Y-94269293D01*
X117990577Y-94150000D01*
X116830973Y-94150000D01*
X116850000Y-94078991D01*
X116850000Y-93921009D01*
X116830973Y-93850000D01*
X117990577Y-93850000D01*
X127009423Y-93850000D01*
X128169027Y-93850000D01*
X128150000Y-93921009D01*
X128150000Y-94078991D01*
X128169027Y-94150000D01*
X127009423Y-94150000D01*
X127028317Y-94269293D01*
X127084251Y-94441444D01*
X127084252Y-94441447D01*
X127166434Y-94602734D01*
X127272823Y-94749169D01*
X127400830Y-94877176D01*
X127547265Y-94983565D01*
X127708552Y-95065747D01*
X127708555Y-95065748D01*
X127880706Y-95121682D01*
X128059494Y-95150000D01*
X128600000Y-95150000D01*
X128600000Y-94580973D01*
X128671009Y-94600000D01*
X128828991Y-94600000D01*
X128900000Y-94580973D01*
X128900000Y-95150000D01*
X129440506Y-95150000D01*
X129619293Y-95121682D01*
X129791444Y-95065748D01*
X129791447Y-95065747D01*
X129952734Y-94983565D01*
X130099169Y-94877176D01*
X130227176Y-94749169D01*
X130333565Y-94602734D01*
X130415747Y-94441447D01*
X130415748Y-94441444D01*
X130471682Y-94269293D01*
X130490577Y-94150000D01*
X129330973Y-94150000D01*
X129350000Y-94078991D01*
X129350000Y-93921009D01*
X129330973Y-93850000D01*
X130490577Y-93850000D01*
X130471682Y-93730706D01*
X130415748Y-93558555D01*
X130415747Y-93558552D01*
X130333565Y-93397265D01*
X130227176Y-93250830D01*
X130099169Y-93122823D01*
X129952734Y-93016434D01*
X129791447Y-92934252D01*
X129791444Y-92934251D01*
X129619293Y-92878317D01*
X129440506Y-92850000D01*
X128900000Y-92850000D01*
X128900000Y-93419026D01*
X128828991Y-93400000D01*
X128671009Y-93400000D01*
X128600000Y-93419026D01*
X128600000Y-92850000D01*
X128059494Y-92850000D01*
X127880706Y-92878317D01*
X127708555Y-92934251D01*
X127708552Y-92934252D01*
X127547265Y-93016434D01*
X127400830Y-93122823D01*
X127272823Y-93250830D01*
X127166434Y-93397265D01*
X127084252Y-93558552D01*
X127084251Y-93558555D01*
X127028317Y-93730706D01*
X127009423Y-93850000D01*
X117990577Y-93850000D01*
X117971682Y-93730706D01*
X117915748Y-93558555D01*
X117915747Y-93558552D01*
X117833565Y-93397265D01*
X117727176Y-93250830D01*
X117599169Y-93122823D01*
X117452734Y-93016434D01*
X117291447Y-92934252D01*
X117291444Y-92934251D01*
X117119293Y-92878317D01*
X116940506Y-92850000D01*
X116400000Y-92850000D01*
X116400000Y-93419026D01*
X116328991Y-93400000D01*
X116171009Y-93400000D01*
X116100000Y-93419026D01*
X116100000Y-92850000D01*
X115559494Y-92850000D01*
X115380706Y-92878317D01*
X115208555Y-92934251D01*
X115208552Y-92934252D01*
X115047265Y-93016434D01*
X114900830Y-93122823D01*
X114772823Y-93250830D01*
X114666434Y-93397265D01*
X114584252Y-93558552D01*
X114584251Y-93558555D01*
X114528317Y-93730706D01*
X114509423Y-93850000D01*
X107618736Y-93850000D01*
X107669655Y-93815977D01*
X107669658Y-93815974D01*
X107686251Y-93799382D01*
X107815974Y-93669658D01*
X107815975Y-93669657D01*
X107815977Y-93669655D01*
X107930941Y-93497598D01*
X108010130Y-93306420D01*
X108050500Y-93103465D01*
X108050500Y-92896535D01*
X108010130Y-92693580D01*
X107930941Y-92502402D01*
X107815977Y-92330345D01*
X107815975Y-92330342D01*
X107669657Y-92184024D01*
X107497596Y-92069057D01*
X107377091Y-92019143D01*
X107306420Y-91989870D01*
X107306412Y-91989868D01*
X107103469Y-91949500D01*
X107103465Y-91949500D01*
X106896535Y-91949500D01*
X106896530Y-91949500D01*
X106693587Y-91989868D01*
X106693579Y-91989870D01*
X106502403Y-92069058D01*
X106330342Y-92184024D01*
X106184024Y-92330342D01*
X106144292Y-92389806D01*
X106107819Y-92444391D01*
X106054210Y-92489195D01*
X106004719Y-92499500D01*
X105509735Y-92499500D01*
X105442696Y-92479815D01*
X105422040Y-92463167D01*
X104868498Y-91909448D01*
X121349500Y-91909448D01*
X121349500Y-92090551D01*
X121377829Y-92269410D01*
X121433787Y-92441636D01*
X121433788Y-92441639D01*
X121516006Y-92602997D01*
X121622441Y-92749494D01*
X121622445Y-92749499D01*
X121750500Y-92877554D01*
X121750505Y-92877558D01*
X121828539Y-92934252D01*
X121897006Y-92983996D01*
X122002484Y-93037740D01*
X122058360Y-93066211D01*
X122058363Y-93066212D01*
X122144476Y-93094191D01*
X122230591Y-93122171D01*
X122313429Y-93135291D01*
X122409449Y-93150500D01*
X122409454Y-93150500D01*
X122590551Y-93150500D01*
X122677259Y-93136765D01*
X122769409Y-93122171D01*
X122941639Y-93066211D01*
X123102994Y-92983996D01*
X123249501Y-92877553D01*
X123377553Y-92749501D01*
X123483996Y-92602994D01*
X123566211Y-92441639D01*
X123622171Y-92269409D01*
X123636765Y-92177259D01*
X123650500Y-92090551D01*
X123650500Y-91909448D01*
X123634019Y-91805397D01*
X123622171Y-91730591D01*
X123566211Y-91558361D01*
X123566211Y-91558360D01*
X123537740Y-91502484D01*
X123483996Y-91397006D01*
X123470396Y-91378287D01*
X123377558Y-91250505D01*
X123377554Y-91250500D01*
X123249499Y-91122445D01*
X123249494Y-91122441D01*
X123102997Y-91016006D01*
X123102996Y-91016005D01*
X123102994Y-91016004D01*
X123028922Y-90978262D01*
X122941639Y-90933788D01*
X122941636Y-90933787D01*
X122769410Y-90877829D01*
X122590551Y-90849500D01*
X122590546Y-90849500D01*
X122409454Y-90849500D01*
X122409449Y-90849500D01*
X122230589Y-90877829D01*
X122058363Y-90933787D01*
X122058360Y-90933788D01*
X121897002Y-91016006D01*
X121750505Y-91122441D01*
X121750500Y-91122445D01*
X121622445Y-91250500D01*
X121622441Y-91250505D01*
X121516006Y-91397002D01*
X121433788Y-91558360D01*
X121433787Y-91558363D01*
X121377829Y-91730589D01*
X121349500Y-91909448D01*
X104868498Y-91909448D01*
X104146827Y-91187547D01*
X104113352Y-91126219D01*
X104118347Y-91056528D01*
X104160227Y-91000601D01*
X104210327Y-90978264D01*
X104291835Y-90962051D01*
X104473914Y-90886632D01*
X104637782Y-90777139D01*
X104777139Y-90637782D01*
X104886632Y-90473914D01*
X104895689Y-90452047D01*
X104939529Y-90397645D01*
X105005823Y-90375579D01*
X105010250Y-90375500D01*
X119899435Y-90375500D01*
X119899436Y-90375500D01*
X119947186Y-90362705D01*
X119994938Y-90349910D01*
X120080562Y-90300475D01*
X120150475Y-90230562D01*
X122484457Y-87896579D01*
X135950000Y-87896579D01*
X135950000Y-88103420D01*
X135990348Y-88306266D01*
X135990350Y-88306274D01*
X136069502Y-88497363D01*
X136069502Y-88497364D01*
X136158021Y-88629843D01*
X136158023Y-88629843D01*
X136669397Y-88118470D01*
X136673852Y-88135095D01*
X136719930Y-88214905D01*
X136785095Y-88280070D01*
X136864905Y-88326148D01*
X136881529Y-88330602D01*
X136370155Y-88841975D01*
X136502631Y-88930494D01*
X136502641Y-88930499D01*
X136693725Y-89009649D01*
X136693733Y-89009651D01*
X136896579Y-89049999D01*
X136896583Y-89050000D01*
X137103417Y-89050000D01*
X137103420Y-89049999D01*
X137306266Y-89009651D01*
X137306274Y-89009649D01*
X137497359Y-88930499D01*
X137629844Y-88841976D01*
X137118471Y-88330602D01*
X137135095Y-88326148D01*
X137214905Y-88280070D01*
X137280070Y-88214905D01*
X137326148Y-88135095D01*
X137330602Y-88118470D01*
X137841976Y-88629844D01*
X137930499Y-88497359D01*
X138009649Y-88306274D01*
X138009651Y-88306266D01*
X138049999Y-88103420D01*
X138050000Y-88103417D01*
X138050000Y-87896583D01*
X138049999Y-87896579D01*
X138009651Y-87693733D01*
X138009649Y-87693725D01*
X137930499Y-87502641D01*
X137930494Y-87502631D01*
X137841975Y-87370155D01*
X137330602Y-87881528D01*
X137326148Y-87864905D01*
X137280070Y-87785095D01*
X137214905Y-87719930D01*
X137135095Y-87673852D01*
X137118470Y-87669397D01*
X137629843Y-87158023D01*
X137629843Y-87158021D01*
X137497363Y-87069502D01*
X137306274Y-86990350D01*
X137306266Y-86990348D01*
X137103420Y-86950000D01*
X136896579Y-86950000D01*
X136693733Y-86990348D01*
X136693725Y-86990350D01*
X136502639Y-87069501D01*
X136370155Y-87158023D01*
X136370154Y-87158023D01*
X136881529Y-87669397D01*
X136864905Y-87673852D01*
X136785095Y-87719930D01*
X136719930Y-87785095D01*
X136673852Y-87864905D01*
X136669397Y-87881528D01*
X136158023Y-87370154D01*
X136158023Y-87370155D01*
X136069501Y-87502639D01*
X135990350Y-87693725D01*
X135990348Y-87693733D01*
X135950000Y-87896579D01*
X122484457Y-87896579D01*
X124435520Y-85945515D01*
X124496841Y-85912032D01*
X124566533Y-85917016D01*
X124578258Y-85922170D01*
X124579157Y-85922543D01*
X124579165Y-85922545D01*
X124579168Y-85922547D01*
X124649862Y-85945517D01*
X124758881Y-85980940D01*
X124945514Y-86010500D01*
X124945519Y-86010500D01*
X125134486Y-86010500D01*
X125321118Y-85980940D01*
X125500832Y-85922547D01*
X125669199Y-85836760D01*
X125822073Y-85725690D01*
X125955690Y-85592073D01*
X126066760Y-85439199D01*
X126152547Y-85270832D01*
X126152549Y-85270826D01*
X126154413Y-85266329D01*
X126155456Y-85266761D01*
X126191872Y-85213506D01*
X126256231Y-85186308D01*
X126270365Y-85185500D01*
X130568514Y-85185500D01*
X130568881Y-85185523D01*
X130576719Y-85185519D01*
X130576724Y-85185521D01*
X130626142Y-85185500D01*
X130626161Y-85185500D01*
X130675435Y-85185500D01*
X130675589Y-85185479D01*
X130675596Y-85185479D01*
X130724215Y-85172429D01*
X130770938Y-85159910D01*
X130770940Y-85159909D01*
X130771078Y-85159850D01*
X130771086Y-85159849D01*
X130813296Y-85135453D01*
X130813324Y-85135438D01*
X130824134Y-85129196D01*
X130856562Y-85110475D01*
X130856565Y-85110472D01*
X130856674Y-85110389D01*
X130856683Y-85110379D01*
X130856690Y-85110376D01*
X130890807Y-85076229D01*
X130890810Y-85076226D01*
X130890817Y-85076233D01*
X130890844Y-85076191D01*
X130926475Y-85040562D01*
X130926476Y-85040559D01*
X130932180Y-85034856D01*
X130932423Y-85034577D01*
X131656386Y-84310000D01*
X131696496Y-84269856D01*
X131757805Y-84236345D01*
X131784214Y-84233500D01*
X131881055Y-84233500D01*
X131881057Y-84233500D01*
X132033784Y-84192577D01*
X132170716Y-84113520D01*
X132282520Y-84001716D01*
X132356234Y-83874038D01*
X139899500Y-83874038D01*
X139899500Y-84125962D01*
X139916944Y-84236096D01*
X139938910Y-84374785D01*
X140016760Y-84614383D01*
X140066304Y-84711617D01*
X140116432Y-84809999D01*
X140131132Y-84838848D01*
X140279201Y-85042649D01*
X140279205Y-85042654D01*
X140457345Y-85220794D01*
X140457350Y-85220798D01*
X140552372Y-85289835D01*
X140661155Y-85368870D01*
X140799184Y-85439199D01*
X140885616Y-85483239D01*
X140885618Y-85483239D01*
X140885621Y-85483241D01*
X141125215Y-85561090D01*
X141374038Y-85600500D01*
X141374039Y-85600500D01*
X141625961Y-85600500D01*
X141625962Y-85600500D01*
X141874785Y-85561090D01*
X142114379Y-85483241D01*
X142338845Y-85368870D01*
X142542656Y-85220793D01*
X142720793Y-85042656D01*
X142868870Y-84838845D01*
X142983241Y-84614379D01*
X143061090Y-84374785D01*
X143100500Y-84125962D01*
X143100500Y-83874038D01*
X143061090Y-83625215D01*
X142983241Y-83385621D01*
X142983239Y-83385618D01*
X142983239Y-83385616D01*
X142921417Y-83264284D01*
X142868870Y-83161155D01*
X142849952Y-83135117D01*
X142720798Y-82957350D01*
X142720794Y-82957345D01*
X142542654Y-82779205D01*
X142542649Y-82779201D01*
X142338848Y-82631132D01*
X142338847Y-82631131D01*
X142338845Y-82631130D01*
X142268747Y-82595413D01*
X142114383Y-82516760D01*
X141874785Y-82438910D01*
X141625962Y-82399500D01*
X141374038Y-82399500D01*
X141249626Y-82419205D01*
X141125214Y-82438910D01*
X140885616Y-82516760D01*
X140661151Y-82631132D01*
X140457350Y-82779201D01*
X140457345Y-82779205D01*
X140279205Y-82957345D01*
X140279201Y-82957350D01*
X140131132Y-83161151D01*
X140016760Y-83385616D01*
X139938910Y-83625214D01*
X139915829Y-83770941D01*
X139899500Y-83874038D01*
X132356234Y-83874038D01*
X132361577Y-83864784D01*
X132402500Y-83712057D01*
X132402500Y-83553943D01*
X132361577Y-83401216D01*
X132352573Y-83385621D01*
X132282524Y-83264290D01*
X132282518Y-83264282D01*
X132170717Y-83152481D01*
X132170709Y-83152475D01*
X132033790Y-83073426D01*
X132033786Y-83073424D01*
X132033784Y-83073423D01*
X131881057Y-83032500D01*
X131722943Y-83032500D01*
X131570216Y-83073423D01*
X131570209Y-83073426D01*
X131433290Y-83152475D01*
X131433282Y-83152481D01*
X131321481Y-83264282D01*
X131321475Y-83264290D01*
X131242426Y-83401209D01*
X131242423Y-83401216D01*
X131201500Y-83553943D01*
X131201500Y-83651414D01*
X131181815Y-83718453D01*
X131165219Y-83739058D01*
X130506695Y-84398144D01*
X130445386Y-84431655D01*
X130418976Y-84434500D01*
X126270365Y-84434500D01*
X126203326Y-84414815D01*
X126157571Y-84362011D01*
X126152918Y-84350062D01*
X126152549Y-84349173D01*
X126152547Y-84349170D01*
X126152547Y-84349168D01*
X126066760Y-84180801D01*
X125955690Y-84027927D01*
X125822073Y-83894310D01*
X125669199Y-83783240D01*
X125645061Y-83770941D01*
X125500836Y-83697454D01*
X125321118Y-83639059D01*
X125134486Y-83609500D01*
X125134481Y-83609500D01*
X124945519Y-83609500D01*
X124945514Y-83609500D01*
X124758881Y-83639059D01*
X124579163Y-83697454D01*
X124410800Y-83783240D01*
X124352178Y-83825832D01*
X124257927Y-83894310D01*
X124257925Y-83894312D01*
X124257924Y-83894312D01*
X124124312Y-84027924D01*
X124124312Y-84027925D01*
X124124310Y-84027927D01*
X124117018Y-84037964D01*
X124013240Y-84180800D01*
X123934985Y-84334385D01*
X123887010Y-84385181D01*
X123819189Y-84401976D01*
X123753054Y-84379439D01*
X123709603Y-84324723D01*
X123700500Y-84278090D01*
X123700500Y-83835323D01*
X123700499Y-83835321D01*
X123685967Y-83762264D01*
X123685966Y-83762260D01*
X123682793Y-83757511D01*
X123630601Y-83679399D01*
X123547740Y-83624034D01*
X123547739Y-83624033D01*
X123547735Y-83624032D01*
X123474677Y-83609500D01*
X123474674Y-83609500D01*
X121525326Y-83609500D01*
X121525323Y-83609500D01*
X121452264Y-83624032D01*
X121452260Y-83624033D01*
X121369399Y-83679399D01*
X121314033Y-83762260D01*
X121314032Y-83762264D01*
X121299500Y-83835321D01*
X121299500Y-84169057D01*
X121279815Y-84236096D01*
X121227011Y-84281851D01*
X121157853Y-84291795D01*
X121094297Y-84262770D01*
X121065015Y-84225352D01*
X121029099Y-84154864D01*
X121029095Y-84154858D01*
X120944166Y-84037964D01*
X120944166Y-84037963D01*
X120403670Y-84578460D01*
X120360099Y-84502993D01*
X120267007Y-84409901D01*
X120191539Y-84366329D01*
X120732035Y-83825833D01*
X120732034Y-83825832D01*
X120615143Y-83740904D01*
X120439835Y-83651581D01*
X120252705Y-83590778D01*
X120058382Y-83560000D01*
X119861618Y-83560000D01*
X119667294Y-83590778D01*
X119480164Y-83651581D01*
X119304855Y-83740905D01*
X119304852Y-83740907D01*
X119187964Y-83825832D01*
X119187963Y-83825832D01*
X119728461Y-84366329D01*
X119652993Y-84409901D01*
X119559901Y-84502993D01*
X119516329Y-84578460D01*
X118975832Y-84037963D01*
X118975832Y-84037964D01*
X118890907Y-84154852D01*
X118890905Y-84154855D01*
X118801581Y-84330164D01*
X118740778Y-84517294D01*
X118710000Y-84711617D01*
X118710000Y-84908382D01*
X118740778Y-85102705D01*
X118801581Y-85289835D01*
X118890904Y-85465143D01*
X118975832Y-85582034D01*
X118975833Y-85582035D01*
X119516329Y-85041538D01*
X119559901Y-85117007D01*
X119652993Y-85210099D01*
X119728460Y-85253670D01*
X119187963Y-85794166D01*
X119304858Y-85879095D01*
X119304864Y-85879099D01*
X119480164Y-85968418D01*
X119667294Y-86029221D01*
X119861618Y-86060000D01*
X120058381Y-86060000D01*
X120256165Y-86028673D01*
X120325459Y-86037627D01*
X120378911Y-86082623D01*
X120399551Y-86149375D01*
X120380826Y-86216688D01*
X120363243Y-86238830D01*
X119137013Y-87464984D01*
X119075688Y-87498467D01*
X119049334Y-87501300D01*
X104300922Y-87501300D01*
X104300767Y-87501290D01*
X104292825Y-87501291D01*
X104226932Y-87501300D01*
X104161073Y-87501300D01*
X104097055Y-87518461D01*
X104097044Y-87518464D01*
X104046221Y-87532082D01*
X104046217Y-87532084D01*
X104033814Y-87535408D01*
X104033784Y-87535425D01*
X104033751Y-87535434D01*
X103977902Y-87567688D01*
X103919686Y-87601300D01*
X103919660Y-87601325D01*
X103919632Y-87601342D01*
X103876049Y-87644937D01*
X103867741Y-87653244D01*
X103867738Y-87653247D01*
X103820878Y-87700106D01*
X103820767Y-87700233D01*
X103387192Y-88133925D01*
X103325873Y-88167419D01*
X103256181Y-88162444D01*
X103200242Y-88120580D01*
X103175816Y-88055119D01*
X103175499Y-88046256D01*
X103175499Y-87650564D01*
X103175196Y-87649436D01*
X103175183Y-87649387D01*
X103154134Y-87570830D01*
X103154134Y-87570829D01*
X103149909Y-87555064D01*
X103149909Y-87555063D01*
X103149909Y-87555062D01*
X103100474Y-87469438D01*
X103096759Y-87465723D01*
X103064665Y-87410135D01*
X103053952Y-87370154D01*
X103049909Y-87355063D01*
X103049909Y-87355062D01*
X103000474Y-87269438D01*
X102930561Y-87199525D01*
X102711818Y-86980782D01*
X102678333Y-86919459D01*
X102675499Y-86893101D01*
X102675499Y-83047572D01*
X102695184Y-82980533D01*
X102747988Y-82934778D01*
X102817146Y-82924834D01*
X102880702Y-82953859D01*
X102887169Y-82959881D01*
X103436992Y-83509655D01*
X103597177Y-83669826D01*
X103630665Y-83731148D01*
X103633500Y-83757511D01*
X103633500Y-84986021D01*
X103613815Y-85053060D01*
X103561011Y-85098815D01*
X103556953Y-85100582D01*
X103526089Y-85113366D01*
X103526079Y-85113371D01*
X103362218Y-85222860D01*
X103362214Y-85222863D01*
X103222863Y-85362214D01*
X103222860Y-85362218D01*
X103113371Y-85526079D01*
X103113364Y-85526092D01*
X103037950Y-85708160D01*
X103037947Y-85708170D01*
X102999500Y-85901456D01*
X102999500Y-85901459D01*
X102999500Y-86098541D01*
X102999500Y-86098543D01*
X102999499Y-86098543D01*
X103037947Y-86291829D01*
X103037950Y-86291839D01*
X103113364Y-86473907D01*
X103113371Y-86473920D01*
X103222860Y-86637781D01*
X103222863Y-86637785D01*
X103362214Y-86777136D01*
X103362218Y-86777139D01*
X103526079Y-86886628D01*
X103526092Y-86886635D01*
X103665703Y-86944463D01*
X103708165Y-86962051D01*
X103708169Y-86962051D01*
X103708170Y-86962052D01*
X103901456Y-87000500D01*
X103901459Y-87000500D01*
X104098543Y-87000500D01*
X104228582Y-86974632D01*
X104291835Y-86962051D01*
X104473914Y-86886632D01*
X104637782Y-86777139D01*
X104777139Y-86637782D01*
X104886632Y-86473914D01*
X104962051Y-86291835D01*
X104989837Y-86152147D01*
X105000500Y-86098543D01*
X105000500Y-85901456D01*
X104962052Y-85708170D01*
X104962051Y-85708169D01*
X104962051Y-85708165D01*
X104917455Y-85600500D01*
X104886635Y-85526092D01*
X104886628Y-85526079D01*
X104777139Y-85362218D01*
X104777136Y-85362214D01*
X104637785Y-85222863D01*
X104637781Y-85222860D01*
X104473920Y-85113371D01*
X104473910Y-85113366D01*
X104461047Y-85108038D01*
X104406643Y-85064196D01*
X104384579Y-84997902D01*
X104384500Y-84993477D01*
X104384500Y-83757569D01*
X104404185Y-83690530D01*
X104420840Y-83669867D01*
X104451663Y-83639059D01*
X105354625Y-82736530D01*
X105949500Y-82736530D01*
X105949500Y-82943469D01*
X105989868Y-83146412D01*
X105989870Y-83146420D01*
X106069059Y-83337598D01*
X106101147Y-83385621D01*
X106184024Y-83509657D01*
X106330342Y-83655975D01*
X106330345Y-83655977D01*
X106502402Y-83770941D01*
X106693580Y-83850130D01*
X106896530Y-83890499D01*
X106896534Y-83890500D01*
X106896535Y-83890500D01*
X107103466Y-83890500D01*
X107103467Y-83890499D01*
X107306420Y-83850130D01*
X107497598Y-83770941D01*
X107669655Y-83655977D01*
X107815977Y-83509655D01*
X107930941Y-83337598D01*
X108010130Y-83146420D01*
X108050500Y-82943465D01*
X108050500Y-82736535D01*
X108010130Y-82533580D01*
X107930941Y-82342402D01*
X107815977Y-82170345D01*
X107815975Y-82170342D01*
X107669657Y-82024024D01*
X107543469Y-81939709D01*
X107497598Y-81909059D01*
X107306420Y-81829870D01*
X107306412Y-81829868D01*
X107103469Y-81789500D01*
X107103465Y-81789500D01*
X106896535Y-81789500D01*
X106896530Y-81789500D01*
X106693587Y-81829868D01*
X106693579Y-81829870D01*
X106502403Y-81909058D01*
X106330342Y-82024024D01*
X106184024Y-82170342D01*
X106069058Y-82342403D01*
X105989870Y-82533579D01*
X105989868Y-82533587D01*
X105949500Y-82736530D01*
X105354625Y-82736530D01*
X105689302Y-82402013D01*
X105689454Y-82401882D01*
X105695560Y-82395776D01*
X105695562Y-82395775D01*
X105711387Y-82379949D01*
X105730007Y-82361330D01*
X105730027Y-82361310D01*
X105748944Y-82342402D01*
X105765419Y-82325935D01*
X105765420Y-82325932D01*
X105765444Y-82325909D01*
X105765450Y-82325901D01*
X105765469Y-82325867D01*
X105765475Y-82325862D01*
X105791009Y-82281635D01*
X105814875Y-82240321D01*
X105814876Y-82240313D01*
X105814879Y-82240310D01*
X105814909Y-82240239D01*
X105814910Y-82240238D01*
X105821222Y-82216678D01*
X105827866Y-82191887D01*
X105827873Y-82191860D01*
X105834180Y-82168342D01*
X105840488Y-82144826D01*
X105840488Y-82144824D01*
X105840495Y-82144771D01*
X105840500Y-82144733D01*
X105840500Y-82095087D01*
X105840500Y-82095057D01*
X105840505Y-82071344D01*
X105860204Y-82004312D01*
X105876813Y-81983703D01*
X106981658Y-80878711D01*
X120649500Y-80878711D01*
X120649500Y-81121288D01*
X120681161Y-81361785D01*
X120743947Y-81596104D01*
X120824055Y-81789500D01*
X120836776Y-81820212D01*
X120958064Y-82030289D01*
X120958066Y-82030292D01*
X120958067Y-82030293D01*
X121105733Y-82222736D01*
X121105739Y-82222743D01*
X121277256Y-82394260D01*
X121277263Y-82394266D01*
X121390321Y-82481018D01*
X121469711Y-82541936D01*
X121679788Y-82663224D01*
X121903900Y-82756054D01*
X122138211Y-82818838D01*
X122318586Y-82842584D01*
X122378711Y-82850500D01*
X122378712Y-82850500D01*
X122621289Y-82850500D01*
X122669388Y-82844167D01*
X122861789Y-82818838D01*
X123096100Y-82756054D01*
X123320212Y-82663224D01*
X123530289Y-82541936D01*
X123722738Y-82394265D01*
X123894265Y-82222738D01*
X124041936Y-82030289D01*
X124163224Y-81820212D01*
X124256054Y-81596100D01*
X124318838Y-81361789D01*
X124350500Y-81121288D01*
X124350500Y-80878712D01*
X124318838Y-80638211D01*
X124256054Y-80403900D01*
X124163224Y-80179788D01*
X124041936Y-79969711D01*
X123923972Y-79815977D01*
X123894266Y-79777263D01*
X123894260Y-79777256D01*
X123722743Y-79605739D01*
X123722736Y-79605733D01*
X123530293Y-79458067D01*
X123530292Y-79458066D01*
X123530289Y-79458064D01*
X123320212Y-79336776D01*
X123320205Y-79336773D01*
X123096104Y-79243947D01*
X122861785Y-79181161D01*
X122621289Y-79149500D01*
X122621288Y-79149500D01*
X122378712Y-79149500D01*
X122378711Y-79149500D01*
X122138214Y-79181161D01*
X121903895Y-79243947D01*
X121679794Y-79336773D01*
X121679785Y-79336777D01*
X121469706Y-79458067D01*
X121277263Y-79605733D01*
X121277256Y-79605739D01*
X121105739Y-79777256D01*
X121105733Y-79777263D01*
X120958067Y-79969706D01*
X120836777Y-80179785D01*
X120836773Y-80179794D01*
X120743947Y-80403895D01*
X120681161Y-80638214D01*
X120649500Y-80878711D01*
X106981658Y-80878711D01*
X108710626Y-79149512D01*
X108771944Y-79116025D01*
X108841636Y-79121004D01*
X108897572Y-79162872D01*
X108920783Y-79217790D01*
X108927086Y-79257585D01*
X108980591Y-79422257D01*
X109059198Y-79576528D01*
X109123219Y-79664646D01*
X109123220Y-79664647D01*
X109629533Y-79158333D01*
X109679920Y-79245606D01*
X109754394Y-79320080D01*
X109841665Y-79370465D01*
X109335351Y-79876778D01*
X109335352Y-79876780D01*
X109423471Y-79940801D01*
X109577742Y-80019408D01*
X109742415Y-80072914D01*
X109913429Y-80100000D01*
X110086571Y-80100000D01*
X110257584Y-80072914D01*
X110422257Y-80019408D01*
X110576525Y-79940803D01*
X110664646Y-79876778D01*
X110664647Y-79876778D01*
X110158334Y-79370465D01*
X110245606Y-79320080D01*
X110320080Y-79245606D01*
X110370465Y-79158334D01*
X110876778Y-79664647D01*
X110876778Y-79664646D01*
X110940803Y-79576525D01*
X111019408Y-79422257D01*
X111072914Y-79257584D01*
X111100000Y-79086571D01*
X111100000Y-78913428D01*
X111072914Y-78742415D01*
X111019408Y-78577742D01*
X110940801Y-78423471D01*
X110876780Y-78335352D01*
X110876778Y-78335351D01*
X110370465Y-78841664D01*
X110320080Y-78754394D01*
X110245606Y-78679920D01*
X110158333Y-78629533D01*
X110664647Y-78123220D01*
X110664646Y-78123219D01*
X110576528Y-78059198D01*
X110422257Y-77980591D01*
X110257584Y-77927086D01*
X110217625Y-77920757D01*
X110154490Y-77890828D01*
X110117559Y-77831516D01*
X110118557Y-77761654D01*
X110149334Y-77710611D01*
X111565232Y-76294525D01*
X111626553Y-76261036D01*
X111652919Y-76258200D01*
X118848544Y-76258200D01*
X118915583Y-76277885D01*
X118961338Y-76330689D01*
X118971282Y-76399847D01*
X118948862Y-76455086D01*
X118890904Y-76534856D01*
X118801581Y-76710164D01*
X118740778Y-76897294D01*
X118710000Y-77091617D01*
X118710000Y-77288382D01*
X118740778Y-77482705D01*
X118801581Y-77669835D01*
X118890904Y-77845143D01*
X118975832Y-77962034D01*
X118975832Y-77962035D01*
X119516329Y-77421538D01*
X119559901Y-77497007D01*
X119652993Y-77590099D01*
X119728459Y-77633669D01*
X119187963Y-78174166D01*
X119304858Y-78259095D01*
X119304864Y-78259099D01*
X119480164Y-78348418D01*
X119667294Y-78409221D01*
X119861618Y-78440000D01*
X120058382Y-78440000D01*
X120252705Y-78409221D01*
X120439835Y-78348418D01*
X120615143Y-78259095D01*
X120732034Y-78174166D01*
X120732035Y-78174166D01*
X120191539Y-77633670D01*
X120267007Y-77590099D01*
X120360099Y-77497007D01*
X120403670Y-77421539D01*
X120944166Y-77962035D01*
X120944166Y-77962034D01*
X121029095Y-77845143D01*
X121118418Y-77669835D01*
X121138092Y-77609287D01*
X121177529Y-77551612D01*
X121241888Y-77524413D01*
X121310734Y-77536327D01*
X121362210Y-77583571D01*
X121373954Y-77609286D01*
X121387454Y-77650836D01*
X121443919Y-77761654D01*
X121473240Y-77819199D01*
X121584310Y-77972073D01*
X121717927Y-78105690D01*
X121870801Y-78216760D01*
X121950347Y-78257290D01*
X122039163Y-78302545D01*
X122039165Y-78302545D01*
X122039168Y-78302547D01*
X122124712Y-78330342D01*
X122218881Y-78360940D01*
X122405514Y-78390500D01*
X122405519Y-78390500D01*
X122594486Y-78390500D01*
X122781118Y-78360940D01*
X122960832Y-78302547D01*
X123129199Y-78216760D01*
X123282073Y-78105690D01*
X123415690Y-77972073D01*
X123526760Y-77819199D01*
X123612547Y-77650832D01*
X123652069Y-77529195D01*
X123691507Y-77471521D01*
X123755866Y-77444323D01*
X123824712Y-77456238D01*
X123876188Y-77503482D01*
X123887931Y-77529196D01*
X123927454Y-77650836D01*
X123983919Y-77761654D01*
X124013240Y-77819199D01*
X124124310Y-77972073D01*
X124257927Y-78105690D01*
X124410801Y-78216760D01*
X124490347Y-78257290D01*
X124579163Y-78302545D01*
X124579165Y-78302545D01*
X124579168Y-78302547D01*
X124664712Y-78330342D01*
X124758881Y-78360940D01*
X124945514Y-78390500D01*
X124945519Y-78390500D01*
X125134486Y-78390500D01*
X125321118Y-78360940D01*
X125500832Y-78302547D01*
X125669199Y-78216760D01*
X125822073Y-78105690D01*
X125955690Y-77972073D01*
X126066760Y-77819199D01*
X126152547Y-77650832D01*
X126210940Y-77471118D01*
X126222166Y-77400238D01*
X126240500Y-77284486D01*
X126240500Y-77095513D01*
X126210940Y-76908881D01*
X126152545Y-76729163D01*
X126066759Y-76560800D01*
X125955690Y-76407927D01*
X125822073Y-76274310D01*
X125669199Y-76163240D01*
X125500830Y-76077451D01*
X125496339Y-76075592D01*
X125496768Y-76074556D01*
X125443489Y-76038107D01*
X125416305Y-75973743D01*
X125415500Y-75959635D01*
X125415500Y-75637899D01*
X125435185Y-75570860D01*
X125451819Y-75550218D01*
X133168716Y-67833321D01*
X137607500Y-67833321D01*
X137607500Y-69406678D01*
X137622032Y-69479735D01*
X137622033Y-69479739D01*
X137630048Y-69491734D01*
X137677399Y-69562601D01*
X137723780Y-69593591D01*
X137760260Y-69617966D01*
X137760264Y-69617967D01*
X137833321Y-69632499D01*
X137833324Y-69632500D01*
X137833326Y-69632500D01*
X139406676Y-69632500D01*
X139406677Y-69632499D01*
X139479740Y-69617966D01*
X139562601Y-69562601D01*
X139617966Y-69479740D01*
X139632500Y-69406674D01*
X139632500Y-67833326D01*
X139632500Y-67833323D01*
X139632499Y-67833321D01*
X139617967Y-67760264D01*
X139617966Y-67760262D01*
X139617966Y-67760260D01*
X139562601Y-67677399D01*
X139507235Y-67640405D01*
X139479739Y-67622033D01*
X139479735Y-67622032D01*
X139406677Y-67607500D01*
X139406674Y-67607500D01*
X137833326Y-67607500D01*
X137833323Y-67607500D01*
X137760264Y-67622032D01*
X137760260Y-67622033D01*
X137677399Y-67677399D01*
X137625882Y-67754502D01*
X137622035Y-67760259D01*
X137622032Y-67760264D01*
X137607500Y-67833321D01*
X133168716Y-67833321D01*
X134510218Y-66491819D01*
X134571541Y-66458334D01*
X134597899Y-66455500D01*
X137596761Y-66455500D01*
X137663800Y-66475185D01*
X137709555Y-66527989D01*
X137711312Y-66532024D01*
X137711323Y-66532050D01*
X137722733Y-66559598D01*
X137722737Y-66559605D01*
X137833539Y-66725430D01*
X137833542Y-66725434D01*
X137974565Y-66866457D01*
X137974569Y-66866460D01*
X138140394Y-66977262D01*
X138140407Y-66977269D01*
X138286899Y-67037947D01*
X138324665Y-67053590D01*
X138324669Y-67053590D01*
X138324670Y-67053591D01*
X138520274Y-67092500D01*
X138520277Y-67092500D01*
X138719725Y-67092500D01*
X138851324Y-67066322D01*
X138915335Y-67053590D01*
X139099599Y-66977266D01*
X139265431Y-66866460D01*
X139406460Y-66725431D01*
X139517266Y-66559599D01*
X139528678Y-66532049D01*
X139593588Y-66375339D01*
X139593590Y-66375335D01*
X139632500Y-66179723D01*
X139632500Y-65980277D01*
X139632500Y-65980274D01*
X139593591Y-65784670D01*
X139593590Y-65784669D01*
X139593590Y-65784665D01*
X139574782Y-65739257D01*
X139517269Y-65600407D01*
X139517262Y-65600394D01*
X139406460Y-65434569D01*
X139406457Y-65434565D01*
X139265434Y-65293542D01*
X139265430Y-65293539D01*
X139099605Y-65182737D01*
X139099592Y-65182730D01*
X138915339Y-65106411D01*
X138915329Y-65106408D01*
X138719725Y-65067500D01*
X138719723Y-65067500D01*
X138520277Y-65067500D01*
X138520275Y-65067500D01*
X138324670Y-65106408D01*
X138324660Y-65106411D01*
X138140407Y-65182730D01*
X138140394Y-65182737D01*
X137974569Y-65293539D01*
X137974565Y-65293542D01*
X137833542Y-65434565D01*
X137833539Y-65434569D01*
X137722737Y-65600394D01*
X137722733Y-65600401D01*
X137716777Y-65614782D01*
X137711321Y-65627952D01*
X137667483Y-65682355D01*
X137601189Y-65704421D01*
X137596761Y-65704500D01*
X134341564Y-65704500D01*
X134293812Y-65717295D01*
X134293811Y-65717294D01*
X134246063Y-65730089D01*
X134246060Y-65730090D01*
X134219131Y-65745638D01*
X134151231Y-65762109D01*
X134085204Y-65739257D01*
X134042014Y-65684335D01*
X134035373Y-65614782D01*
X134067390Y-65552679D01*
X134069407Y-65550612D01*
X135317930Y-64302102D01*
X135668218Y-63951818D01*
X135729542Y-63918334D01*
X135755899Y-63915500D01*
X137596761Y-63915500D01*
X137663800Y-63935185D01*
X137709555Y-63987989D01*
X137711312Y-63992024D01*
X137713620Y-63997596D01*
X137722733Y-64019598D01*
X137722737Y-64019605D01*
X137833539Y-64185430D01*
X137833542Y-64185434D01*
X137974565Y-64326457D01*
X137974569Y-64326460D01*
X138140394Y-64437262D01*
X138140407Y-64437269D01*
X138316309Y-64510129D01*
X138324665Y-64513590D01*
X138324669Y-64513590D01*
X138324670Y-64513591D01*
X138520274Y-64552500D01*
X138520277Y-64552500D01*
X138719725Y-64552500D01*
X138886086Y-64519408D01*
X138915335Y-64513590D01*
X139099599Y-64437266D01*
X139265431Y-64326460D01*
X139406460Y-64185431D01*
X139517266Y-64019599D01*
X139528678Y-63992049D01*
X139560385Y-63915500D01*
X139593590Y-63835335D01*
X139632500Y-63639723D01*
X139632500Y-63440277D01*
X139632500Y-63440274D01*
X139593591Y-63244670D01*
X139593590Y-63244669D01*
X139593590Y-63244665D01*
X139591461Y-63239524D01*
X139517269Y-63060407D01*
X139517262Y-63060394D01*
X139406460Y-62894569D01*
X139406457Y-62894565D01*
X139265434Y-62753542D01*
X139265430Y-62753539D01*
X139099605Y-62642737D01*
X139099592Y-62642730D01*
X138915339Y-62566411D01*
X138915329Y-62566408D01*
X138719725Y-62527500D01*
X138719723Y-62527500D01*
X138520277Y-62527500D01*
X138520275Y-62527500D01*
X138324670Y-62566408D01*
X138324660Y-62566411D01*
X138140407Y-62642730D01*
X138140394Y-62642737D01*
X137974569Y-62753539D01*
X137974565Y-62753542D01*
X137833542Y-62894565D01*
X137833539Y-62894569D01*
X137722737Y-63060394D01*
X137722733Y-63060401D01*
X137715551Y-63077742D01*
X137711321Y-63087952D01*
X137667483Y-63142355D01*
X137601189Y-63164421D01*
X137596761Y-63164500D01*
X135499559Y-63164500D01*
X135444430Y-63179271D01*
X135444431Y-63179272D01*
X135405879Y-63189603D01*
X135404177Y-63190031D01*
X135404081Y-63190079D01*
X135404044Y-63190099D01*
X135349780Y-63221428D01*
X135349780Y-63221429D01*
X135318439Y-63239524D01*
X125205782Y-73352082D01*
X125144458Y-73385566D01*
X125118101Y-73388400D01*
X108586565Y-73388400D01*
X108491062Y-73413990D01*
X108491060Y-73413991D01*
X108491059Y-73413991D01*
X108405436Y-73463426D01*
X108368366Y-73500497D01*
X108368365Y-73500498D01*
X104287179Y-77581613D01*
X104225856Y-77615097D01*
X104156164Y-77610112D01*
X104100231Y-77568241D01*
X104075815Y-77502776D01*
X104075499Y-77493931D01*
X104075499Y-74123093D01*
X104095184Y-74056054D01*
X104147988Y-74010299D01*
X104217146Y-74000355D01*
X104242832Y-74006911D01*
X104342517Y-74044091D01*
X104342516Y-74044091D01*
X104349444Y-74044835D01*
X104402127Y-74050500D01*
X105597872Y-74050499D01*
X105657483Y-74044091D01*
X105792331Y-73993796D01*
X105907546Y-73907546D01*
X105993796Y-73792331D01*
X106044091Y-73657483D01*
X106050500Y-73597873D01*
X106050499Y-72708636D01*
X106070183Y-72641598D01*
X106086815Y-72620958D01*
X107004003Y-71703721D01*
X107065326Y-71670234D01*
X107091687Y-71667400D01*
X125978890Y-71667400D01*
X125978892Y-71667400D01*
X126047106Y-71649122D01*
X126106184Y-71633293D01*
X126106188Y-71633291D01*
X126136765Y-71615637D01*
X126220313Y-71567401D01*
X136688070Y-61099725D01*
X137607499Y-61099725D01*
X137646408Y-61295329D01*
X137646411Y-61295339D01*
X137722730Y-61479592D01*
X137722737Y-61479605D01*
X137833539Y-61645430D01*
X137833542Y-61645434D01*
X137974565Y-61786457D01*
X137974569Y-61786460D01*
X138140394Y-61897262D01*
X138140407Y-61897269D01*
X138324660Y-61973588D01*
X138324665Y-61973590D01*
X138324669Y-61973590D01*
X138324670Y-61973591D01*
X138520274Y-62012500D01*
X138520277Y-62012500D01*
X138719725Y-62012500D01*
X138851324Y-61986322D01*
X138915335Y-61973590D01*
X139099599Y-61897266D01*
X139265431Y-61786460D01*
X139406460Y-61645431D01*
X139517266Y-61479599D01*
X139593590Y-61295335D01*
X139632500Y-61099723D01*
X139632500Y-60900277D01*
X139632500Y-60900274D01*
X139593591Y-60704670D01*
X139593590Y-60704669D01*
X139593590Y-60704665D01*
X139588310Y-60691918D01*
X139517269Y-60520407D01*
X139517262Y-60520394D01*
X139406460Y-60354569D01*
X139406457Y-60354565D01*
X139265434Y-60213542D01*
X139265430Y-60213539D01*
X139099605Y-60102737D01*
X139099592Y-60102730D01*
X138915339Y-60026411D01*
X138915329Y-60026408D01*
X138719725Y-59987500D01*
X138719723Y-59987500D01*
X138520277Y-59987500D01*
X138520275Y-59987500D01*
X138324670Y-60026408D01*
X138324660Y-60026411D01*
X138140407Y-60102730D01*
X138140394Y-60102737D01*
X137974569Y-60213539D01*
X137974565Y-60213542D01*
X137833542Y-60354565D01*
X137833539Y-60354569D01*
X137722737Y-60520394D01*
X137722730Y-60520407D01*
X137646411Y-60704660D01*
X137646408Y-60704670D01*
X137607500Y-60900274D01*
X137607500Y-60900277D01*
X137607500Y-61099723D01*
X137607500Y-61099725D01*
X137607499Y-61099725D01*
X136688070Y-61099725D01*
X138302449Y-59485358D01*
X138363771Y-59451875D01*
X138414321Y-59451424D01*
X138520274Y-59472500D01*
X138520277Y-59472500D01*
X138719725Y-59472500D01*
X138890686Y-59438493D01*
X138915335Y-59433590D01*
X139099599Y-59357266D01*
X139265431Y-59246460D01*
X139406460Y-59105431D01*
X139517266Y-58939599D01*
X139593590Y-58755335D01*
X139620624Y-58619428D01*
X139632500Y-58559725D01*
X139632500Y-58360274D01*
X139593591Y-58164670D01*
X139593590Y-58164669D01*
X139593590Y-58164665D01*
X139593588Y-58164660D01*
X139517269Y-57980407D01*
X139517262Y-57980394D01*
X139406460Y-57814569D01*
X139406457Y-57814565D01*
X139265434Y-57673542D01*
X139265430Y-57673539D01*
X139099605Y-57562737D01*
X139099592Y-57562730D01*
X138915339Y-57486411D01*
X138915329Y-57486408D01*
X138719725Y-57447500D01*
X138719723Y-57447500D01*
X138520277Y-57447500D01*
X138520275Y-57447500D01*
X138324670Y-57486408D01*
X138324660Y-57486411D01*
X138140407Y-57562730D01*
X138140394Y-57562737D01*
X137974569Y-57673539D01*
X137974565Y-57673542D01*
X137833542Y-57814565D01*
X137833539Y-57814569D01*
X137722737Y-57980394D01*
X137722730Y-57980407D01*
X137646411Y-58164660D01*
X137646408Y-58164670D01*
X137607500Y-58360274D01*
X137607500Y-58559727D01*
X137628573Y-58665668D01*
X137622346Y-58735260D01*
X137594637Y-58777541D01*
X125742006Y-70630082D01*
X125680683Y-70663566D01*
X125654325Y-70666400D01*
X119763997Y-70666400D01*
X119696958Y-70646715D01*
X119651203Y-70593911D01*
X119641259Y-70524753D01*
X119670284Y-70461197D01*
X119676316Y-70454719D01*
X121644063Y-68486974D01*
X122319218Y-67811819D01*
X122380541Y-67778334D01*
X122406899Y-67775500D01*
X122494735Y-67775500D01*
X122561774Y-67795185D01*
X122607529Y-67847989D01*
X122617473Y-67917147D01*
X122594982Y-67968206D01*
X122596924Y-67969504D01*
X122482737Y-68140394D01*
X122482730Y-68140407D01*
X122406411Y-68324660D01*
X122406408Y-68324670D01*
X122367500Y-68520274D01*
X122367500Y-68520277D01*
X122367500Y-68719723D01*
X122367500Y-68719725D01*
X122367499Y-68719725D01*
X122406408Y-68915329D01*
X122406411Y-68915339D01*
X122482730Y-69099592D01*
X122482737Y-69099605D01*
X122593539Y-69265430D01*
X122593542Y-69265434D01*
X122734565Y-69406457D01*
X122734569Y-69406460D01*
X122900394Y-69517262D01*
X122900407Y-69517269D01*
X123009850Y-69562601D01*
X123084665Y-69593590D01*
X123084669Y-69593590D01*
X123084670Y-69593591D01*
X123280274Y-69632500D01*
X123280277Y-69632500D01*
X123479725Y-69632500D01*
X123611324Y-69606322D01*
X123675335Y-69593590D01*
X123859599Y-69517266D01*
X124025431Y-69406460D01*
X124166460Y-69265431D01*
X124277266Y-69099599D01*
X124353590Y-68915335D01*
X124392500Y-68719723D01*
X124392500Y-68520277D01*
X124392500Y-68520274D01*
X124353591Y-68324670D01*
X124353590Y-68324669D01*
X124353590Y-68324665D01*
X124346033Y-68306420D01*
X124277269Y-68140407D01*
X124277262Y-68140394D01*
X124163076Y-67969504D01*
X124165141Y-67968123D01*
X124142095Y-67913827D01*
X124153902Y-67844962D01*
X124201066Y-67793413D01*
X124265265Y-67775500D01*
X124549433Y-67775500D01*
X124549435Y-67775500D01*
X124606310Y-67760260D01*
X124644937Y-67749910D01*
X124730561Y-67700475D01*
X124800474Y-67630562D01*
X124900473Y-67530563D01*
X124947312Y-67449436D01*
X124949909Y-67444938D01*
X124975196Y-67350565D01*
X124975499Y-67349436D01*
X124975499Y-67250564D01*
X124975499Y-61581096D01*
X124995184Y-61514057D01*
X125047988Y-61468302D01*
X125117146Y-61458358D01*
X125168388Y-61477993D01*
X125207260Y-61503966D01*
X125207262Y-61503966D01*
X125207264Y-61503967D01*
X125280321Y-61518499D01*
X125280324Y-61518500D01*
X125280326Y-61518500D01*
X127829676Y-61518500D01*
X127829677Y-61518499D01*
X127902740Y-61503966D01*
X127985601Y-61448601D01*
X128002300Y-61423609D01*
X128055912Y-61378804D01*
X128105402Y-61368500D01*
X128580620Y-61368500D01*
X128678162Y-61349096D01*
X128725613Y-61339658D01*
X128862195Y-61283084D01*
X128985116Y-61200951D01*
X129089651Y-61096416D01*
X129171784Y-60973495D01*
X129228358Y-60836913D01*
X129237796Y-60789462D01*
X129257200Y-60691920D01*
X129257200Y-55870679D01*
X129249805Y-55833503D01*
X129246204Y-55815398D01*
X137558000Y-55815398D01*
X137558000Y-56024603D01*
X137598809Y-56229767D01*
X137598812Y-56229776D01*
X137678863Y-56423039D01*
X137678869Y-56423050D01*
X137769371Y-56558496D01*
X137769372Y-56558497D01*
X138176329Y-56151539D01*
X138219901Y-56227008D01*
X138312993Y-56320100D01*
X138388460Y-56363671D01*
X137981503Y-56770628D01*
X137981503Y-56770630D01*
X138116943Y-56861127D01*
X138116961Y-56861137D01*
X138310224Y-56941188D01*
X138310233Y-56941191D01*
X138515397Y-56982000D01*
X138515400Y-56982001D01*
X138724600Y-56982001D01*
X138724602Y-56982000D01*
X138929766Y-56941191D01*
X138929775Y-56941188D01*
X139123046Y-56861133D01*
X139123048Y-56861132D01*
X139258495Y-56770629D01*
X139258495Y-56770628D01*
X138851539Y-56363671D01*
X138927007Y-56320100D01*
X139020099Y-56227008D01*
X139063670Y-56151539D01*
X139470627Y-56558496D01*
X139470628Y-56558496D01*
X139561131Y-56423049D01*
X139561132Y-56423047D01*
X139641187Y-56229776D01*
X139641190Y-56229767D01*
X139681999Y-56024603D01*
X139682000Y-56024601D01*
X139682000Y-55815400D01*
X139681999Y-55815398D01*
X139641190Y-55610234D01*
X139641187Y-55610225D01*
X139561136Y-55416962D01*
X139561126Y-55416944D01*
X139470629Y-55281504D01*
X139470627Y-55281504D01*
X139063670Y-55688461D01*
X139020099Y-55612994D01*
X138927007Y-55519902D01*
X138851539Y-55476330D01*
X139258496Y-55069373D01*
X139258495Y-55069372D01*
X139123049Y-54978870D01*
X139123038Y-54978864D01*
X138929775Y-54898813D01*
X138929766Y-54898810D01*
X138724601Y-54858001D01*
X138515399Y-54858001D01*
X138310233Y-54898810D01*
X138310224Y-54898813D01*
X138116961Y-54978864D01*
X138116950Y-54978870D01*
X137981503Y-55069372D01*
X137981502Y-55069372D01*
X138388461Y-55476330D01*
X138312993Y-55519902D01*
X138219901Y-55612994D01*
X138176329Y-55688461D01*
X137769371Y-55281503D01*
X137769371Y-55281504D01*
X137678869Y-55416951D01*
X137678863Y-55416962D01*
X137598812Y-55610225D01*
X137598809Y-55610234D01*
X137558000Y-55815398D01*
X129246204Y-55815398D01*
X129228359Y-55725692D01*
X129228358Y-55725691D01*
X129228358Y-55725687D01*
X129220978Y-55707869D01*
X129171787Y-55589111D01*
X129171780Y-55589098D01*
X129089652Y-55466185D01*
X129040411Y-55416944D01*
X128985116Y-55361649D01*
X127946067Y-54322600D01*
X127103193Y-53479725D01*
X137607499Y-53479725D01*
X137646408Y-53675329D01*
X137646411Y-53675339D01*
X137722730Y-53859592D01*
X137722737Y-53859605D01*
X137833539Y-54025430D01*
X137833542Y-54025434D01*
X137974565Y-54166457D01*
X137974569Y-54166460D01*
X138140394Y-54277262D01*
X138140407Y-54277269D01*
X138249850Y-54322601D01*
X138324665Y-54353590D01*
X138324669Y-54353590D01*
X138324670Y-54353591D01*
X138520274Y-54392500D01*
X138520277Y-54392500D01*
X138719725Y-54392500D01*
X138851324Y-54366322D01*
X138915335Y-54353590D01*
X139099599Y-54277266D01*
X139265431Y-54166460D01*
X139406460Y-54025431D01*
X139517266Y-53859599D01*
X139593590Y-53675335D01*
X139606322Y-53611324D01*
X139632500Y-53479725D01*
X139632500Y-53280274D01*
X139593591Y-53084670D01*
X139593590Y-53084669D01*
X139593590Y-53084665D01*
X139570985Y-53030091D01*
X139517269Y-52900407D01*
X139517262Y-52900394D01*
X139406460Y-52734569D01*
X139406457Y-52734565D01*
X139265434Y-52593542D01*
X139265430Y-52593539D01*
X139099605Y-52482737D01*
X139099592Y-52482730D01*
X138915339Y-52406411D01*
X138915329Y-52406408D01*
X138719725Y-52367500D01*
X138719723Y-52367500D01*
X138520277Y-52367500D01*
X138520275Y-52367500D01*
X138324670Y-52406408D01*
X138324660Y-52406411D01*
X138140407Y-52482730D01*
X138140394Y-52482737D01*
X137974569Y-52593539D01*
X137974565Y-52593542D01*
X137833542Y-52734565D01*
X137833539Y-52734569D01*
X137722737Y-52900394D01*
X137722730Y-52900407D01*
X137646411Y-53084660D01*
X137646408Y-53084670D01*
X137607500Y-53280274D01*
X137607500Y-53280277D01*
X137607500Y-53479723D01*
X137607500Y-53479725D01*
X137607499Y-53479725D01*
X127103193Y-53479725D01*
X126985334Y-53361866D01*
X124956821Y-51333352D01*
X124956814Y-51333346D01*
X124883129Y-51284112D01*
X124883129Y-51284113D01*
X124833891Y-51251213D01*
X124697317Y-51194643D01*
X124697307Y-51194640D01*
X124552320Y-51165800D01*
X124552318Y-51165800D01*
X111009782Y-51165800D01*
X111009776Y-51165800D01*
X110980942Y-51171534D01*
X110980943Y-51171535D01*
X110864793Y-51194639D01*
X110864783Y-51194642D01*
X110784781Y-51227779D01*
X110784782Y-51227780D01*
X110728205Y-51251215D01*
X110646072Y-51306095D01*
X110605285Y-51333347D01*
X110605281Y-51333350D01*
X106682581Y-55256050D01*
X106621258Y-55289535D01*
X106551566Y-55284551D01*
X106495633Y-55242679D01*
X106471216Y-55177215D01*
X106482912Y-55119524D01*
X106481374Y-55118888D01*
X106483236Y-55114389D01*
X106483236Y-55114388D01*
X106483241Y-55114379D01*
X106561090Y-54874785D01*
X106600500Y-54625962D01*
X106600500Y-54374038D01*
X106561090Y-54125215D01*
X106483241Y-53885621D01*
X106483239Y-53885618D01*
X106483239Y-53885616D01*
X106441747Y-53804184D01*
X106368870Y-53661155D01*
X106237054Y-53479725D01*
X106220798Y-53457350D01*
X106220794Y-53457345D01*
X106042654Y-53279205D01*
X106042649Y-53279201D01*
X105838848Y-53131132D01*
X105838847Y-53131131D01*
X105838845Y-53131130D01*
X105747652Y-53084665D01*
X105614383Y-53016760D01*
X105374785Y-52938910D01*
X105125962Y-52899500D01*
X104874038Y-52899500D01*
X104749626Y-52919205D01*
X104625214Y-52938910D01*
X104385616Y-53016760D01*
X104161151Y-53131132D01*
X103957350Y-53279201D01*
X103957345Y-53279205D01*
X103779205Y-53457345D01*
X103779201Y-53457350D01*
X103631132Y-53661151D01*
X103516760Y-53885616D01*
X103438910Y-54125214D01*
X103399500Y-54374038D01*
X103399500Y-54625961D01*
X103438910Y-54874785D01*
X103516760Y-55114383D01*
X103631132Y-55338848D01*
X103779201Y-55542649D01*
X103779205Y-55542654D01*
X103957345Y-55720794D01*
X103957350Y-55720798D01*
X104094268Y-55820274D01*
X104161155Y-55868870D01*
X104304184Y-55941747D01*
X104385616Y-55983239D01*
X104385618Y-55983239D01*
X104385621Y-55983241D01*
X104625215Y-56061090D01*
X104874038Y-56100500D01*
X104874039Y-56100500D01*
X105125961Y-56100500D01*
X105125962Y-56100500D01*
X105374785Y-56061090D01*
X105614379Y-55983241D01*
X105614389Y-55983236D01*
X105618888Y-55981374D01*
X105619567Y-55983014D01*
X105680714Y-55971516D01*
X105745461Y-55997777D01*
X105785731Y-56054874D01*
X105788740Y-56124679D01*
X105756050Y-56182581D01*
X104025451Y-57913181D01*
X103964128Y-57946666D01*
X103937770Y-57949500D01*
X103896530Y-57949500D01*
X103693587Y-57989868D01*
X103693579Y-57989870D01*
X103502403Y-58069058D01*
X103330342Y-58184024D01*
X103184024Y-58330342D01*
X103069058Y-58502403D01*
X102989870Y-58693579D01*
X102989868Y-58693587D01*
X102949500Y-58896530D01*
X102949500Y-59103469D01*
X102989868Y-59306412D01*
X102989870Y-59306420D01*
X103069058Y-59497596D01*
X103184024Y-59669657D01*
X103330342Y-59815975D01*
X103330345Y-59815977D01*
X103502402Y-59930941D01*
X103693580Y-60010130D01*
X103896530Y-60050499D01*
X103896534Y-60050500D01*
X103896535Y-60050500D01*
X104103466Y-60050500D01*
X104103467Y-60050499D01*
X104306420Y-60010130D01*
X104497598Y-59930941D01*
X104669655Y-59815977D01*
X104815977Y-59669655D01*
X104930941Y-59497598D01*
X105010130Y-59306420D01*
X105050500Y-59103465D01*
X105050500Y-59062229D01*
X105070185Y-58995190D01*
X105086819Y-58974548D01*
X111358248Y-52703119D01*
X111419571Y-52669634D01*
X111445929Y-52666800D01*
X122243500Y-52666800D01*
X122310539Y-52686485D01*
X122356294Y-52739289D01*
X122367500Y-52790800D01*
X122367500Y-52880500D01*
X122347815Y-52947539D01*
X122295011Y-52993294D01*
X122243500Y-53004500D01*
X113848763Y-53004500D01*
X113803013Y-53016759D01*
X113803012Y-53016758D01*
X113753266Y-53030088D01*
X113753259Y-53030091D01*
X113667636Y-53079526D01*
X105462182Y-61284981D01*
X105400859Y-61318466D01*
X105374501Y-61321300D01*
X105277343Y-61321300D01*
X105124616Y-61362223D01*
X105124609Y-61362226D01*
X104987690Y-61441275D01*
X104987682Y-61441281D01*
X104875881Y-61553082D01*
X104875875Y-61553090D01*
X104796826Y-61690009D01*
X104796823Y-61690016D01*
X104755900Y-61842743D01*
X104755900Y-62000856D01*
X104796823Y-62153583D01*
X104796826Y-62153590D01*
X104875875Y-62290509D01*
X104875879Y-62290514D01*
X104875880Y-62290516D01*
X104987684Y-62402320D01*
X104987686Y-62402321D01*
X104987690Y-62402324D01*
X105123255Y-62480591D01*
X105124616Y-62481377D01*
X105277343Y-62522300D01*
X105277345Y-62522300D01*
X105435455Y-62522300D01*
X105435457Y-62522300D01*
X105588184Y-62481377D01*
X105725116Y-62402320D01*
X105836920Y-62290516D01*
X105915977Y-62153584D01*
X105956900Y-62000857D01*
X105956900Y-61903699D01*
X105976585Y-61836660D01*
X105993219Y-61816018D01*
X108912707Y-58896530D01*
X113109500Y-58896530D01*
X113109500Y-59103469D01*
X113149868Y-59306412D01*
X113149870Y-59306420D01*
X113229058Y-59497596D01*
X113344024Y-59669657D01*
X113490342Y-59815975D01*
X113490345Y-59815977D01*
X113662402Y-59930941D01*
X113853580Y-60010130D01*
X114056530Y-60050499D01*
X114056534Y-60050500D01*
X114056535Y-60050500D01*
X114263466Y-60050500D01*
X114263467Y-60050499D01*
X114466420Y-60010130D01*
X114657598Y-59930941D01*
X114829655Y-59815977D01*
X114975977Y-59669655D01*
X115090941Y-59497598D01*
X115170130Y-59306420D01*
X115210500Y-59103465D01*
X115210500Y-58896535D01*
X115170130Y-58693580D01*
X115090941Y-58502402D01*
X114975977Y-58330345D01*
X114975975Y-58330342D01*
X114829657Y-58184024D01*
X114714989Y-58107406D01*
X114657598Y-58069059D01*
X114466420Y-57989870D01*
X114466412Y-57989868D01*
X114263469Y-57949500D01*
X114263465Y-57949500D01*
X114056535Y-57949500D01*
X114056530Y-57949500D01*
X113853587Y-57989868D01*
X113853579Y-57989870D01*
X113662403Y-58069058D01*
X113490342Y-58184024D01*
X113344024Y-58330342D01*
X113229058Y-58502403D01*
X113149870Y-58693579D01*
X113149868Y-58693587D01*
X113109500Y-58896530D01*
X108912707Y-58896530D01*
X114017418Y-53791819D01*
X114078741Y-53758334D01*
X114105099Y-53755500D01*
X122243500Y-53755500D01*
X122310539Y-53775185D01*
X122356294Y-53827989D01*
X122367500Y-53879500D01*
X122367500Y-54166678D01*
X122382032Y-54239735D01*
X122382033Y-54239739D01*
X122382034Y-54239740D01*
X122437399Y-54322601D01*
X122483780Y-54353591D01*
X122520260Y-54377966D01*
X122520264Y-54377967D01*
X122593321Y-54392499D01*
X122593324Y-54392500D01*
X122593326Y-54392500D01*
X124166676Y-54392500D01*
X124166677Y-54392499D01*
X124239740Y-54377966D01*
X124322601Y-54322601D01*
X124377966Y-54239740D01*
X124392500Y-54166674D01*
X124392500Y-53191129D01*
X124412185Y-53124090D01*
X124464989Y-53078335D01*
X124534147Y-53068391D01*
X124597703Y-53097416D01*
X124604181Y-53103448D01*
X127719881Y-56219148D01*
X127753366Y-56280471D01*
X127756200Y-56306829D01*
X127756200Y-57745686D01*
X127736515Y-57812725D01*
X127683711Y-57858480D01*
X127644355Y-57869089D01*
X127607402Y-57872728D01*
X126925466Y-58554665D01*
X126875080Y-58467394D01*
X126800606Y-58392920D01*
X126713334Y-58342534D01*
X127285516Y-57770350D01*
X127285516Y-57770349D01*
X127248569Y-57763000D01*
X125861428Y-57763000D01*
X125824482Y-57770349D01*
X125824482Y-57770350D01*
X126396665Y-58342533D01*
X126309394Y-58392920D01*
X126234920Y-58467394D01*
X126184533Y-58554665D01*
X125502597Y-57872729D01*
X125502596Y-57872729D01*
X125349409Y-57975087D01*
X125349403Y-57975093D01*
X125217089Y-58107406D01*
X125217086Y-58107410D01*
X125113124Y-58262999D01*
X125113119Y-58263008D01*
X125041508Y-58435894D01*
X125041506Y-58435902D01*
X125005000Y-58619428D01*
X125005000Y-58806571D01*
X125041506Y-58990097D01*
X125041508Y-58990105D01*
X125113119Y-59162991D01*
X125113124Y-59163000D01*
X125217086Y-59318589D01*
X125217089Y-59318593D01*
X125349406Y-59450910D01*
X125349410Y-59450913D01*
X125408503Y-59490398D01*
X125453308Y-59544010D01*
X125462015Y-59613335D01*
X125431861Y-59676362D01*
X125372418Y-59713082D01*
X125339612Y-59717500D01*
X125280323Y-59717500D01*
X125207264Y-59732032D01*
X125207260Y-59732034D01*
X125150358Y-59770054D01*
X125083680Y-59790931D01*
X125016300Y-59772446D01*
X124969610Y-59720466D01*
X124961695Y-59699049D01*
X124949909Y-59655062D01*
X124900474Y-59569438D01*
X124830561Y-59499525D01*
X124333910Y-59002874D01*
X124300425Y-58941551D01*
X124305409Y-58871859D01*
X124307016Y-58867774D01*
X124353590Y-58755335D01*
X124380624Y-58619428D01*
X124392500Y-58559725D01*
X124392500Y-58360274D01*
X124353591Y-58164670D01*
X124353590Y-58164669D01*
X124353590Y-58164665D01*
X124353588Y-58164660D01*
X124277269Y-57980407D01*
X124277262Y-57980394D01*
X124166460Y-57814569D01*
X124166457Y-57814565D01*
X124025434Y-57673542D01*
X124025430Y-57673539D01*
X123859605Y-57562737D01*
X123859592Y-57562730D01*
X123675339Y-57486411D01*
X123675329Y-57486408D01*
X123479725Y-57447500D01*
X123479723Y-57447500D01*
X123280277Y-57447500D01*
X123280275Y-57447500D01*
X123084670Y-57486408D01*
X123084660Y-57486411D01*
X122900407Y-57562730D01*
X122900394Y-57562737D01*
X122734569Y-57673539D01*
X122734565Y-57673542D01*
X122593542Y-57814565D01*
X122593539Y-57814569D01*
X122482737Y-57980394D01*
X122482730Y-57980407D01*
X122406411Y-58164660D01*
X122406408Y-58164670D01*
X122367500Y-58360274D01*
X122367500Y-58360277D01*
X122367500Y-58559723D01*
X122367500Y-58559725D01*
X122367499Y-58559725D01*
X122406408Y-58755329D01*
X122406411Y-58755339D01*
X122482730Y-58939592D01*
X122482737Y-58939605D01*
X122593539Y-59105430D01*
X122593542Y-59105434D01*
X122734565Y-59246457D01*
X122734569Y-59246460D01*
X122900394Y-59357262D01*
X122900407Y-59357269D01*
X123084660Y-59433588D01*
X123084665Y-59433590D01*
X123084669Y-59433590D01*
X123084670Y-59433591D01*
X123280274Y-59472500D01*
X123280277Y-59472500D01*
X123479725Y-59472500D01*
X123633030Y-59442005D01*
X123702622Y-59448232D01*
X123744903Y-59475941D01*
X124188180Y-59919218D01*
X124221665Y-59980541D01*
X124224499Y-60006899D01*
X124224499Y-60114734D01*
X124204814Y-60181773D01*
X124152010Y-60227528D01*
X124082852Y-60237472D01*
X124031792Y-60214984D01*
X124030496Y-60216924D01*
X123859605Y-60102737D01*
X123859592Y-60102730D01*
X123675339Y-60026411D01*
X123675329Y-60026408D01*
X123479725Y-59987500D01*
X123479723Y-59987500D01*
X123280277Y-59987500D01*
X123280275Y-59987500D01*
X123084670Y-60026408D01*
X123084660Y-60026411D01*
X122900407Y-60102730D01*
X122900394Y-60102737D01*
X122734569Y-60213539D01*
X122734565Y-60213542D01*
X122593542Y-60354565D01*
X122593539Y-60354569D01*
X122482737Y-60520394D01*
X122482730Y-60520407D01*
X122406411Y-60704660D01*
X122406408Y-60704670D01*
X122367500Y-60900274D01*
X122367500Y-60900277D01*
X122367500Y-61099723D01*
X122367500Y-61099725D01*
X122367499Y-61099725D01*
X122406408Y-61295329D01*
X122406411Y-61295339D01*
X122482730Y-61479592D01*
X122482737Y-61479605D01*
X122593539Y-61645430D01*
X122593542Y-61645434D01*
X122734565Y-61786457D01*
X122734569Y-61786460D01*
X122900394Y-61897262D01*
X122900407Y-61897269D01*
X123084660Y-61973588D01*
X123084665Y-61973590D01*
X123084669Y-61973590D01*
X123084670Y-61973591D01*
X123280274Y-62012500D01*
X123280277Y-62012500D01*
X123479725Y-62012500D01*
X123611324Y-61986322D01*
X123675335Y-61973590D01*
X123859599Y-61897266D01*
X124025431Y-61786460D01*
X124030496Y-61783076D01*
X124031881Y-61785150D01*
X124086117Y-61762102D01*
X124154987Y-61773878D01*
X124206558Y-61821019D01*
X124224499Y-61885265D01*
X124224499Y-62654734D01*
X124204814Y-62721773D01*
X124152010Y-62767528D01*
X124082852Y-62777472D01*
X124031792Y-62754984D01*
X124030496Y-62756924D01*
X123859605Y-62642737D01*
X123859592Y-62642730D01*
X123675339Y-62566411D01*
X123675329Y-62566408D01*
X123479725Y-62527500D01*
X123479723Y-62527500D01*
X123280277Y-62527500D01*
X123280275Y-62527500D01*
X123084670Y-62566408D01*
X123084660Y-62566411D01*
X122900407Y-62642730D01*
X122900394Y-62642737D01*
X122734569Y-62753539D01*
X122734565Y-62753542D01*
X122593542Y-62894565D01*
X122593539Y-62894569D01*
X122482737Y-63060394D01*
X122482730Y-63060407D01*
X122406411Y-63244660D01*
X122406408Y-63244670D01*
X122367500Y-63440274D01*
X122367500Y-63440277D01*
X122367500Y-63639723D01*
X122367500Y-63639725D01*
X122367499Y-63639725D01*
X122406408Y-63835329D01*
X122406411Y-63835339D01*
X122482730Y-64019592D01*
X122482737Y-64019605D01*
X122593539Y-64185430D01*
X122593542Y-64185434D01*
X122734565Y-64326457D01*
X122734569Y-64326460D01*
X122900394Y-64437262D01*
X122900407Y-64437269D01*
X123076309Y-64510129D01*
X123084665Y-64513590D01*
X123084669Y-64513590D01*
X123084670Y-64513591D01*
X123280274Y-64552500D01*
X123280277Y-64552500D01*
X123479725Y-64552500D01*
X123646086Y-64519408D01*
X123675335Y-64513590D01*
X123859599Y-64437266D01*
X124025431Y-64326460D01*
X124030496Y-64323076D01*
X124031881Y-64325150D01*
X124086117Y-64302102D01*
X124154987Y-64313878D01*
X124206558Y-64361019D01*
X124224499Y-64425265D01*
X124224499Y-65194733D01*
X124204814Y-65261772D01*
X124152010Y-65307527D01*
X124082852Y-65317471D01*
X124031792Y-65294983D01*
X124030496Y-65296923D01*
X123859605Y-65182736D01*
X123859592Y-65182729D01*
X123675339Y-65106410D01*
X123675329Y-65106407D01*
X123479725Y-65067499D01*
X123479723Y-65067499D01*
X123280277Y-65067499D01*
X123280275Y-65067499D01*
X123084670Y-65106407D01*
X123084660Y-65106410D01*
X122900407Y-65182729D01*
X122900394Y-65182736D01*
X122734569Y-65293538D01*
X122734565Y-65293541D01*
X122593542Y-65434564D01*
X122593539Y-65434568D01*
X122482736Y-65600395D01*
X122482734Y-65600400D01*
X122471321Y-65627953D01*
X122427483Y-65682355D01*
X122361189Y-65704421D01*
X122356761Y-65704500D01*
X119870564Y-65704500D01*
X119822812Y-65717295D01*
X119822811Y-65717294D01*
X119775063Y-65730089D01*
X119775062Y-65730089D01*
X119689435Y-65779527D01*
X118448835Y-67020126D01*
X118387512Y-67053611D01*
X118317820Y-67048627D01*
X118313704Y-67047007D01*
X118291836Y-67037949D01*
X118291828Y-67037947D01*
X118098543Y-66999500D01*
X118098541Y-66999500D01*
X117901459Y-66999500D01*
X117901457Y-66999500D01*
X117708170Y-67037947D01*
X117708160Y-67037950D01*
X117526092Y-67113364D01*
X117526079Y-67113371D01*
X117362218Y-67222860D01*
X117362214Y-67222863D01*
X117222863Y-67362214D01*
X117222860Y-67362218D01*
X117113371Y-67526079D01*
X117113364Y-67526092D01*
X117037950Y-67708160D01*
X117037947Y-67708170D01*
X116999500Y-67901456D01*
X116999500Y-67901459D01*
X116999500Y-68098541D01*
X116999500Y-68098543D01*
X116999499Y-68098543D01*
X117037947Y-68291828D01*
X117037949Y-68291836D01*
X117046951Y-68313569D01*
X117054418Y-68383039D01*
X117023142Y-68445517D01*
X117020059Y-68448711D01*
X116750809Y-68717892D01*
X116689482Y-68751370D01*
X116663139Y-68754200D01*
X112681362Y-68754200D01*
X112614323Y-68734515D01*
X112568568Y-68681711D01*
X112558624Y-68612553D01*
X112573974Y-68568201D01*
X112574252Y-68567718D01*
X112606777Y-68511384D01*
X112647700Y-68358657D01*
X112647700Y-68200543D01*
X112606777Y-68047816D01*
X112606773Y-68047809D01*
X112527724Y-67910890D01*
X112527718Y-67910882D01*
X112459019Y-67842183D01*
X112425534Y-67780860D01*
X112422700Y-67754502D01*
X112422700Y-67459698D01*
X112442385Y-67392659D01*
X112459014Y-67372022D01*
X122921980Y-56909055D01*
X122983301Y-56875572D01*
X123052993Y-56880556D01*
X123057085Y-56882166D01*
X123084665Y-56893590D01*
X123132563Y-56903117D01*
X123280274Y-56932500D01*
X123280277Y-56932500D01*
X123479725Y-56932500D01*
X123611324Y-56906322D01*
X123675335Y-56893590D01*
X123859599Y-56817266D01*
X124025431Y-56706460D01*
X124166460Y-56565431D01*
X124277266Y-56399599D01*
X124282930Y-56385926D01*
X124310471Y-56319434D01*
X124353590Y-56215335D01*
X124385508Y-56054874D01*
X124392500Y-56019725D01*
X124392500Y-55820274D01*
X124353591Y-55624670D01*
X124353590Y-55624669D01*
X124353590Y-55624665D01*
X124285022Y-55459125D01*
X124277269Y-55440407D01*
X124277262Y-55440394D01*
X124166460Y-55274569D01*
X124166457Y-55274565D01*
X124025434Y-55133542D01*
X124025430Y-55133539D01*
X123859605Y-55022737D01*
X123859592Y-55022730D01*
X123675339Y-54946411D01*
X123675329Y-54946408D01*
X123479725Y-54907500D01*
X123479723Y-54907500D01*
X123280277Y-54907500D01*
X123280275Y-54907500D01*
X123084670Y-54946408D01*
X123084660Y-54946411D01*
X122900407Y-55022730D01*
X122900394Y-55022737D01*
X122734569Y-55133539D01*
X122734565Y-55133542D01*
X122593542Y-55274565D01*
X122593539Y-55274569D01*
X122482737Y-55440394D01*
X122482730Y-55440407D01*
X122406411Y-55624660D01*
X122406408Y-55624670D01*
X122367500Y-55820274D01*
X122367500Y-55820277D01*
X122367500Y-56019723D01*
X122367500Y-56019725D01*
X122367499Y-56019725D01*
X122406409Y-56215333D01*
X122406410Y-56215335D01*
X122417822Y-56242888D01*
X122425289Y-56312357D01*
X122394014Y-56374836D01*
X122390941Y-56378020D01*
X115401405Y-63367557D01*
X115340082Y-63401042D01*
X115270390Y-63396058D01*
X115214457Y-63354186D01*
X115192107Y-63304069D01*
X115170130Y-63193580D01*
X115090941Y-63002402D01*
X114975977Y-62830345D01*
X114975975Y-62830342D01*
X114829657Y-62684024D01*
X114738655Y-62623219D01*
X114657598Y-62569059D01*
X114651205Y-62566411D01*
X114466420Y-62489870D01*
X114466412Y-62489868D01*
X114263469Y-62449500D01*
X114263465Y-62449500D01*
X114056535Y-62449500D01*
X114056530Y-62449500D01*
X113853587Y-62489868D01*
X113853579Y-62489870D01*
X113662403Y-62569058D01*
X113490342Y-62684024D01*
X113344024Y-62830342D01*
X113229058Y-63002403D01*
X113210191Y-63047953D01*
X113166350Y-63102356D01*
X113100056Y-63124421D01*
X113095630Y-63124500D01*
X109450564Y-63124500D01*
X109402812Y-63137295D01*
X109402811Y-63137294D01*
X109355063Y-63150089D01*
X109355062Y-63150089D01*
X109269435Y-63199527D01*
X105487104Y-66981857D01*
X105425781Y-67015342D01*
X105356089Y-67010358D01*
X105351972Y-67008738D01*
X105350980Y-67008327D01*
X105306420Y-66989870D01*
X105306416Y-66989869D01*
X105306412Y-66989867D01*
X105103469Y-66949500D01*
X105103465Y-66949500D01*
X104896535Y-66949500D01*
X104896530Y-66949500D01*
X104693587Y-66989868D01*
X104693579Y-66989870D01*
X104502403Y-67069058D01*
X104330342Y-67184024D01*
X104184024Y-67330342D01*
X104069058Y-67502403D01*
X103989870Y-67693579D01*
X103989868Y-67693587D01*
X103949500Y-67896530D01*
X103949500Y-68103469D01*
X103989868Y-68306412D01*
X103989870Y-68306420D01*
X104010391Y-68355963D01*
X104069059Y-68497598D01*
X104084211Y-68520274D01*
X104184024Y-68669657D01*
X104330342Y-68815975D01*
X104330345Y-68815977D01*
X104502402Y-68930941D01*
X104693580Y-69010130D01*
X104896530Y-69050499D01*
X104896534Y-69050500D01*
X104896535Y-69050500D01*
X105103466Y-69050500D01*
X105103467Y-69050499D01*
X105306420Y-69010130D01*
X105352111Y-68991203D01*
X105421579Y-68983734D01*
X105484058Y-69015008D01*
X105487221Y-69018058D01*
X105734658Y-69265430D01*
X105865623Y-69396360D01*
X105865622Y-69396360D01*
X105865633Y-69396370D01*
X105899438Y-69430175D01*
X105899440Y-69430176D01*
X105899474Y-69430202D01*
X105899477Y-69430205D01*
X105900508Y-69430800D01*
X105940506Y-69453886D01*
X105940504Y-69453888D01*
X105940521Y-69453894D01*
X105985058Y-69479608D01*
X105985059Y-69479608D01*
X105985062Y-69479610D01*
X105985064Y-69479610D01*
X105985077Y-69479616D01*
X105985106Y-69479627D01*
X105985109Y-69479629D01*
X106030294Y-69491729D01*
X106030307Y-69491737D01*
X106030308Y-69491734D01*
X106059321Y-69499507D01*
X106080565Y-69505200D01*
X106080572Y-69505200D01*
X106080606Y-69505203D01*
X106080614Y-69505206D01*
X106126247Y-69505200D01*
X116873753Y-69505200D01*
X116919386Y-69505206D01*
X116919391Y-69505204D01*
X116919400Y-69505204D01*
X116919428Y-69505200D01*
X116919435Y-69505200D01*
X116966210Y-69492666D01*
X116966227Y-69492666D01*
X116966226Y-69492662D01*
X116976077Y-69490023D01*
X117014423Y-69479755D01*
X117014940Y-69479621D01*
X117014949Y-69479617D01*
X117015853Y-69479081D01*
X117056674Y-69455512D01*
X117056688Y-69455509D01*
X117056686Y-69455506D01*
X117059479Y-69453894D01*
X117099566Y-69430756D01*
X117100573Y-69430192D01*
X117100576Y-69430189D01*
X117101561Y-69429175D01*
X117134376Y-69396360D01*
X117551043Y-68979803D01*
X117612368Y-68946328D01*
X117682059Y-68951322D01*
X117686123Y-68952921D01*
X117708165Y-68962051D01*
X117708169Y-68962051D01*
X117708170Y-68962052D01*
X117901456Y-69000500D01*
X117901459Y-69000500D01*
X118098543Y-69000500D01*
X118228582Y-68974632D01*
X118291835Y-68962051D01*
X118473914Y-68886632D01*
X118637782Y-68777139D01*
X118777139Y-68637782D01*
X118886632Y-68473914D01*
X118962051Y-68291835D01*
X118980210Y-68200543D01*
X119000500Y-68098543D01*
X119000500Y-67901456D01*
X118962052Y-67708170D01*
X118962051Y-67708169D01*
X118962051Y-67708165D01*
X118952992Y-67686296D01*
X118945523Y-67616830D01*
X118976796Y-67554350D01*
X118979842Y-67551193D01*
X120039218Y-66491819D01*
X120100541Y-66458334D01*
X120126899Y-66455500D01*
X122356762Y-66455500D01*
X122423801Y-66475185D01*
X122469556Y-66527989D01*
X122471312Y-66532024D01*
X122482732Y-66559592D01*
X122482735Y-66559600D01*
X122482735Y-66559601D01*
X122593539Y-66725429D01*
X122593542Y-66725433D01*
X122680928Y-66812819D01*
X122714413Y-66874142D01*
X122709429Y-66943834D01*
X122667557Y-66999767D01*
X122602093Y-67024184D01*
X122593247Y-67024500D01*
X122150563Y-67024500D01*
X122055062Y-67050089D01*
X122055059Y-67050090D01*
X121969439Y-67099522D01*
X121969434Y-67099526D01*
X119080781Y-69988181D01*
X119019458Y-70021666D01*
X118993100Y-70024500D01*
X109650563Y-70024500D01*
X109602811Y-70037295D01*
X109602810Y-70037294D01*
X109555062Y-70050089D01*
X109555061Y-70050089D01*
X109512738Y-70074524D01*
X109469437Y-70099525D01*
X109469436Y-70099526D01*
X109469434Y-70099527D01*
X109462400Y-70103589D01*
X109461614Y-70102229D01*
X109405106Y-70124071D01*
X109394797Y-70124500D01*
X106450563Y-70124500D01*
X106402811Y-70137295D01*
X106402810Y-70137294D01*
X106355062Y-70150089D01*
X106355061Y-70150089D01*
X106269434Y-70199527D01*
X106269430Y-70199532D01*
X106269425Y-70199536D01*
X106265709Y-70203251D01*
X106210135Y-70235332D01*
X106202813Y-70237294D01*
X106155062Y-70250089D01*
X106155061Y-70250089D01*
X106069434Y-70299527D01*
X105080781Y-71288181D01*
X105019458Y-71321666D01*
X104993100Y-71324500D01*
X103749434Y-71324500D01*
X103650564Y-71324500D01*
X103555061Y-71350090D01*
X103555059Y-71350091D01*
X103555058Y-71350091D01*
X103469435Y-71399526D01*
X103399525Y-71469436D01*
X103350090Y-71555059D01*
X103350090Y-71555060D01*
X103350089Y-71555062D01*
X103324499Y-71650565D01*
X103324499Y-71650567D01*
X103324499Y-77593101D01*
X103304814Y-77660140D01*
X103288180Y-77680782D01*
X101999525Y-78969436D01*
X101950090Y-79055059D01*
X101950090Y-79055060D01*
X101950089Y-79055062D01*
X101924499Y-79150565D01*
X101924499Y-79150567D01*
X101924499Y-87149436D01*
X101937276Y-87197123D01*
X101937294Y-87197185D01*
X101950090Y-87244940D01*
X101999525Y-87330563D01*
X102303237Y-87634275D01*
X102335330Y-87689861D01*
X102350088Y-87744936D01*
X102350088Y-87744937D01*
X102350089Y-87744938D01*
X102399524Y-87830562D01*
X102399525Y-87830563D01*
X102399526Y-87830564D01*
X102403588Y-87837599D01*
X102402226Y-87838385D01*
X102424069Y-87894881D01*
X102424499Y-87905201D01*
X102424499Y-88193101D01*
X102404814Y-88260140D01*
X102388180Y-88280782D01*
X101799526Y-88869435D01*
X101750088Y-88955062D01*
X101750087Y-88955065D01*
X101735330Y-89010138D01*
X101703242Y-89065720D01*
X101699524Y-89069437D01*
X101699521Y-89069442D01*
X101650088Y-89155061D01*
X101645864Y-89170829D01*
X101645864Y-89170830D01*
X101624802Y-89249436D01*
X101624499Y-89250565D01*
X101624499Y-97649435D01*
X101650089Y-97744938D01*
X101650090Y-97744939D01*
X101650090Y-97744940D01*
X101699525Y-97830563D01*
X107657281Y-103788319D01*
X107690766Y-103849642D01*
X107685782Y-103919334D01*
X107643910Y-103975267D01*
X107578446Y-103999684D01*
X107569600Y-104000000D01*
X100524500Y-104000000D01*
X100457461Y-103980315D01*
X100411706Y-103927511D01*
X100400500Y-103876000D01*
X100400500Y-63413428D01*
X102900000Y-63413428D01*
X102900000Y-63586571D01*
X102927085Y-63757584D01*
X102980591Y-63922257D01*
X103059198Y-64076528D01*
X103123219Y-64164646D01*
X103123220Y-64164647D01*
X103629533Y-63658334D01*
X103679920Y-63745606D01*
X103754394Y-63820080D01*
X103841665Y-63870465D01*
X103335351Y-64376778D01*
X103335352Y-64376780D01*
X103423471Y-64440801D01*
X103577742Y-64519408D01*
X103742415Y-64572914D01*
X103913429Y-64600000D01*
X104086571Y-64600000D01*
X104257584Y-64572914D01*
X104422257Y-64519408D01*
X104576525Y-64440803D01*
X104664646Y-64376778D01*
X104664647Y-64376778D01*
X104158334Y-63870465D01*
X104245606Y-63820080D01*
X104320080Y-63745606D01*
X104370466Y-63658334D01*
X104876778Y-64164647D01*
X104876778Y-64164646D01*
X104940803Y-64076525D01*
X105019408Y-63922257D01*
X105072914Y-63757584D01*
X105100000Y-63586571D01*
X105100000Y-63413428D01*
X105072914Y-63242415D01*
X105019408Y-63077742D01*
X104940801Y-62923471D01*
X104876780Y-62835352D01*
X104876778Y-62835351D01*
X104370465Y-63341664D01*
X104320080Y-63254394D01*
X104245606Y-63179920D01*
X104158334Y-63129534D01*
X104664647Y-62623220D01*
X104664646Y-62623219D01*
X104576528Y-62559198D01*
X104422257Y-62480591D01*
X104257584Y-62427085D01*
X104086571Y-62400000D01*
X103913429Y-62400000D01*
X103742415Y-62427085D01*
X103577742Y-62480591D01*
X103423478Y-62559194D01*
X103335352Y-62623220D01*
X103841665Y-63129533D01*
X103754394Y-63179920D01*
X103679920Y-63254394D01*
X103629533Y-63341665D01*
X103123220Y-62835352D01*
X103059194Y-62923478D01*
X102980591Y-63077742D01*
X102927085Y-63242415D01*
X102900000Y-63413428D01*
X100400500Y-63413428D01*
X100400500Y-58002125D01*
X100400572Y-57997892D01*
X100401169Y-57980407D01*
X100418071Y-57485609D01*
X100418647Y-57477190D01*
X100470851Y-56969385D01*
X100471996Y-56961055D01*
X100558733Y-56457999D01*
X100560455Y-56449715D01*
X100566953Y-56423050D01*
X100681312Y-55953772D01*
X100683581Y-55945674D01*
X100838014Y-55459095D01*
X100840840Y-55451147D01*
X100845081Y-55440394D01*
X100948865Y-55177215D01*
X101028103Y-54976282D01*
X101031467Y-54968536D01*
X101250706Y-54507542D01*
X101254576Y-54500073D01*
X101504770Y-54055103D01*
X101509155Y-54047892D01*
X101789132Y-53621033D01*
X101793984Y-53614159D01*
X102102432Y-53207408D01*
X102107762Y-53200857D01*
X102443240Y-52816116D01*
X102448990Y-52809959D01*
X102809959Y-52448990D01*
X102816116Y-52443240D01*
X103200857Y-52107762D01*
X103207408Y-52102432D01*
X103614159Y-51793984D01*
X103621033Y-51789132D01*
X104047892Y-51509155D01*
X104055103Y-51504770D01*
X104500073Y-51254576D01*
X104507542Y-51250706D01*
X104968536Y-51031467D01*
X104976282Y-51028103D01*
X105451147Y-50840840D01*
X105459095Y-50838014D01*
X105945674Y-50683581D01*
X105953772Y-50681312D01*
X106449722Y-50560453D01*
X106457999Y-50558733D01*
X106961055Y-50471996D01*
X106969385Y-50470851D01*
X107477190Y-50418647D01*
X107485609Y-50418071D01*
X107997892Y-50400571D01*
X108002125Y-50400500D01*
X108057583Y-50400500D01*
X136942417Y-50400500D01*
X136997875Y-50400500D01*
X137002107Y-50400571D01*
G37*
%TD.AperFunction*%
%TA.AperFunction,Conductor*%
G36*
X113162669Y-63895185D02*
G01*
X113208424Y-63947989D01*
X113210191Y-63952047D01*
X113226760Y-63992049D01*
X113229059Y-63997598D01*
X113243764Y-64019605D01*
X113344024Y-64169657D01*
X113490342Y-64315975D01*
X113490345Y-64315977D01*
X113662402Y-64430941D01*
X113853580Y-64510130D01*
X113964068Y-64532107D01*
X114025978Y-64564491D01*
X114060552Y-64625207D01*
X114056813Y-64694976D01*
X114027557Y-64741405D01*
X111816638Y-66952325D01*
X111746726Y-67022236D01*
X111697291Y-67107859D01*
X111697291Y-67107860D01*
X111697290Y-67107862D01*
X111671700Y-67203365D01*
X111671700Y-67203367D01*
X111671700Y-67754502D01*
X111652015Y-67821541D01*
X111635381Y-67842183D01*
X111566681Y-67910882D01*
X111566675Y-67910890D01*
X111487626Y-68047809D01*
X111487623Y-68047816D01*
X111446700Y-68200543D01*
X111446700Y-68358657D01*
X111481083Y-68486974D01*
X111487623Y-68511383D01*
X111487623Y-68511384D01*
X111520426Y-68568201D01*
X111536898Y-68636101D01*
X111514045Y-68702128D01*
X111459123Y-68745318D01*
X111413038Y-68754200D01*
X106336861Y-68754200D01*
X106269822Y-68734515D01*
X106249191Y-68717893D01*
X106233422Y-68702128D01*
X106018210Y-68486972D01*
X105984718Y-68425655D01*
X105989694Y-68355963D01*
X105991302Y-68351873D01*
X106010130Y-68306420D01*
X106050500Y-68103465D01*
X106050500Y-67896535D01*
X106010130Y-67693580D01*
X105991260Y-67648025D01*
X105983792Y-67578560D01*
X106015066Y-67516080D01*
X106018112Y-67512923D01*
X109619218Y-63911819D01*
X109680541Y-63878334D01*
X109706899Y-63875500D01*
X113095630Y-63875500D01*
X113162669Y-63895185D01*
G37*
%TD.AperFunction*%
%TD*%
M02*
