%TF.GenerationSoftware,KiCad,Pcbnew,10.0.6*%
%TF.CreationDate,2026-09-09T10:34:27+05:30*%
%TF.ProjectId,emitter,656d6974-7465-4722-9e6b-696361645f70,rev?*%
%TF.SameCoordinates,Original*%
%TF.FileFunction,Copper,L2,Bot*%
%TF.FilePolarity,Positive*%
%FSLAX46Y46*%
G04 Gerber Fmt 4.6, Leading zero omitted, Abs format (unit mm)*
G04 Created by KiCad (PCBNEW 10.0.6) date 2026-09-09 10:34:27*
%MOMM*%
%LPD*%
G01*
G04 APERTURE LIST*
G04 Aperture macros list*
%AMRoundRect*
0 Rectangle with rounded corners*
0 $1 Rounding radius*
0 $2 $3 $4 $5 $6 $7 $8 $9 X,Y pos of 4 corners*
0 Add a 4 corners polygon primitive as box body*
4,1,4,$2,$3,$4,$5,$6,$7,$8,$9,$2,$3,0*
0 Add four circle primitives for the rounded corners*
1,1,$1+$1,$2,$3*
1,1,$1+$1,$4,$5*
1,1,$1+$1,$6,$7*
1,1,$1+$1,$8,$9*
0 Add four rect primitives between the rounded corners*
20,1,$1+$1,$2,$3,$4,$5,0*
20,1,$1+$1,$4,$5,$6,$7,0*
20,1,$1+$1,$6,$7,$8,$9,0*
20,1,$1+$1,$8,$9,$2,$3,0*%
G04 Aperture macros list end*
%TA.AperFunction,ComponentPad*%
%ADD10C,1.600000*%
%TD*%
%TA.AperFunction,ComponentPad*%
%ADD11R,1.800000X1.800000*%
%TD*%
%TA.AperFunction,ComponentPad*%
%ADD12C,1.800000*%
%TD*%
%TA.AperFunction,ComponentPad*%
%ADD13R,1.700000X1.700000*%
%TD*%
%TA.AperFunction,ComponentPad*%
%ADD14C,1.700000*%
%TD*%
%TA.AperFunction,ComponentPad*%
%ADD15RoundRect,0.250000X-0.550000X-0.550000X0.550000X-0.550000X0.550000X0.550000X-0.550000X0.550000X0*%
%TD*%
%TA.AperFunction,ComponentPad*%
%ADD16C,2.000000*%
%TD*%
%TA.AperFunction,ViaPad*%
%ADD17C,0.800000*%
%TD*%
%TA.AperFunction,Conductor*%
%ADD18C,0.300000*%
%TD*%
%TA.AperFunction,Conductor*%
%ADD19C,0.700000*%
%TD*%
%TA.AperFunction,Conductor*%
%ADD20C,0.500000*%
%TD*%
G04 APERTURE END LIST*
D10*
%TO.P,R5,1*%
%TO.N,/IR_TX*%
X94000000Y-70000000D03*
%TO.P,R5,2*%
%TO.N,/GATE*%
X101620000Y-70000000D03*
%TD*%
%TO.P,R4,1*%
%TO.N,/+5V_IR*%
X107000000Y-64000000D03*
%TO.P,R4,2*%
%TO.N,/LED_A4*%
X114620000Y-64000000D03*
%TD*%
%TO.P,R1,1*%
%TO.N,/+5V_IR*%
X74000000Y-64000000D03*
%TO.P,R1,2*%
%TO.N,/LED_A1*%
X81620000Y-64000000D03*
%TD*%
D11*
%TO.P,D2,1*%
%TO.N,/LED_RETURN*%
X83730000Y-55000000D03*
D12*
%TO.P,D2,2*%
%TO.N,/LED_A2*%
X86270000Y-55000000D03*
%TD*%
D11*
%TO.P,D4,1*%
%TO.N,/LED_RETURN*%
X103730000Y-55000000D03*
D12*
%TO.P,D4,2*%
%TO.N,/LED_A4*%
X106270000Y-55000000D03*
%TD*%
D11*
%TO.P,D1,1*%
%TO.N,/LED_RETURN*%
X73730000Y-55000000D03*
D12*
%TO.P,D1,2*%
%TO.N,/LED_A1*%
X76270000Y-55000000D03*
%TD*%
D10*
%TO.P,C2,1*%
%TO.N,/+5V_IR*%
X110500000Y-73300000D03*
%TO.P,C2,2*%
%TO.N,/GND*%
X113000000Y-73300000D03*
%TD*%
%TO.P,R3,1*%
%TO.N,/+5V_IR*%
X96000000Y-64000000D03*
%TO.P,R3,2*%
%TO.N,/LED_A3*%
X103620000Y-64000000D03*
%TD*%
%TO.P,R7,1*%
%TO.N,/+3V3*%
X56000000Y-65000000D03*
%TO.P,R7,2*%
%TO.N,/BUTTON*%
X63620000Y-65000000D03*
%TD*%
D11*
%TO.P,D3,1*%
%TO.N,/LED_RETURN*%
X93730000Y-55000000D03*
D12*
%TO.P,D3,2*%
%TO.N,/LED_A3*%
X96270000Y-55000000D03*
%TD*%
D10*
%TO.P,R6,1*%
%TO.N,/GATE*%
X119000000Y-70000000D03*
%TO.P,R6,2*%
%TO.N,/GND*%
X126620000Y-70000000D03*
%TD*%
D13*
%TO.P,J1,1*%
%TO.N,/+3V3*%
X122000000Y-54000000D03*
D14*
%TO.P,J1,2*%
%TO.N,/GND*%
X122000000Y-56540000D03*
%TO.P,J1,3*%
%TO.N,/IR_RX*%
X122000000Y-59080000D03*
%TD*%
D15*
%TO.P,C3,1*%
%TO.N,/+5V_IR*%
X110000000Y-111000000D03*
D10*
%TO.P,C3,2*%
%TO.N,/GND*%
X112500000Y-111000000D03*
%TD*%
D11*
%TO.P,U1,1*%
%TO.N,unconnected-(U1-EN-Pad1)*%
X82500000Y-103000000D03*
D12*
%TO.P,U1,2*%
%TO.N,unconnected-(U1-VP-Pad2)*%
X85040000Y-103000000D03*
%TO.P,U1,3*%
%TO.N,unconnected-(U1-VN-Pad3)*%
X87580000Y-103000000D03*
%TO.P,U1,4*%
%TO.N,unconnected-(U1-GPIO34-Pad4)*%
X90120000Y-103000000D03*
%TO.P,U1,5*%
%TO.N,unconnected-(U1-GPIO35-Pad5)*%
X92660000Y-103000000D03*
%TO.P,U1,6*%
%TO.N,unconnected-(U1-GPIO32-Pad6)*%
X95200000Y-103000000D03*
%TO.P,U1,7*%
%TO.N,unconnected-(U1-GPIO33-Pad7)*%
X97740000Y-103000000D03*
%TO.P,U1,8*%
%TO.N,unconnected-(U1-GPIO25-Pad8)*%
X100280000Y-103000000D03*
%TO.P,U1,9*%
%TO.N,unconnected-(U1-GPIO26-Pad9)*%
X102820000Y-103000000D03*
%TO.P,U1,10*%
%TO.N,/BUTTON*%
X105360000Y-103000000D03*
%TO.P,U1,11*%
%TO.N,unconnected-(U1-GPIO14-Pad11)*%
X107900000Y-103000000D03*
%TO.P,U1,12*%
%TO.N,unconnected-(U1-GPIO12-Pad12)*%
X110440000Y-103000000D03*
%TO.P,U1,13*%
%TO.N,unconnected-(U1-GPIO13-Pad13)*%
X112980000Y-103000000D03*
%TO.P,U1,14*%
%TO.N,/GND*%
X115520000Y-103000000D03*
%TO.P,U1,15*%
%TO.N,/+5V_IR*%
X118060000Y-103000000D03*
%TO.P,U1,16*%
%TO.N,/+3V3*%
X118060000Y-77600000D03*
%TO.P,U1,17*%
%TO.N,/GND*%
X115520000Y-77600000D03*
%TO.P,U1,18*%
%TO.N,/IR_RX*%
X112980000Y-77600000D03*
%TO.P,U1,19*%
%TO.N,unconnected-(U1-GPIO2-Pad19)*%
X110440000Y-77600000D03*
%TO.P,U1,20*%
%TO.N,/IR_TX*%
X107900000Y-77600000D03*
%TO.P,U1,21*%
%TO.N,unconnected-(U1-GPIO16-Pad21)*%
X105360000Y-77600000D03*
%TO.P,U1,22*%
%TO.N,unconnected-(U1-GPIO17-Pad22)*%
X102820000Y-77600000D03*
%TO.P,U1,23*%
%TO.N,unconnected-(U1-GPIO5-Pad23)*%
X100280000Y-77600000D03*
%TO.P,U1,24*%
%TO.N,unconnected-(U1-GPIO18-Pad24)*%
X97740000Y-77600000D03*
%TO.P,U1,25*%
%TO.N,unconnected-(U1-GPIO19-Pad25)*%
X95200000Y-77600000D03*
%TO.P,U1,26*%
%TO.N,unconnected-(U1-GPIO21-Pad26)*%
X92660000Y-77600000D03*
%TO.P,U1,27*%
%TO.N,unconnected-(U1-RX0-Pad27)*%
X90120000Y-77600000D03*
%TO.P,U1,28*%
%TO.N,unconnected-(U1-TX0-Pad28)*%
X87580000Y-77600000D03*
%TO.P,U1,29*%
%TO.N,unconnected-(U1-GPIO22-Pad29)*%
X85040000Y-77600000D03*
%TO.P,U1,30*%
%TO.N,unconnected-(U1-GPIO23-Pad30)*%
X82500000Y-77600000D03*
%TD*%
D10*
%TO.P,R2,1*%
%TO.N,/+5V_IR*%
X85000000Y-64000000D03*
%TO.P,R2,2*%
%TO.N,/LED_A2*%
X92620000Y-64000000D03*
%TD*%
%TO.P,C1,1*%
%TO.N,/+3V3*%
X121000000Y-64000000D03*
%TO.P,C1,2*%
%TO.N,/GND*%
X123500000Y-64000000D03*
%TD*%
D16*
%TO.P,SW1,1*%
%TO.N,/BUTTON*%
X55000000Y-56000000D03*
X61500000Y-56000000D03*
%TO.P,SW1,2*%
%TO.N,/GND*%
X55000000Y-60500000D03*
X61500000Y-60500000D03*
%TD*%
D17*
%TO.N,/+5V_IR*%
X113246500Y-71221300D03*
%TO.N,/IR_RX*%
X119697000Y-67158700D03*
%TD*%
%TO.N,/IR_TX*%
D18*
X107900000Y-77600000D02*
X104719000Y-74419300D01*
X98419300Y-74419300D02*
X94000000Y-70000000D01*
X104719000Y-74419300D02*
X98419300Y-74419300D01*
%TO.N,/GATE*%
X119000000Y-70000000D02*
X101620000Y-70000000D01*
%TO.N,/+5V_IR*%
D19*
X86401700Y-65401700D02*
X85000000Y-64000000D01*
X105592200Y-65407800D02*
X100156900Y-65407800D01*
X110000000Y-111000000D02*
X118000000Y-103000000D01*
X100156900Y-65407800D02*
X97407800Y-65407800D01*
X75401700Y-65401700D02*
X83598300Y-65401700D01*
X94598300Y-65401700D02*
X86401700Y-65401700D01*
X113246500Y-71221300D02*
X112578700Y-71221300D01*
X112578700Y-71221300D02*
X110500000Y-73300000D01*
X83598300Y-65401700D02*
X85000000Y-64000000D01*
X100156900Y-70529400D02*
X100156900Y-65407800D01*
X110500000Y-73300000D02*
X102927500Y-73300000D01*
X118000000Y-103000000D02*
X118060000Y-103000000D01*
X113246500Y-71221300D02*
X113807900Y-71221300D01*
X74000000Y-64000000D02*
X75401700Y-65401700D01*
X96000000Y-64000000D02*
X94598300Y-65401700D01*
X102927500Y-73300000D02*
X100156900Y-70529400D01*
X97407800Y-65407800D02*
X96000000Y-64000000D01*
X107000000Y-64000000D02*
X105592200Y-65407800D01*
X113807900Y-71221300D02*
X113246500Y-71221300D01*
%TO.N,/LED_RETURN*%
X75231700Y-53498300D02*
X80726600Y-53498300D01*
X90722600Y-56505700D02*
X85235700Y-56505700D01*
X103730000Y-55000000D02*
X102228000Y-55000000D01*
X93730000Y-55000000D02*
X92228300Y-55000000D01*
X102228000Y-55000000D02*
X100726000Y-53498000D01*
X100726000Y-53498000D02*
X95232000Y-53498000D01*
X73730000Y-55000000D02*
X75231700Y-53498300D01*
X85235700Y-56505700D02*
X83730000Y-55000000D01*
X82228300Y-55000000D02*
X83730000Y-55000000D01*
X95232000Y-53498000D02*
X93730000Y-55000000D01*
X92228300Y-55000000D02*
X90722600Y-56505700D01*
X80726600Y-53498300D02*
X82228300Y-55000000D01*
%TO.N,/GND*%
X55000000Y-60500000D02*
X61500000Y-60500000D01*
X118040000Y-60500000D02*
X61500000Y-60500000D01*
X122000000Y-56540000D02*
X118040000Y-60500000D01*
%TO.N,/+3V3*%
D20*
X121000000Y-74660000D02*
X121000000Y-64000000D01*
X58301700Y-62698300D02*
X119698000Y-62698300D01*
X119698000Y-62698300D02*
X121000000Y-64000000D01*
X118060000Y-77600000D02*
X121000000Y-74660000D01*
X56000000Y-65000000D02*
X58301700Y-62698300D01*
%TO.N,/BUTTON*%
D18*
X81198300Y-78838300D02*
X105360000Y-103000000D01*
X63620000Y-65000000D02*
X66126500Y-67506500D01*
X55000000Y-56000000D02*
X61500000Y-56000000D01*
X78592800Y-67506500D02*
X81198300Y-70112000D01*
X81198300Y-70112000D02*
X81198300Y-78838300D01*
X66126500Y-67506500D02*
X78592800Y-67506500D01*
%TO.N,/IR_RX*%
X113148000Y-77600000D02*
X120202000Y-70546100D01*
X119697000Y-67158700D02*
X119697000Y-67663500D01*
X119697000Y-67663500D02*
X119697000Y-67158700D01*
X120202000Y-70546100D02*
X120202000Y-67663500D01*
X112980000Y-77600000D02*
X113148000Y-77600000D01*
X120202000Y-67663500D02*
X119697000Y-67158700D01*
%TD*%
%TA.AperFunction,Conductor*%
%TO.N,/GND*%
G36*
X127168447Y-50705787D02*
G01*
X127334625Y-50765246D01*
X127343594Y-50768961D01*
X127645263Y-50911640D01*
X127653826Y-50916218D01*
X127940049Y-51087773D01*
X127948127Y-51093171D01*
X128216150Y-51291951D01*
X128223660Y-51298114D01*
X128470921Y-51522218D01*
X128477781Y-51529078D01*
X128603484Y-51667770D01*
X128701885Y-51776339D01*
X128708048Y-51783849D01*
X128906828Y-52051872D01*
X128912226Y-52059950D01*
X129083781Y-52346173D01*
X129088361Y-52354741D01*
X129231036Y-52656402D01*
X129234754Y-52665377D01*
X129294213Y-52831552D01*
X129300000Y-52864904D01*
X129300000Y-112135094D01*
X129294213Y-112168446D01*
X129234754Y-112334621D01*
X129231036Y-112343597D01*
X129088361Y-112645258D01*
X129083781Y-112653826D01*
X128912226Y-112940049D01*
X128906828Y-112948127D01*
X128708048Y-113216150D01*
X128701885Y-113223660D01*
X128477786Y-113470916D01*
X128470916Y-113477786D01*
X128223660Y-113701885D01*
X128216150Y-113708048D01*
X127948127Y-113906828D01*
X127940049Y-113912226D01*
X127653826Y-114083781D01*
X127645258Y-114088361D01*
X127343597Y-114231036D01*
X127334622Y-114234754D01*
X127242972Y-114267547D01*
X127168446Y-114294213D01*
X127135095Y-114300000D01*
X80899000Y-114300000D01*
X80840809Y-114281093D01*
X80804845Y-114231593D01*
X80800000Y-114201000D01*
X80800000Y-79316110D01*
X80818907Y-79257919D01*
X80868407Y-79221955D01*
X80929593Y-79221955D01*
X80969001Y-79246104D01*
X102822284Y-101099388D01*
X103510677Y-101787781D01*
X103538454Y-101842298D01*
X103528883Y-101902730D01*
X103485618Y-101945995D01*
X103425186Y-101955566D01*
X103395728Y-101945995D01*
X103280832Y-101887453D01*
X103101113Y-101829058D01*
X102914484Y-101799500D01*
X102914481Y-101799500D01*
X102725519Y-101799500D01*
X102725516Y-101799500D01*
X102538886Y-101829058D01*
X102359167Y-101887453D01*
X102190803Y-101973238D01*
X102037928Y-102084309D01*
X101904309Y-102217928D01*
X101793238Y-102370803D01*
X101707453Y-102539167D01*
X101649058Y-102718886D01*
X101647781Y-102726954D01*
X101620004Y-102781471D01*
X101565487Y-102809248D01*
X101505055Y-102799677D01*
X101461790Y-102756412D01*
X101452219Y-102726954D01*
X101450941Y-102718886D01*
X101450939Y-102718880D01*
X101392547Y-102539168D01*
X101306760Y-102370801D01*
X101195690Y-102217927D01*
X101062073Y-102084310D01*
X100909199Y-101973240D01*
X100909198Y-101973239D01*
X100909196Y-101973238D01*
X100740832Y-101887453D01*
X100561113Y-101829058D01*
X100374484Y-101799500D01*
X100374481Y-101799500D01*
X100185519Y-101799500D01*
X100185516Y-101799500D01*
X99998886Y-101829058D01*
X99819167Y-101887453D01*
X99650803Y-101973238D01*
X99497928Y-102084309D01*
X99364309Y-102217928D01*
X99253238Y-102370803D01*
X99167453Y-102539167D01*
X99109058Y-102718886D01*
X99107781Y-102726954D01*
X99080004Y-102781471D01*
X99025487Y-102809248D01*
X98965055Y-102799677D01*
X98921790Y-102756412D01*
X98912219Y-102726954D01*
X98910941Y-102718886D01*
X98910939Y-102718880D01*
X98852547Y-102539168D01*
X98766760Y-102370801D01*
X98655690Y-102217927D01*
X98522073Y-102084310D01*
X98369199Y-101973240D01*
X98369198Y-101973239D01*
X98369196Y-101973238D01*
X98200832Y-101887453D01*
X98021113Y-101829058D01*
X97834484Y-101799500D01*
X97834481Y-101799500D01*
X97645519Y-101799500D01*
X97645516Y-101799500D01*
X97458886Y-101829058D01*
X97279167Y-101887453D01*
X97110803Y-101973238D01*
X96957928Y-102084309D01*
X96824309Y-102217928D01*
X96713238Y-102370803D01*
X96627453Y-102539167D01*
X96569058Y-102718886D01*
X96567781Y-102726954D01*
X96540004Y-102781471D01*
X96485487Y-102809248D01*
X96425055Y-102799677D01*
X96381790Y-102756412D01*
X96372219Y-102726954D01*
X96370941Y-102718886D01*
X96370939Y-102718880D01*
X96312547Y-102539168D01*
X96226760Y-102370801D01*
X96115690Y-102217927D01*
X95982073Y-102084310D01*
X95829199Y-101973240D01*
X95829198Y-101973239D01*
X95829196Y-101973238D01*
X95660832Y-101887453D01*
X95481113Y-101829058D01*
X95294484Y-101799500D01*
X95294481Y-101799500D01*
X95105519Y-101799500D01*
X95105516Y-101799500D01*
X94918886Y-101829058D01*
X94739167Y-101887453D01*
X94570803Y-101973238D01*
X94417928Y-102084309D01*
X94284309Y-102217928D01*
X94173238Y-102370803D01*
X94087453Y-102539167D01*
X94029058Y-102718886D01*
X94027781Y-102726954D01*
X94000004Y-102781471D01*
X93945487Y-102809248D01*
X93885055Y-102799677D01*
X93841790Y-102756412D01*
X93832219Y-102726954D01*
X93830941Y-102718886D01*
X93830939Y-102718880D01*
X93772547Y-102539168D01*
X93686760Y-102370801D01*
X93575690Y-102217927D01*
X93442073Y-102084310D01*
X93289199Y-101973240D01*
X93289198Y-101973239D01*
X93289196Y-101973238D01*
X93120832Y-101887453D01*
X92941113Y-101829058D01*
X92754484Y-101799500D01*
X92754481Y-101799500D01*
X92565519Y-101799500D01*
X92565516Y-101799500D01*
X92378886Y-101829058D01*
X92199167Y-101887453D01*
X92030803Y-101973238D01*
X91877928Y-102084309D01*
X91744309Y-102217928D01*
X91633238Y-102370803D01*
X91547453Y-102539167D01*
X91489058Y-102718886D01*
X91487781Y-102726954D01*
X91460004Y-102781471D01*
X91405487Y-102809248D01*
X91345055Y-102799677D01*
X91301790Y-102756412D01*
X91292219Y-102726954D01*
X91290941Y-102718886D01*
X91290939Y-102718880D01*
X91232547Y-102539168D01*
X91146760Y-102370801D01*
X91035690Y-102217927D01*
X90902073Y-102084310D01*
X90749199Y-101973240D01*
X90749198Y-101973239D01*
X90749196Y-101973238D01*
X90580832Y-101887453D01*
X90401113Y-101829058D01*
X90214484Y-101799500D01*
X90214481Y-101799500D01*
X90025519Y-101799500D01*
X90025516Y-101799500D01*
X89838886Y-101829058D01*
X89659167Y-101887453D01*
X89490803Y-101973238D01*
X89337928Y-102084309D01*
X89204309Y-102217928D01*
X89093238Y-102370803D01*
X89007453Y-102539167D01*
X88949058Y-102718886D01*
X88947781Y-102726954D01*
X88920004Y-102781471D01*
X88865487Y-102809248D01*
X88805055Y-102799677D01*
X88761790Y-102756412D01*
X88752219Y-102726954D01*
X88750941Y-102718886D01*
X88750939Y-102718880D01*
X88692547Y-102539168D01*
X88606760Y-102370801D01*
X88495690Y-102217927D01*
X88362073Y-102084310D01*
X88209199Y-101973240D01*
X88209198Y-101973239D01*
X88209196Y-101973238D01*
X88040832Y-101887453D01*
X87861113Y-101829058D01*
X87674484Y-101799500D01*
X87674481Y-101799500D01*
X87485519Y-101799500D01*
X87485516Y-101799500D01*
X87298886Y-101829058D01*
X87119167Y-101887453D01*
X86950803Y-101973238D01*
X86797928Y-102084309D01*
X86664309Y-102217928D01*
X86553238Y-102370803D01*
X86467453Y-102539167D01*
X86409058Y-102718886D01*
X86407781Y-102726954D01*
X86380004Y-102781471D01*
X86325487Y-102809248D01*
X86265055Y-102799677D01*
X86221790Y-102756412D01*
X86212219Y-102726954D01*
X86210941Y-102718886D01*
X86210939Y-102718880D01*
X86152547Y-102539168D01*
X86066760Y-102370801D01*
X85955690Y-102217927D01*
X85822073Y-102084310D01*
X85669199Y-101973240D01*
X85669198Y-101973239D01*
X85669196Y-101973238D01*
X85500832Y-101887453D01*
X85321113Y-101829058D01*
X85134484Y-101799500D01*
X85134481Y-101799500D01*
X84945519Y-101799500D01*
X84945516Y-101799500D01*
X84758886Y-101829058D01*
X84579167Y-101887453D01*
X84410803Y-101973238D01*
X84257928Y-102084309D01*
X84124309Y-102217928D01*
X84013238Y-102370803D01*
X83927451Y-102539171D01*
X83927449Y-102539174D01*
X83893653Y-102643189D01*
X83857689Y-102692689D01*
X83799498Y-102711596D01*
X83741308Y-102692688D01*
X83705344Y-102643188D01*
X83700499Y-102612596D01*
X83700499Y-102055139D01*
X83700499Y-102055136D01*
X83697585Y-102030009D01*
X83652206Y-101927235D01*
X83572765Y-101847794D01*
X83469991Y-101802415D01*
X83469990Y-101802414D01*
X83469988Y-101802414D01*
X83444868Y-101799500D01*
X81555139Y-101799500D01*
X81555136Y-101799501D01*
X81530009Y-101802414D01*
X81427235Y-101847794D01*
X81347794Y-101927235D01*
X81302414Y-102030011D01*
X81299500Y-102055130D01*
X81299500Y-103944860D01*
X81299501Y-103944863D01*
X81302414Y-103969990D01*
X81327481Y-104026760D01*
X81347794Y-104072765D01*
X81427235Y-104152206D01*
X81530009Y-104197585D01*
X81555135Y-104200500D01*
X83444864Y-104200499D01*
X83469991Y-104197585D01*
X83572765Y-104152206D01*
X83652206Y-104072765D01*
X83697585Y-103969991D01*
X83700500Y-103944865D01*
X83700499Y-103387401D01*
X83719406Y-103329213D01*
X83768906Y-103293249D01*
X83830092Y-103293249D01*
X83879592Y-103329213D01*
X83893653Y-103356811D01*
X83927449Y-103460825D01*
X83927451Y-103460828D01*
X83927452Y-103460831D01*
X83927453Y-103460832D01*
X84013240Y-103629199D01*
X84124310Y-103782073D01*
X84257927Y-103915690D01*
X84410801Y-104026760D01*
X84579168Y-104112547D01*
X84758882Y-104170940D01*
X84758883Y-104170940D01*
X84758886Y-104170941D01*
X84945516Y-104200500D01*
X84945519Y-104200500D01*
X85134484Y-104200500D01*
X85321113Y-104170941D01*
X85321114Y-104170940D01*
X85321118Y-104170940D01*
X85500832Y-104112547D01*
X85669199Y-104026760D01*
X85822073Y-103915690D01*
X85955690Y-103782073D01*
X86066760Y-103629199D01*
X86152547Y-103460832D01*
X86210940Y-103281118D01*
X86210941Y-103281113D01*
X86212219Y-103273046D01*
X86239996Y-103218529D01*
X86294512Y-103190751D01*
X86354944Y-103200322D01*
X86398209Y-103243586D01*
X86407781Y-103273046D01*
X86409058Y-103281113D01*
X86467453Y-103460832D01*
X86497393Y-103519594D01*
X86553240Y-103629199D01*
X86664310Y-103782073D01*
X86797927Y-103915690D01*
X86950801Y-104026760D01*
X87119168Y-104112547D01*
X87298882Y-104170940D01*
X87298883Y-104170940D01*
X87298886Y-104170941D01*
X87485516Y-104200500D01*
X87485519Y-104200500D01*
X87674484Y-104200500D01*
X87861113Y-104170941D01*
X87861114Y-104170940D01*
X87861118Y-104170940D01*
X88040832Y-104112547D01*
X88209199Y-104026760D01*
X88362073Y-103915690D01*
X88495690Y-103782073D01*
X88606760Y-103629199D01*
X88692547Y-103460832D01*
X88750940Y-103281118D01*
X88750941Y-103281113D01*
X88752219Y-103273046D01*
X88779996Y-103218529D01*
X88834512Y-103190751D01*
X88894944Y-103200322D01*
X88938209Y-103243586D01*
X88947781Y-103273046D01*
X88949058Y-103281113D01*
X89007453Y-103460832D01*
X89037393Y-103519594D01*
X89093240Y-103629199D01*
X89204310Y-103782073D01*
X89337927Y-103915690D01*
X89490801Y-104026760D01*
X89659168Y-104112547D01*
X89838882Y-104170940D01*
X89838883Y-104170940D01*
X89838886Y-104170941D01*
X90025516Y-104200500D01*
X90025519Y-104200500D01*
X90214484Y-104200500D01*
X90401113Y-104170941D01*
X90401114Y-104170940D01*
X90401118Y-104170940D01*
X90580832Y-104112547D01*
X90749199Y-104026760D01*
X90902073Y-103915690D01*
X91035690Y-103782073D01*
X91146760Y-103629199D01*
X91232547Y-103460832D01*
X91290940Y-103281118D01*
X91290941Y-103281113D01*
X91292219Y-103273046D01*
X91319996Y-103218529D01*
X91374512Y-103190751D01*
X91434944Y-103200322D01*
X91478209Y-103243586D01*
X91487781Y-103273046D01*
X91489058Y-103281113D01*
X91547453Y-103460832D01*
X91577393Y-103519594D01*
X91633240Y-103629199D01*
X91744310Y-103782073D01*
X91877927Y-103915690D01*
X92030801Y-104026760D01*
X92199168Y-104112547D01*
X92378882Y-104170940D01*
X92378883Y-104170940D01*
X92378886Y-104170941D01*
X92565516Y-104200500D01*
X92565519Y-104200500D01*
X92754484Y-104200500D01*
X92941113Y-104170941D01*
X92941114Y-104170940D01*
X92941118Y-104170940D01*
X93120832Y-104112547D01*
X93289199Y-104026760D01*
X93442073Y-103915690D01*
X93575690Y-103782073D01*
X93686760Y-103629199D01*
X93772547Y-103460832D01*
X93830940Y-103281118D01*
X93830941Y-103281113D01*
X93832219Y-103273046D01*
X93859996Y-103218529D01*
X93914512Y-103190751D01*
X93974944Y-103200322D01*
X94018209Y-103243586D01*
X94027781Y-103273046D01*
X94029058Y-103281113D01*
X94087453Y-103460832D01*
X94117393Y-103519594D01*
X94173240Y-103629199D01*
X94284310Y-103782073D01*
X94417927Y-103915690D01*
X94570801Y-104026760D01*
X94739168Y-104112547D01*
X94918882Y-104170940D01*
X94918883Y-104170940D01*
X94918886Y-104170941D01*
X95105516Y-104200500D01*
X95105519Y-104200500D01*
X95294484Y-104200500D01*
X95481113Y-104170941D01*
X95481114Y-104170940D01*
X95481118Y-104170940D01*
X95660832Y-104112547D01*
X95829199Y-104026760D01*
X95982073Y-103915690D01*
X96115690Y-103782073D01*
X96226760Y-103629199D01*
X96312547Y-103460832D01*
X96370940Y-103281118D01*
X96370941Y-103281113D01*
X96372219Y-103273046D01*
X96399996Y-103218529D01*
X96454512Y-103190751D01*
X96514944Y-103200322D01*
X96558209Y-103243586D01*
X96567781Y-103273046D01*
X96569058Y-103281113D01*
X96627453Y-103460832D01*
X96657393Y-103519594D01*
X96713240Y-103629199D01*
X96824310Y-103782073D01*
X96957927Y-103915690D01*
X97110801Y-104026760D01*
X97279168Y-104112547D01*
X97458882Y-104170940D01*
X97458883Y-104170940D01*
X97458886Y-104170941D01*
X97645516Y-104200500D01*
X97645519Y-104200500D01*
X97834484Y-104200500D01*
X98021113Y-104170941D01*
X98021114Y-104170940D01*
X98021118Y-104170940D01*
X98200832Y-104112547D01*
X98369199Y-104026760D01*
X98522073Y-103915690D01*
X98655690Y-103782073D01*
X98766760Y-103629199D01*
X98852547Y-103460832D01*
X98910940Y-103281118D01*
X98910941Y-103281113D01*
X98912219Y-103273046D01*
X98939996Y-103218529D01*
X98994512Y-103190751D01*
X99054944Y-103200322D01*
X99098209Y-103243586D01*
X99107781Y-103273046D01*
X99109058Y-103281113D01*
X99167453Y-103460832D01*
X99197393Y-103519594D01*
X99253240Y-103629199D01*
X99364310Y-103782073D01*
X99497927Y-103915690D01*
X99650801Y-104026760D01*
X99819168Y-104112547D01*
X99998882Y-104170940D01*
X99998883Y-104170940D01*
X99998886Y-104170941D01*
X100185516Y-104200500D01*
X100185519Y-104200500D01*
X100374484Y-104200500D01*
X100561113Y-104170941D01*
X100561114Y-104170940D01*
X100561118Y-104170940D01*
X100740832Y-104112547D01*
X100909199Y-104026760D01*
X101062073Y-103915690D01*
X101195690Y-103782073D01*
X101306760Y-103629199D01*
X101392547Y-103460832D01*
X101450940Y-103281118D01*
X101450941Y-103281113D01*
X101452219Y-103273046D01*
X101479996Y-103218529D01*
X101534512Y-103190751D01*
X101594944Y-103200322D01*
X101638209Y-103243586D01*
X101647781Y-103273046D01*
X101649058Y-103281113D01*
X101707453Y-103460832D01*
X101737393Y-103519594D01*
X101793240Y-103629199D01*
X101904310Y-103782073D01*
X102037927Y-103915690D01*
X102190801Y-104026760D01*
X102359168Y-104112547D01*
X102538882Y-104170940D01*
X102538883Y-104170940D01*
X102538886Y-104170941D01*
X102725516Y-104200500D01*
X102725519Y-104200500D01*
X102914484Y-104200500D01*
X103101113Y-104170941D01*
X103101114Y-104170940D01*
X103101118Y-104170940D01*
X103280832Y-104112547D01*
X103449199Y-104026760D01*
X103602073Y-103915690D01*
X103735690Y-103782073D01*
X103846760Y-103629199D01*
X103932547Y-103460832D01*
X103990940Y-103281118D01*
X103990941Y-103281113D01*
X103992219Y-103273046D01*
X104019996Y-103218529D01*
X104074512Y-103190751D01*
X104134944Y-103200322D01*
X104178209Y-103243586D01*
X104187781Y-103273046D01*
X104189058Y-103281113D01*
X104247453Y-103460832D01*
X104277393Y-103519594D01*
X104333240Y-103629199D01*
X104444310Y-103782073D01*
X104577927Y-103915690D01*
X104730801Y-104026760D01*
X104899168Y-104112547D01*
X105078882Y-104170940D01*
X105078883Y-104170940D01*
X105078886Y-104170941D01*
X105265516Y-104200500D01*
X105265519Y-104200500D01*
X105454484Y-104200500D01*
X105641113Y-104170941D01*
X105641114Y-104170940D01*
X105641118Y-104170940D01*
X105820832Y-104112547D01*
X105989199Y-104026760D01*
X106142073Y-103915690D01*
X106275690Y-103782073D01*
X106386760Y-103629199D01*
X106472547Y-103460832D01*
X106530940Y-103281118D01*
X106530941Y-103281113D01*
X106532219Y-103273046D01*
X106559996Y-103218529D01*
X106614512Y-103190751D01*
X106674944Y-103200322D01*
X106718209Y-103243586D01*
X106727781Y-103273046D01*
X106729058Y-103281113D01*
X106787453Y-103460832D01*
X106817393Y-103519594D01*
X106873240Y-103629199D01*
X106984310Y-103782073D01*
X107117927Y-103915690D01*
X107270801Y-104026760D01*
X107439168Y-104112547D01*
X107618882Y-104170940D01*
X107618883Y-104170940D01*
X107618886Y-104170941D01*
X107805516Y-104200500D01*
X107805519Y-104200500D01*
X107994484Y-104200500D01*
X108181113Y-104170941D01*
X108181114Y-104170940D01*
X108181118Y-104170940D01*
X108360832Y-104112547D01*
X108529199Y-104026760D01*
X108682073Y-103915690D01*
X108815690Y-103782073D01*
X108926760Y-103629199D01*
X109012547Y-103460832D01*
X109070940Y-103281118D01*
X109070941Y-103281113D01*
X109072219Y-103273046D01*
X109099996Y-103218529D01*
X109154512Y-103190751D01*
X109214944Y-103200322D01*
X109258209Y-103243586D01*
X109267781Y-103273046D01*
X109269058Y-103281113D01*
X109327453Y-103460832D01*
X109357393Y-103519594D01*
X109413240Y-103629199D01*
X109524310Y-103782073D01*
X109657927Y-103915690D01*
X109810801Y-104026760D01*
X109979168Y-104112547D01*
X110158882Y-104170940D01*
X110158883Y-104170940D01*
X110158886Y-104170941D01*
X110345516Y-104200500D01*
X110345519Y-104200500D01*
X110534484Y-104200500D01*
X110721113Y-104170941D01*
X110721114Y-104170940D01*
X110721118Y-104170940D01*
X110900832Y-104112547D01*
X111069199Y-104026760D01*
X111222073Y-103915690D01*
X111355690Y-103782073D01*
X111466760Y-103629199D01*
X111552547Y-103460832D01*
X111610940Y-103281118D01*
X111610941Y-103281113D01*
X111612219Y-103273046D01*
X111639996Y-103218529D01*
X111694512Y-103190751D01*
X111754944Y-103200322D01*
X111798209Y-103243586D01*
X111807781Y-103273046D01*
X111809058Y-103281113D01*
X111867453Y-103460832D01*
X111897393Y-103519594D01*
X111953240Y-103629199D01*
X112064310Y-103782073D01*
X112197927Y-103915690D01*
X112350801Y-104026760D01*
X112519168Y-104112547D01*
X112698882Y-104170940D01*
X112698883Y-104170940D01*
X112698886Y-104170941D01*
X112885516Y-104200500D01*
X112885519Y-104200500D01*
X113074484Y-104200500D01*
X113261113Y-104170941D01*
X113261114Y-104170940D01*
X113261118Y-104170940D01*
X113440832Y-104112547D01*
X113609199Y-104026760D01*
X113762073Y-103915690D01*
X113895690Y-103782073D01*
X114006760Y-103629199D01*
X114049838Y-103544652D01*
X114093103Y-103501388D01*
X114153535Y-103491817D01*
X114208051Y-103519594D01*
X114226258Y-103544653D01*
X114322609Y-103733753D01*
X114368932Y-103797512D01*
X115037036Y-103129407D01*
X115054075Y-103192993D01*
X115119901Y-103307007D01*
X115212993Y-103400099D01*
X115327007Y-103465925D01*
X115390591Y-103482962D01*
X114722485Y-104151067D01*
X114786241Y-104197387D01*
X114982586Y-104297430D01*
X115192170Y-104365528D01*
X115409815Y-104400000D01*
X115441044Y-104400000D01*
X115499235Y-104418907D01*
X115535199Y-104468407D01*
X115535199Y-104529593D01*
X115511048Y-104569004D01*
X110209550Y-109870504D01*
X110155033Y-109898281D01*
X110139546Y-109899500D01*
X109406893Y-109899500D01*
X109318434Y-109910123D01*
X109177660Y-109965637D01*
X109177656Y-109965640D01*
X109057081Y-110057075D01*
X109057075Y-110057081D01*
X108965640Y-110177656D01*
X108965637Y-110177660D01*
X108910123Y-110318434D01*
X108899500Y-110406893D01*
X108899500Y-111593106D01*
X108910123Y-111681565D01*
X108965637Y-111822339D01*
X108965638Y-111822341D01*
X108965639Y-111822342D01*
X109057078Y-111942922D01*
X109177658Y-112034361D01*
X109177659Y-112034361D01*
X109177660Y-112034362D01*
X109248047Y-112062119D01*
X109318436Y-112089877D01*
X109406898Y-112100500D01*
X109406900Y-112100500D01*
X110593100Y-112100500D01*
X110593102Y-112100500D01*
X110681564Y-112089877D01*
X110822342Y-112034361D01*
X110942922Y-111942922D01*
X111034361Y-111822342D01*
X111089877Y-111681564D01*
X111100500Y-111593102D01*
X111100500Y-111524732D01*
X111119407Y-111466541D01*
X111168907Y-111430577D01*
X111230093Y-111430577D01*
X111279593Y-111466541D01*
X111293655Y-111494140D01*
X111295242Y-111499026D01*
X111388139Y-111681348D01*
X111388143Y-111681353D01*
X111420523Y-111725920D01*
X111420524Y-111725920D01*
X112100000Y-111046445D01*
X112100000Y-111052661D01*
X112127259Y-111154394D01*
X112179920Y-111245606D01*
X112254394Y-111320080D01*
X112345606Y-111372741D01*
X112447339Y-111400000D01*
X112453553Y-111400000D01*
X111774078Y-112079475D01*
X111818647Y-112111858D01*
X112000972Y-112204756D01*
X112195587Y-112267991D01*
X112397685Y-112300000D01*
X112602315Y-112300000D01*
X112804412Y-112267991D01*
X112999027Y-112204756D01*
X113181342Y-112111863D01*
X113181350Y-112111858D01*
X113225920Y-112079475D01*
X112546445Y-111400000D01*
X112552661Y-111400000D01*
X112654394Y-111372741D01*
X112745606Y-111320080D01*
X112820080Y-111245606D01*
X112872741Y-111154394D01*
X112900000Y-111052661D01*
X112900000Y-111046445D01*
X113579475Y-111725920D01*
X113611858Y-111681350D01*
X113611863Y-111681342D01*
X113704756Y-111499027D01*
X113767991Y-111304412D01*
X113800000Y-111102315D01*
X113800000Y-110897684D01*
X113767991Y-110695587D01*
X113704756Y-110500972D01*
X113611858Y-110318647D01*
X113579475Y-110274078D01*
X112900000Y-110953553D01*
X112900000Y-110947339D01*
X112872741Y-110845606D01*
X112820080Y-110754394D01*
X112745606Y-110679920D01*
X112654394Y-110627259D01*
X112552661Y-110600000D01*
X112546446Y-110600000D01*
X113225920Y-109920524D01*
X113225920Y-109920522D01*
X113181353Y-109888143D01*
X113181348Y-109888139D01*
X113162842Y-109878710D01*
X124149500Y-109878710D01*
X124149500Y-110121289D01*
X124181161Y-110361781D01*
X124181161Y-110361786D01*
X124243944Y-110596092D01*
X124243948Y-110596105D01*
X124336772Y-110820204D01*
X124336774Y-110820208D01*
X124336776Y-110820212D01*
X124402534Y-110934108D01*
X124458066Y-111030292D01*
X124605729Y-111222731D01*
X124605731Y-111222733D01*
X124605735Y-111222738D01*
X124777262Y-111394265D01*
X124777266Y-111394268D01*
X124777268Y-111394270D01*
X124871454Y-111466541D01*
X124969711Y-111541936D01*
X125179788Y-111663224D01*
X125403900Y-111756054D01*
X125638211Y-111818838D01*
X125878712Y-111850500D01*
X125878713Y-111850500D01*
X126121287Y-111850500D01*
X126121288Y-111850500D01*
X126361789Y-111818838D01*
X126596100Y-111756054D01*
X126820212Y-111663224D01*
X127030289Y-111541936D01*
X127222738Y-111394265D01*
X127394265Y-111222738D01*
X127541936Y-111030289D01*
X127663224Y-110820212D01*
X127756054Y-110596100D01*
X127818838Y-110361789D01*
X127850500Y-110121288D01*
X127850500Y-109878712D01*
X127818838Y-109638211D01*
X127756054Y-109403900D01*
X127663224Y-109179788D01*
X127541936Y-108969711D01*
X127394265Y-108777262D01*
X127222738Y-108605735D01*
X127222733Y-108605731D01*
X127222731Y-108605729D01*
X127030292Y-108458066D01*
X127030289Y-108458064D01*
X126820212Y-108336776D01*
X126820208Y-108336774D01*
X126820204Y-108336772D01*
X126596105Y-108243948D01*
X126596104Y-108243947D01*
X126596100Y-108243946D01*
X126361789Y-108181162D01*
X126361786Y-108181161D01*
X126361784Y-108181161D01*
X126121289Y-108149500D01*
X126121288Y-108149500D01*
X125878712Y-108149500D01*
X125878710Y-108149500D01*
X125638218Y-108181161D01*
X125638213Y-108181161D01*
X125403907Y-108243944D01*
X125403894Y-108243948D01*
X125179795Y-108336772D01*
X124969707Y-108458066D01*
X124777268Y-108605729D01*
X124605729Y-108777268D01*
X124458066Y-108969707D01*
X124336772Y-109179795D01*
X124243948Y-109403894D01*
X124243944Y-109403907D01*
X124181161Y-109638213D01*
X124181161Y-109638218D01*
X124149500Y-109878710D01*
X113162842Y-109878710D01*
X112999027Y-109795243D01*
X112804412Y-109732008D01*
X112602315Y-109700000D01*
X112458953Y-109700000D01*
X112400762Y-109681093D01*
X112364798Y-109631593D01*
X112364798Y-109570407D01*
X112388947Y-109530998D01*
X117717423Y-104202521D01*
X117771938Y-104174746D01*
X117802912Y-104174746D01*
X117965516Y-104200500D01*
X117965519Y-104200500D01*
X118154484Y-104200500D01*
X118341113Y-104170941D01*
X118341114Y-104170940D01*
X118341118Y-104170940D01*
X118520832Y-104112547D01*
X118689199Y-104026760D01*
X118842073Y-103915690D01*
X118975690Y-103782073D01*
X119086760Y-103629199D01*
X119172547Y-103460832D01*
X119230940Y-103281118D01*
X119230941Y-103281113D01*
X119260500Y-103094484D01*
X119260500Y-102905515D01*
X119230941Y-102718886D01*
X119230939Y-102718880D01*
X119172547Y-102539168D01*
X119086760Y-102370801D01*
X118975690Y-102217927D01*
X118842073Y-102084310D01*
X118689199Y-101973240D01*
X118689198Y-101973239D01*
X118689196Y-101973238D01*
X118520832Y-101887453D01*
X118341113Y-101829058D01*
X118154484Y-101799500D01*
X118154481Y-101799500D01*
X117965519Y-101799500D01*
X117965516Y-101799500D01*
X117778886Y-101829058D01*
X117599167Y-101887453D01*
X117430803Y-101973238D01*
X117277928Y-102084309D01*
X117144309Y-102217928D01*
X117033237Y-102370804D01*
X117033236Y-102370806D01*
X116990160Y-102455347D01*
X116946895Y-102498611D01*
X116886463Y-102508182D01*
X116831947Y-102480404D01*
X116813741Y-102455346D01*
X116717387Y-102266241D01*
X116671067Y-102202485D01*
X116002962Y-102870591D01*
X115985925Y-102807007D01*
X115920099Y-102692993D01*
X115827007Y-102599901D01*
X115712993Y-102534075D01*
X115649407Y-102517036D01*
X116317512Y-101848932D01*
X116253753Y-101802609D01*
X116057413Y-101702569D01*
X115847829Y-101634471D01*
X115630185Y-101600000D01*
X115409815Y-101600000D01*
X115192170Y-101634471D01*
X114982586Y-101702569D01*
X114786239Y-101802613D01*
X114722485Y-101848931D01*
X115390591Y-102517037D01*
X115327007Y-102534075D01*
X115212993Y-102599901D01*
X115119901Y-102692993D01*
X115054075Y-102807007D01*
X115037037Y-102870591D01*
X114368931Y-102202485D01*
X114322610Y-102266244D01*
X114226257Y-102455346D01*
X114182993Y-102498611D01*
X114122561Y-102508182D01*
X114068044Y-102480404D01*
X114049838Y-102455346D01*
X114006761Y-102370803D01*
X114006760Y-102370801D01*
X113895690Y-102217927D01*
X113762073Y-102084310D01*
X113609199Y-101973240D01*
X113609198Y-101973239D01*
X113609196Y-101973238D01*
X113440832Y-101887453D01*
X113261113Y-101829058D01*
X113074484Y-101799500D01*
X113074481Y-101799500D01*
X112885519Y-101799500D01*
X112885516Y-101799500D01*
X112698886Y-101829058D01*
X112519167Y-101887453D01*
X112350803Y-101973238D01*
X112197928Y-102084309D01*
X112064309Y-102217928D01*
X111953238Y-102370803D01*
X111867453Y-102539167D01*
X111809058Y-102718886D01*
X111807781Y-102726954D01*
X111780004Y-102781471D01*
X111725487Y-102809248D01*
X111665055Y-102799677D01*
X111621790Y-102756412D01*
X111612219Y-102726954D01*
X111610941Y-102718886D01*
X111610939Y-102718880D01*
X111552547Y-102539168D01*
X111466760Y-102370801D01*
X111355690Y-102217927D01*
X111222073Y-102084310D01*
X111069199Y-101973240D01*
X111069198Y-101973239D01*
X111069196Y-101973238D01*
X110900832Y-101887453D01*
X110721113Y-101829058D01*
X110534484Y-101799500D01*
X110534481Y-101799500D01*
X110345519Y-101799500D01*
X110345516Y-101799500D01*
X110158886Y-101829058D01*
X109979167Y-101887453D01*
X109810803Y-101973238D01*
X109657928Y-102084309D01*
X109524309Y-102217928D01*
X109413238Y-102370803D01*
X109327453Y-102539167D01*
X109269058Y-102718886D01*
X109267781Y-102726954D01*
X109240004Y-102781471D01*
X109185487Y-102809248D01*
X109125055Y-102799677D01*
X109081790Y-102756412D01*
X109072219Y-102726954D01*
X109070941Y-102718886D01*
X109070939Y-102718880D01*
X109012547Y-102539168D01*
X108926760Y-102370801D01*
X108815690Y-102217927D01*
X108682073Y-102084310D01*
X108529199Y-101973240D01*
X108529198Y-101973239D01*
X108529196Y-101973238D01*
X108360832Y-101887453D01*
X108181113Y-101829058D01*
X107994484Y-101799500D01*
X107994481Y-101799500D01*
X107805519Y-101799500D01*
X107805516Y-101799500D01*
X107618886Y-101829058D01*
X107439167Y-101887453D01*
X107270803Y-101973238D01*
X107117928Y-102084309D01*
X106984309Y-102217928D01*
X106873238Y-102370803D01*
X106787453Y-102539167D01*
X106729058Y-102718886D01*
X106727781Y-102726954D01*
X106700004Y-102781471D01*
X106645487Y-102809248D01*
X106585055Y-102799677D01*
X106541790Y-102756412D01*
X106532219Y-102726954D01*
X106530941Y-102718886D01*
X106530939Y-102718880D01*
X106472547Y-102539168D01*
X106386760Y-102370801D01*
X106275690Y-102217927D01*
X106142073Y-102084310D01*
X105989199Y-101973240D01*
X105989198Y-101973239D01*
X105989196Y-101973238D01*
X105820832Y-101887453D01*
X105641113Y-101829058D01*
X105454484Y-101799500D01*
X105454481Y-101799500D01*
X105265519Y-101799500D01*
X105265516Y-101799500D01*
X105078880Y-101829059D01*
X104945839Y-101872288D01*
X104884654Y-101872289D01*
X104845242Y-101848138D01*
X81809322Y-78812218D01*
X81781545Y-78757701D01*
X81791116Y-78697269D01*
X81834381Y-78654004D01*
X81894813Y-78644433D01*
X81924269Y-78654003D01*
X82039168Y-78712547D01*
X82218882Y-78770940D01*
X82218883Y-78770940D01*
X82218886Y-78770941D01*
X82405516Y-78800500D01*
X82405519Y-78800500D01*
X82594484Y-78800500D01*
X82781113Y-78770941D01*
X82781114Y-78770940D01*
X82781118Y-78770940D01*
X82960832Y-78712547D01*
X83129199Y-78626760D01*
X83282073Y-78515690D01*
X83415690Y-78382073D01*
X83526760Y-78229199D01*
X83612547Y-78060832D01*
X83670940Y-77881118D01*
X83670941Y-77881113D01*
X83672219Y-77873046D01*
X83699996Y-77818529D01*
X83754512Y-77790751D01*
X83814944Y-77800322D01*
X83858209Y-77843586D01*
X83867781Y-77873046D01*
X83869058Y-77881113D01*
X83927453Y-78060832D01*
X84013237Y-78229195D01*
X84013240Y-78229199D01*
X84124310Y-78382073D01*
X84257927Y-78515690D01*
X84410801Y-78626760D01*
X84579168Y-78712547D01*
X84758882Y-78770940D01*
X84758883Y-78770940D01*
X84758886Y-78770941D01*
X84945516Y-78800500D01*
X84945519Y-78800500D01*
X85134484Y-78800500D01*
X85321113Y-78770941D01*
X85321114Y-78770940D01*
X85321118Y-78770940D01*
X85500832Y-78712547D01*
X85669199Y-78626760D01*
X85822073Y-78515690D01*
X85955690Y-78382073D01*
X86066760Y-78229199D01*
X86152547Y-78060832D01*
X86210940Y-77881118D01*
X86210941Y-77881113D01*
X86212219Y-77873046D01*
X86239996Y-77818529D01*
X86294512Y-77790751D01*
X86354944Y-77800322D01*
X86398209Y-77843586D01*
X86407781Y-77873046D01*
X86409058Y-77881113D01*
X86467453Y-78060832D01*
X86553237Y-78229195D01*
X86553240Y-78229199D01*
X86664310Y-78382073D01*
X86797927Y-78515690D01*
X86950801Y-78626760D01*
X87119168Y-78712547D01*
X87298882Y-78770940D01*
X87298883Y-78770940D01*
X87298886Y-78770941D01*
X87485516Y-78800500D01*
X87485519Y-78800500D01*
X87674484Y-78800500D01*
X87861113Y-78770941D01*
X87861114Y-78770940D01*
X87861118Y-78770940D01*
X88040832Y-78712547D01*
X88209199Y-78626760D01*
X88362073Y-78515690D01*
X88495690Y-78382073D01*
X88606760Y-78229199D01*
X88692547Y-78060832D01*
X88750940Y-77881118D01*
X88750941Y-77881113D01*
X88752219Y-77873046D01*
X88779996Y-77818529D01*
X88834512Y-77790751D01*
X88894944Y-77800322D01*
X88938209Y-77843586D01*
X88947781Y-77873046D01*
X88949058Y-77881113D01*
X89007453Y-78060832D01*
X89093237Y-78229195D01*
X89093240Y-78229199D01*
X89204310Y-78382073D01*
X89337927Y-78515690D01*
X89490801Y-78626760D01*
X89659168Y-78712547D01*
X89838882Y-78770940D01*
X89838883Y-78770940D01*
X89838886Y-78770941D01*
X90025516Y-78800500D01*
X90025519Y-78800500D01*
X90214484Y-78800500D01*
X90401113Y-78770941D01*
X90401114Y-78770940D01*
X90401118Y-78770940D01*
X90580832Y-78712547D01*
X90749199Y-78626760D01*
X90902073Y-78515690D01*
X91035690Y-78382073D01*
X91146760Y-78229199D01*
X91232547Y-78060832D01*
X91290940Y-77881118D01*
X91290941Y-77881113D01*
X91292219Y-77873046D01*
X91319996Y-77818529D01*
X91374512Y-77790751D01*
X91434944Y-77800322D01*
X91478209Y-77843586D01*
X91487781Y-77873046D01*
X91489058Y-77881113D01*
X91547453Y-78060832D01*
X91633237Y-78229195D01*
X91633240Y-78229199D01*
X91744310Y-78382073D01*
X91877927Y-78515690D01*
X92030801Y-78626760D01*
X92199168Y-78712547D01*
X92378882Y-78770940D01*
X92378883Y-78770940D01*
X92378886Y-78770941D01*
X92565516Y-78800500D01*
X92565519Y-78800500D01*
X92754484Y-78800500D01*
X92941113Y-78770941D01*
X92941114Y-78770940D01*
X92941118Y-78770940D01*
X93120832Y-78712547D01*
X93289199Y-78626760D01*
X93442073Y-78515690D01*
X93575690Y-78382073D01*
X93686760Y-78229199D01*
X93772547Y-78060832D01*
X93830940Y-77881118D01*
X93830941Y-77881113D01*
X93832219Y-77873046D01*
X93859996Y-77818529D01*
X93914512Y-77790751D01*
X93974944Y-77800322D01*
X94018209Y-77843586D01*
X94027781Y-77873046D01*
X94029058Y-77881113D01*
X94087453Y-78060832D01*
X94173237Y-78229195D01*
X94173240Y-78229199D01*
X94284310Y-78382073D01*
X94417927Y-78515690D01*
X94570801Y-78626760D01*
X94739168Y-78712547D01*
X94918882Y-78770940D01*
X94918883Y-78770940D01*
X94918886Y-78770941D01*
X95105516Y-78800500D01*
X95105519Y-78800500D01*
X95294484Y-78800500D01*
X95481113Y-78770941D01*
X95481114Y-78770940D01*
X95481118Y-78770940D01*
X95660832Y-78712547D01*
X95829199Y-78626760D01*
X95982073Y-78515690D01*
X96115690Y-78382073D01*
X96226760Y-78229199D01*
X96312547Y-78060832D01*
X96370940Y-77881118D01*
X96370941Y-77881113D01*
X96372219Y-77873046D01*
X96399996Y-77818529D01*
X96454512Y-77790751D01*
X96514944Y-77800322D01*
X96558209Y-77843586D01*
X96567781Y-77873046D01*
X96569058Y-77881113D01*
X96627453Y-78060832D01*
X96713237Y-78229195D01*
X96713240Y-78229199D01*
X96824310Y-78382073D01*
X96957927Y-78515690D01*
X97110801Y-78626760D01*
X97279168Y-78712547D01*
X97458882Y-78770940D01*
X97458883Y-78770940D01*
X97458886Y-78770941D01*
X97645516Y-78800500D01*
X97645519Y-78800500D01*
X97834484Y-78800500D01*
X98021113Y-78770941D01*
X98021114Y-78770940D01*
X98021118Y-78770940D01*
X98200832Y-78712547D01*
X98369199Y-78626760D01*
X98522073Y-78515690D01*
X98655690Y-78382073D01*
X98766760Y-78229199D01*
X98852547Y-78060832D01*
X98910940Y-77881118D01*
X98910941Y-77881113D01*
X98912219Y-77873046D01*
X98939996Y-77818529D01*
X98994512Y-77790751D01*
X99054944Y-77800322D01*
X99098209Y-77843586D01*
X99107781Y-77873046D01*
X99109058Y-77881113D01*
X99167453Y-78060832D01*
X99253237Y-78229195D01*
X99253240Y-78229199D01*
X99364310Y-78382073D01*
X99497927Y-78515690D01*
X99650801Y-78626760D01*
X99819168Y-78712547D01*
X99998882Y-78770940D01*
X99998883Y-78770940D01*
X99998886Y-78770941D01*
X100185516Y-78800500D01*
X100185519Y-78800500D01*
X100374484Y-78800500D01*
X100561113Y-78770941D01*
X100561114Y-78770940D01*
X100561118Y-78770940D01*
X100740832Y-78712547D01*
X100909199Y-78626760D01*
X101062073Y-78515690D01*
X101195690Y-78382073D01*
X101306760Y-78229199D01*
X101392547Y-78060832D01*
X101450940Y-77881118D01*
X101450941Y-77881113D01*
X101452219Y-77873046D01*
X101479996Y-77818529D01*
X101534512Y-77790751D01*
X101594944Y-77800322D01*
X101638209Y-77843586D01*
X101647781Y-77873046D01*
X101649058Y-77881113D01*
X101707453Y-78060832D01*
X101793237Y-78229195D01*
X101793240Y-78229199D01*
X101904310Y-78382073D01*
X102037927Y-78515690D01*
X102190801Y-78626760D01*
X102359168Y-78712547D01*
X102538882Y-78770940D01*
X102538883Y-78770940D01*
X102538886Y-78770941D01*
X102725516Y-78800500D01*
X102725519Y-78800500D01*
X102914484Y-78800500D01*
X103101113Y-78770941D01*
X103101114Y-78770940D01*
X103101118Y-78770940D01*
X103280832Y-78712547D01*
X103449199Y-78626760D01*
X103602073Y-78515690D01*
X103735690Y-78382073D01*
X103846760Y-78229199D01*
X103932547Y-78060832D01*
X103990940Y-77881118D01*
X103990941Y-77881113D01*
X103992219Y-77873046D01*
X104019996Y-77818529D01*
X104074512Y-77790751D01*
X104134944Y-77800322D01*
X104178209Y-77843586D01*
X104187781Y-77873046D01*
X104189058Y-77881113D01*
X104247453Y-78060832D01*
X104333237Y-78229195D01*
X104333240Y-78229199D01*
X104444310Y-78382073D01*
X104577927Y-78515690D01*
X104730801Y-78626760D01*
X104899168Y-78712547D01*
X105078882Y-78770940D01*
X105078883Y-78770940D01*
X105078886Y-78770941D01*
X105265516Y-78800500D01*
X105265519Y-78800500D01*
X105454484Y-78800500D01*
X105641113Y-78770941D01*
X105641114Y-78770940D01*
X105641118Y-78770940D01*
X105820832Y-78712547D01*
X105989199Y-78626760D01*
X106142073Y-78515690D01*
X106275690Y-78382073D01*
X106386760Y-78229199D01*
X106472547Y-78060832D01*
X106530940Y-77881118D01*
X106530941Y-77881113D01*
X106532219Y-77873046D01*
X106559996Y-77818529D01*
X106614512Y-77790751D01*
X106674944Y-77800322D01*
X106718209Y-77843586D01*
X106727781Y-77873046D01*
X106729058Y-77881113D01*
X106787453Y-78060832D01*
X106873237Y-78229195D01*
X106873240Y-78229199D01*
X106984310Y-78382073D01*
X107117927Y-78515690D01*
X107270801Y-78626760D01*
X107439168Y-78712547D01*
X107618882Y-78770940D01*
X107618883Y-78770940D01*
X107618886Y-78770941D01*
X107805516Y-78800500D01*
X107805519Y-78800500D01*
X107994484Y-78800500D01*
X108181113Y-78770941D01*
X108181114Y-78770940D01*
X108181118Y-78770940D01*
X108360832Y-78712547D01*
X108529199Y-78626760D01*
X108682073Y-78515690D01*
X108815690Y-78382073D01*
X108926760Y-78229199D01*
X109012547Y-78060832D01*
X109070940Y-77881118D01*
X109070941Y-77881113D01*
X109072219Y-77873046D01*
X109099996Y-77818529D01*
X109154512Y-77790751D01*
X109214944Y-77800322D01*
X109258209Y-77843586D01*
X109267781Y-77873046D01*
X109269058Y-77881113D01*
X109327453Y-78060832D01*
X109413237Y-78229195D01*
X109413240Y-78229199D01*
X109524310Y-78382073D01*
X109657927Y-78515690D01*
X109810801Y-78626760D01*
X109979168Y-78712547D01*
X110158882Y-78770940D01*
X110158883Y-78770940D01*
X110158886Y-78770941D01*
X110345516Y-78800500D01*
X110345519Y-78800500D01*
X110534484Y-78800500D01*
X110721113Y-78770941D01*
X110721114Y-78770940D01*
X110721118Y-78770940D01*
X110900832Y-78712547D01*
X111069199Y-78626760D01*
X111222073Y-78515690D01*
X111355690Y-78382073D01*
X111466760Y-78229199D01*
X111552547Y-78060832D01*
X111610940Y-77881118D01*
X111610941Y-77881113D01*
X111612219Y-77873046D01*
X111639996Y-77818529D01*
X111694512Y-77790751D01*
X111754944Y-77800322D01*
X111798209Y-77843586D01*
X111807781Y-77873046D01*
X111809058Y-77881113D01*
X111867453Y-78060832D01*
X111953237Y-78229195D01*
X111953240Y-78229199D01*
X112064310Y-78382073D01*
X112197927Y-78515690D01*
X112350801Y-78626760D01*
X112519168Y-78712547D01*
X112698882Y-78770940D01*
X112698883Y-78770940D01*
X112698886Y-78770941D01*
X112885516Y-78800500D01*
X112885519Y-78800500D01*
X113074484Y-78800500D01*
X113261113Y-78770941D01*
X113261114Y-78770940D01*
X113261118Y-78770940D01*
X113440832Y-78712547D01*
X113609199Y-78626760D01*
X113762073Y-78515690D01*
X113895690Y-78382073D01*
X114006760Y-78229199D01*
X114049838Y-78144652D01*
X114093103Y-78101388D01*
X114153535Y-78091817D01*
X114208051Y-78119594D01*
X114226258Y-78144653D01*
X114322609Y-78333753D01*
X114368932Y-78397512D01*
X115037037Y-77729408D01*
X115054075Y-77792993D01*
X115119901Y-77907007D01*
X115212993Y-78000099D01*
X115327007Y-78065925D01*
X115390589Y-78082962D01*
X114722485Y-78751067D01*
X114786241Y-78797387D01*
X114982586Y-78897430D01*
X115192170Y-78965528D01*
X115409815Y-79000000D01*
X115630185Y-79000000D01*
X115847829Y-78965528D01*
X116057413Y-78897430D01*
X116253757Y-78797388D01*
X116317513Y-78751067D01*
X115649408Y-78082962D01*
X115712993Y-78065925D01*
X115827007Y-78000099D01*
X115920099Y-77907007D01*
X115985925Y-77792993D01*
X116002962Y-77729408D01*
X116671067Y-78397513D01*
X116717388Y-78333757D01*
X116813741Y-78144653D01*
X116857006Y-78101389D01*
X116917438Y-78091817D01*
X116971954Y-78119594D01*
X116990160Y-78144652D01*
X117033236Y-78229193D01*
X117033237Y-78229195D01*
X117033238Y-78229196D01*
X117033240Y-78229199D01*
X117144310Y-78382073D01*
X117277927Y-78515690D01*
X117430801Y-78626760D01*
X117599168Y-78712547D01*
X117778882Y-78770940D01*
X117778883Y-78770940D01*
X117778886Y-78770941D01*
X117965516Y-78800500D01*
X117965519Y-78800500D01*
X118154484Y-78800500D01*
X118341113Y-78770941D01*
X118341114Y-78770940D01*
X118341118Y-78770940D01*
X118520832Y-78712547D01*
X118689199Y-78626760D01*
X118842073Y-78515690D01*
X118975690Y-78382073D01*
X119086760Y-78229199D01*
X119172547Y-78060832D01*
X119230940Y-77881118D01*
X119230941Y-77881113D01*
X119260500Y-77694484D01*
X119260500Y-77505515D01*
X119230941Y-77318885D01*
X119230940Y-77318883D01*
X119222393Y-77292577D01*
X119222392Y-77231392D01*
X119246541Y-77191982D01*
X121440510Y-74998015D01*
X121512984Y-74872485D01*
X121550500Y-74732474D01*
X121550500Y-74587526D01*
X121550500Y-69897684D01*
X125320000Y-69897684D01*
X125320000Y-70102315D01*
X125352008Y-70304412D01*
X125415243Y-70499027D01*
X125508139Y-70681348D01*
X125508143Y-70681353D01*
X125540523Y-70725920D01*
X125540524Y-70725920D01*
X126220000Y-70046444D01*
X126220000Y-70052661D01*
X126247259Y-70154394D01*
X126299920Y-70245606D01*
X126374394Y-70320080D01*
X126465606Y-70372741D01*
X126567339Y-70400000D01*
X126573553Y-70400000D01*
X125894078Y-71079475D01*
X125938647Y-71111858D01*
X126120972Y-71204756D01*
X126315587Y-71267991D01*
X126517685Y-71300000D01*
X126722315Y-71300000D01*
X126924412Y-71267991D01*
X127119027Y-71204756D01*
X127301342Y-71111863D01*
X127301350Y-71111858D01*
X127345920Y-71079475D01*
X126666445Y-70400000D01*
X126672661Y-70400000D01*
X126774394Y-70372741D01*
X126865606Y-70320080D01*
X126940080Y-70245606D01*
X126992741Y-70154394D01*
X127020000Y-70052661D01*
X127020000Y-70046445D01*
X127699475Y-70725920D01*
X127731858Y-70681350D01*
X127731863Y-70681342D01*
X127824756Y-70499027D01*
X127887991Y-70304412D01*
X127920000Y-70102315D01*
X127920000Y-69897684D01*
X127887991Y-69695587D01*
X127824756Y-69500972D01*
X127731858Y-69318647D01*
X127699475Y-69274078D01*
X127020000Y-69953553D01*
X127020000Y-69947339D01*
X126992741Y-69845606D01*
X126940080Y-69754394D01*
X126865606Y-69679920D01*
X126774394Y-69627259D01*
X126672661Y-69600000D01*
X126666445Y-69600000D01*
X127345920Y-68920524D01*
X127345920Y-68920523D01*
X127301353Y-68888143D01*
X127301348Y-68888139D01*
X127119027Y-68795243D01*
X126924412Y-68732008D01*
X126722315Y-68700000D01*
X126517685Y-68700000D01*
X126315587Y-68732008D01*
X126120972Y-68795243D01*
X125938651Y-68888139D01*
X125938647Y-68888141D01*
X125894078Y-68920523D01*
X126573555Y-69600000D01*
X126567339Y-69600000D01*
X126465606Y-69627259D01*
X126374394Y-69679920D01*
X126299920Y-69754394D01*
X126247259Y-69845606D01*
X126220000Y-69947339D01*
X126220000Y-69953555D01*
X125540523Y-69274078D01*
X125508141Y-69318647D01*
X125508139Y-69318651D01*
X125415243Y-69500972D01*
X125352008Y-69695587D01*
X125320000Y-69897684D01*
X121550500Y-69897684D01*
X121550500Y-65010774D01*
X121569407Y-64952583D01*
X121591305Y-64930684D01*
X121716928Y-64839414D01*
X121839414Y-64716928D01*
X121941232Y-64576788D01*
X122019873Y-64422445D01*
X122050962Y-64326763D01*
X122086925Y-64277265D01*
X122145116Y-64258358D01*
X122203307Y-64277265D01*
X122239270Y-64326765D01*
X122295239Y-64499020D01*
X122295241Y-64499023D01*
X122388139Y-64681348D01*
X122388143Y-64681353D01*
X122420523Y-64725920D01*
X122420524Y-64725920D01*
X123100000Y-64046444D01*
X123100000Y-64052661D01*
X123127259Y-64154394D01*
X123179920Y-64245606D01*
X123254394Y-64320080D01*
X123345606Y-64372741D01*
X123447339Y-64400000D01*
X123453553Y-64400000D01*
X122774078Y-65079475D01*
X122818647Y-65111858D01*
X123000972Y-65204756D01*
X123195587Y-65267991D01*
X123397685Y-65300000D01*
X123602315Y-65300000D01*
X123804412Y-65267991D01*
X123999027Y-65204756D01*
X124181342Y-65111863D01*
X124181350Y-65111858D01*
X124225920Y-65079475D01*
X123546445Y-64400000D01*
X123552661Y-64400000D01*
X123654394Y-64372741D01*
X123745606Y-64320080D01*
X123820080Y-64245606D01*
X123872741Y-64154394D01*
X123900000Y-64052661D01*
X123900000Y-64046445D01*
X124579475Y-64725920D01*
X124611858Y-64681350D01*
X124611863Y-64681342D01*
X124704756Y-64499027D01*
X124767991Y-64304412D01*
X124800000Y-64102315D01*
X124800000Y-63897684D01*
X124767991Y-63695587D01*
X124704756Y-63500972D01*
X124611858Y-63318647D01*
X124579475Y-63274078D01*
X123900000Y-63953553D01*
X123900000Y-63947339D01*
X123872741Y-63845606D01*
X123820080Y-63754394D01*
X123745606Y-63679920D01*
X123654394Y-63627259D01*
X123552661Y-63600000D01*
X123546445Y-63600000D01*
X124225920Y-62920524D01*
X124225920Y-62920523D01*
X124181353Y-62888143D01*
X124181348Y-62888139D01*
X123999027Y-62795243D01*
X123804412Y-62732008D01*
X123602315Y-62700000D01*
X123397685Y-62700000D01*
X123195587Y-62732008D01*
X123000972Y-62795243D01*
X122818651Y-62888139D01*
X122818647Y-62888141D01*
X122774078Y-62920523D01*
X123453555Y-63600000D01*
X123447339Y-63600000D01*
X123345606Y-63627259D01*
X123254394Y-63679920D01*
X123179920Y-63754394D01*
X123127259Y-63845606D01*
X123100000Y-63947339D01*
X123100000Y-63953555D01*
X122420523Y-63274078D01*
X122388141Y-63318647D01*
X122388139Y-63318651D01*
X122295241Y-63500976D01*
X122295239Y-63500979D01*
X122239270Y-63673234D01*
X122203306Y-63722734D01*
X122145115Y-63741641D01*
X122086925Y-63722733D01*
X122050961Y-63673234D01*
X122042257Y-63646445D01*
X122019873Y-63577555D01*
X121941232Y-63423212D01*
X121839414Y-63283072D01*
X121716928Y-63160586D01*
X121576788Y-63058768D01*
X121576787Y-63058767D01*
X121576785Y-63058766D01*
X121552642Y-63046465D01*
X121422441Y-62980125D01*
X121422438Y-62980123D01*
X121257706Y-62926598D01*
X121257702Y-62926597D01*
X121086614Y-62899500D01*
X121086611Y-62899500D01*
X120913389Y-62899500D01*
X120913386Y-62899500D01*
X120759885Y-62923812D01*
X120699453Y-62914241D01*
X120674405Y-62896045D01*
X120083795Y-62305571D01*
X120083788Y-62305563D01*
X120036010Y-62257786D01*
X120035971Y-62257756D01*
X120035966Y-62257753D01*
X120035964Y-62257751D01*
X119968430Y-62218771D01*
X119968424Y-62218764D01*
X119968423Y-62218767D01*
X119910479Y-62185312D01*
X119910428Y-62185291D01*
X119840258Y-62166498D01*
X119840248Y-62166495D01*
X119770468Y-62147798D01*
X119770417Y-62147791D01*
X119702200Y-62147800D01*
X61907758Y-62147800D01*
X61849567Y-62128893D01*
X61813603Y-62079393D01*
X61813603Y-62018207D01*
X61849567Y-61968707D01*
X61877165Y-61954646D01*
X62075793Y-61890107D01*
X62075796Y-61890105D01*
X62286170Y-61782915D01*
X62286176Y-61782911D01*
X62369105Y-61722659D01*
X62369105Y-61722658D01*
X61670234Y-61023787D01*
X61712292Y-61012518D01*
X61837708Y-60940110D01*
X61940110Y-60837708D01*
X62012518Y-60712292D01*
X62023787Y-60670234D01*
X62722658Y-61369105D01*
X62722659Y-61369105D01*
X62782911Y-61286176D01*
X62782915Y-61286170D01*
X62890105Y-61075796D01*
X62890107Y-61075793D01*
X62963064Y-60851256D01*
X62963065Y-60851252D01*
X63000000Y-60618056D01*
X63000000Y-60381943D01*
X62963065Y-60148747D01*
X62963064Y-60148743D01*
X62890107Y-59924206D01*
X62890105Y-59924203D01*
X62782915Y-59713829D01*
X62782913Y-59713825D01*
X62722659Y-59630893D01*
X62023787Y-60329765D01*
X62012518Y-60287708D01*
X61940110Y-60162292D01*
X61837708Y-60059890D01*
X61712292Y-59987482D01*
X61670232Y-59976211D01*
X62369105Y-59277339D01*
X62286169Y-59217084D01*
X62075800Y-59109896D01*
X61982925Y-59079719D01*
X61982922Y-59079717D01*
X61851256Y-59036935D01*
X61851252Y-59036934D01*
X61618056Y-59000000D01*
X61381944Y-59000000D01*
X61148747Y-59036934D01*
X61148743Y-59036935D01*
X60924206Y-59109892D01*
X60924203Y-59109894D01*
X60713823Y-59217088D01*
X60630893Y-59277339D01*
X61329766Y-59976212D01*
X61287708Y-59987482D01*
X61162292Y-60059890D01*
X61059890Y-60162292D01*
X60987482Y-60287708D01*
X60976212Y-60329766D01*
X60277339Y-59630893D01*
X60217088Y-59713823D01*
X60109894Y-59924203D01*
X60109892Y-59924206D01*
X60036935Y-60148743D01*
X60036934Y-60148747D01*
X60000000Y-60381943D01*
X60000000Y-60618056D01*
X60036934Y-60851252D01*
X60036935Y-60851256D01*
X60109892Y-61075793D01*
X60109894Y-61075796D01*
X60217084Y-61286169D01*
X60277339Y-61369105D01*
X60976211Y-60670232D01*
X60987482Y-60712292D01*
X61059890Y-60837708D01*
X61162292Y-60940110D01*
X61287708Y-61012518D01*
X61329765Y-61023787D01*
X60630893Y-61722659D01*
X60713825Y-61782913D01*
X60713829Y-61782915D01*
X60924203Y-61890105D01*
X60924206Y-61890107D01*
X61122835Y-61954646D01*
X61172335Y-61990610D01*
X61191242Y-62048800D01*
X61172335Y-62106991D01*
X61122834Y-62142955D01*
X61092242Y-62147800D01*
X58229225Y-62147800D01*
X58089308Y-62185291D01*
X58089268Y-62185301D01*
X58089214Y-62185316D01*
X57963685Y-62257790D01*
X56325461Y-63896012D01*
X56270944Y-63923789D01*
X56239970Y-63923789D01*
X56086614Y-63899500D01*
X56086611Y-63899500D01*
X55913389Y-63899500D01*
X55913386Y-63899500D01*
X55742297Y-63926597D01*
X55742293Y-63926598D01*
X55577561Y-63980123D01*
X55577558Y-63980125D01*
X55423214Y-64058766D01*
X55283073Y-64160585D01*
X55160585Y-64283073D01*
X55058766Y-64423214D01*
X54980125Y-64577558D01*
X54980123Y-64577561D01*
X54926598Y-64742293D01*
X54926597Y-64742297D01*
X54899500Y-64913385D01*
X54899500Y-65086614D01*
X54926597Y-65257702D01*
X54926598Y-65257706D01*
X54980123Y-65422438D01*
X54980125Y-65422441D01*
X54980126Y-65422444D01*
X54980127Y-65422445D01*
X55058768Y-65576788D01*
X55160586Y-65716928D01*
X55283072Y-65839414D01*
X55423212Y-65941232D01*
X55577555Y-66019873D01*
X55577557Y-66019873D01*
X55577558Y-66019874D01*
X55577561Y-66019876D01*
X55742293Y-66073401D01*
X55742297Y-66073402D01*
X55913386Y-66100500D01*
X55913389Y-66100500D01*
X56086614Y-66100500D01*
X56257702Y-66073402D01*
X56257706Y-66073401D01*
X56422438Y-66019876D01*
X56422440Y-66019874D01*
X56422445Y-66019873D01*
X56576788Y-65941232D01*
X56716928Y-65839414D01*
X56839414Y-65716928D01*
X56941232Y-65576788D01*
X57019873Y-65422445D01*
X57019874Y-65422440D01*
X57019876Y-65422438D01*
X57073401Y-65257706D01*
X57073402Y-65257702D01*
X57100500Y-65086614D01*
X57100500Y-64913385D01*
X57076210Y-64760027D01*
X57085781Y-64699595D01*
X57103984Y-64674539D01*
X58500729Y-63277796D01*
X58555246Y-63250019D01*
X58570733Y-63248800D01*
X72991187Y-63248800D01*
X73049378Y-63267707D01*
X73085342Y-63317207D01*
X73085342Y-63378393D01*
X73071280Y-63405990D01*
X73058769Y-63423208D01*
X73058767Y-63423212D01*
X72980125Y-63577558D01*
X72980123Y-63577561D01*
X72926598Y-63742293D01*
X72926597Y-63742297D01*
X72899500Y-63913385D01*
X72899500Y-64086614D01*
X72926597Y-64257702D01*
X72926598Y-64257706D01*
X72980123Y-64422438D01*
X72980125Y-64422441D01*
X73019143Y-64499020D01*
X73058768Y-64576788D01*
X73160586Y-64716928D01*
X73283072Y-64839414D01*
X73423212Y-64941232D01*
X73577555Y-65019873D01*
X73577557Y-65019873D01*
X73577558Y-65019874D01*
X73577561Y-65019876D01*
X73742293Y-65073401D01*
X73742297Y-65073402D01*
X73913386Y-65100500D01*
X73913389Y-65100500D01*
X74086610Y-65100500D01*
X74086611Y-65100500D01*
X74117885Y-65095546D01*
X74178316Y-65105116D01*
X74203377Y-65123323D01*
X74896424Y-65816369D01*
X74987031Y-65906976D01*
X75050548Y-65949417D01*
X75093566Y-65978161D01*
X75093570Y-65978163D01*
X75093573Y-65978165D01*
X75211956Y-66027201D01*
X75337631Y-66052200D01*
X75337632Y-66052200D01*
X83662368Y-66052200D01*
X83662369Y-66052200D01*
X83788044Y-66027201D01*
X83906427Y-65978165D01*
X84012969Y-65906977D01*
X84796623Y-65123321D01*
X84851138Y-65095546D01*
X84882111Y-65095546D01*
X84905340Y-65099225D01*
X84913388Y-65100500D01*
X84913389Y-65100500D01*
X85086610Y-65100500D01*
X85086611Y-65100500D01*
X85117885Y-65095546D01*
X85178316Y-65105116D01*
X85203377Y-65123323D01*
X85896424Y-65816369D01*
X85987031Y-65906976D01*
X86050548Y-65949417D01*
X86093566Y-65978161D01*
X86093570Y-65978163D01*
X86093573Y-65978165D01*
X86211956Y-66027201D01*
X86337631Y-66052200D01*
X86337632Y-66052200D01*
X94662368Y-66052200D01*
X94662369Y-66052200D01*
X94788044Y-66027201D01*
X94906427Y-65978165D01*
X95012969Y-65906977D01*
X95796623Y-65123321D01*
X95851138Y-65095546D01*
X95882111Y-65095546D01*
X95905340Y-65099225D01*
X95913388Y-65100500D01*
X95913389Y-65100500D01*
X96086610Y-65100500D01*
X96086611Y-65100500D01*
X96117885Y-65095546D01*
X96178316Y-65105116D01*
X96203377Y-65123323D01*
X96993131Y-65913077D01*
X97035269Y-65941232D01*
X97099673Y-65984265D01*
X97218056Y-66033301D01*
X97343731Y-66058300D01*
X99407400Y-66058300D01*
X99465591Y-66077207D01*
X99501555Y-66126707D01*
X99506400Y-66157300D01*
X99506400Y-70593469D01*
X99530778Y-70716023D01*
X99530778Y-70716025D01*
X99531398Y-70719141D01*
X99531399Y-70719146D01*
X99580434Y-70837526D01*
X99630979Y-70913173D01*
X99651623Y-70944069D01*
X102507352Y-73799798D01*
X102535128Y-73854313D01*
X102525557Y-73914745D01*
X102482292Y-73958010D01*
X102437347Y-73968800D01*
X98646911Y-73968800D01*
X98588720Y-73949893D01*
X98576907Y-73939804D01*
X95072500Y-70435397D01*
X95044723Y-70380880D01*
X95048350Y-70334799D01*
X95058224Y-70304412D01*
X95073402Y-70257701D01*
X95075318Y-70245606D01*
X95100500Y-70086614D01*
X95100500Y-69913385D01*
X95073402Y-69742297D01*
X95073401Y-69742293D01*
X95019876Y-69577561D01*
X95019874Y-69577558D01*
X95019873Y-69577557D01*
X95019873Y-69577555D01*
X94941232Y-69423212D01*
X94839414Y-69283072D01*
X94716928Y-69160586D01*
X94576788Y-69058768D01*
X94576787Y-69058767D01*
X94576785Y-69058766D01*
X94422441Y-68980125D01*
X94422438Y-68980123D01*
X94257706Y-68926598D01*
X94257702Y-68926597D01*
X94086614Y-68899500D01*
X94086611Y-68899500D01*
X93913389Y-68899500D01*
X93913386Y-68899500D01*
X93742297Y-68926597D01*
X93742293Y-68926598D01*
X93577561Y-68980123D01*
X93577558Y-68980125D01*
X93423214Y-69058766D01*
X93283073Y-69160585D01*
X93160585Y-69283073D01*
X93058766Y-69423214D01*
X92980125Y-69577558D01*
X92980123Y-69577561D01*
X92926598Y-69742293D01*
X92926597Y-69742297D01*
X92899500Y-69913385D01*
X92899500Y-70086614D01*
X92926597Y-70257702D01*
X92926598Y-70257706D01*
X92980123Y-70422438D01*
X92980125Y-70422441D01*
X92980126Y-70422444D01*
X92980127Y-70422445D01*
X93058768Y-70576788D01*
X93160586Y-70716928D01*
X93283072Y-70839414D01*
X93423212Y-70941232D01*
X93577555Y-71019873D01*
X93577557Y-71019873D01*
X93577558Y-71019874D01*
X93577561Y-71019876D01*
X93742293Y-71073401D01*
X93742297Y-71073402D01*
X93913386Y-71100500D01*
X93913389Y-71100500D01*
X94086614Y-71100500D01*
X94257696Y-71073403D01*
X94257697Y-71073402D01*
X94257701Y-71073402D01*
X94334800Y-71048349D01*
X94395984Y-71048349D01*
X94435397Y-71072500D01*
X98142686Y-74779789D01*
X98142688Y-74779790D01*
X98142689Y-74779791D01*
X98142690Y-74779792D01*
X98245407Y-74839096D01*
X98245409Y-74839097D01*
X98245413Y-74839099D01*
X98269622Y-74845584D01*
X98269625Y-74845587D01*
X98269626Y-74845586D01*
X98359988Y-74869799D01*
X98359990Y-74869800D01*
X98359991Y-74869800D01*
X104491405Y-74869800D01*
X104549596Y-74888707D01*
X104561403Y-74898791D01*
X105794321Y-76131593D01*
X106050383Y-76387630D01*
X106078163Y-76442145D01*
X106068595Y-76502578D01*
X106025332Y-76545845D01*
X105964901Y-76555419D01*
X105935438Y-76545847D01*
X105820832Y-76487453D01*
X105641113Y-76429058D01*
X105454484Y-76399500D01*
X105454481Y-76399500D01*
X105265519Y-76399500D01*
X105265516Y-76399500D01*
X105078886Y-76429058D01*
X104899167Y-76487453D01*
X104730803Y-76573238D01*
X104577928Y-76684309D01*
X104444309Y-76817928D01*
X104333238Y-76970803D01*
X104247453Y-77139167D01*
X104189058Y-77318886D01*
X104187781Y-77326954D01*
X104160004Y-77381471D01*
X104105487Y-77409248D01*
X104045055Y-77399677D01*
X104001790Y-77356412D01*
X103992219Y-77326954D01*
X103990941Y-77318886D01*
X103982393Y-77292577D01*
X103932547Y-77139168D01*
X103846760Y-76970801D01*
X103735690Y-76817927D01*
X103602073Y-76684310D01*
X103449199Y-76573240D01*
X103449198Y-76573239D01*
X103449196Y-76573238D01*
X103280832Y-76487453D01*
X103101113Y-76429058D01*
X102914484Y-76399500D01*
X102914481Y-76399500D01*
X102725519Y-76399500D01*
X102725516Y-76399500D01*
X102538886Y-76429058D01*
X102359167Y-76487453D01*
X102190803Y-76573238D01*
X102037928Y-76684309D01*
X101904309Y-76817928D01*
X101793238Y-76970803D01*
X101707453Y-77139167D01*
X101649058Y-77318886D01*
X101647781Y-77326954D01*
X101620004Y-77381471D01*
X101565487Y-77409248D01*
X101505055Y-77399677D01*
X101461790Y-77356412D01*
X101452219Y-77326954D01*
X101450941Y-77318886D01*
X101442393Y-77292577D01*
X101392547Y-77139168D01*
X101306760Y-76970801D01*
X101195690Y-76817927D01*
X101062073Y-76684310D01*
X100909199Y-76573240D01*
X100909198Y-76573239D01*
X100909196Y-76573238D01*
X100740832Y-76487453D01*
X100561113Y-76429058D01*
X100374484Y-76399500D01*
X100374481Y-76399500D01*
X100185519Y-76399500D01*
X100185516Y-76399500D01*
X99998886Y-76429058D01*
X99819167Y-76487453D01*
X99650803Y-76573238D01*
X99497928Y-76684309D01*
X99364309Y-76817928D01*
X99253238Y-76970803D01*
X99167453Y-77139167D01*
X99109058Y-77318886D01*
X99107781Y-77326954D01*
X99080004Y-77381471D01*
X99025487Y-77409248D01*
X98965055Y-77399677D01*
X98921790Y-77356412D01*
X98912219Y-77326954D01*
X98910941Y-77318886D01*
X98902393Y-77292577D01*
X98852547Y-77139168D01*
X98766760Y-76970801D01*
X98655690Y-76817927D01*
X98522073Y-76684310D01*
X98369199Y-76573240D01*
X98369198Y-76573239D01*
X98369196Y-76573238D01*
X98200832Y-76487453D01*
X98021113Y-76429058D01*
X97834484Y-76399500D01*
X97834481Y-76399500D01*
X97645519Y-76399500D01*
X97645516Y-76399500D01*
X97458886Y-76429058D01*
X97279167Y-76487453D01*
X97110803Y-76573238D01*
X96957928Y-76684309D01*
X96824309Y-76817928D01*
X96713238Y-76970803D01*
X96627453Y-77139167D01*
X96569058Y-77318886D01*
X96567781Y-77326954D01*
X96540004Y-77381471D01*
X96485487Y-77409248D01*
X96425055Y-77399677D01*
X96381790Y-77356412D01*
X96372219Y-77326954D01*
X96370941Y-77318886D01*
X96362393Y-77292577D01*
X96312547Y-77139168D01*
X96226760Y-76970801D01*
X96115690Y-76817927D01*
X95982073Y-76684310D01*
X95829199Y-76573240D01*
X95829198Y-76573239D01*
X95829196Y-76573238D01*
X95660832Y-76487453D01*
X95481113Y-76429058D01*
X95294484Y-76399500D01*
X95294481Y-76399500D01*
X95105519Y-76399500D01*
X95105516Y-76399500D01*
X94918886Y-76429058D01*
X94739167Y-76487453D01*
X94570803Y-76573238D01*
X94417928Y-76684309D01*
X94284309Y-76817928D01*
X94173238Y-76970803D01*
X94087453Y-77139167D01*
X94029058Y-77318886D01*
X94027781Y-77326954D01*
X94000004Y-77381471D01*
X93945487Y-77409248D01*
X93885055Y-77399677D01*
X93841790Y-77356412D01*
X93832219Y-77326954D01*
X93830941Y-77318886D01*
X93822393Y-77292577D01*
X93772547Y-77139168D01*
X93686760Y-76970801D01*
X93575690Y-76817927D01*
X93442073Y-76684310D01*
X93289199Y-76573240D01*
X93289198Y-76573239D01*
X93289196Y-76573238D01*
X93120832Y-76487453D01*
X92941113Y-76429058D01*
X92754484Y-76399500D01*
X92754481Y-76399500D01*
X92565519Y-76399500D01*
X92565516Y-76399500D01*
X92378886Y-76429058D01*
X92199167Y-76487453D01*
X92030803Y-76573238D01*
X91877928Y-76684309D01*
X91744309Y-76817928D01*
X91633238Y-76970803D01*
X91547453Y-77139167D01*
X91489058Y-77318886D01*
X91487781Y-77326954D01*
X91460004Y-77381471D01*
X91405487Y-77409248D01*
X91345055Y-77399677D01*
X91301790Y-77356412D01*
X91292219Y-77326954D01*
X91290941Y-77318886D01*
X91282393Y-77292577D01*
X91232547Y-77139168D01*
X91146760Y-76970801D01*
X91035690Y-76817927D01*
X90902073Y-76684310D01*
X90749199Y-76573240D01*
X90749198Y-76573239D01*
X90749196Y-76573238D01*
X90580832Y-76487453D01*
X90401113Y-76429058D01*
X90214484Y-76399500D01*
X90214481Y-76399500D01*
X90025519Y-76399500D01*
X90025516Y-76399500D01*
X89838886Y-76429058D01*
X89659167Y-76487453D01*
X89490803Y-76573238D01*
X89337928Y-76684309D01*
X89204309Y-76817928D01*
X89093238Y-76970803D01*
X89007453Y-77139167D01*
X88949058Y-77318886D01*
X88947781Y-77326954D01*
X88920004Y-77381471D01*
X88865487Y-77409248D01*
X88805055Y-77399677D01*
X88761790Y-77356412D01*
X88752219Y-77326954D01*
X88750941Y-77318886D01*
X88742393Y-77292577D01*
X88692547Y-77139168D01*
X88606760Y-76970801D01*
X88495690Y-76817927D01*
X88362073Y-76684310D01*
X88209199Y-76573240D01*
X88209198Y-76573239D01*
X88209196Y-76573238D01*
X88040832Y-76487453D01*
X87861113Y-76429058D01*
X87674484Y-76399500D01*
X87674481Y-76399500D01*
X87485519Y-76399500D01*
X87485516Y-76399500D01*
X87298886Y-76429058D01*
X87119167Y-76487453D01*
X86950803Y-76573238D01*
X86797928Y-76684309D01*
X86664309Y-76817928D01*
X86553238Y-76970803D01*
X86467453Y-77139167D01*
X86409058Y-77318886D01*
X86407781Y-77326954D01*
X86380004Y-77381471D01*
X86325487Y-77409248D01*
X86265055Y-77399677D01*
X86221790Y-77356412D01*
X86212219Y-77326954D01*
X86210941Y-77318886D01*
X86202393Y-77292577D01*
X86152547Y-77139168D01*
X86066760Y-76970801D01*
X85955690Y-76817927D01*
X85822073Y-76684310D01*
X85669199Y-76573240D01*
X85669198Y-76573239D01*
X85669196Y-76573238D01*
X85500832Y-76487453D01*
X85321113Y-76429058D01*
X85134484Y-76399500D01*
X85134481Y-76399500D01*
X84945519Y-76399500D01*
X84945516Y-76399500D01*
X84758886Y-76429058D01*
X84579167Y-76487453D01*
X84410803Y-76573238D01*
X84257928Y-76684309D01*
X84124309Y-76817928D01*
X84013238Y-76970803D01*
X83927453Y-77139167D01*
X83869058Y-77318886D01*
X83867781Y-77326954D01*
X83840004Y-77381471D01*
X83785487Y-77409248D01*
X83725055Y-77399677D01*
X83681790Y-77356412D01*
X83672219Y-77326954D01*
X83670941Y-77318886D01*
X83662393Y-77292577D01*
X83612547Y-77139168D01*
X83526760Y-76970801D01*
X83415690Y-76817927D01*
X83282073Y-76684310D01*
X83129199Y-76573240D01*
X83129198Y-76573239D01*
X83129196Y-76573238D01*
X82960832Y-76487453D01*
X82781113Y-76429058D01*
X82594484Y-76399500D01*
X82594481Y-76399500D01*
X82405519Y-76399500D01*
X82405516Y-76399500D01*
X82218886Y-76429058D01*
X82039167Y-76487453D01*
X81870801Y-76573239D01*
X81870797Y-76573241D01*
X81805990Y-76620327D01*
X81747799Y-76639234D01*
X81689609Y-76620326D01*
X81653645Y-76570826D01*
X81648800Y-76540234D01*
X81648800Y-70052692D01*
X81634681Y-70000000D01*
X81618099Y-69938114D01*
X81583912Y-69878901D01*
X81558789Y-69835386D01*
X78869414Y-67146011D01*
X78869411Y-67146009D01*
X78869409Y-67146007D01*
X78766690Y-67086702D01*
X78766686Y-67086700D01*
X78742473Y-67080212D01*
X78742473Y-67080213D01*
X78652109Y-67056000D01*
X78652107Y-67056000D01*
X66354111Y-67056000D01*
X66295920Y-67037093D01*
X66284107Y-67027004D01*
X64692500Y-65435397D01*
X64664723Y-65380880D01*
X64668350Y-65334799D01*
X64693402Y-65257701D01*
X64701788Y-65204756D01*
X64720500Y-65086614D01*
X64720500Y-64913385D01*
X64693402Y-64742297D01*
X64693401Y-64742293D01*
X64639876Y-64577561D01*
X64639874Y-64577558D01*
X64639873Y-64577557D01*
X64639873Y-64577555D01*
X64561232Y-64423212D01*
X64459414Y-64283072D01*
X64336928Y-64160586D01*
X64196788Y-64058768D01*
X64196787Y-64058767D01*
X64196785Y-64058766D01*
X64042441Y-63980125D01*
X64042438Y-63980123D01*
X63877706Y-63926598D01*
X63877702Y-63926597D01*
X63706614Y-63899500D01*
X63706611Y-63899500D01*
X63533389Y-63899500D01*
X63533386Y-63899500D01*
X63362297Y-63926597D01*
X63362293Y-63926598D01*
X63197561Y-63980123D01*
X63197558Y-63980125D01*
X63043214Y-64058766D01*
X62903073Y-64160585D01*
X62780585Y-64283073D01*
X62678766Y-64423214D01*
X62600125Y-64577558D01*
X62600123Y-64577561D01*
X62546598Y-64742293D01*
X62546597Y-64742297D01*
X62519500Y-64913385D01*
X62519500Y-65086614D01*
X62546597Y-65257702D01*
X62546598Y-65257706D01*
X62600123Y-65422438D01*
X62600125Y-65422441D01*
X62600126Y-65422444D01*
X62600127Y-65422445D01*
X62678768Y-65576788D01*
X62780586Y-65716928D01*
X62903072Y-65839414D01*
X63043212Y-65941232D01*
X63197555Y-66019873D01*
X63197557Y-66019873D01*
X63197558Y-66019874D01*
X63197561Y-66019876D01*
X63362293Y-66073401D01*
X63362297Y-66073402D01*
X63533386Y-66100500D01*
X63533389Y-66100500D01*
X63706614Y-66100500D01*
X63877696Y-66073403D01*
X63877697Y-66073402D01*
X63877701Y-66073402D01*
X63954800Y-66048349D01*
X64015984Y-66048349D01*
X64055397Y-66072500D01*
X65849886Y-67866989D01*
X65909196Y-67901231D01*
X65952614Y-67926299D01*
X66067191Y-67957000D01*
X78365189Y-67957000D01*
X78423380Y-67975907D01*
X78435193Y-67985996D01*
X79980193Y-69530996D01*
X80007970Y-69585513D01*
X79998399Y-69645945D01*
X79955134Y-69689210D01*
X79910189Y-69700000D01*
X50799000Y-69700000D01*
X50740809Y-69681093D01*
X50704845Y-69631593D01*
X50700000Y-69601000D01*
X50700000Y-60381943D01*
X53500000Y-60381943D01*
X53500000Y-60618056D01*
X53536934Y-60851252D01*
X53536935Y-60851256D01*
X53609892Y-61075793D01*
X53609894Y-61075796D01*
X53717084Y-61286169D01*
X53777339Y-61369105D01*
X54476211Y-60670232D01*
X54487482Y-60712292D01*
X54559890Y-60837708D01*
X54662292Y-60940110D01*
X54787708Y-61012518D01*
X54829765Y-61023787D01*
X54130893Y-61722659D01*
X54213825Y-61782913D01*
X54213829Y-61782915D01*
X54424203Y-61890105D01*
X54424206Y-61890107D01*
X54648743Y-61963064D01*
X54648747Y-61963065D01*
X54881944Y-62000000D01*
X55118056Y-62000000D01*
X55351252Y-61963065D01*
X55351256Y-61963064D01*
X55575793Y-61890107D01*
X55575796Y-61890105D01*
X55786170Y-61782915D01*
X55786176Y-61782911D01*
X55869105Y-61722659D01*
X55869105Y-61722658D01*
X55170234Y-61023787D01*
X55212292Y-61012518D01*
X55337708Y-60940110D01*
X55440110Y-60837708D01*
X55512518Y-60712292D01*
X55523787Y-60670234D01*
X56222658Y-61369105D01*
X56222659Y-61369105D01*
X56282911Y-61286176D01*
X56282915Y-61286170D01*
X56390105Y-61075796D01*
X56390107Y-61075793D01*
X56463064Y-60851256D01*
X56463065Y-60851252D01*
X56500000Y-60618056D01*
X56500000Y-60381943D01*
X56463065Y-60148747D01*
X56463064Y-60148743D01*
X56390107Y-59924206D01*
X56390105Y-59924203D01*
X56282915Y-59713829D01*
X56282913Y-59713825D01*
X56222659Y-59630893D01*
X55523787Y-60329765D01*
X55512518Y-60287708D01*
X55440110Y-60162292D01*
X55337708Y-60059890D01*
X55212292Y-59987482D01*
X55170232Y-59976211D01*
X55869105Y-59277339D01*
X55786169Y-59217084D01*
X55575796Y-59109894D01*
X55575793Y-59109892D01*
X55351256Y-59036935D01*
X55351252Y-59036934D01*
X55118056Y-59000000D01*
X54881944Y-59000000D01*
X54648747Y-59036934D01*
X54648743Y-59036935D01*
X54424206Y-59109892D01*
X54424203Y-59109894D01*
X54213823Y-59217088D01*
X54130893Y-59277339D01*
X54829766Y-59976212D01*
X54787708Y-59987482D01*
X54662292Y-60059890D01*
X54559890Y-60162292D01*
X54487482Y-60287708D01*
X54476212Y-60329766D01*
X53777339Y-59630893D01*
X53717088Y-59713823D01*
X53609894Y-59924203D01*
X53609892Y-59924206D01*
X53536935Y-60148743D01*
X53536934Y-60148747D01*
X53500000Y-60381943D01*
X50700000Y-60381943D01*
X50700000Y-55897644D01*
X53699500Y-55897644D01*
X53699500Y-56102355D01*
X53731521Y-56304529D01*
X53794780Y-56499219D01*
X53887712Y-56681609D01*
X53887714Y-56681613D01*
X54008029Y-56847213D01*
X54008031Y-56847215D01*
X54008034Y-56847219D01*
X54152781Y-56991966D01*
X54152784Y-56991968D01*
X54152786Y-56991970D01*
X54318386Y-57112285D01*
X54318390Y-57112287D01*
X54500781Y-57205220D01*
X54695466Y-57268477D01*
X54695467Y-57268477D01*
X54695470Y-57268478D01*
X54897645Y-57300500D01*
X54897648Y-57300500D01*
X55102355Y-57300500D01*
X55304529Y-57268478D01*
X55304530Y-57268477D01*
X55304534Y-57268477D01*
X55499219Y-57205220D01*
X55681610Y-57112287D01*
X55847219Y-56991966D01*
X55991966Y-56847219D01*
X56112287Y-56681610D01*
X56202502Y-56504552D01*
X56245765Y-56461291D01*
X56290710Y-56450500D01*
X60209290Y-56450500D01*
X60267481Y-56469407D01*
X60297497Y-56504551D01*
X60349099Y-56605826D01*
X60387712Y-56681609D01*
X60387714Y-56681613D01*
X60508029Y-56847213D01*
X60508031Y-56847215D01*
X60508034Y-56847219D01*
X60652781Y-56991966D01*
X60652784Y-56991968D01*
X60652786Y-56991970D01*
X60818386Y-57112285D01*
X60818390Y-57112287D01*
X61000781Y-57205220D01*
X61195466Y-57268477D01*
X61195467Y-57268477D01*
X61195470Y-57268478D01*
X61397645Y-57300500D01*
X61397648Y-57300500D01*
X61602355Y-57300500D01*
X61804529Y-57268478D01*
X61804530Y-57268477D01*
X61804534Y-57268477D01*
X61999219Y-57205220D01*
X62181610Y-57112287D01*
X62347219Y-56991966D01*
X62491966Y-56847219D01*
X62612287Y-56681610D01*
X62705220Y-56499219D01*
X62768477Y-56304534D01*
X62779808Y-56232993D01*
X62800500Y-56102355D01*
X62800500Y-55897644D01*
X62768478Y-55695470D01*
X62760010Y-55669407D01*
X62705220Y-55500781D01*
X62612287Y-55318390D01*
X62612285Y-55318386D01*
X62491970Y-55152786D01*
X62491968Y-55152784D01*
X62491966Y-55152781D01*
X62347219Y-55008034D01*
X62347215Y-55008031D01*
X62347213Y-55008029D01*
X62181613Y-54887714D01*
X62181609Y-54887712D01*
X61999219Y-54794780D01*
X61804529Y-54731521D01*
X61602355Y-54699500D01*
X61602352Y-54699500D01*
X61397648Y-54699500D01*
X61397645Y-54699500D01*
X61195470Y-54731521D01*
X61000780Y-54794780D01*
X60818390Y-54887712D01*
X60818386Y-54887714D01*
X60652786Y-55008029D01*
X60508029Y-55152786D01*
X60387714Y-55318386D01*
X60387712Y-55318390D01*
X60346101Y-55400057D01*
X60297497Y-55495447D01*
X60254235Y-55538709D01*
X60209290Y-55549500D01*
X56290710Y-55549500D01*
X56232519Y-55530593D01*
X56202502Y-55495448D01*
X56112287Y-55318390D01*
X56112285Y-55318386D01*
X55991970Y-55152786D01*
X55991968Y-55152784D01*
X55991966Y-55152781D01*
X55847219Y-55008034D01*
X55847215Y-55008031D01*
X55847213Y-55008029D01*
X55681613Y-54887714D01*
X55681609Y-54887712D01*
X55499219Y-54794780D01*
X55304529Y-54731521D01*
X55102355Y-54699500D01*
X55102352Y-54699500D01*
X54897648Y-54699500D01*
X54897645Y-54699500D01*
X54695470Y-54731521D01*
X54500780Y-54794780D01*
X54318390Y-54887712D01*
X54318386Y-54887714D01*
X54152786Y-55008029D01*
X54008029Y-55152786D01*
X53887714Y-55318386D01*
X53887712Y-55318390D01*
X53794780Y-55500780D01*
X53731521Y-55695470D01*
X53699500Y-55897644D01*
X50700000Y-55897644D01*
X50700000Y-54055130D01*
X72529500Y-54055130D01*
X72529500Y-55944860D01*
X72529501Y-55944863D01*
X72532414Y-55969990D01*
X72555284Y-56021784D01*
X72577794Y-56072765D01*
X72657235Y-56152206D01*
X72760009Y-56197585D01*
X72785135Y-56200500D01*
X74674864Y-56200499D01*
X74699991Y-56197585D01*
X74802765Y-56152206D01*
X74882206Y-56072765D01*
X74927585Y-55969991D01*
X74930500Y-55944865D01*
X74930499Y-55387402D01*
X74949406Y-55329213D01*
X74998906Y-55293249D01*
X75060092Y-55293249D01*
X75109592Y-55329213D01*
X75123653Y-55356811D01*
X75157449Y-55460825D01*
X75157451Y-55460828D01*
X75241355Y-55625501D01*
X75243240Y-55629199D01*
X75354310Y-55782073D01*
X75487927Y-55915690D01*
X75640801Y-56026760D01*
X75809168Y-56112547D01*
X75988882Y-56170940D01*
X75988883Y-56170940D01*
X75988886Y-56170941D01*
X76175516Y-56200500D01*
X76175519Y-56200500D01*
X76364484Y-56200500D01*
X76551113Y-56170941D01*
X76551114Y-56170940D01*
X76551118Y-56170940D01*
X76730832Y-56112547D01*
X76899199Y-56026760D01*
X77052073Y-55915690D01*
X77185690Y-55782073D01*
X77296760Y-55629199D01*
X77382547Y-55460832D01*
X77440940Y-55281118D01*
X77440941Y-55281113D01*
X77470500Y-55094484D01*
X77470500Y-54905515D01*
X77440941Y-54718886D01*
X77438573Y-54711597D01*
X77382547Y-54539168D01*
X77296760Y-54370801D01*
X77277764Y-54344655D01*
X77249673Y-54305991D01*
X77230765Y-54247800D01*
X77249672Y-54189610D01*
X77299172Y-54153646D01*
X77329765Y-54148800D01*
X80416146Y-54148800D01*
X80474337Y-54167707D01*
X80486150Y-54177796D01*
X81813631Y-55505277D01*
X81920174Y-55576466D01*
X81970079Y-55597137D01*
X81970080Y-55597138D01*
X82023041Y-55619074D01*
X82038556Y-55625501D01*
X82164231Y-55650500D01*
X82164232Y-55650500D01*
X82292369Y-55650500D01*
X82430501Y-55650500D01*
X82488692Y-55669407D01*
X82524656Y-55718907D01*
X82529501Y-55749500D01*
X82529501Y-55944863D01*
X82532414Y-55969990D01*
X82555284Y-56021784D01*
X82577794Y-56072765D01*
X82657235Y-56152206D01*
X82760009Y-56197585D01*
X82785135Y-56200500D01*
X83969545Y-56200499D01*
X84027736Y-56219406D01*
X84039549Y-56229495D01*
X84821030Y-57010976D01*
X84927573Y-57082165D01*
X85045956Y-57131201D01*
X85171631Y-57156200D01*
X85171632Y-57156200D01*
X90786668Y-57156200D01*
X90786669Y-57156200D01*
X90912344Y-57131201D01*
X91030727Y-57082165D01*
X91137269Y-57010977D01*
X91714497Y-56433749D01*
X120650000Y-56433749D01*
X120650000Y-56646250D01*
X120683240Y-56856121D01*
X120748904Y-57058215D01*
X120845376Y-57247553D01*
X120845380Y-57247559D01*
X120884728Y-57301716D01*
X120884729Y-57301716D01*
X121517037Y-56669407D01*
X121534075Y-56732993D01*
X121599901Y-56847007D01*
X121692993Y-56940099D01*
X121807007Y-57005925D01*
X121870589Y-57022962D01*
X121238282Y-57655269D01*
X121238282Y-57655270D01*
X121292440Y-57694619D01*
X121292446Y-57694623D01*
X121481786Y-57791096D01*
X121572983Y-57820727D01*
X121622483Y-57856691D01*
X121641391Y-57914881D01*
X121622484Y-57973072D01*
X121572988Y-58009035D01*
X121558366Y-58013786D01*
X121558364Y-58013787D01*
X121397008Y-58096002D01*
X121323752Y-58149225D01*
X121250499Y-58202447D01*
X121122447Y-58330499D01*
X121069225Y-58403752D01*
X121016002Y-58477008D01*
X120933788Y-58638362D01*
X120877828Y-58810593D01*
X120849500Y-58989450D01*
X120849500Y-59170549D01*
X120877828Y-59349406D01*
X120877829Y-59349409D01*
X120933789Y-59521639D01*
X121016004Y-59682994D01*
X121122447Y-59829501D01*
X121250499Y-59957553D01*
X121397006Y-60063996D01*
X121558361Y-60146211D01*
X121730591Y-60202171D01*
X121802136Y-60213502D01*
X121909451Y-60230500D01*
X121909454Y-60230500D01*
X122090549Y-60230500D01*
X122179977Y-60216335D01*
X122269409Y-60202171D01*
X122441639Y-60146211D01*
X122602994Y-60063996D01*
X122749501Y-59957553D01*
X122877553Y-59829501D01*
X122983996Y-59682994D01*
X123066211Y-59521639D01*
X123122171Y-59349409D01*
X123150500Y-59170546D01*
X123150500Y-58989454D01*
X123150500Y-58989450D01*
X123122171Y-58810593D01*
X123122171Y-58810591D01*
X123066211Y-58638361D01*
X122983996Y-58477006D01*
X122877553Y-58330499D01*
X122749501Y-58202447D01*
X122602994Y-58096004D01*
X122602993Y-58096003D01*
X122602991Y-58096002D01*
X122441637Y-58013788D01*
X122427013Y-58009036D01*
X122377514Y-57973071D01*
X122358608Y-57914880D01*
X122377517Y-57856689D01*
X122427016Y-57820727D01*
X122518213Y-57791096D01*
X122707556Y-57694620D01*
X122761716Y-57655270D01*
X122129408Y-57022962D01*
X122192993Y-57005925D01*
X122307007Y-56940099D01*
X122400099Y-56847007D01*
X122465925Y-56732993D01*
X122482962Y-56669408D01*
X123115270Y-57301716D01*
X123154620Y-57247556D01*
X123251095Y-57058215D01*
X123316759Y-56856121D01*
X123350000Y-56646250D01*
X123350000Y-56433749D01*
X123316759Y-56223878D01*
X123251095Y-56021784D01*
X123154623Y-55832446D01*
X123154619Y-55832440D01*
X123115270Y-55778282D01*
X123115269Y-55778282D01*
X122482962Y-56410589D01*
X122465925Y-56347007D01*
X122400099Y-56232993D01*
X122307007Y-56139901D01*
X122192993Y-56074075D01*
X122129407Y-56057037D01*
X122761716Y-55424729D01*
X122761716Y-55424728D01*
X122707559Y-55385380D01*
X122707553Y-55385376D01*
X122614000Y-55337709D01*
X122570735Y-55294444D01*
X122561164Y-55234012D01*
X122588941Y-55179496D01*
X122643458Y-55151718D01*
X122658943Y-55150499D01*
X122894864Y-55150499D01*
X122919991Y-55147585D01*
X123022765Y-55102206D01*
X123102206Y-55022765D01*
X123147585Y-54919991D01*
X123150500Y-54894865D01*
X123150499Y-53105136D01*
X123147585Y-53080009D01*
X123102206Y-52977235D01*
X123022765Y-52897794D01*
X122919991Y-52852415D01*
X122919990Y-52852414D01*
X122919988Y-52852414D01*
X122894868Y-52849500D01*
X121105139Y-52849500D01*
X121105136Y-52849501D01*
X121080009Y-52852414D01*
X120977235Y-52897794D01*
X120897794Y-52977235D01*
X120852414Y-53080011D01*
X120849500Y-53105130D01*
X120849500Y-54894860D01*
X120849501Y-54894863D01*
X120852414Y-54919990D01*
X120877756Y-54977385D01*
X120897794Y-55022765D01*
X120977235Y-55102206D01*
X121080009Y-55147585D01*
X121105135Y-55150500D01*
X121341055Y-55150499D01*
X121399243Y-55169406D01*
X121435207Y-55218906D01*
X121435208Y-55280091D01*
X121399244Y-55329591D01*
X121385999Y-55337708D01*
X121292451Y-55385373D01*
X121292442Y-55385378D01*
X121238282Y-55424728D01*
X121870591Y-56057037D01*
X121807007Y-56074075D01*
X121692993Y-56139901D01*
X121599901Y-56232993D01*
X121534075Y-56347007D01*
X121517037Y-56410591D01*
X120884728Y-55778282D01*
X120845378Y-55832442D01*
X120845376Y-55832446D01*
X120748904Y-56021784D01*
X120683240Y-56223878D01*
X120650000Y-56433749D01*
X91714497Y-56433749D01*
X92360499Y-55787746D01*
X92415014Y-55759971D01*
X92475446Y-55769542D01*
X92518711Y-55812807D01*
X92529501Y-55857752D01*
X92529501Y-55944863D01*
X92532414Y-55969990D01*
X92555284Y-56021784D01*
X92577794Y-56072765D01*
X92657235Y-56152206D01*
X92760009Y-56197585D01*
X92785135Y-56200500D01*
X94674864Y-56200499D01*
X94699991Y-56197585D01*
X94802765Y-56152206D01*
X94882206Y-56072765D01*
X94927585Y-55969991D01*
X94930500Y-55944865D01*
X94930499Y-55387402D01*
X94949406Y-55329213D01*
X94998906Y-55293249D01*
X95060092Y-55293249D01*
X95109592Y-55329213D01*
X95123653Y-55356811D01*
X95157449Y-55460825D01*
X95157451Y-55460828D01*
X95241355Y-55625501D01*
X95243240Y-55629199D01*
X95354310Y-55782073D01*
X95487927Y-55915690D01*
X95640801Y-56026760D01*
X95809168Y-56112547D01*
X95988882Y-56170940D01*
X95988883Y-56170940D01*
X95988886Y-56170941D01*
X96175516Y-56200500D01*
X96175519Y-56200500D01*
X96364484Y-56200500D01*
X96551113Y-56170941D01*
X96551114Y-56170940D01*
X96551118Y-56170940D01*
X96730832Y-56112547D01*
X96899199Y-56026760D01*
X97052073Y-55915690D01*
X97185690Y-55782073D01*
X97296760Y-55629199D01*
X97382547Y-55460832D01*
X97440940Y-55281118D01*
X97440941Y-55281113D01*
X97470500Y-55094484D01*
X97470500Y-54905515D01*
X97440941Y-54718886D01*
X97438573Y-54711597D01*
X97382547Y-54539168D01*
X97296760Y-54370801D01*
X97277764Y-54344655D01*
X97249455Y-54305691D01*
X97230547Y-54247500D01*
X97249454Y-54189310D01*
X97298954Y-54153346D01*
X97329547Y-54148500D01*
X100415546Y-54148500D01*
X100473737Y-54167407D01*
X100485550Y-54177496D01*
X101813331Y-55505277D01*
X101919873Y-55576465D01*
X102038256Y-55625501D01*
X102163931Y-55650500D01*
X102292069Y-55650500D01*
X102430501Y-55650500D01*
X102488692Y-55669407D01*
X102524656Y-55718907D01*
X102529501Y-55749500D01*
X102529501Y-55944863D01*
X102532414Y-55969990D01*
X102555284Y-56021784D01*
X102577794Y-56072765D01*
X102657235Y-56152206D01*
X102760009Y-56197585D01*
X102785135Y-56200500D01*
X104674864Y-56200499D01*
X104699991Y-56197585D01*
X104802765Y-56152206D01*
X104882206Y-56072765D01*
X104927585Y-55969991D01*
X104930500Y-55944865D01*
X104930499Y-55387401D01*
X104949406Y-55329213D01*
X104998906Y-55293249D01*
X105060092Y-55293249D01*
X105109592Y-55329213D01*
X105123653Y-55356811D01*
X105157449Y-55460825D01*
X105157451Y-55460828D01*
X105241355Y-55625501D01*
X105243240Y-55629199D01*
X105354310Y-55782073D01*
X105487927Y-55915690D01*
X105640801Y-56026760D01*
X105809168Y-56112547D01*
X105988882Y-56170940D01*
X105988883Y-56170940D01*
X105988886Y-56170941D01*
X106175516Y-56200500D01*
X106175519Y-56200500D01*
X106364484Y-56200500D01*
X106551113Y-56170941D01*
X106551114Y-56170940D01*
X106551118Y-56170940D01*
X106730832Y-56112547D01*
X106899199Y-56026760D01*
X107052073Y-55915690D01*
X107185690Y-55782073D01*
X107296760Y-55629199D01*
X107382547Y-55460832D01*
X107440940Y-55281118D01*
X107440941Y-55281113D01*
X107470500Y-55094484D01*
X107470500Y-54905515D01*
X107440941Y-54718886D01*
X107438573Y-54711597D01*
X107382547Y-54539168D01*
X107296760Y-54370801D01*
X107185690Y-54217927D01*
X107052073Y-54084310D01*
X106899199Y-53973240D01*
X106899198Y-53973239D01*
X106899196Y-53973238D01*
X106730832Y-53887453D01*
X106551113Y-53829058D01*
X106364484Y-53799500D01*
X106364481Y-53799500D01*
X106175519Y-53799500D01*
X106175516Y-53799500D01*
X105988886Y-53829058D01*
X105809167Y-53887453D01*
X105640803Y-53973238D01*
X105528081Y-54055136D01*
X105487927Y-54084310D01*
X105354310Y-54217927D01*
X105243245Y-54370795D01*
X105243241Y-54370800D01*
X105157451Y-54539171D01*
X105157449Y-54539174D01*
X105123653Y-54643189D01*
X105087689Y-54692689D01*
X105029498Y-54711596D01*
X104971308Y-54692688D01*
X104935344Y-54643188D01*
X104930499Y-54612596D01*
X104930499Y-54055139D01*
X104930499Y-54055136D01*
X104927585Y-54030009D01*
X104882206Y-53927235D01*
X104802765Y-53847794D01*
X104699991Y-53802415D01*
X104699990Y-53802414D01*
X104699988Y-53802414D01*
X104674868Y-53799500D01*
X102785139Y-53799500D01*
X102785136Y-53799501D01*
X102760009Y-53802414D01*
X102657235Y-53847794D01*
X102577794Y-53927235D01*
X102532414Y-54030011D01*
X102529500Y-54055130D01*
X102529500Y-54142546D01*
X102510593Y-54200737D01*
X102461093Y-54236701D01*
X102399907Y-54236701D01*
X102360496Y-54212550D01*
X101918450Y-53770504D01*
X101140669Y-52992723D01*
X101127837Y-52984149D01*
X101034126Y-52921534D01*
X100915747Y-52872500D01*
X100915745Y-52872499D01*
X100915744Y-52872499D01*
X100790069Y-52847500D01*
X95167931Y-52847500D01*
X95167930Y-52847500D01*
X95042255Y-52872499D01*
X94981189Y-52897794D01*
X94923873Y-52921534D01*
X94817331Y-52992722D01*
X94039548Y-53770504D01*
X93985032Y-53798281D01*
X93969545Y-53799500D01*
X92785139Y-53799500D01*
X92785136Y-53799501D01*
X92760009Y-53802414D01*
X92657235Y-53847794D01*
X92577794Y-53927235D01*
X92532414Y-54030011D01*
X92529500Y-54055130D01*
X92529500Y-54250500D01*
X92510593Y-54308691D01*
X92461093Y-54344655D01*
X92430500Y-54349500D01*
X92164228Y-54349500D01*
X92057146Y-54370801D01*
X92057145Y-54370800D01*
X92038562Y-54374497D01*
X92038554Y-54374499D01*
X91920175Y-54423533D01*
X91813633Y-54494721D01*
X90482150Y-55826204D01*
X90427633Y-55853981D01*
X90412146Y-55855200D01*
X87326859Y-55855200D01*
X87268668Y-55836293D01*
X87232704Y-55786793D01*
X87232704Y-55725607D01*
X87246766Y-55698009D01*
X87248614Y-55695466D01*
X87296760Y-55629199D01*
X87382547Y-55460832D01*
X87440940Y-55281118D01*
X87440941Y-55281113D01*
X87470500Y-55094484D01*
X87470500Y-54905515D01*
X87440941Y-54718886D01*
X87438573Y-54711597D01*
X87382547Y-54539168D01*
X87296760Y-54370801D01*
X87185690Y-54217927D01*
X87052073Y-54084310D01*
X86899199Y-53973240D01*
X86899198Y-53973239D01*
X86899196Y-53973238D01*
X86730832Y-53887453D01*
X86551113Y-53829058D01*
X86364484Y-53799500D01*
X86364481Y-53799500D01*
X86175519Y-53799500D01*
X86175516Y-53799500D01*
X85988886Y-53829058D01*
X85809167Y-53887453D01*
X85640803Y-53973238D01*
X85528081Y-54055136D01*
X85487927Y-54084310D01*
X85354310Y-54217927D01*
X85243245Y-54370795D01*
X85243241Y-54370800D01*
X85157453Y-54539167D01*
X85123654Y-54643190D01*
X85087690Y-54692690D01*
X85029499Y-54711597D01*
X84971308Y-54692690D01*
X84935344Y-54643189D01*
X84930499Y-54612597D01*
X84930499Y-54055139D01*
X84930499Y-54055136D01*
X84927585Y-54030009D01*
X84882206Y-53927235D01*
X84802765Y-53847794D01*
X84699991Y-53802415D01*
X84699990Y-53802414D01*
X84699988Y-53802414D01*
X84674868Y-53799500D01*
X82785139Y-53799500D01*
X82785136Y-53799501D01*
X82760009Y-53802414D01*
X82657235Y-53847794D01*
X82577794Y-53927235D01*
X82532414Y-54030011D01*
X82529500Y-54055130D01*
X82529500Y-54142246D01*
X82510593Y-54200437D01*
X82461093Y-54236401D01*
X82399907Y-54236401D01*
X82360496Y-54212250D01*
X81805235Y-53656989D01*
X81141269Y-52993023D01*
X81141265Y-52993020D01*
X81034726Y-52921834D01*
X80916347Y-52872800D01*
X80916345Y-52872799D01*
X80916344Y-52872799D01*
X80914836Y-52872499D01*
X80790669Y-52847800D01*
X75167631Y-52847800D01*
X75167630Y-52847800D01*
X75041954Y-52872799D01*
X74992920Y-52893110D01*
X74923576Y-52921832D01*
X74817031Y-52993022D01*
X74039548Y-53770504D01*
X73985032Y-53798281D01*
X73969545Y-53799500D01*
X72785139Y-53799500D01*
X72785136Y-53799501D01*
X72760009Y-53802414D01*
X72657235Y-53847794D01*
X72577794Y-53927235D01*
X72532414Y-54030011D01*
X72529500Y-54055130D01*
X50700000Y-54055130D01*
X50700000Y-52864904D01*
X50705787Y-52831552D01*
X50765249Y-52665367D01*
X50768958Y-52656412D01*
X50911644Y-52354728D01*
X50916211Y-52346185D01*
X51087780Y-52059938D01*
X51093163Y-52051883D01*
X51291957Y-51783841D01*
X51298107Y-51776346D01*
X51522228Y-51529067D01*
X51529067Y-51522228D01*
X51776346Y-51298107D01*
X51783841Y-51291957D01*
X52051883Y-51093163D01*
X52059938Y-51087780D01*
X52346185Y-50916211D01*
X52354728Y-50911644D01*
X52656412Y-50768958D01*
X52665367Y-50765249D01*
X52831553Y-50705787D01*
X52864905Y-50700000D01*
X127135095Y-50700000D01*
X127168447Y-50705787D01*
G37*
%TD.AperFunction*%
%TA.AperFunction,Conductor*%
G36*
X120395446Y-71086497D02*
G01*
X120438710Y-71129762D01*
X120449500Y-71174706D01*
X120449500Y-74390966D01*
X120430593Y-74449157D01*
X120420504Y-74460970D01*
X118468018Y-76413455D01*
X118413501Y-76441232D01*
X118367423Y-76437606D01*
X118341118Y-76429059D01*
X118154484Y-76399500D01*
X118154481Y-76399500D01*
X117965519Y-76399500D01*
X117965516Y-76399500D01*
X117778886Y-76429058D01*
X117599167Y-76487453D01*
X117430803Y-76573238D01*
X117277928Y-76684309D01*
X117144309Y-76817928D01*
X117033237Y-76970804D01*
X117033236Y-76970806D01*
X116990160Y-77055347D01*
X116946895Y-77098611D01*
X116886463Y-77108182D01*
X116831947Y-77080404D01*
X116813741Y-77055346D01*
X116717387Y-76866241D01*
X116671067Y-76802485D01*
X116002962Y-77470589D01*
X115985925Y-77407007D01*
X115920099Y-77292993D01*
X115827007Y-77199901D01*
X115712993Y-77134075D01*
X115649408Y-77117037D01*
X116317512Y-76448932D01*
X116253753Y-76402609D01*
X116057413Y-76302569D01*
X115847829Y-76234471D01*
X115630185Y-76200000D01*
X115424134Y-76200000D01*
X115365943Y-76181093D01*
X115329979Y-76131593D01*
X115329979Y-76070407D01*
X115354128Y-76031000D01*
X120280498Y-71104701D01*
X120335014Y-71076925D01*
X120395446Y-71086497D01*
G37*
%TD.AperFunction*%
%TA.AperFunction,Conductor*%
G36*
X117991945Y-70469407D02*
G01*
X118021963Y-70504554D01*
X118058768Y-70576788D01*
X118160586Y-70716928D01*
X118283072Y-70839414D01*
X118423212Y-70941232D01*
X118577555Y-71019873D01*
X118577557Y-71019873D01*
X118577558Y-71019874D01*
X118577561Y-71019876D01*
X118742293Y-71073401D01*
X118742299Y-71073402D01*
X118780642Y-71079475D01*
X118805298Y-71083380D01*
X118859815Y-71111157D01*
X118887593Y-71165673D01*
X118878022Y-71226105D01*
X118859815Y-71251165D01*
X113612672Y-76498235D01*
X113558155Y-76526012D01*
X113497724Y-76516441D01*
X113440832Y-76487453D01*
X113345120Y-76456354D01*
X113261113Y-76429058D01*
X113074484Y-76399500D01*
X113074481Y-76399500D01*
X112885519Y-76399500D01*
X112885516Y-76399500D01*
X112698886Y-76429058D01*
X112519167Y-76487453D01*
X112350803Y-76573238D01*
X112197928Y-76684309D01*
X112064309Y-76817928D01*
X111953238Y-76970803D01*
X111867453Y-77139167D01*
X111809058Y-77318886D01*
X111807781Y-77326954D01*
X111780004Y-77381471D01*
X111725487Y-77409248D01*
X111665055Y-77399677D01*
X111621790Y-77356412D01*
X111612219Y-77326954D01*
X111610941Y-77318886D01*
X111602393Y-77292577D01*
X111552547Y-77139168D01*
X111466760Y-76970801D01*
X111355690Y-76817927D01*
X111222073Y-76684310D01*
X111069199Y-76573240D01*
X111069198Y-76573239D01*
X111069196Y-76573238D01*
X110900832Y-76487453D01*
X110721113Y-76429058D01*
X110534484Y-76399500D01*
X110534481Y-76399500D01*
X110345519Y-76399500D01*
X110345516Y-76399500D01*
X110158886Y-76429058D01*
X109979167Y-76487453D01*
X109810803Y-76573238D01*
X109657928Y-76684309D01*
X109524309Y-76817928D01*
X109413238Y-76970803D01*
X109327453Y-77139167D01*
X109269058Y-77318886D01*
X109267781Y-77326954D01*
X109240004Y-77381471D01*
X109185487Y-77409248D01*
X109125055Y-77399677D01*
X109081790Y-77356412D01*
X109072219Y-77326954D01*
X109070941Y-77318886D01*
X109062393Y-77292577D01*
X109012547Y-77139168D01*
X108926760Y-76970801D01*
X108815690Y-76817927D01*
X108682073Y-76684310D01*
X108529199Y-76573240D01*
X108529198Y-76573239D01*
X108529196Y-76573238D01*
X108360832Y-76487453D01*
X108181113Y-76429058D01*
X107994484Y-76399500D01*
X107994481Y-76399500D01*
X107805519Y-76399500D01*
X107805516Y-76399500D01*
X107618884Y-76429059D01*
X107485776Y-76472308D01*
X107424591Y-76472307D01*
X107385184Y-76448160D01*
X105056312Y-74119507D01*
X105028532Y-74064992D01*
X105038100Y-74004559D01*
X105081363Y-73961292D01*
X105126312Y-73950500D01*
X109561880Y-73950500D01*
X109620071Y-73969407D01*
X109641972Y-73991309D01*
X109660581Y-74016922D01*
X109660583Y-74016924D01*
X109660586Y-74016928D01*
X109783072Y-74139414D01*
X109923212Y-74241232D01*
X110077555Y-74319873D01*
X110077557Y-74319873D01*
X110077558Y-74319874D01*
X110077561Y-74319876D01*
X110242293Y-74373401D01*
X110242297Y-74373402D01*
X110413386Y-74400500D01*
X110413389Y-74400500D01*
X110586614Y-74400500D01*
X110757702Y-74373402D01*
X110757706Y-74373401D01*
X110922438Y-74319876D01*
X110922440Y-74319874D01*
X110922445Y-74319873D01*
X111076788Y-74241232D01*
X111216928Y-74139414D01*
X111339414Y-74016928D01*
X111441232Y-73876788D01*
X111519873Y-73722445D01*
X111550962Y-73626763D01*
X111586925Y-73577265D01*
X111645116Y-73558358D01*
X111703307Y-73577265D01*
X111739270Y-73626765D01*
X111795239Y-73799020D01*
X111795241Y-73799023D01*
X111888139Y-73981348D01*
X111888143Y-73981353D01*
X111920523Y-74025920D01*
X111920524Y-74025920D01*
X112600000Y-73346445D01*
X112600000Y-73352661D01*
X112627259Y-73454394D01*
X112679920Y-73545606D01*
X112754394Y-73620080D01*
X112845606Y-73672741D01*
X112947339Y-73700000D01*
X112953553Y-73700000D01*
X112274078Y-74379475D01*
X112318647Y-74411858D01*
X112500972Y-74504756D01*
X112695587Y-74567991D01*
X112897685Y-74600000D01*
X113102315Y-74600000D01*
X113304412Y-74567991D01*
X113499027Y-74504756D01*
X113681342Y-74411863D01*
X113681350Y-74411858D01*
X113725920Y-74379475D01*
X113046445Y-73700000D01*
X113052661Y-73700000D01*
X113154394Y-73672741D01*
X113245606Y-73620080D01*
X113320080Y-73545606D01*
X113372741Y-73454394D01*
X113400000Y-73352661D01*
X113400000Y-73346445D01*
X114079475Y-74025920D01*
X114111858Y-73981350D01*
X114111863Y-73981342D01*
X114204756Y-73799027D01*
X114267991Y-73604412D01*
X114300000Y-73402315D01*
X114300000Y-73197684D01*
X114267991Y-72995587D01*
X114204756Y-72800972D01*
X114111858Y-72618647D01*
X114079475Y-72574078D01*
X113400000Y-73253553D01*
X113400000Y-73247339D01*
X113372741Y-73145606D01*
X113320080Y-73054394D01*
X113245606Y-72979920D01*
X113154394Y-72927259D01*
X113052661Y-72900000D01*
X113046446Y-72900000D01*
X113725920Y-72220524D01*
X113725920Y-72220523D01*
X113681353Y-72188143D01*
X113681348Y-72188139D01*
X113499025Y-72095242D01*
X113456155Y-72081313D01*
X113406654Y-72045349D01*
X113387747Y-71987158D01*
X113406654Y-71928968D01*
X113448862Y-71895693D01*
X113450821Y-71894881D01*
X113450828Y-71894880D01*
X113488358Y-71879334D01*
X113526240Y-71871800D01*
X113871968Y-71871800D01*
X113871969Y-71871800D01*
X113997644Y-71846801D01*
X114116027Y-71797765D01*
X114222569Y-71726576D01*
X114313176Y-71635969D01*
X114384365Y-71529427D01*
X114433401Y-71411044D01*
X114458400Y-71285369D01*
X114458400Y-71157231D01*
X114433401Y-71031556D01*
X114384365Y-70913173D01*
X114384363Y-70913170D01*
X114384361Y-70913166D01*
X114355617Y-70870148D01*
X114313176Y-70806631D01*
X114222569Y-70716024D01*
X114170664Y-70681342D01*
X114116033Y-70644838D01*
X114116025Y-70644834D01*
X114106682Y-70640964D01*
X114060156Y-70601227D01*
X114045873Y-70541732D01*
X114069288Y-70485204D01*
X114121458Y-70453235D01*
X114144568Y-70450500D01*
X117933754Y-70450500D01*
X117991945Y-70469407D01*
G37*
%TD.AperFunction*%
%TD*%
M02*
