M48
; DRILL file KiCad 10.0.6 date 2026-09-09T10:34:30
; FORMAT={-:-/ absolute / metric / decimal}
; #@! TF.CreationDate,2026-09-09T10:34:30+05:30
; #@! TF.GenerationSoftware,Kicad,Pcbnew,10.0.6
; #@! TF.FileFunction,Plated,1,2,PTH
FMAT,2
METRIC
; #@! TA.AperFunction,Plated,PTH,ViaDrill
T1C0.400
; #@! TA.AperFunction,Plated,PTH,ComponentDrill
T2C0.800
; #@! TA.AperFunction,Plated,PTH,ComponentDrill
T3C0.900
; #@! TA.AperFunction,Plated,PTH,ComponentDrill
T4C1.000
; #@! TA.AperFunction,Plated,PTH,ComponentDrill
T5C1.100
%
G90
G05
T1
X113.246Y-71.221
X119.697Y-67.159
T2
X56.0Y-65.0
X63.62Y-65.0
X74.0Y-64.0
X81.62Y-64.0
X85.0Y-64.0
X92.62Y-64.0
X94.0Y-70.0
X96.0Y-64.0
X101.62Y-70.0
X103.62Y-64.0
X107.0Y-64.0
X110.0Y-111.0
X110.5Y-73.3
X112.5Y-111.0
X113.0Y-73.3
X114.62Y-64.0
X119.0Y-70.0
X121.0Y-64.0
X123.5Y-64.0
X126.62Y-70.0
T3
X73.73Y-55.0
X76.27Y-55.0
X83.73Y-55.0
X86.27Y-55.0
X93.73Y-55.0
X96.27Y-55.0
X103.73Y-55.0
X106.27Y-55.0
T4
X82.5Y-77.6
X82.5Y-103.0
X85.04Y-77.6
X85.04Y-103.0
X87.58Y-77.6
X87.58Y-103.0
X90.12Y-77.6
X90.12Y-103.0
X92.66Y-77.6
X92.66Y-103.0
X95.2Y-77.6
X95.2Y-103.0
X97.74Y-77.6
X97.74Y-103.0
X100.28Y-77.6
X100.28Y-103.0
X102.82Y-77.6
X102.82Y-103.0
X105.36Y-77.6
X105.36Y-103.0
X107.9Y-77.6
X107.9Y-103.0
X110.44Y-77.6
X110.44Y-103.0
X112.98Y-77.6
X112.98Y-103.0
X115.52Y-77.6
X115.52Y-103.0
X118.06Y-77.6
X118.06Y-103.0
X122.0Y-54.0
X122.0Y-56.54
X122.0Y-59.08
T5
X55.0Y-56.0
X55.0Y-60.5
X61.5Y-56.0
X61.5Y-60.5
M30
