%TF.GenerationSoftware,KiCad,Pcbnew,10.0.6*%
%TF.CreationDate,2026-09-09T10:34:27+05:30*%
%TF.ProjectId,emitter,656d6974-7465-4722-9e6b-696361645f70,rev?*%
%TF.SameCoordinates,Original*%
%TF.FileFunction,Soldermask,Bot*%
%TF.FilePolarity,Negative*%
%FSLAX46Y46*%
G04 Gerber Fmt 4.6, Leading zero omitted, Abs format (unit mm)*
G04 Created by KiCad (PCBNEW 10.0.6) date 2026-09-09 10:34:27*
%MOMM*%
%LPD*%
G01*
G04 APERTURE LIST*
G04 Aperture macros list*
%AMRoundRect*
0 Rectangle with rounded corners*
0 $1 Rounding radius*
0 $2 $3 $4 $5 $6 $7 $8 $9 X,Y pos of 4 corners*
0 Add a 4 corners polygon primitive as box body*
4,1,4,$2,$3,$4,$5,$6,$7,$8,$9,$2,$3,0*
0 Add four circle primitives for the rounded corners*
1,1,$1+$1,$2,$3*
1,1,$1+$1,$4,$5*
1,1,$1+$1,$6,$7*
1,1,$1+$1,$8,$9*
0 Add four rect primitives between the rounded corners*
20,1,$1+$1,$2,$3,$4,$5,0*
20,1,$1+$1,$4,$5,$6,$7,0*
20,1,$1+$1,$6,$7,$8,$9,0*
20,1,$1+$1,$8,$9,$2,$3,0*%
G04 Aperture macros list end*
%ADD10C,1.600000*%
%ADD11C,3.200000*%
%ADD12R,1.800000X1.800000*%
%ADD13C,1.800000*%
%ADD14R,1.700000X1.700000*%
%ADD15C,1.700000*%
%ADD16RoundRect,0.250000X-0.550000X-0.550000X0.550000X-0.550000X0.550000X0.550000X-0.550000X0.550000X0*%
%ADD17C,2.000000*%
G04 APERTURE END LIST*
D10*
%TO.C,R5*%
X94000000Y-70000000D03*
X101620000Y-70000000D03*
%TD*%
%TO.C,R4*%
X107000000Y-64000000D03*
X114620000Y-64000000D03*
%TD*%
D11*
%TO.C,MH1*%
X54000000Y-75000000D03*
%TD*%
%TO.C,MH3*%
X126000000Y-110000000D03*
%TD*%
D10*
%TO.C,R1*%
X74000000Y-64000000D03*
X81620000Y-64000000D03*
%TD*%
D12*
%TO.C,D2*%
X83730000Y-55000000D03*
D13*
X86270000Y-55000000D03*
%TD*%
D12*
%TO.C,D4*%
X103730000Y-55000000D03*
D13*
X106270000Y-55000000D03*
%TD*%
D12*
%TO.C,D1*%
X73730000Y-55000000D03*
D13*
X76270000Y-55000000D03*
%TD*%
D10*
%TO.C,C2*%
X110500000Y-73300000D03*
X113000000Y-73300000D03*
%TD*%
%TO.C,R3*%
X96000000Y-64000000D03*
X103620000Y-64000000D03*
%TD*%
%TO.C,R7*%
X56000000Y-65000000D03*
X63620000Y-65000000D03*
%TD*%
D12*
%TO.C,D3*%
X93730000Y-55000000D03*
D13*
X96270000Y-55000000D03*
%TD*%
D10*
%TO.C,R6*%
X119000000Y-70000000D03*
X126620000Y-70000000D03*
%TD*%
D14*
%TO.C,J1*%
X122000000Y-54000000D03*
D15*
X122000000Y-56540000D03*
X122000000Y-59080000D03*
%TD*%
D16*
%TO.C,C3*%
X110000000Y-111000000D03*
D10*
X112500000Y-111000000D03*
%TD*%
D12*
%TO.C,U1*%
X82500000Y-103000000D03*
D13*
X85040000Y-103000000D03*
X87580000Y-103000000D03*
X90120000Y-103000000D03*
X92660000Y-103000000D03*
X95200000Y-103000000D03*
X97740000Y-103000000D03*
X100280000Y-103000000D03*
X102820000Y-103000000D03*
X105360000Y-103000000D03*
X107900000Y-103000000D03*
X110440000Y-103000000D03*
X112980000Y-103000000D03*
X115520000Y-103000000D03*
X118060000Y-103000000D03*
X118060000Y-77600000D03*
X115520000Y-77600000D03*
X112980000Y-77600000D03*
X110440000Y-77600000D03*
X107900000Y-77600000D03*
X105360000Y-77600000D03*
X102820000Y-77600000D03*
X100280000Y-77600000D03*
X97740000Y-77600000D03*
X95200000Y-77600000D03*
X92660000Y-77600000D03*
X90120000Y-77600000D03*
X87580000Y-77600000D03*
X85040000Y-77600000D03*
X82500000Y-77600000D03*
%TD*%
D10*
%TO.C,R2*%
X85000000Y-64000000D03*
X92620000Y-64000000D03*
%TD*%
%TO.C,C1*%
X121000000Y-64000000D03*
X123500000Y-64000000D03*
%TD*%
D17*
%TO.C,SW1*%
X55000000Y-56000000D03*
X61500000Y-56000000D03*
X55000000Y-60500000D03*
X61500000Y-60500000D03*
%TD*%
D11*
%TO.C,MH2*%
X54000000Y-110000000D03*
%TD*%
M02*
