%TF.GenerationSoftware,KiCad,Pcbnew,10.0.6*%
%TF.CreationDate,2026-09-09T10:34:27+05:30*%
%TF.ProjectId,emitter,656d6974-7465-4722-9e6b-696361645f70,rev?*%
%TF.SameCoordinates,Original*%
%TF.FileFunction,Copper,L1,Top*%
%TF.FilePolarity,Positive*%
%FSLAX46Y46*%
G04 Gerber Fmt 4.6, Leading zero omitted, Abs format (unit mm)*
G04 Created by KiCad (PCBNEW 10.0.6) date 2026-09-09 10:34:27*
%MOMM*%
%LPD*%
G01*
G04 APERTURE LIST*
G04 Aperture macros list*
%AMRoundRect*
0 Rectangle with rounded corners*
0 $1 Rounding radius*
0 $2 $3 $4 $5 $6 $7 $8 $9 X,Y pos of 4 corners*
0 Add a 4 corners polygon primitive as box body*
4,1,4,$2,$3,$4,$5,$6,$7,$8,$9,$2,$3,0*
0 Add four circle primitives for the rounded corners*
1,1,$1+$1,$2,$3*
1,1,$1+$1,$4,$5*
1,1,$1+$1,$6,$7*
1,1,$1+$1,$8,$9*
0 Add four rect primitives between the rounded corners*
20,1,$1+$1,$2,$3,$4,$5,0*
20,1,$1+$1,$4,$5,$6,$7,0*
20,1,$1+$1,$6,$7,$8,$9,0*
20,1,$1+$1,$8,$9,$2,$3,0*%
G04 Aperture macros list end*
%TA.AperFunction,ComponentPad*%
%ADD10C,1.600000*%
%TD*%
%TA.AperFunction,ComponentPad*%
%ADD11R,1.800000X1.800000*%
%TD*%
%TA.AperFunction,ComponentPad*%
%ADD12C,1.800000*%
%TD*%
%TA.AperFunction,SMDPad,CuDef*%
%ADD13RoundRect,0.150000X-0.587500X-0.150000X0.587500X-0.150000X0.587500X0.150000X-0.587500X0.150000X0*%
%TD*%
%TA.AperFunction,ComponentPad*%
%ADD14R,1.700000X1.700000*%
%TD*%
%TA.AperFunction,ComponentPad*%
%ADD15C,1.700000*%
%TD*%
%TA.AperFunction,ComponentPad*%
%ADD16RoundRect,0.250000X-0.550000X-0.550000X0.550000X-0.550000X0.550000X0.550000X-0.550000X0.550000X0*%
%TD*%
%TA.AperFunction,ComponentPad*%
%ADD17C,2.000000*%
%TD*%
%TA.AperFunction,ViaPad*%
%ADD18C,0.800000*%
%TD*%
%TA.AperFunction,Conductor*%
%ADD19C,0.300000*%
%TD*%
%TA.AperFunction,Conductor*%
%ADD20C,0.700000*%
%TD*%
%TA.AperFunction,Conductor*%
%ADD21C,0.500000*%
%TD*%
%TA.AperFunction,Conductor*%
%ADD22C,0.601000*%
%TD*%
%TA.AperFunction,Conductor*%
%ADD23C,0.400000*%
%TD*%
G04 APERTURE END LIST*
D10*
%TO.P,R5,1*%
%TO.N,/IR_TX*%
X94000000Y-70000000D03*
%TO.P,R5,2*%
%TO.N,/GATE*%
X101620000Y-70000000D03*
%TD*%
%TO.P,R4,1*%
%TO.N,/+5V_IR*%
X107000000Y-64000000D03*
%TO.P,R4,2*%
%TO.N,/LED_A4*%
X114620000Y-64000000D03*
%TD*%
%TO.P,R1,1*%
%TO.N,/+5V_IR*%
X74000000Y-64000000D03*
%TO.P,R1,2*%
%TO.N,/LED_A1*%
X81620000Y-64000000D03*
%TD*%
D11*
%TO.P,D2,1*%
%TO.N,/LED_RETURN*%
X83730000Y-55000000D03*
D12*
%TO.P,D2,2*%
%TO.N,/LED_A2*%
X86270000Y-55000000D03*
%TD*%
D11*
%TO.P,D4,1*%
%TO.N,/LED_RETURN*%
X103730000Y-55000000D03*
D12*
%TO.P,D4,2*%
%TO.N,/LED_A4*%
X106270000Y-55000000D03*
%TD*%
D11*
%TO.P,D1,1*%
%TO.N,/LED_RETURN*%
X73730000Y-55000000D03*
D12*
%TO.P,D1,2*%
%TO.N,/LED_A1*%
X76270000Y-55000000D03*
%TD*%
D10*
%TO.P,C2,1*%
%TO.N,/+5V_IR*%
X110500000Y-73300000D03*
%TO.P,C2,2*%
%TO.N,/GND*%
X113000000Y-73300000D03*
%TD*%
D13*
%TO.P,Q1,1*%
%TO.N,/GATE*%
X110062500Y-69050000D03*
%TO.P,Q1,2*%
%TO.N,/GND*%
X110062500Y-70950000D03*
%TO.P,Q1,3*%
%TO.N,/LED_RETURN*%
X111937500Y-70000000D03*
%TD*%
D10*
%TO.P,R3,1*%
%TO.N,/+5V_IR*%
X96000000Y-64000000D03*
%TO.P,R3,2*%
%TO.N,/LED_A3*%
X103620000Y-64000000D03*
%TD*%
%TO.P,R7,1*%
%TO.N,/+3V3*%
X56000000Y-65000000D03*
%TO.P,R7,2*%
%TO.N,/BUTTON*%
X63620000Y-65000000D03*
%TD*%
D11*
%TO.P,D3,1*%
%TO.N,/LED_RETURN*%
X93730000Y-55000000D03*
D12*
%TO.P,D3,2*%
%TO.N,/LED_A3*%
X96270000Y-55000000D03*
%TD*%
D10*
%TO.P,R6,1*%
%TO.N,/GATE*%
X119000000Y-70000000D03*
%TO.P,R6,2*%
%TO.N,/GND*%
X126620000Y-70000000D03*
%TD*%
D14*
%TO.P,J1,1*%
%TO.N,/+3V3*%
X122000000Y-54000000D03*
D15*
%TO.P,J1,2*%
%TO.N,/GND*%
X122000000Y-56540000D03*
%TO.P,J1,3*%
%TO.N,/IR_RX*%
X122000000Y-59080000D03*
%TD*%
D16*
%TO.P,C3,1*%
%TO.N,/+5V_IR*%
X110000000Y-111000000D03*
D10*
%TO.P,C3,2*%
%TO.N,/GND*%
X112500000Y-111000000D03*
%TD*%
D11*
%TO.P,U1,1*%
%TO.N,unconnected-(U1-EN-Pad1)*%
X82500000Y-103000000D03*
D12*
%TO.P,U1,2*%
%TO.N,unconnected-(U1-VP-Pad2)*%
X85040000Y-103000000D03*
%TO.P,U1,3*%
%TO.N,unconnected-(U1-VN-Pad3)*%
X87580000Y-103000000D03*
%TO.P,U1,4*%
%TO.N,unconnected-(U1-GPIO34-Pad4)*%
X90120000Y-103000000D03*
%TO.P,U1,5*%
%TO.N,unconnected-(U1-GPIO35-Pad5)*%
X92660000Y-103000000D03*
%TO.P,U1,6*%
%TO.N,unconnected-(U1-GPIO32-Pad6)*%
X95200000Y-103000000D03*
%TO.P,U1,7*%
%TO.N,unconnected-(U1-GPIO33-Pad7)*%
X97740000Y-103000000D03*
%TO.P,U1,8*%
%TO.N,unconnected-(U1-GPIO25-Pad8)*%
X100280000Y-103000000D03*
%TO.P,U1,9*%
%TO.N,unconnected-(U1-GPIO26-Pad9)*%
X102820000Y-103000000D03*
%TO.P,U1,10*%
%TO.N,/BUTTON*%
X105360000Y-103000000D03*
%TO.P,U1,11*%
%TO.N,unconnected-(U1-GPIO14-Pad11)*%
X107900000Y-103000000D03*
%TO.P,U1,12*%
%TO.N,unconnected-(U1-GPIO12-Pad12)*%
X110440000Y-103000000D03*
%TO.P,U1,13*%
%TO.N,unconnected-(U1-GPIO13-Pad13)*%
X112980000Y-103000000D03*
%TO.P,U1,14*%
%TO.N,/GND*%
X115520000Y-103000000D03*
%TO.P,U1,15*%
%TO.N,/+5V_IR*%
X118060000Y-103000000D03*
%TO.P,U1,16*%
%TO.N,/+3V3*%
X118060000Y-77600000D03*
%TO.P,U1,17*%
%TO.N,/GND*%
X115520000Y-77600000D03*
%TO.P,U1,18*%
%TO.N,/IR_RX*%
X112980000Y-77600000D03*
%TO.P,U1,19*%
%TO.N,unconnected-(U1-GPIO2-Pad19)*%
X110440000Y-77600000D03*
%TO.P,U1,20*%
%TO.N,/IR_TX*%
X107900000Y-77600000D03*
%TO.P,U1,21*%
%TO.N,unconnected-(U1-GPIO16-Pad21)*%
X105360000Y-77600000D03*
%TO.P,U1,22*%
%TO.N,unconnected-(U1-GPIO17-Pad22)*%
X102820000Y-77600000D03*
%TO.P,U1,23*%
%TO.N,unconnected-(U1-GPIO5-Pad23)*%
X100280000Y-77600000D03*
%TO.P,U1,24*%
%TO.N,unconnected-(U1-GPIO18-Pad24)*%
X97740000Y-77600000D03*
%TO.P,U1,25*%
%TO.N,unconnected-(U1-GPIO19-Pad25)*%
X95200000Y-77600000D03*
%TO.P,U1,26*%
%TO.N,unconnected-(U1-GPIO21-Pad26)*%
X92660000Y-77600000D03*
%TO.P,U1,27*%
%TO.N,unconnected-(U1-RX0-Pad27)*%
X90120000Y-77600000D03*
%TO.P,U1,28*%
%TO.N,unconnected-(U1-TX0-Pad28)*%
X87580000Y-77600000D03*
%TO.P,U1,29*%
%TO.N,unconnected-(U1-GPIO22-Pad29)*%
X85040000Y-77600000D03*
%TO.P,U1,30*%
%TO.N,unconnected-(U1-GPIO23-Pad30)*%
X82500000Y-77600000D03*
%TD*%
D10*
%TO.P,R2,1*%
%TO.N,/+5V_IR*%
X85000000Y-64000000D03*
%TO.P,R2,2*%
%TO.N,/LED_A2*%
X92620000Y-64000000D03*
%TD*%
%TO.P,C1,1*%
%TO.N,/+3V3*%
X121000000Y-64000000D03*
%TO.P,C1,2*%
%TO.N,/GND*%
X123500000Y-64000000D03*
%TD*%
D17*
%TO.P,SW1,1*%
%TO.N,/BUTTON*%
X55000000Y-56000000D03*
X61500000Y-56000000D03*
%TO.P,SW1,2*%
%TO.N,/GND*%
X55000000Y-60500000D03*
X61500000Y-60500000D03*
%TD*%
D18*
%TO.N,/+5V_IR*%
X113246500Y-71221300D03*
%TO.N,/IR_RX*%
X119697000Y-67158700D03*
%TD*%
%TO.N,/GATE*%
D19*
X107951500Y-69287500D02*
X109825000Y-69287500D01*
X110062000Y-69050000D02*
X107951500Y-69287500D01*
X109588000Y-69525000D02*
X110062000Y-69050000D01*
X105841000Y-69525000D02*
X109588000Y-69525000D01*
X105841000Y-69525000D02*
X101620000Y-70000000D01*
X109825000Y-69287500D02*
X110062500Y-69050000D01*
X107951500Y-69287500D02*
X105841000Y-69525000D01*
%TO.N,/+5V_IR*%
D20*
X113246500Y-71221300D02*
X113807900Y-71221300D01*
X113807900Y-71221300D02*
X113246500Y-71221300D01*
X113807900Y-71221300D02*
X119577400Y-76990800D01*
X119577400Y-101482600D02*
X118060000Y-103000000D01*
X119577400Y-76990800D02*
X119577400Y-101482600D01*
X113246500Y-71221300D02*
X113807900Y-71221300D01*
%TO.N,/LED_A4*%
D21*
X114620000Y-63350000D02*
X114620000Y-64000000D01*
X106270000Y-55000000D02*
X114620000Y-63350000D01*
%TO.N,/LED_A1*%
X76270000Y-58650000D02*
X81620000Y-64000000D01*
X76270000Y-55000000D02*
X76270000Y-58650000D01*
%TO.N,/LED_RETURN*%
D20*
X111797000Y-64568700D02*
X103730000Y-56501700D01*
X111797000Y-69799200D02*
X111797000Y-64568700D01*
X103730000Y-55000000D02*
X103730000Y-56501700D01*
D22*
X111797000Y-69799200D02*
X111797000Y-70000000D01*
D20*
X111938000Y-70000000D02*
X111797000Y-70000000D01*
%TO.N,/LED_A2*%
D21*
X92620000Y-64000000D02*
X86270000Y-57650000D01*
X86270000Y-57650000D02*
X86270000Y-55000000D01*
%TO.N,/GND*%
D23*
X110066400Y-70953600D02*
X113000000Y-73300000D01*
D20*
X115520000Y-103000000D02*
X115520000Y-77600000D01*
X118698600Y-104517400D02*
X126620000Y-96596000D01*
X126620000Y-96596000D02*
X126620000Y-70000000D01*
X115520000Y-103000000D02*
X117037400Y-104517400D01*
X115520000Y-77600000D02*
X115520000Y-75820000D01*
X110066100Y-70953600D02*
X110066400Y-70953600D01*
D23*
X110062000Y-70950000D02*
X110066400Y-70953600D01*
D20*
X122000000Y-56540000D02*
X123500000Y-58040000D01*
X112500000Y-111000000D02*
X112500000Y-106020000D01*
X126620000Y-67120000D02*
X126620000Y-70000000D01*
X115520000Y-75820000D02*
X113000000Y-73300000D01*
X110062500Y-70950000D02*
X110066100Y-70953600D01*
X117037400Y-104517400D02*
X118698600Y-104517400D01*
X123500000Y-64000000D02*
X126620000Y-67120000D01*
X123500000Y-58040000D02*
X123500000Y-64000000D01*
X112500000Y-106020000D02*
X115520000Y-103000000D01*
%TO.N,/LED_A3*%
D21*
X103620000Y-64000000D02*
X103620000Y-62350000D01*
X103620000Y-62350000D02*
X96270000Y-55000000D01*
%TO.N,/+3V3*%
X120616000Y-55384100D02*
X122000000Y-54000000D01*
X121000000Y-64000000D02*
X120616000Y-63615900D01*
X120616000Y-63615900D02*
X120616000Y-55384100D01*
%TO.N,/BUTTON*%
D19*
X61500000Y-56000000D02*
X63620000Y-58120000D01*
X63620000Y-58120000D02*
X63620000Y-65000000D01*
%TO.N,/IR_RX*%
X122250000Y-59330000D02*
X122000000Y-59080000D01*
X122250000Y-64605600D02*
X122250000Y-59330000D01*
X119697000Y-67158700D02*
X122250000Y-64605600D01*
%TD*%
M02*
