M48
; DRILL file KiCad 10.0.6 date 2026-09-07T16:07:09
; FORMAT={-:-/ absolute / metric / decimal}
; #@! TF.CreationDate,2026-09-07T16:07:09+05:30
; #@! TF.GenerationSoftware,Kicad,Pcbnew,10.0.6
; #@! TF.FileFunction,Plated,1,2,PTH
FMAT,2
METRIC
; #@! TA.AperFunction,Plated,PTH,ViaDrill
T1C0.300
; #@! TA.AperFunction,Plated,PTH,ComponentDrill
T2C0.700
; #@! TA.AperFunction,Plated,PTH,ComponentDrill
T3C0.750
; #@! TA.AperFunction,Plated,PTH,ComponentDrill
T4C0.800
; #@! TA.AperFunction,Plated,PTH,ComponentDrill
T5C1.000
; #@! TA.AperFunction,Plated,PTH,ComponentDrill
T6C1.100
; #@! TA.AperFunction,Plated,PTH,ComponentDrill
T7C1.200
; #@! TA.AperFunction,Plated,PTH,ComponentDrill
T8C1.850
%
G90
G05
T1
X102.0Y-64.0
X102.0Y-76.0
X102.0Y-88.0
X102.0Y-100.0
X102.0Y-112.0
X102.0Y-136.0
X102.0Y-148.0
X102.0Y-160.0
X112.0Y-112.0
X112.0Y-136.0
X130.0Y-112.0
X131.802Y-83.633
X132.0Y-161.0
X139.886Y-72.222
X143.0Y-64.0
X143.0Y-76.0
X143.0Y-88.0
X143.0Y-100.0
X143.0Y-112.0
X143.0Y-124.0
X143.0Y-136.0
X143.0Y-148.0
X143.0Y-160.0
T2
X104.0Y-82.0
X104.0Y-86.0
X104.0Y-90.0
X104.0Y-114.0
X104.0Y-118.0
X104.0Y-122.0
X104.0Y-158.0
X118.0Y-68.0
X137.0Y-88.0
X137.0Y-99.0
X140.0Y-131.0
T3
X121.5Y-163.0
X123.5Y-163.0
X136.0Y-113.0
X136.0Y-115.0
T4
X104.0Y-59.0
X104.0Y-63.5
X105.0Y-68.0
X105.0Y-73.0
X105.0Y-79.0
X107.0Y-82.84
X107.0Y-93.0
X107.0Y-100.0
X107.5Y-73.0
X110.0Y-68.0
X110.0Y-79.0
X112.0Y-100.0
X114.16Y-59.0
X114.16Y-63.5
X117.5Y-115.0
X117.5Y-120.0
X117.5Y-128.0
X117.5Y-133.0
X126.555Y-58.713
X126.555Y-60.618
X127.66Y-115.0
X127.66Y-120.0
X127.66Y-128.0
X127.66Y-133.0
X135.0Y-140.0
X135.0Y-146.0
X135.0Y-154.0
X137.5Y-140.0
X137.5Y-154.0
X140.0Y-146.0
T5
X114.88Y-141.0
X117.42Y-141.0
X119.96Y-77.19
X119.96Y-84.81
X119.96Y-141.0
X122.5Y-77.19
X122.5Y-84.81
X122.5Y-141.0
X123.38Y-53.38
X123.38Y-55.92
X123.38Y-58.46
X123.38Y-61.0
X123.38Y-63.54
X123.38Y-66.08
X123.38Y-68.62
X125.04Y-77.19
X125.04Y-84.81
X125.04Y-141.0
X127.58Y-141.0
X130.12Y-141.0
X138.62Y-53.38
X138.62Y-55.92
X138.62Y-58.46
X138.62Y-61.0
X138.62Y-63.54
X138.62Y-66.08
X138.62Y-68.62
T6
X120.7Y-153.954
X124.2Y-153.954
T7
X116.25Y-94.0
X116.25Y-99.0
X128.75Y-94.0
X128.75Y-99.0
T8
X134.0Y-120.3
X134.0Y-125.0
X134.0Y-129.7
M30
