%TF.GenerationSoftware,KiCad,Pcbnew,10.0.6*%
%TF.CreationDate,2026-09-07T16:07:09+05:30*%
%TF.ProjectId,remote,72656d6f-7465-42e6-9b69-6361645f7063,rev?*%
%TF.SameCoordinates,Original*%
%TF.FileFunction,Legend,Top*%
%TF.FilePolarity,Positive*%
%FSLAX46Y46*%
G04 Gerber Fmt 4.6, Leading zero omitted, Abs format (unit mm)*
G04 Created by KiCad (PCBNEW 10.0.6) date 2026-09-07 16:07:09*
%MOMM*%
%LPD*%
G01*
G04 APERTURE LIST*
G04 Aperture macros list*
%AMRoundRect*
0 Rectangle with rounded corners*
0 $1 Rounding radius*
0 $2 $3 $4 $5 $6 $7 $8 $9 X,Y pos of 4 corners*
0 Add a 4 corners polygon primitive as box body*
4,1,4,$2,$3,$4,$5,$6,$7,$8,$9,$2,$3,0*
0 Add four circle primitives for the rounded corners*
1,1,$1+$1,$2,$3*
1,1,$1+$1,$4,$5*
1,1,$1+$1,$6,$7*
1,1,$1+$1,$8,$9*
0 Add four rect primitives between the rounded corners*
20,1,$1+$1,$2,$3,$4,$5,0*
20,1,$1+$1,$4,$5,$6,$7,0*
20,1,$1+$1,$6,$7,$8,$9,0*
20,1,$1+$1,$8,$9,$2,$3,0*%
G04 Aperture macros list end*
%ADD10C,0.120000*%
%ADD11C,0.150000*%
%ADD12C,0.130000*%
%ADD13C,1.600000*%
%ADD14C,1.500000*%
%ADD15RoundRect,0.250000X-0.550000X-0.550000X0.550000X-0.550000X0.550000X0.550000X-0.550000X0.550000X0*%
%ADD16R,1.900000X1.900000*%
%ADD17C,1.900000*%
%ADD18R,1.524000X1.524000*%
%ADD19RoundRect,0.228600X-0.987400X-0.533400X0.987400X-0.533400X0.987400X0.533400X-0.987400X0.533400X0*%
%ADD20C,1.524000*%
%ADD21C,3.200000*%
%ADD22R,2.500000X1.300000*%
%ADD23O,2.500000X1.300000*%
%ADD24R,3.000000X3.000000*%
%ADD25C,3.000000*%
%ADD26C,1.800000*%
%ADD27O,2.900000X1.700000*%
%ADD28R,2.200000X2.200000*%
%ADD29C,2.200000*%
%ADD30RoundRect,0.250000X0.625000X-0.350000X0.625000X0.350000X-0.625000X0.350000X-0.625000X-0.350000X0*%
%ADD31O,1.750000X1.200000*%
%ADD32RoundRect,0.250000X-0.350000X-0.625000X0.350000X-0.625000X0.350000X0.625000X-0.350000X0.625000X0*%
%ADD33O,1.200000X1.750000*%
G04 APERTURE END LIST*
D10*
X119388571Y-74363855D02*
X119007619Y-74363855D01*
X119007619Y-74363855D02*
X119007619Y-73563855D01*
X120226666Y-73525760D02*
X119540952Y-74554331D01*
X120950476Y-74363855D02*
X120683809Y-73982902D01*
X120493333Y-74363855D02*
X120493333Y-73563855D01*
X120493333Y-73563855D02*
X120798095Y-73563855D01*
X120798095Y-73563855D02*
X120874285Y-73601950D01*
X120874285Y-73601950D02*
X120912380Y-73640045D01*
X120912380Y-73640045D02*
X120950476Y-73716236D01*
X120950476Y-73716236D02*
X120950476Y-73830521D01*
X120950476Y-73830521D02*
X120912380Y-73906712D01*
X120912380Y-73906712D02*
X120874285Y-73944807D01*
X120874285Y-73944807D02*
X120798095Y-73982902D01*
X120798095Y-73982902D02*
X120493333Y-73982902D01*
X121776190Y-73563855D02*
X121966666Y-74363855D01*
X121966666Y-74363855D02*
X122119047Y-73792426D01*
X122119047Y-73792426D02*
X122271428Y-74363855D01*
X122271428Y-74363855D02*
X122461905Y-73563855D01*
X122728571Y-74325760D02*
X122842857Y-74363855D01*
X122842857Y-74363855D02*
X123033333Y-74363855D01*
X123033333Y-74363855D02*
X123109524Y-74325760D01*
X123109524Y-74325760D02*
X123147619Y-74287664D01*
X123147619Y-74287664D02*
X123185714Y-74211474D01*
X123185714Y-74211474D02*
X123185714Y-74135283D01*
X123185714Y-74135283D02*
X123147619Y-74059093D01*
X123147619Y-74059093D02*
X123109524Y-74020998D01*
X123109524Y-74020998D02*
X123033333Y-73982902D01*
X123033333Y-73982902D02*
X122880952Y-73944807D01*
X122880952Y-73944807D02*
X122804762Y-73906712D01*
X122804762Y-73906712D02*
X122766667Y-73868617D01*
X122766667Y-73868617D02*
X122728571Y-73792426D01*
X122728571Y-73792426D02*
X122728571Y-73716236D01*
X122728571Y-73716236D02*
X122766667Y-73640045D01*
X122766667Y-73640045D02*
X122804762Y-73601950D01*
X122804762Y-73601950D02*
X122880952Y-73563855D01*
X122880952Y-73563855D02*
X123071429Y-73563855D01*
X123071429Y-73563855D02*
X123185714Y-73601950D01*
X124011427Y-74325760D02*
X124125713Y-74363855D01*
X124125713Y-74363855D02*
X124316189Y-74363855D01*
X124316189Y-74363855D02*
X124392380Y-74325760D01*
X124392380Y-74325760D02*
X124430475Y-74287664D01*
X124430475Y-74287664D02*
X124468570Y-74211474D01*
X124468570Y-74211474D02*
X124468570Y-74135283D01*
X124468570Y-74135283D02*
X124430475Y-74059093D01*
X124430475Y-74059093D02*
X124392380Y-74020998D01*
X124392380Y-74020998D02*
X124316189Y-73982902D01*
X124316189Y-73982902D02*
X124163808Y-73944807D01*
X124163808Y-73944807D02*
X124087618Y-73906712D01*
X124087618Y-73906712D02*
X124049523Y-73868617D01*
X124049523Y-73868617D02*
X124011427Y-73792426D01*
X124011427Y-73792426D02*
X124011427Y-73716236D01*
X124011427Y-73716236D02*
X124049523Y-73640045D01*
X124049523Y-73640045D02*
X124087618Y-73601950D01*
X124087618Y-73601950D02*
X124163808Y-73563855D01*
X124163808Y-73563855D02*
X124354285Y-73563855D01*
X124354285Y-73563855D02*
X124468570Y-73601950D01*
X125268571Y-74287664D02*
X125230475Y-74325760D01*
X125230475Y-74325760D02*
X125116190Y-74363855D01*
X125116190Y-74363855D02*
X125039999Y-74363855D01*
X125039999Y-74363855D02*
X124925713Y-74325760D01*
X124925713Y-74325760D02*
X124849523Y-74249569D01*
X124849523Y-74249569D02*
X124811428Y-74173379D01*
X124811428Y-74173379D02*
X124773332Y-74020998D01*
X124773332Y-74020998D02*
X124773332Y-73906712D01*
X124773332Y-73906712D02*
X124811428Y-73754331D01*
X124811428Y-73754331D02*
X124849523Y-73678140D01*
X124849523Y-73678140D02*
X124925713Y-73601950D01*
X124925713Y-73601950D02*
X125039999Y-73563855D01*
X125039999Y-73563855D02*
X125116190Y-73563855D01*
X125116190Y-73563855D02*
X125230475Y-73601950D01*
X125230475Y-73601950D02*
X125268571Y-73640045D01*
X125611428Y-74363855D02*
X125611428Y-73563855D01*
X126068571Y-74363855D02*
X125725713Y-73906712D01*
X126068571Y-73563855D02*
X125611428Y-74020998D01*
X115243855Y-138052380D02*
X115243855Y-138433332D01*
X115243855Y-138433332D02*
X114443855Y-138433332D01*
X115243855Y-137328570D02*
X114862902Y-137595237D01*
X115243855Y-137785713D02*
X114443855Y-137785713D01*
X114443855Y-137785713D02*
X114443855Y-137480951D01*
X114443855Y-137480951D02*
X114481950Y-137404761D01*
X114481950Y-137404761D02*
X114520045Y-137366666D01*
X114520045Y-137366666D02*
X114596236Y-137328570D01*
X114596236Y-137328570D02*
X114710521Y-137328570D01*
X114710521Y-137328570D02*
X114786712Y-137366666D01*
X114786712Y-137366666D02*
X114824807Y-137404761D01*
X114824807Y-137404761D02*
X114862902Y-137480951D01*
X114862902Y-137480951D02*
X114862902Y-137785713D01*
X115167664Y-136528570D02*
X115205760Y-136566666D01*
X115205760Y-136566666D02*
X115243855Y-136680951D01*
X115243855Y-136680951D02*
X115243855Y-136757142D01*
X115243855Y-136757142D02*
X115205760Y-136871428D01*
X115205760Y-136871428D02*
X115129569Y-136947618D01*
X115129569Y-136947618D02*
X115053379Y-136985713D01*
X115053379Y-136985713D02*
X114900998Y-137023809D01*
X114900998Y-137023809D02*
X114786712Y-137023809D01*
X114786712Y-137023809D02*
X114634331Y-136985713D01*
X114634331Y-136985713D02*
X114558140Y-136947618D01*
X114558140Y-136947618D02*
X114481950Y-136871428D01*
X114481950Y-136871428D02*
X114443855Y-136757142D01*
X114443855Y-136757142D02*
X114443855Y-136680951D01*
X114443855Y-136680951D02*
X114481950Y-136566666D01*
X114481950Y-136566666D02*
X114520045Y-136528570D01*
X117364807Y-138566666D02*
X117402902Y-138452380D01*
X117402902Y-138452380D02*
X117440998Y-138414285D01*
X117440998Y-138414285D02*
X117517188Y-138376189D01*
X117517188Y-138376189D02*
X117631474Y-138376189D01*
X117631474Y-138376189D02*
X117707664Y-138414285D01*
X117707664Y-138414285D02*
X117745760Y-138452380D01*
X117745760Y-138452380D02*
X117783855Y-138528570D01*
X117783855Y-138528570D02*
X117783855Y-138833332D01*
X117783855Y-138833332D02*
X116983855Y-138833332D01*
X116983855Y-138833332D02*
X116983855Y-138566666D01*
X116983855Y-138566666D02*
X117021950Y-138490475D01*
X117021950Y-138490475D02*
X117060045Y-138452380D01*
X117060045Y-138452380D02*
X117136236Y-138414285D01*
X117136236Y-138414285D02*
X117212426Y-138414285D01*
X117212426Y-138414285D02*
X117288617Y-138452380D01*
X117288617Y-138452380D02*
X117326712Y-138490475D01*
X117326712Y-138490475D02*
X117364807Y-138566666D01*
X117364807Y-138566666D02*
X117364807Y-138833332D01*
X117707664Y-137576189D02*
X117745760Y-137614285D01*
X117745760Y-137614285D02*
X117783855Y-137728570D01*
X117783855Y-137728570D02*
X117783855Y-137804761D01*
X117783855Y-137804761D02*
X117745760Y-137919047D01*
X117745760Y-137919047D02*
X117669569Y-137995237D01*
X117669569Y-137995237D02*
X117593379Y-138033332D01*
X117593379Y-138033332D02*
X117440998Y-138071428D01*
X117440998Y-138071428D02*
X117326712Y-138071428D01*
X117326712Y-138071428D02*
X117174331Y-138033332D01*
X117174331Y-138033332D02*
X117098140Y-137995237D01*
X117098140Y-137995237D02*
X117021950Y-137919047D01*
X117021950Y-137919047D02*
X116983855Y-137804761D01*
X116983855Y-137804761D02*
X116983855Y-137728570D01*
X116983855Y-137728570D02*
X117021950Y-137614285D01*
X117021950Y-137614285D02*
X117060045Y-137576189D01*
X117783855Y-136852380D02*
X117783855Y-137233332D01*
X117783855Y-137233332D02*
X116983855Y-137233332D01*
X117783855Y-136585713D02*
X116983855Y-136585713D01*
X117783855Y-136128570D02*
X117326712Y-136471428D01*
X116983855Y-136128570D02*
X117440998Y-136585713D01*
X120323855Y-138319046D02*
X119523855Y-138319046D01*
X119523855Y-138319046D02*
X119523855Y-138128570D01*
X119523855Y-138128570D02*
X119561950Y-138014284D01*
X119561950Y-138014284D02*
X119638140Y-137938094D01*
X119638140Y-137938094D02*
X119714331Y-137899999D01*
X119714331Y-137899999D02*
X119866712Y-137861903D01*
X119866712Y-137861903D02*
X119980998Y-137861903D01*
X119980998Y-137861903D02*
X120133379Y-137899999D01*
X120133379Y-137899999D02*
X120209569Y-137938094D01*
X120209569Y-137938094D02*
X120285760Y-138014284D01*
X120285760Y-138014284D02*
X120323855Y-138128570D01*
X120323855Y-138128570D02*
X120323855Y-138319046D01*
X120323855Y-137519046D02*
X119523855Y-137519046D01*
X120323855Y-137138094D02*
X119523855Y-137138094D01*
X119523855Y-137138094D02*
X120323855Y-136680951D01*
X120323855Y-136680951D02*
X119523855Y-136680951D01*
X122101950Y-138242856D02*
X122063855Y-138319046D01*
X122063855Y-138319046D02*
X122063855Y-138433332D01*
X122063855Y-138433332D02*
X122101950Y-138547618D01*
X122101950Y-138547618D02*
X122178140Y-138623808D01*
X122178140Y-138623808D02*
X122254331Y-138661903D01*
X122254331Y-138661903D02*
X122406712Y-138699999D01*
X122406712Y-138699999D02*
X122520998Y-138699999D01*
X122520998Y-138699999D02*
X122673379Y-138661903D01*
X122673379Y-138661903D02*
X122749569Y-138623808D01*
X122749569Y-138623808D02*
X122825760Y-138547618D01*
X122825760Y-138547618D02*
X122863855Y-138433332D01*
X122863855Y-138433332D02*
X122863855Y-138357141D01*
X122863855Y-138357141D02*
X122825760Y-138242856D01*
X122825760Y-138242856D02*
X122787664Y-138204760D01*
X122787664Y-138204760D02*
X122520998Y-138204760D01*
X122520998Y-138204760D02*
X122520998Y-138357141D01*
X122635283Y-137899999D02*
X122635283Y-137519046D01*
X122863855Y-137976189D02*
X122063855Y-137709522D01*
X122063855Y-137709522D02*
X122863855Y-137442856D01*
X122863855Y-137176189D02*
X122063855Y-137176189D01*
X122863855Y-136795237D02*
X122063855Y-136795237D01*
X122063855Y-136795237D02*
X122863855Y-136338094D01*
X122863855Y-136338094D02*
X122063855Y-136338094D01*
X125365759Y-138128571D02*
X125403854Y-138014285D01*
X125403854Y-138014285D02*
X125403854Y-137823809D01*
X125403854Y-137823809D02*
X125365759Y-137747618D01*
X125365759Y-137747618D02*
X125327663Y-137709523D01*
X125327663Y-137709523D02*
X125251473Y-137671428D01*
X125251473Y-137671428D02*
X125175282Y-137671428D01*
X125175282Y-137671428D02*
X125099092Y-137709523D01*
X125099092Y-137709523D02*
X125060997Y-137747618D01*
X125060997Y-137747618D02*
X125022901Y-137823809D01*
X125022901Y-137823809D02*
X124984806Y-137976190D01*
X124984806Y-137976190D02*
X124946711Y-138052380D01*
X124946711Y-138052380D02*
X124908616Y-138090475D01*
X124908616Y-138090475D02*
X124832425Y-138128571D01*
X124832425Y-138128571D02*
X124756235Y-138128571D01*
X124756235Y-138128571D02*
X124680044Y-138090475D01*
X124680044Y-138090475D02*
X124641949Y-138052380D01*
X124641949Y-138052380D02*
X124603854Y-137976190D01*
X124603854Y-137976190D02*
X124603854Y-137785713D01*
X124603854Y-137785713D02*
X124641949Y-137671428D01*
X125403854Y-137328570D02*
X124603854Y-137328570D01*
X124603854Y-137328570D02*
X124603854Y-137138094D01*
X124603854Y-137138094D02*
X124641949Y-137023808D01*
X124641949Y-137023808D02*
X124718139Y-136947618D01*
X124718139Y-136947618D02*
X124794330Y-136909523D01*
X124794330Y-136909523D02*
X124946711Y-136871427D01*
X124946711Y-136871427D02*
X125060997Y-136871427D01*
X125060997Y-136871427D02*
X125213378Y-136909523D01*
X125213378Y-136909523D02*
X125289568Y-136947618D01*
X125289568Y-136947618D02*
X125365759Y-137023808D01*
X125365759Y-137023808D02*
X125403854Y-137138094D01*
X125403854Y-137138094D02*
X125403854Y-137328570D01*
X127181950Y-138109523D02*
X127143855Y-138185713D01*
X127143855Y-138185713D02*
X127143855Y-138299999D01*
X127143855Y-138299999D02*
X127181950Y-138414285D01*
X127181950Y-138414285D02*
X127258140Y-138490475D01*
X127258140Y-138490475D02*
X127334331Y-138528570D01*
X127334331Y-138528570D02*
X127486712Y-138566666D01*
X127486712Y-138566666D02*
X127600998Y-138566666D01*
X127600998Y-138566666D02*
X127753379Y-138528570D01*
X127753379Y-138528570D02*
X127829569Y-138490475D01*
X127829569Y-138490475D02*
X127905760Y-138414285D01*
X127905760Y-138414285D02*
X127943855Y-138299999D01*
X127943855Y-138299999D02*
X127943855Y-138223808D01*
X127943855Y-138223808D02*
X127905760Y-138109523D01*
X127905760Y-138109523D02*
X127867664Y-138071427D01*
X127867664Y-138071427D02*
X127600998Y-138071427D01*
X127600998Y-138071427D02*
X127600998Y-138223808D01*
X127943855Y-137728570D02*
X127143855Y-137728570D01*
X127143855Y-137728570D02*
X127943855Y-137271427D01*
X127943855Y-137271427D02*
X127143855Y-137271427D01*
X127943855Y-136890475D02*
X127143855Y-136890475D01*
X127143855Y-136890475D02*
X127143855Y-136699999D01*
X127143855Y-136699999D02*
X127181950Y-136585713D01*
X127181950Y-136585713D02*
X127258140Y-136509523D01*
X127258140Y-136509523D02*
X127334331Y-136471428D01*
X127334331Y-136471428D02*
X127486712Y-136433332D01*
X127486712Y-136433332D02*
X127600998Y-136433332D01*
X127600998Y-136433332D02*
X127753379Y-136471428D01*
X127753379Y-136471428D02*
X127829569Y-136509523D01*
X127829569Y-136509523D02*
X127905760Y-136585713D01*
X127905760Y-136585713D02*
X127943855Y-136699999D01*
X127943855Y-136699999D02*
X127943855Y-136890475D01*
X129683855Y-138376189D02*
X130483855Y-138109522D01*
X130483855Y-138109522D02*
X129683855Y-137842856D01*
X130483855Y-137576189D02*
X129683855Y-137576189D01*
X130483855Y-137195237D02*
X129683855Y-137195237D01*
X129683855Y-137195237D02*
X130483855Y-136738094D01*
X130483855Y-136738094D02*
X129683855Y-136738094D01*
D11*
X105466666Y-134943247D02*
X105200000Y-134943247D01*
X105200000Y-135362295D02*
X105200000Y-134562295D01*
X105200000Y-134562295D02*
X105580952Y-134562295D01*
X105885714Y-135362295D02*
X105885714Y-134562295D01*
X106152380Y-134562295D02*
X106609523Y-134562295D01*
X106380951Y-135362295D02*
X106380951Y-134562295D01*
X106761904Y-134562295D02*
X107219047Y-134562295D01*
X106990475Y-135362295D02*
X106990475Y-134562295D01*
X107485714Y-134943247D02*
X107752380Y-134943247D01*
X107866666Y-135362295D02*
X107485714Y-135362295D01*
X107485714Y-135362295D02*
X107485714Y-134562295D01*
X107485714Y-134562295D02*
X107866666Y-134562295D01*
X108209524Y-135362295D02*
X108209524Y-134562295D01*
X108209524Y-134562295D02*
X108400000Y-134562295D01*
X108400000Y-134562295D02*
X108514286Y-134600390D01*
X108514286Y-134600390D02*
X108590476Y-134676580D01*
X108590476Y-134676580D02*
X108628571Y-134752771D01*
X108628571Y-134752771D02*
X108666667Y-134905152D01*
X108666667Y-134905152D02*
X108666667Y-135019438D01*
X108666667Y-135019438D02*
X108628571Y-135171819D01*
X108628571Y-135171819D02*
X108590476Y-135248009D01*
X108590476Y-135248009D02*
X108514286Y-135324200D01*
X108514286Y-135324200D02*
X108400000Y-135362295D01*
X108400000Y-135362295D02*
X108209524Y-135362295D01*
X109771429Y-134562295D02*
X109847619Y-134562295D01*
X109847619Y-134562295D02*
X109923810Y-134600390D01*
X109923810Y-134600390D02*
X109961905Y-134638485D01*
X109961905Y-134638485D02*
X110000000Y-134714676D01*
X110000000Y-134714676D02*
X110038095Y-134867057D01*
X110038095Y-134867057D02*
X110038095Y-135057533D01*
X110038095Y-135057533D02*
X110000000Y-135209914D01*
X110000000Y-135209914D02*
X109961905Y-135286104D01*
X109961905Y-135286104D02*
X109923810Y-135324200D01*
X109923810Y-135324200D02*
X109847619Y-135362295D01*
X109847619Y-135362295D02*
X109771429Y-135362295D01*
X109771429Y-135362295D02*
X109695238Y-135324200D01*
X109695238Y-135324200D02*
X109657143Y-135286104D01*
X109657143Y-135286104D02*
X109619048Y-135209914D01*
X109619048Y-135209914D02*
X109580952Y-135057533D01*
X109580952Y-135057533D02*
X109580952Y-134867057D01*
X109580952Y-134867057D02*
X109619048Y-134714676D01*
X109619048Y-134714676D02*
X109657143Y-134638485D01*
X109657143Y-134638485D02*
X109695238Y-134600390D01*
X109695238Y-134600390D02*
X109771429Y-134562295D01*
X110838096Y-135362295D02*
X110571429Y-134981342D01*
X110380953Y-135362295D02*
X110380953Y-134562295D01*
X110380953Y-134562295D02*
X110685715Y-134562295D01*
X110685715Y-134562295D02*
X110761905Y-134600390D01*
X110761905Y-134600390D02*
X110800000Y-134638485D01*
X110800000Y-134638485D02*
X110838096Y-134714676D01*
X110838096Y-134714676D02*
X110838096Y-134828961D01*
X110838096Y-134828961D02*
X110800000Y-134905152D01*
X110800000Y-134905152D02*
X110761905Y-134943247D01*
X110761905Y-134943247D02*
X110685715Y-134981342D01*
X110685715Y-134981342D02*
X110380953Y-134981342D01*
X118804762Y-72162295D02*
X118804762Y-71362295D01*
X118804762Y-71362295D02*
X119071428Y-71933723D01*
X119071428Y-71933723D02*
X119338095Y-71362295D01*
X119338095Y-71362295D02*
X119338095Y-72162295D01*
X119719048Y-72162295D02*
X119719048Y-71362295D01*
X120557143Y-72086104D02*
X120519047Y-72124200D01*
X120519047Y-72124200D02*
X120404762Y-72162295D01*
X120404762Y-72162295D02*
X120328571Y-72162295D01*
X120328571Y-72162295D02*
X120214285Y-72124200D01*
X120214285Y-72124200D02*
X120138095Y-72048009D01*
X120138095Y-72048009D02*
X120100000Y-71971819D01*
X120100000Y-71971819D02*
X120061904Y-71819438D01*
X120061904Y-71819438D02*
X120061904Y-71705152D01*
X120061904Y-71705152D02*
X120100000Y-71552771D01*
X120100000Y-71552771D02*
X120138095Y-71476580D01*
X120138095Y-71476580D02*
X120214285Y-71400390D01*
X120214285Y-71400390D02*
X120328571Y-71362295D01*
X120328571Y-71362295D02*
X120404762Y-71362295D01*
X120404762Y-71362295D02*
X120519047Y-71400390D01*
X120519047Y-71400390D02*
X120557143Y-71438485D01*
X121966667Y-72086104D02*
X121928571Y-72124200D01*
X121928571Y-72124200D02*
X121814286Y-72162295D01*
X121814286Y-72162295D02*
X121738095Y-72162295D01*
X121738095Y-72162295D02*
X121623809Y-72124200D01*
X121623809Y-72124200D02*
X121547619Y-72048009D01*
X121547619Y-72048009D02*
X121509524Y-71971819D01*
X121509524Y-71971819D02*
X121471428Y-71819438D01*
X121471428Y-71819438D02*
X121471428Y-71705152D01*
X121471428Y-71705152D02*
X121509524Y-71552771D01*
X121509524Y-71552771D02*
X121547619Y-71476580D01*
X121547619Y-71476580D02*
X121623809Y-71400390D01*
X121623809Y-71400390D02*
X121738095Y-71362295D01*
X121738095Y-71362295D02*
X121814286Y-71362295D01*
X121814286Y-71362295D02*
X121928571Y-71400390D01*
X121928571Y-71400390D02*
X121966667Y-71438485D01*
X122309524Y-72162295D02*
X122309524Y-71362295D01*
X122309524Y-71743247D02*
X122766667Y-71743247D01*
X122766667Y-72162295D02*
X122766667Y-71362295D01*
X123147619Y-72162295D02*
X123147619Y-71362295D01*
X123528571Y-72162295D02*
X123528571Y-71362295D01*
X123528571Y-71362295D02*
X123833333Y-71362295D01*
X123833333Y-71362295D02*
X123909523Y-71400390D01*
X123909523Y-71400390D02*
X123947618Y-71438485D01*
X123947618Y-71438485D02*
X123985714Y-71514676D01*
X123985714Y-71514676D02*
X123985714Y-71628961D01*
X123985714Y-71628961D02*
X123947618Y-71705152D01*
X123947618Y-71705152D02*
X123909523Y-71743247D01*
X123909523Y-71743247D02*
X123833333Y-71781342D01*
X123833333Y-71781342D02*
X123528571Y-71781342D01*
X124938095Y-71362295D02*
X124938095Y-72009914D01*
X124938095Y-72009914D02*
X124976190Y-72086104D01*
X124976190Y-72086104D02*
X125014285Y-72124200D01*
X125014285Y-72124200D02*
X125090476Y-72162295D01*
X125090476Y-72162295D02*
X125242857Y-72162295D01*
X125242857Y-72162295D02*
X125319047Y-72124200D01*
X125319047Y-72124200D02*
X125357142Y-72086104D01*
X125357142Y-72086104D02*
X125395238Y-72009914D01*
X125395238Y-72009914D02*
X125395238Y-71362295D01*
X125776190Y-72162295D02*
X125776190Y-71362295D01*
X125776190Y-71362295D02*
X126080952Y-71362295D01*
X126080952Y-71362295D02*
X126157142Y-71400390D01*
X126157142Y-71400390D02*
X126195237Y-71438485D01*
X126195237Y-71438485D02*
X126233333Y-71514676D01*
X126233333Y-71514676D02*
X126233333Y-71628961D01*
X126233333Y-71628961D02*
X126195237Y-71705152D01*
X126195237Y-71705152D02*
X126157142Y-71743247D01*
X126157142Y-71743247D02*
X126080952Y-71781342D01*
X126080952Y-71781342D02*
X125776190Y-71781342D01*
X115909522Y-167562295D02*
X116404760Y-167562295D01*
X116404760Y-167562295D02*
X116138094Y-167867057D01*
X116138094Y-167867057D02*
X116252379Y-167867057D01*
X116252379Y-167867057D02*
X116328570Y-167905152D01*
X116328570Y-167905152D02*
X116366665Y-167943247D01*
X116366665Y-167943247D02*
X116404760Y-168019438D01*
X116404760Y-168019438D02*
X116404760Y-168209914D01*
X116404760Y-168209914D02*
X116366665Y-168286104D01*
X116366665Y-168286104D02*
X116328570Y-168324200D01*
X116328570Y-168324200D02*
X116252379Y-168362295D01*
X116252379Y-168362295D02*
X116023808Y-168362295D01*
X116023808Y-168362295D02*
X115947617Y-168324200D01*
X115947617Y-168324200D02*
X115909522Y-168286104D01*
X116747618Y-168286104D02*
X116785713Y-168324200D01*
X116785713Y-168324200D02*
X116747618Y-168362295D01*
X116747618Y-168362295D02*
X116709522Y-168324200D01*
X116709522Y-168324200D02*
X116747618Y-168286104D01*
X116747618Y-168286104D02*
X116747618Y-168362295D01*
X117052379Y-167562295D02*
X117585713Y-167562295D01*
X117585713Y-167562295D02*
X117242855Y-168362295D01*
X117776189Y-167562295D02*
X118042856Y-168362295D01*
X118042856Y-168362295D02*
X118309522Y-167562295D01*
X119566665Y-168362295D02*
X119185713Y-168362295D01*
X119185713Y-168362295D02*
X119185713Y-167562295D01*
X119833332Y-168362295D02*
X119833332Y-167828961D01*
X119833332Y-167562295D02*
X119795236Y-167600390D01*
X119795236Y-167600390D02*
X119833332Y-167638485D01*
X119833332Y-167638485D02*
X119871427Y-167600390D01*
X119871427Y-167600390D02*
X119833332Y-167562295D01*
X119833332Y-167562295D02*
X119833332Y-167638485D01*
X120214284Y-168362295D02*
X120214284Y-167562295D01*
X120214284Y-167562295D02*
X120519046Y-167562295D01*
X120519046Y-167562295D02*
X120595236Y-167600390D01*
X120595236Y-167600390D02*
X120633331Y-167638485D01*
X120633331Y-167638485D02*
X120671427Y-167714676D01*
X120671427Y-167714676D02*
X120671427Y-167828961D01*
X120671427Y-167828961D02*
X120633331Y-167905152D01*
X120633331Y-167905152D02*
X120595236Y-167943247D01*
X120595236Y-167943247D02*
X120519046Y-167981342D01*
X120519046Y-167981342D02*
X120214284Y-167981342D01*
X121128569Y-168362295D02*
X121052379Y-168324200D01*
X121052379Y-168324200D02*
X121014284Y-168286104D01*
X121014284Y-168286104D02*
X120976188Y-168209914D01*
X120976188Y-168209914D02*
X120976188Y-167981342D01*
X120976188Y-167981342D02*
X121014284Y-167905152D01*
X121014284Y-167905152D02*
X121052379Y-167867057D01*
X121052379Y-167867057D02*
X121128569Y-167828961D01*
X121128569Y-167828961D02*
X121242855Y-167828961D01*
X121242855Y-167828961D02*
X121319046Y-167867057D01*
X121319046Y-167867057D02*
X121357141Y-167905152D01*
X121357141Y-167905152D02*
X121395236Y-167981342D01*
X121395236Y-167981342D02*
X121395236Y-168209914D01*
X121395236Y-168209914D02*
X121357141Y-168286104D01*
X121357141Y-168286104D02*
X121319046Y-168324200D01*
X121319046Y-168324200D02*
X121242855Y-168362295D01*
X121242855Y-168362295D02*
X121128569Y-168362295D01*
X122919046Y-167524200D02*
X122233332Y-168552771D01*
X123795237Y-167828961D02*
X123795237Y-168628961D01*
X123795237Y-167867057D02*
X123871427Y-167828961D01*
X123871427Y-167828961D02*
X124023808Y-167828961D01*
X124023808Y-167828961D02*
X124099999Y-167867057D01*
X124099999Y-167867057D02*
X124138094Y-167905152D01*
X124138094Y-167905152D02*
X124176189Y-167981342D01*
X124176189Y-167981342D02*
X124176189Y-168209914D01*
X124176189Y-168209914D02*
X124138094Y-168286104D01*
X124138094Y-168286104D02*
X124099999Y-168324200D01*
X124099999Y-168324200D02*
X124023808Y-168362295D01*
X124023808Y-168362295D02*
X123871427Y-168362295D01*
X123871427Y-168362295D02*
X123795237Y-168324200D01*
X124519047Y-168362295D02*
X124519047Y-167828961D01*
X124519047Y-167981342D02*
X124557142Y-167905152D01*
X124557142Y-167905152D02*
X124595237Y-167867057D01*
X124595237Y-167867057D02*
X124671428Y-167828961D01*
X124671428Y-167828961D02*
X124747618Y-167828961D01*
X125128570Y-168362295D02*
X125052380Y-168324200D01*
X125052380Y-168324200D02*
X125014285Y-168286104D01*
X125014285Y-168286104D02*
X124976189Y-168209914D01*
X124976189Y-168209914D02*
X124976189Y-167981342D01*
X124976189Y-167981342D02*
X125014285Y-167905152D01*
X125014285Y-167905152D02*
X125052380Y-167867057D01*
X125052380Y-167867057D02*
X125128570Y-167828961D01*
X125128570Y-167828961D02*
X125242856Y-167828961D01*
X125242856Y-167828961D02*
X125319047Y-167867057D01*
X125319047Y-167867057D02*
X125357142Y-167905152D01*
X125357142Y-167905152D02*
X125395237Y-167981342D01*
X125395237Y-167981342D02*
X125395237Y-168209914D01*
X125395237Y-168209914D02*
X125357142Y-168286104D01*
X125357142Y-168286104D02*
X125319047Y-168324200D01*
X125319047Y-168324200D02*
X125242856Y-168362295D01*
X125242856Y-168362295D02*
X125128570Y-168362295D01*
X125623809Y-167828961D02*
X125928571Y-167828961D01*
X125738095Y-167562295D02*
X125738095Y-168248009D01*
X125738095Y-168248009D02*
X125776190Y-168324200D01*
X125776190Y-168324200D02*
X125852380Y-168362295D01*
X125852380Y-168362295D02*
X125928571Y-168362295D01*
X126309523Y-168362295D02*
X126233333Y-168324200D01*
X126233333Y-168324200D02*
X126195238Y-168286104D01*
X126195238Y-168286104D02*
X126157142Y-168209914D01*
X126157142Y-168209914D02*
X126157142Y-167981342D01*
X126157142Y-167981342D02*
X126195238Y-167905152D01*
X126195238Y-167905152D02*
X126233333Y-167867057D01*
X126233333Y-167867057D02*
X126309523Y-167828961D01*
X126309523Y-167828961D02*
X126423809Y-167828961D01*
X126423809Y-167828961D02*
X126500000Y-167867057D01*
X126500000Y-167867057D02*
X126538095Y-167905152D01*
X126538095Y-167905152D02*
X126576190Y-167981342D01*
X126576190Y-167981342D02*
X126576190Y-168209914D01*
X126576190Y-168209914D02*
X126538095Y-168286104D01*
X126538095Y-168286104D02*
X126500000Y-168324200D01*
X126500000Y-168324200D02*
X126423809Y-168362295D01*
X126423809Y-168362295D02*
X126309523Y-168362295D01*
X126804762Y-167828961D02*
X127109524Y-167828961D01*
X126919048Y-167562295D02*
X126919048Y-168248009D01*
X126919048Y-168248009D02*
X126957143Y-168324200D01*
X126957143Y-168324200D02*
X127033333Y-168362295D01*
X127033333Y-168362295D02*
X127109524Y-168362295D01*
X127300000Y-167828961D02*
X127490476Y-168362295D01*
X127680953Y-167828961D02*
X127490476Y-168362295D01*
X127490476Y-168362295D02*
X127414286Y-168552771D01*
X127414286Y-168552771D02*
X127376191Y-168590866D01*
X127376191Y-168590866D02*
X127300000Y-168628961D01*
X127985715Y-167828961D02*
X127985715Y-168628961D01*
X127985715Y-167867057D02*
X128061905Y-167828961D01*
X128061905Y-167828961D02*
X128214286Y-167828961D01*
X128214286Y-167828961D02*
X128290477Y-167867057D01*
X128290477Y-167867057D02*
X128328572Y-167905152D01*
X128328572Y-167905152D02*
X128366667Y-167981342D01*
X128366667Y-167981342D02*
X128366667Y-168209914D01*
X128366667Y-168209914D02*
X128328572Y-168286104D01*
X128328572Y-168286104D02*
X128290477Y-168324200D01*
X128290477Y-168324200D02*
X128214286Y-168362295D01*
X128214286Y-168362295D02*
X128061905Y-168362295D01*
X128061905Y-168362295D02*
X127985715Y-168324200D01*
X129014287Y-168324200D02*
X128938096Y-168362295D01*
X128938096Y-168362295D02*
X128785715Y-168362295D01*
X128785715Y-168362295D02*
X128709525Y-168324200D01*
X128709525Y-168324200D02*
X128671429Y-168248009D01*
X128671429Y-168248009D02*
X128671429Y-167943247D01*
X128671429Y-167943247D02*
X128709525Y-167867057D01*
X128709525Y-167867057D02*
X128785715Y-167828961D01*
X128785715Y-167828961D02*
X128938096Y-167828961D01*
X128938096Y-167828961D02*
X129014287Y-167867057D01*
X129014287Y-167867057D02*
X129052382Y-167943247D01*
X129052382Y-167943247D02*
X129052382Y-168019438D01*
X129052382Y-168019438D02*
X128671429Y-168095628D01*
X120200000Y-125362295D02*
X120200000Y-124562295D01*
X120200000Y-124562295D02*
X120390476Y-124562295D01*
X120390476Y-124562295D02*
X120504762Y-124600390D01*
X120504762Y-124600390D02*
X120580952Y-124676580D01*
X120580952Y-124676580D02*
X120619047Y-124752771D01*
X120619047Y-124752771D02*
X120657143Y-124905152D01*
X120657143Y-124905152D02*
X120657143Y-125019438D01*
X120657143Y-125019438D02*
X120619047Y-125171819D01*
X120619047Y-125171819D02*
X120580952Y-125248009D01*
X120580952Y-125248009D02*
X120504762Y-125324200D01*
X120504762Y-125324200D02*
X120390476Y-125362295D01*
X120390476Y-125362295D02*
X120200000Y-125362295D01*
X121000000Y-125362295D02*
X121000000Y-124562295D01*
X121000000Y-124562295D02*
X121457143Y-125362295D01*
X121457143Y-125362295D02*
X121457143Y-124562295D01*
X121838095Y-125362295D02*
X121838095Y-124562295D01*
X121838095Y-124562295D02*
X122142857Y-124562295D01*
X122142857Y-124562295D02*
X122219047Y-124600390D01*
X122219047Y-124600390D02*
X122257142Y-124638485D01*
X122257142Y-124638485D02*
X122295238Y-124714676D01*
X122295238Y-124714676D02*
X122295238Y-124828961D01*
X122295238Y-124828961D02*
X122257142Y-124905152D01*
X122257142Y-124905152D02*
X122219047Y-124943247D01*
X122219047Y-124943247D02*
X122142857Y-124981342D01*
X122142857Y-124981342D02*
X121838095Y-124981342D01*
X123666666Y-125362295D02*
X123209523Y-125362295D01*
X123438095Y-125362295D02*
X123438095Y-124562295D01*
X123438095Y-124562295D02*
X123361904Y-124676580D01*
X123361904Y-124676580D02*
X123285714Y-124752771D01*
X123285714Y-124752771D02*
X123209523Y-124790866D01*
X124161905Y-124562295D02*
X124238095Y-124562295D01*
X124238095Y-124562295D02*
X124314286Y-124600390D01*
X124314286Y-124600390D02*
X124352381Y-124638485D01*
X124352381Y-124638485D02*
X124390476Y-124714676D01*
X124390476Y-124714676D02*
X124428571Y-124867057D01*
X124428571Y-124867057D02*
X124428571Y-125057533D01*
X124428571Y-125057533D02*
X124390476Y-125209914D01*
X124390476Y-125209914D02*
X124352381Y-125286104D01*
X124352381Y-125286104D02*
X124314286Y-125324200D01*
X124314286Y-125324200D02*
X124238095Y-125362295D01*
X124238095Y-125362295D02*
X124161905Y-125362295D01*
X124161905Y-125362295D02*
X124085714Y-125324200D01*
X124085714Y-125324200D02*
X124047619Y-125286104D01*
X124047619Y-125286104D02*
X124009524Y-125209914D01*
X124009524Y-125209914D02*
X123971428Y-125057533D01*
X123971428Y-125057533D02*
X123971428Y-124867057D01*
X123971428Y-124867057D02*
X124009524Y-124714676D01*
X124009524Y-124714676D02*
X124047619Y-124638485D01*
X124047619Y-124638485D02*
X124085714Y-124600390D01*
X124085714Y-124600390D02*
X124161905Y-124562295D01*
X124923810Y-124562295D02*
X125000000Y-124562295D01*
X125000000Y-124562295D02*
X125076191Y-124600390D01*
X125076191Y-124600390D02*
X125114286Y-124638485D01*
X125114286Y-124638485D02*
X125152381Y-124714676D01*
X125152381Y-124714676D02*
X125190476Y-124867057D01*
X125190476Y-124867057D02*
X125190476Y-125057533D01*
X125190476Y-125057533D02*
X125152381Y-125209914D01*
X125152381Y-125209914D02*
X125114286Y-125286104D01*
X125114286Y-125286104D02*
X125076191Y-125324200D01*
X125076191Y-125324200D02*
X125000000Y-125362295D01*
X125000000Y-125362295D02*
X124923810Y-125362295D01*
X124923810Y-125362295D02*
X124847619Y-125324200D01*
X124847619Y-125324200D02*
X124809524Y-125286104D01*
X124809524Y-125286104D02*
X124771429Y-125209914D01*
X124771429Y-125209914D02*
X124733333Y-125057533D01*
X124733333Y-125057533D02*
X124733333Y-124867057D01*
X124733333Y-124867057D02*
X124771429Y-124714676D01*
X124771429Y-124714676D02*
X124809524Y-124638485D01*
X124809524Y-124638485D02*
X124847619Y-124600390D01*
X124847619Y-124600390D02*
X124923810Y-124562295D01*
X125533334Y-125362295D02*
X125533334Y-124562295D01*
X125609524Y-125057533D02*
X125838096Y-125362295D01*
X125838096Y-124828961D02*
X125533334Y-125133723D01*
D10*
X132176190Y-113063177D02*
X132823810Y-113063177D01*
X132176190Y-115063177D02*
X132823810Y-115063177D01*
X132500000Y-115386987D02*
X132500000Y-114739368D01*
D11*
X134875000Y-109940189D02*
X134996428Y-109980665D01*
X134996428Y-109980665D02*
X135036905Y-110021141D01*
X135036905Y-110021141D02*
X135077381Y-110102093D01*
X135077381Y-110102093D02*
X135077381Y-110223522D01*
X135077381Y-110223522D02*
X135036905Y-110304474D01*
X135036905Y-110304474D02*
X134996428Y-110344951D01*
X134996428Y-110344951D02*
X134915476Y-110385427D01*
X134915476Y-110385427D02*
X134591666Y-110385427D01*
X134591666Y-110385427D02*
X134591666Y-109535427D01*
X134591666Y-109535427D02*
X134875000Y-109535427D01*
X134875000Y-109535427D02*
X134955952Y-109575903D01*
X134955952Y-109575903D02*
X134996428Y-109616379D01*
X134996428Y-109616379D02*
X135036905Y-109697331D01*
X135036905Y-109697331D02*
X135036905Y-109778284D01*
X135036905Y-109778284D02*
X134996428Y-109859236D01*
X134996428Y-109859236D02*
X134955952Y-109899712D01*
X134955952Y-109899712D02*
X134875000Y-109940189D01*
X134875000Y-109940189D02*
X134591666Y-109940189D01*
X135401190Y-110142570D02*
X135805952Y-110142570D01*
X135320238Y-110385427D02*
X135603571Y-109535427D01*
X135603571Y-109535427D02*
X135886905Y-110385427D01*
X136048809Y-109535427D02*
X136534523Y-109535427D01*
X136291666Y-110385427D02*
X136291666Y-109535427D01*
X136696428Y-109535427D02*
X137182142Y-109535427D01*
X136939285Y-110385427D02*
X136939285Y-109535427D01*
X137465475Y-109940189D02*
X137748809Y-109940189D01*
X137870237Y-110385427D02*
X137465475Y-110385427D01*
X137465475Y-110385427D02*
X137465475Y-109535427D01*
X137465475Y-109535427D02*
X137870237Y-109535427D01*
X138720238Y-110385427D02*
X138436904Y-109980665D01*
X138234523Y-110385427D02*
X138234523Y-109535427D01*
X138234523Y-109535427D02*
X138558333Y-109535427D01*
X138558333Y-109535427D02*
X138639285Y-109575903D01*
X138639285Y-109575903D02*
X138679762Y-109616379D01*
X138679762Y-109616379D02*
X138720238Y-109697331D01*
X138720238Y-109697331D02*
X138720238Y-109818760D01*
X138720238Y-109818760D02*
X138679762Y-109899712D01*
X138679762Y-109899712D02*
X138639285Y-109940189D01*
X138639285Y-109940189D02*
X138558333Y-109980665D01*
X138558333Y-109980665D02*
X138234523Y-109980665D01*
X139246428Y-109980665D02*
X139246428Y-110385427D01*
X138963095Y-109535427D02*
X139246428Y-109980665D01*
X139246428Y-109980665D02*
X139529762Y-109535427D01*
X119200000Y-159365700D02*
X119328572Y-159408557D01*
X119328572Y-159408557D02*
X119542857Y-159408557D01*
X119542857Y-159408557D02*
X119628572Y-159365700D01*
X119628572Y-159365700D02*
X119671429Y-159322842D01*
X119671429Y-159322842D02*
X119714286Y-159237128D01*
X119714286Y-159237128D02*
X119714286Y-159151414D01*
X119714286Y-159151414D02*
X119671429Y-159065700D01*
X119671429Y-159065700D02*
X119628572Y-159022842D01*
X119628572Y-159022842D02*
X119542857Y-158979985D01*
X119542857Y-158979985D02*
X119371429Y-158937128D01*
X119371429Y-158937128D02*
X119285714Y-158894271D01*
X119285714Y-158894271D02*
X119242857Y-158851414D01*
X119242857Y-158851414D02*
X119200000Y-158765700D01*
X119200000Y-158765700D02*
X119200000Y-158679985D01*
X119200000Y-158679985D02*
X119242857Y-158594271D01*
X119242857Y-158594271D02*
X119285714Y-158551414D01*
X119285714Y-158551414D02*
X119371429Y-158508557D01*
X119371429Y-158508557D02*
X119585714Y-158508557D01*
X119585714Y-158508557D02*
X119714286Y-158551414D01*
X120100000Y-159408557D02*
X120100000Y-158508557D01*
X120100000Y-158508557D02*
X120442857Y-158508557D01*
X120442857Y-158508557D02*
X120528572Y-158551414D01*
X120528572Y-158551414D02*
X120571429Y-158594271D01*
X120571429Y-158594271D02*
X120614286Y-158679985D01*
X120614286Y-158679985D02*
X120614286Y-158808557D01*
X120614286Y-158808557D02*
X120571429Y-158894271D01*
X120571429Y-158894271D02*
X120528572Y-158937128D01*
X120528572Y-158937128D02*
X120442857Y-158979985D01*
X120442857Y-158979985D02*
X120100000Y-158979985D01*
X121000000Y-159408557D02*
X121000000Y-158508557D01*
X121514286Y-159408557D02*
X121128572Y-158894271D01*
X121514286Y-158508557D02*
X121000000Y-159022842D01*
X122585714Y-159065700D02*
X123271429Y-159065700D01*
X122928571Y-159408557D02*
X122928571Y-158722842D01*
X125071428Y-159065700D02*
X125757143Y-159065700D01*
X117404761Y-105454819D02*
X117404761Y-104454819D01*
X117404761Y-104931009D02*
X117976189Y-104931009D01*
X117976189Y-105454819D02*
X117976189Y-104454819D01*
X118642856Y-104454819D02*
X118833332Y-104454819D01*
X118833332Y-104454819D02*
X118928570Y-104502438D01*
X118928570Y-104502438D02*
X119023808Y-104597676D01*
X119023808Y-104597676D02*
X119071427Y-104788152D01*
X119071427Y-104788152D02*
X119071427Y-105121485D01*
X119071427Y-105121485D02*
X119023808Y-105311961D01*
X119023808Y-105311961D02*
X118928570Y-105407200D01*
X118928570Y-105407200D02*
X118833332Y-105454819D01*
X118833332Y-105454819D02*
X118642856Y-105454819D01*
X118642856Y-105454819D02*
X118547618Y-105407200D01*
X118547618Y-105407200D02*
X118452380Y-105311961D01*
X118452380Y-105311961D02*
X118404761Y-105121485D01*
X118404761Y-105121485D02*
X118404761Y-104788152D01*
X118404761Y-104788152D02*
X118452380Y-104597676D01*
X118452380Y-104597676D02*
X118547618Y-104502438D01*
X118547618Y-104502438D02*
X118642856Y-104454819D01*
X119976189Y-105454819D02*
X119499999Y-105454819D01*
X119499999Y-105454819D02*
X119499999Y-104454819D01*
X120309523Y-105454819D02*
X120309523Y-104454819D01*
X120309523Y-104454819D02*
X120547618Y-104454819D01*
X120547618Y-104454819D02*
X120690475Y-104502438D01*
X120690475Y-104502438D02*
X120785713Y-104597676D01*
X120785713Y-104597676D02*
X120833332Y-104692914D01*
X120833332Y-104692914D02*
X120880951Y-104883390D01*
X120880951Y-104883390D02*
X120880951Y-105026247D01*
X120880951Y-105026247D02*
X120833332Y-105216723D01*
X120833332Y-105216723D02*
X120785713Y-105311961D01*
X120785713Y-105311961D02*
X120690475Y-105407200D01*
X120690475Y-105407200D02*
X120547618Y-105454819D01*
X120547618Y-105454819D02*
X120309523Y-105454819D01*
X121928571Y-104454819D02*
X122499999Y-104454819D01*
X122214285Y-105454819D02*
X122214285Y-104454819D01*
X123023809Y-104454819D02*
X123214285Y-104454819D01*
X123214285Y-104454819D02*
X123309523Y-104502438D01*
X123309523Y-104502438D02*
X123404761Y-104597676D01*
X123404761Y-104597676D02*
X123452380Y-104788152D01*
X123452380Y-104788152D02*
X123452380Y-105121485D01*
X123452380Y-105121485D02*
X123404761Y-105311961D01*
X123404761Y-105311961D02*
X123309523Y-105407200D01*
X123309523Y-105407200D02*
X123214285Y-105454819D01*
X123214285Y-105454819D02*
X123023809Y-105454819D01*
X123023809Y-105454819D02*
X122928571Y-105407200D01*
X122928571Y-105407200D02*
X122833333Y-105311961D01*
X122833333Y-105311961D02*
X122785714Y-105121485D01*
X122785714Y-105121485D02*
X122785714Y-104788152D01*
X122785714Y-104788152D02*
X122833333Y-104597676D01*
X122833333Y-104597676D02*
X122928571Y-104502438D01*
X122928571Y-104502438D02*
X123023809Y-104454819D01*
X124500000Y-104454819D02*
X125071428Y-104454819D01*
X124785714Y-105454819D02*
X124785714Y-104454819D01*
X125357143Y-105169104D02*
X125833333Y-105169104D01*
X125261905Y-105454819D02*
X125595238Y-104454819D01*
X125595238Y-104454819D02*
X125928571Y-105454819D01*
X126738095Y-105454819D02*
X126261905Y-105454819D01*
X126261905Y-105454819D02*
X126261905Y-104454819D01*
X127071429Y-105454819D02*
X127071429Y-104454819D01*
X127642857Y-105454819D02*
X127214286Y-104883390D01*
X127642857Y-104454819D02*
X127071429Y-105026247D01*
X117799999Y-108639866D02*
X117333332Y-107973200D01*
X116999999Y-108639866D02*
X116999999Y-107239866D01*
X116999999Y-107239866D02*
X117533332Y-107239866D01*
X117533332Y-107239866D02*
X117666666Y-107306533D01*
X117666666Y-107306533D02*
X117733332Y-107373200D01*
X117733332Y-107373200D02*
X117799999Y-107506533D01*
X117799999Y-107506533D02*
X117799999Y-107706533D01*
X117799999Y-107706533D02*
X117733332Y-107839866D01*
X117733332Y-107839866D02*
X117666666Y-107906533D01*
X117666666Y-107906533D02*
X117533332Y-107973200D01*
X117533332Y-107973200D02*
X116999999Y-107973200D01*
X118399999Y-107906533D02*
X118866666Y-107906533D01*
X119066666Y-108639866D02*
X118399999Y-108639866D01*
X118399999Y-108639866D02*
X118399999Y-107239866D01*
X118399999Y-107239866D02*
X119066666Y-107239866D01*
X119466666Y-107239866D02*
X119933333Y-108639866D01*
X119933333Y-108639866D02*
X120399999Y-107239866D01*
X121599999Y-107306533D02*
X121466666Y-107239866D01*
X121466666Y-107239866D02*
X121266666Y-107239866D01*
X121266666Y-107239866D02*
X121066666Y-107306533D01*
X121066666Y-107306533D02*
X120933333Y-107439866D01*
X120933333Y-107439866D02*
X120866666Y-107573200D01*
X120866666Y-107573200D02*
X120799999Y-107839866D01*
X120799999Y-107839866D02*
X120799999Y-108039866D01*
X120799999Y-108039866D02*
X120866666Y-108306533D01*
X120866666Y-108306533D02*
X120933333Y-108439866D01*
X120933333Y-108439866D02*
X121066666Y-108573200D01*
X121066666Y-108573200D02*
X121266666Y-108639866D01*
X121266666Y-108639866D02*
X121399999Y-108639866D01*
X121399999Y-108639866D02*
X121599999Y-108573200D01*
X121599999Y-108573200D02*
X121666666Y-108506533D01*
X121666666Y-108506533D02*
X121666666Y-108039866D01*
X121666666Y-108039866D02*
X121399999Y-108039866D01*
X122266666Y-107906533D02*
X122733333Y-107906533D01*
X122933333Y-108639866D02*
X122266666Y-108639866D01*
X122266666Y-108639866D02*
X122266666Y-107239866D01*
X122266666Y-107239866D02*
X122933333Y-107239866D01*
X123533333Y-108639866D02*
X123533333Y-107239866D01*
X123533333Y-107239866D02*
X124333333Y-108639866D01*
X124333333Y-108639866D02*
X124333333Y-107239866D01*
X127066667Y-108239866D02*
X127733334Y-108239866D01*
X126933334Y-108639866D02*
X127400001Y-107239866D01*
X127400001Y-107239866D02*
X127866667Y-108639866D01*
X128266667Y-107373200D02*
X128333334Y-107306533D01*
X128333334Y-107306533D02*
X128466667Y-107239866D01*
X128466667Y-107239866D02*
X128800001Y-107239866D01*
X128800001Y-107239866D02*
X128933334Y-107306533D01*
X128933334Y-107306533D02*
X129000001Y-107373200D01*
X129000001Y-107373200D02*
X129066667Y-107506533D01*
X129066667Y-107506533D02*
X129066667Y-107639866D01*
X129066667Y-107639866D02*
X129000001Y-107839866D01*
X129000001Y-107839866D02*
X128200001Y-108639866D01*
X128200001Y-108639866D02*
X129066667Y-108639866D01*
D12*
X106858333Y-97505514D02*
X106817857Y-97545991D01*
X106817857Y-97545991D02*
X106696428Y-97586467D01*
X106696428Y-97586467D02*
X106615476Y-97586467D01*
X106615476Y-97586467D02*
X106494047Y-97545991D01*
X106494047Y-97545991D02*
X106413095Y-97465038D01*
X106413095Y-97465038D02*
X106372618Y-97384086D01*
X106372618Y-97384086D02*
X106332142Y-97222181D01*
X106332142Y-97222181D02*
X106332142Y-97100752D01*
X106332142Y-97100752D02*
X106372618Y-96938848D01*
X106372618Y-96938848D02*
X106413095Y-96857895D01*
X106413095Y-96857895D02*
X106494047Y-96776943D01*
X106494047Y-96776943D02*
X106615476Y-96736467D01*
X106615476Y-96736467D02*
X106696428Y-96736467D01*
X106696428Y-96736467D02*
X106817857Y-96776943D01*
X106817857Y-96776943D02*
X106858333Y-96817419D01*
X107141666Y-96736467D02*
X107708333Y-96736467D01*
X107708333Y-96736467D02*
X107344047Y-97586467D01*
X109727381Y-88036467D02*
X110213095Y-88036467D01*
X109970238Y-88886467D02*
X109970238Y-88036467D01*
X110496428Y-88886467D02*
X110496428Y-88036467D01*
X110496428Y-88036467D02*
X110820238Y-88036467D01*
X110820238Y-88036467D02*
X110901190Y-88076943D01*
X110901190Y-88076943D02*
X110941667Y-88117419D01*
X110941667Y-88117419D02*
X110982143Y-88198371D01*
X110982143Y-88198371D02*
X110982143Y-88319800D01*
X110982143Y-88319800D02*
X110941667Y-88400752D01*
X110941667Y-88400752D02*
X110901190Y-88441229D01*
X110901190Y-88441229D02*
X110820238Y-88481705D01*
X110820238Y-88481705D02*
X110496428Y-88481705D01*
X111710714Y-88036467D02*
X111548809Y-88036467D01*
X111548809Y-88036467D02*
X111467857Y-88076943D01*
X111467857Y-88076943D02*
X111427381Y-88117419D01*
X111427381Y-88117419D02*
X111346428Y-88238848D01*
X111346428Y-88238848D02*
X111305952Y-88400752D01*
X111305952Y-88400752D02*
X111305952Y-88724562D01*
X111305952Y-88724562D02*
X111346428Y-88805514D01*
X111346428Y-88805514D02*
X111386905Y-88845991D01*
X111386905Y-88845991D02*
X111467857Y-88886467D01*
X111467857Y-88886467D02*
X111629762Y-88886467D01*
X111629762Y-88886467D02*
X111710714Y-88845991D01*
X111710714Y-88845991D02*
X111751190Y-88805514D01*
X111751190Y-88805514D02*
X111791667Y-88724562D01*
X111791667Y-88724562D02*
X111791667Y-88522181D01*
X111791667Y-88522181D02*
X111751190Y-88441229D01*
X111751190Y-88441229D02*
X111710714Y-88400752D01*
X111710714Y-88400752D02*
X111629762Y-88360276D01*
X111629762Y-88360276D02*
X111467857Y-88360276D01*
X111467857Y-88360276D02*
X111386905Y-88400752D01*
X111386905Y-88400752D02*
X111346428Y-88441229D01*
X111346428Y-88441229D02*
X111305952Y-88522181D01*
X110858333Y-90586467D02*
X110574999Y-90181705D01*
X110372618Y-90586467D02*
X110372618Y-89736467D01*
X110372618Y-89736467D02*
X110696428Y-89736467D01*
X110696428Y-89736467D02*
X110777380Y-89776943D01*
X110777380Y-89776943D02*
X110817857Y-89817419D01*
X110817857Y-89817419D02*
X110858333Y-89898371D01*
X110858333Y-89898371D02*
X110858333Y-90019800D01*
X110858333Y-90019800D02*
X110817857Y-90100752D01*
X110817857Y-90100752D02*
X110777380Y-90141229D01*
X110777380Y-90141229D02*
X110696428Y-90181705D01*
X110696428Y-90181705D02*
X110372618Y-90181705D01*
X111586904Y-90019800D02*
X111586904Y-90586467D01*
X111384523Y-89695991D02*
X111182142Y-90303133D01*
X111182142Y-90303133D02*
X111708333Y-90303133D01*
X107858333Y-56586467D02*
X107574999Y-56181705D01*
X107372618Y-56586467D02*
X107372618Y-55736467D01*
X107372618Y-55736467D02*
X107696428Y-55736467D01*
X107696428Y-55736467D02*
X107777380Y-55776943D01*
X107777380Y-55776943D02*
X107817857Y-55817419D01*
X107817857Y-55817419D02*
X107858333Y-55898371D01*
X107858333Y-55898371D02*
X107858333Y-56019800D01*
X107858333Y-56019800D02*
X107817857Y-56100752D01*
X107817857Y-56100752D02*
X107777380Y-56141229D01*
X107777380Y-56141229D02*
X107696428Y-56181705D01*
X107696428Y-56181705D02*
X107372618Y-56181705D01*
X108182142Y-55817419D02*
X108222618Y-55776943D01*
X108222618Y-55776943D02*
X108303571Y-55736467D01*
X108303571Y-55736467D02*
X108505952Y-55736467D01*
X108505952Y-55736467D02*
X108586904Y-55776943D01*
X108586904Y-55776943D02*
X108627380Y-55817419D01*
X108627380Y-55817419D02*
X108667857Y-55898371D01*
X108667857Y-55898371D02*
X108667857Y-55979324D01*
X108667857Y-55979324D02*
X108627380Y-56100752D01*
X108627380Y-56100752D02*
X108141666Y-56586467D01*
X108141666Y-56586467D02*
X108667857Y-56586467D01*
X134858333Y-134505513D02*
X134817857Y-134545990D01*
X134817857Y-134545990D02*
X134696428Y-134586466D01*
X134696428Y-134586466D02*
X134615476Y-134586466D01*
X134615476Y-134586466D02*
X134494047Y-134545990D01*
X134494047Y-134545990D02*
X134413095Y-134465037D01*
X134413095Y-134465037D02*
X134372618Y-134384085D01*
X134372618Y-134384085D02*
X134332142Y-134222180D01*
X134332142Y-134222180D02*
X134332142Y-134100751D01*
X134332142Y-134100751D02*
X134372618Y-133938847D01*
X134372618Y-133938847D02*
X134413095Y-133857894D01*
X134413095Y-133857894D02*
X134494047Y-133776942D01*
X134494047Y-133776942D02*
X134615476Y-133736466D01*
X134615476Y-133736466D02*
X134696428Y-133736466D01*
X134696428Y-133736466D02*
X134817857Y-133776942D01*
X134817857Y-133776942D02*
X134858333Y-133817418D01*
X135141666Y-133736466D02*
X135667857Y-133736466D01*
X135667857Y-133736466D02*
X135384523Y-134060275D01*
X135384523Y-134060275D02*
X135505952Y-134060275D01*
X135505952Y-134060275D02*
X135586904Y-134100751D01*
X135586904Y-134100751D02*
X135627380Y-134141228D01*
X135627380Y-134141228D02*
X135667857Y-134222180D01*
X135667857Y-134222180D02*
X135667857Y-134424561D01*
X135667857Y-134424561D02*
X135627380Y-134505513D01*
X135627380Y-134505513D02*
X135586904Y-134545990D01*
X135586904Y-134545990D02*
X135505952Y-134586466D01*
X135505952Y-134586466D02*
X135263095Y-134586466D01*
X135263095Y-134586466D02*
X135182142Y-134545990D01*
X135182142Y-134545990D02*
X135141666Y-134505513D01*
X110352380Y-140536467D02*
X110352380Y-141224562D01*
X110352380Y-141224562D02*
X110392857Y-141305514D01*
X110392857Y-141305514D02*
X110433333Y-141345991D01*
X110433333Y-141345991D02*
X110514285Y-141386467D01*
X110514285Y-141386467D02*
X110676190Y-141386467D01*
X110676190Y-141386467D02*
X110757142Y-141345991D01*
X110757142Y-141345991D02*
X110797619Y-141305514D01*
X110797619Y-141305514D02*
X110838095Y-141224562D01*
X110838095Y-141224562D02*
X110838095Y-140536467D01*
X111161904Y-140536467D02*
X111688095Y-140536467D01*
X111688095Y-140536467D02*
X111404761Y-140860276D01*
X111404761Y-140860276D02*
X111526190Y-140860276D01*
X111526190Y-140860276D02*
X111607142Y-140900752D01*
X111607142Y-140900752D02*
X111647618Y-140941229D01*
X111647618Y-140941229D02*
X111688095Y-141022181D01*
X111688095Y-141022181D02*
X111688095Y-141224562D01*
X111688095Y-141224562D02*
X111647618Y-141305514D01*
X111647618Y-141305514D02*
X111607142Y-141345991D01*
X111607142Y-141345991D02*
X111526190Y-141386467D01*
X111526190Y-141386467D02*
X111283333Y-141386467D01*
X111283333Y-141386467D02*
X111202380Y-141345991D01*
X111202380Y-141345991D02*
X111161904Y-141305514D01*
X105727381Y-121536467D02*
X106213095Y-121536467D01*
X105970238Y-122386467D02*
X105970238Y-121536467D01*
X106496428Y-122386467D02*
X106496428Y-121536467D01*
X106496428Y-121536467D02*
X106820238Y-121536467D01*
X106820238Y-121536467D02*
X106901190Y-121576943D01*
X106901190Y-121576943D02*
X106941667Y-121617419D01*
X106941667Y-121617419D02*
X106982143Y-121698371D01*
X106982143Y-121698371D02*
X106982143Y-121819800D01*
X106982143Y-121819800D02*
X106941667Y-121900752D01*
X106941667Y-121900752D02*
X106901190Y-121941229D01*
X106901190Y-121941229D02*
X106820238Y-121981705D01*
X106820238Y-121981705D02*
X106496428Y-121981705D01*
X107265476Y-121536467D02*
X107791667Y-121536467D01*
X107791667Y-121536467D02*
X107508333Y-121860276D01*
X107508333Y-121860276D02*
X107629762Y-121860276D01*
X107629762Y-121860276D02*
X107710714Y-121900752D01*
X107710714Y-121900752D02*
X107751190Y-121941229D01*
X107751190Y-121941229D02*
X107791667Y-122022181D01*
X107791667Y-122022181D02*
X107791667Y-122224562D01*
X107791667Y-122224562D02*
X107751190Y-122305514D01*
X107751190Y-122305514D02*
X107710714Y-122345991D01*
X107710714Y-122345991D02*
X107629762Y-122386467D01*
X107629762Y-122386467D02*
X107386905Y-122386467D01*
X107386905Y-122386467D02*
X107305952Y-122345991D01*
X107305952Y-122345991D02*
X107265476Y-122305514D01*
X128716667Y-57736467D02*
X128716667Y-58343610D01*
X128716667Y-58343610D02*
X128676190Y-58465038D01*
X128676190Y-58465038D02*
X128595238Y-58545991D01*
X128595238Y-58545991D02*
X128473809Y-58586467D01*
X128473809Y-58586467D02*
X128392857Y-58586467D01*
X129485714Y-58019800D02*
X129485714Y-58586467D01*
X129283333Y-57695991D02*
X129080952Y-58303133D01*
X129080952Y-58303133D02*
X129607143Y-58303133D01*
X110858333Y-76505514D02*
X110817857Y-76545991D01*
X110817857Y-76545991D02*
X110696428Y-76586467D01*
X110696428Y-76586467D02*
X110615476Y-76586467D01*
X110615476Y-76586467D02*
X110494047Y-76545991D01*
X110494047Y-76545991D02*
X110413095Y-76465038D01*
X110413095Y-76465038D02*
X110372618Y-76384086D01*
X110372618Y-76384086D02*
X110332142Y-76222181D01*
X110332142Y-76222181D02*
X110332142Y-76100752D01*
X110332142Y-76100752D02*
X110372618Y-75938848D01*
X110372618Y-75938848D02*
X110413095Y-75857895D01*
X110413095Y-75857895D02*
X110494047Y-75776943D01*
X110494047Y-75776943D02*
X110615476Y-75736467D01*
X110615476Y-75736467D02*
X110696428Y-75736467D01*
X110696428Y-75736467D02*
X110817857Y-75776943D01*
X110817857Y-75776943D02*
X110858333Y-75817419D01*
X111182142Y-75817419D02*
X111222618Y-75776943D01*
X111222618Y-75776943D02*
X111303571Y-75736467D01*
X111303571Y-75736467D02*
X111505952Y-75736467D01*
X111505952Y-75736467D02*
X111586904Y-75776943D01*
X111586904Y-75776943D02*
X111627380Y-75817419D01*
X111627380Y-75817419D02*
X111667857Y-75898371D01*
X111667857Y-75898371D02*
X111667857Y-75979324D01*
X111667857Y-75979324D02*
X111627380Y-76100752D01*
X111627380Y-76100752D02*
X111141666Y-76586467D01*
X111141666Y-76586467D02*
X111667857Y-76586467D01*
X112858333Y-67005514D02*
X112817857Y-67045991D01*
X112817857Y-67045991D02*
X112696428Y-67086467D01*
X112696428Y-67086467D02*
X112615476Y-67086467D01*
X112615476Y-67086467D02*
X112494047Y-67045991D01*
X112494047Y-67045991D02*
X112413095Y-66965038D01*
X112413095Y-66965038D02*
X112372618Y-66884086D01*
X112372618Y-66884086D02*
X112332142Y-66722181D01*
X112332142Y-66722181D02*
X112332142Y-66600752D01*
X112332142Y-66600752D02*
X112372618Y-66438848D01*
X112372618Y-66438848D02*
X112413095Y-66357895D01*
X112413095Y-66357895D02*
X112494047Y-66276943D01*
X112494047Y-66276943D02*
X112615476Y-66236467D01*
X112615476Y-66236467D02*
X112696428Y-66236467D01*
X112696428Y-66236467D02*
X112817857Y-66276943D01*
X112817857Y-66276943D02*
X112858333Y-66317419D01*
X113586904Y-66236467D02*
X113424999Y-66236467D01*
X113424999Y-66236467D02*
X113344047Y-66276943D01*
X113344047Y-66276943D02*
X113303571Y-66317419D01*
X113303571Y-66317419D02*
X113222618Y-66438848D01*
X113222618Y-66438848D02*
X113182142Y-66600752D01*
X113182142Y-66600752D02*
X113182142Y-66924562D01*
X113182142Y-66924562D02*
X113222618Y-67005514D01*
X113222618Y-67005514D02*
X113263095Y-67045991D01*
X113263095Y-67045991D02*
X113344047Y-67086467D01*
X113344047Y-67086467D02*
X113505952Y-67086467D01*
X113505952Y-67086467D02*
X113586904Y-67045991D01*
X113586904Y-67045991D02*
X113627380Y-67005514D01*
X113627380Y-67005514D02*
X113667857Y-66924562D01*
X113667857Y-66924562D02*
X113667857Y-66722181D01*
X113667857Y-66722181D02*
X113627380Y-66641229D01*
X113627380Y-66641229D02*
X113586904Y-66600752D01*
X113586904Y-66600752D02*
X113505952Y-66560276D01*
X113505952Y-66560276D02*
X113344047Y-66560276D01*
X113344047Y-66560276D02*
X113263095Y-66600752D01*
X113263095Y-66600752D02*
X113222618Y-66641229D01*
X113222618Y-66641229D02*
X113182142Y-66722181D01*
X107322619Y-157536467D02*
X107808333Y-157536467D01*
X107565476Y-158386467D02*
X107565476Y-157536467D01*
X108091666Y-158386467D02*
X108091666Y-157536467D01*
X108091666Y-157536467D02*
X108415476Y-157536467D01*
X108415476Y-157536467D02*
X108496428Y-157576943D01*
X108496428Y-157576943D02*
X108536905Y-157617419D01*
X108536905Y-157617419D02*
X108577381Y-157698371D01*
X108577381Y-157698371D02*
X108577381Y-157819800D01*
X108577381Y-157819800D02*
X108536905Y-157900752D01*
X108536905Y-157900752D02*
X108496428Y-157941229D01*
X108496428Y-157941229D02*
X108415476Y-157981705D01*
X108415476Y-157981705D02*
X108091666Y-157981705D01*
X109386905Y-158386467D02*
X108901190Y-158386467D01*
X109144047Y-158386467D02*
X109144047Y-157536467D01*
X109144047Y-157536467D02*
X109063095Y-157657895D01*
X109063095Y-157657895D02*
X108982143Y-157738848D01*
X108982143Y-157738848D02*
X108901190Y-157779324D01*
X110196429Y-158386467D02*
X109710714Y-158386467D01*
X109953571Y-158386467D02*
X109953571Y-157536467D01*
X109953571Y-157536467D02*
X109872619Y-157657895D01*
X109872619Y-157657895D02*
X109791667Y-157738848D01*
X109791667Y-157738848D02*
X109710714Y-157779324D01*
X117727381Y-64536467D02*
X118213095Y-64536467D01*
X117970238Y-65386467D02*
X117970238Y-64536467D01*
X118496428Y-65386467D02*
X118496428Y-64536467D01*
X118496428Y-64536467D02*
X118820238Y-64536467D01*
X118820238Y-64536467D02*
X118901190Y-64576943D01*
X118901190Y-64576943D02*
X118941667Y-64617419D01*
X118941667Y-64617419D02*
X118982143Y-64698371D01*
X118982143Y-64698371D02*
X118982143Y-64819800D01*
X118982143Y-64819800D02*
X118941667Y-64900752D01*
X118941667Y-64900752D02*
X118901190Y-64941229D01*
X118901190Y-64941229D02*
X118820238Y-64981705D01*
X118820238Y-64981705D02*
X118496428Y-64981705D01*
X119386905Y-65386467D02*
X119548809Y-65386467D01*
X119548809Y-65386467D02*
X119629762Y-65345991D01*
X119629762Y-65345991D02*
X119670238Y-65305514D01*
X119670238Y-65305514D02*
X119751190Y-65184086D01*
X119751190Y-65184086D02*
X119791667Y-65022181D01*
X119791667Y-65022181D02*
X119791667Y-64698371D01*
X119791667Y-64698371D02*
X119751190Y-64617419D01*
X119751190Y-64617419D02*
X119710714Y-64576943D01*
X119710714Y-64576943D02*
X119629762Y-64536467D01*
X119629762Y-64536467D02*
X119467857Y-64536467D01*
X119467857Y-64536467D02*
X119386905Y-64576943D01*
X119386905Y-64576943D02*
X119346428Y-64617419D01*
X119346428Y-64617419D02*
X119305952Y-64698371D01*
X119305952Y-64698371D02*
X119305952Y-64900752D01*
X119305952Y-64900752D02*
X119346428Y-64981705D01*
X119346428Y-64981705D02*
X119386905Y-65022181D01*
X119386905Y-65022181D02*
X119467857Y-65062657D01*
X119467857Y-65062657D02*
X119629762Y-65062657D01*
X119629762Y-65062657D02*
X119710714Y-65022181D01*
X119710714Y-65022181D02*
X119751190Y-64981705D01*
X119751190Y-64981705D02*
X119791667Y-64900752D01*
X132858333Y-148505514D02*
X132817857Y-148545991D01*
X132817857Y-148545991D02*
X132696428Y-148586467D01*
X132696428Y-148586467D02*
X132615476Y-148586467D01*
X132615476Y-148586467D02*
X132494047Y-148545991D01*
X132494047Y-148545991D02*
X132413095Y-148465038D01*
X132413095Y-148465038D02*
X132372618Y-148384086D01*
X132372618Y-148384086D02*
X132332142Y-148222181D01*
X132332142Y-148222181D02*
X132332142Y-148100752D01*
X132332142Y-148100752D02*
X132372618Y-147938848D01*
X132372618Y-147938848D02*
X132413095Y-147857895D01*
X132413095Y-147857895D02*
X132494047Y-147776943D01*
X132494047Y-147776943D02*
X132615476Y-147736467D01*
X132615476Y-147736467D02*
X132696428Y-147736467D01*
X132696428Y-147736467D02*
X132817857Y-147776943D01*
X132817857Y-147776943D02*
X132858333Y-147817419D01*
X133627380Y-147736467D02*
X133222618Y-147736467D01*
X133222618Y-147736467D02*
X133182142Y-148141229D01*
X133182142Y-148141229D02*
X133222618Y-148100752D01*
X133222618Y-148100752D02*
X133303571Y-148060276D01*
X133303571Y-148060276D02*
X133505952Y-148060276D01*
X133505952Y-148060276D02*
X133586904Y-148100752D01*
X133586904Y-148100752D02*
X133627380Y-148141229D01*
X133627380Y-148141229D02*
X133667857Y-148222181D01*
X133667857Y-148222181D02*
X133667857Y-148424562D01*
X133667857Y-148424562D02*
X133627380Y-148505514D01*
X133627380Y-148505514D02*
X133586904Y-148545991D01*
X133586904Y-148545991D02*
X133505952Y-148586467D01*
X133505952Y-148586467D02*
X133303571Y-148586467D01*
X133303571Y-148586467D02*
X133222618Y-148545991D01*
X133222618Y-148545991D02*
X133182142Y-148505514D01*
X102858333Y-66005514D02*
X102817857Y-66045991D01*
X102817857Y-66045991D02*
X102696428Y-66086467D01*
X102696428Y-66086467D02*
X102615476Y-66086467D01*
X102615476Y-66086467D02*
X102494047Y-66045991D01*
X102494047Y-66045991D02*
X102413095Y-65965038D01*
X102413095Y-65965038D02*
X102372618Y-65884086D01*
X102372618Y-65884086D02*
X102332142Y-65722181D01*
X102332142Y-65722181D02*
X102332142Y-65600752D01*
X102332142Y-65600752D02*
X102372618Y-65438848D01*
X102372618Y-65438848D02*
X102413095Y-65357895D01*
X102413095Y-65357895D02*
X102494047Y-65276943D01*
X102494047Y-65276943D02*
X102615476Y-65236467D01*
X102615476Y-65236467D02*
X102696428Y-65236467D01*
X102696428Y-65236467D02*
X102817857Y-65276943D01*
X102817857Y-65276943D02*
X102858333Y-65317419D01*
X103667857Y-66086467D02*
X103182142Y-66086467D01*
X103424999Y-66086467D02*
X103424999Y-65236467D01*
X103424999Y-65236467D02*
X103344047Y-65357895D01*
X103344047Y-65357895D02*
X103263095Y-65438848D01*
X103263095Y-65438848D02*
X103182142Y-65479324D01*
X109727381Y-85536467D02*
X110213095Y-85536467D01*
X109970238Y-86386467D02*
X109970238Y-85536467D01*
X110496428Y-86386467D02*
X110496428Y-85536467D01*
X110496428Y-85536467D02*
X110820238Y-85536467D01*
X110820238Y-85536467D02*
X110901190Y-85576943D01*
X110901190Y-85576943D02*
X110941667Y-85617419D01*
X110941667Y-85617419D02*
X110982143Y-85698371D01*
X110982143Y-85698371D02*
X110982143Y-85819800D01*
X110982143Y-85819800D02*
X110941667Y-85900752D01*
X110941667Y-85900752D02*
X110901190Y-85941229D01*
X110901190Y-85941229D02*
X110820238Y-85981705D01*
X110820238Y-85981705D02*
X110496428Y-85981705D01*
X111751190Y-85536467D02*
X111346428Y-85536467D01*
X111346428Y-85536467D02*
X111305952Y-85941229D01*
X111305952Y-85941229D02*
X111346428Y-85900752D01*
X111346428Y-85900752D02*
X111427381Y-85860276D01*
X111427381Y-85860276D02*
X111629762Y-85860276D01*
X111629762Y-85860276D02*
X111710714Y-85900752D01*
X111710714Y-85900752D02*
X111751190Y-85941229D01*
X111751190Y-85941229D02*
X111791667Y-86022181D01*
X111791667Y-86022181D02*
X111791667Y-86224562D01*
X111791667Y-86224562D02*
X111751190Y-86305514D01*
X111751190Y-86305514D02*
X111710714Y-86345991D01*
X111710714Y-86345991D02*
X111629762Y-86386467D01*
X111629762Y-86386467D02*
X111427381Y-86386467D01*
X111427381Y-86386467D02*
X111346428Y-86345991D01*
X111346428Y-86345991D02*
X111305952Y-86305514D01*
X118018333Y-61086467D02*
X117734999Y-60681705D01*
X117532618Y-61086467D02*
X117532618Y-60236467D01*
X117532618Y-60236467D02*
X117856428Y-60236467D01*
X117856428Y-60236467D02*
X117937380Y-60276943D01*
X117937380Y-60276943D02*
X117977857Y-60317419D01*
X117977857Y-60317419D02*
X118018333Y-60398371D01*
X118018333Y-60398371D02*
X118018333Y-60519800D01*
X118018333Y-60519800D02*
X117977857Y-60600752D01*
X117977857Y-60600752D02*
X117937380Y-60641229D01*
X117937380Y-60641229D02*
X117856428Y-60681705D01*
X117856428Y-60681705D02*
X117532618Y-60681705D01*
X118301666Y-60236467D02*
X118827857Y-60236467D01*
X118827857Y-60236467D02*
X118544523Y-60560276D01*
X118544523Y-60560276D02*
X118665952Y-60560276D01*
X118665952Y-60560276D02*
X118746904Y-60600752D01*
X118746904Y-60600752D02*
X118787380Y-60641229D01*
X118787380Y-60641229D02*
X118827857Y-60722181D01*
X118827857Y-60722181D02*
X118827857Y-60924562D01*
X118827857Y-60924562D02*
X118787380Y-61005514D01*
X118787380Y-61005514D02*
X118746904Y-61045991D01*
X118746904Y-61045991D02*
X118665952Y-61086467D01*
X118665952Y-61086467D02*
X118423095Y-61086467D01*
X118423095Y-61086467D02*
X118342142Y-61045991D01*
X118342142Y-61045991D02*
X118301666Y-61005514D01*
X105727381Y-113536467D02*
X106213095Y-113536467D01*
X105970238Y-114386467D02*
X105970238Y-113536467D01*
X106496428Y-114386467D02*
X106496428Y-113536467D01*
X106496428Y-113536467D02*
X106820238Y-113536467D01*
X106820238Y-113536467D02*
X106901190Y-113576943D01*
X106901190Y-113576943D02*
X106941667Y-113617419D01*
X106941667Y-113617419D02*
X106982143Y-113698371D01*
X106982143Y-113698371D02*
X106982143Y-113819800D01*
X106982143Y-113819800D02*
X106941667Y-113900752D01*
X106941667Y-113900752D02*
X106901190Y-113941229D01*
X106901190Y-113941229D02*
X106820238Y-113981705D01*
X106820238Y-113981705D02*
X106496428Y-113981705D01*
X107791667Y-114386467D02*
X107305952Y-114386467D01*
X107548809Y-114386467D02*
X107548809Y-113536467D01*
X107548809Y-113536467D02*
X107467857Y-113657895D01*
X107467857Y-113657895D02*
X107386905Y-113738848D01*
X107386905Y-113738848D02*
X107305952Y-113779324D01*
X117852380Y-79236467D02*
X117852380Y-79924562D01*
X117852380Y-79924562D02*
X117892857Y-80005514D01*
X117892857Y-80005514D02*
X117933333Y-80045991D01*
X117933333Y-80045991D02*
X118014285Y-80086467D01*
X118014285Y-80086467D02*
X118176190Y-80086467D01*
X118176190Y-80086467D02*
X118257142Y-80045991D01*
X118257142Y-80045991D02*
X118297619Y-80005514D01*
X118297619Y-80005514D02*
X118338095Y-79924562D01*
X118338095Y-79924562D02*
X118338095Y-79236467D01*
X118702380Y-79317419D02*
X118742856Y-79276943D01*
X118742856Y-79276943D02*
X118823809Y-79236467D01*
X118823809Y-79236467D02*
X119026190Y-79236467D01*
X119026190Y-79236467D02*
X119107142Y-79276943D01*
X119107142Y-79276943D02*
X119147618Y-79317419D01*
X119147618Y-79317419D02*
X119188095Y-79398371D01*
X119188095Y-79398371D02*
X119188095Y-79479324D01*
X119188095Y-79479324D02*
X119147618Y-79600752D01*
X119147618Y-79600752D02*
X118661904Y-80086467D01*
X118661904Y-80086467D02*
X119188095Y-80086467D01*
X117358333Y-117586467D02*
X117074999Y-117181705D01*
X116872618Y-117586467D02*
X116872618Y-116736467D01*
X116872618Y-116736467D02*
X117196428Y-116736467D01*
X117196428Y-116736467D02*
X117277380Y-116776943D01*
X117277380Y-116776943D02*
X117317857Y-116817419D01*
X117317857Y-116817419D02*
X117358333Y-116898371D01*
X117358333Y-116898371D02*
X117358333Y-117019800D01*
X117358333Y-117019800D02*
X117317857Y-117100752D01*
X117317857Y-117100752D02*
X117277380Y-117141229D01*
X117277380Y-117141229D02*
X117196428Y-117181705D01*
X117196428Y-117181705D02*
X116872618Y-117181705D01*
X117641666Y-116736467D02*
X118208333Y-116736467D01*
X118208333Y-116736467D02*
X117844047Y-117586467D01*
X132716667Y-57736467D02*
X132716667Y-58343610D01*
X132716667Y-58343610D02*
X132676190Y-58465038D01*
X132676190Y-58465038D02*
X132595238Y-58545991D01*
X132595238Y-58545991D02*
X132473809Y-58586467D01*
X132473809Y-58586467D02*
X132392857Y-58586467D01*
X133485714Y-57736467D02*
X133323809Y-57736467D01*
X133323809Y-57736467D02*
X133242857Y-57776943D01*
X133242857Y-57776943D02*
X133202381Y-57817419D01*
X133202381Y-57817419D02*
X133121428Y-57938848D01*
X133121428Y-57938848D02*
X133080952Y-58100752D01*
X133080952Y-58100752D02*
X133080952Y-58424562D01*
X133080952Y-58424562D02*
X133121428Y-58505514D01*
X133121428Y-58505514D02*
X133161905Y-58545991D01*
X133161905Y-58545991D02*
X133242857Y-58586467D01*
X133242857Y-58586467D02*
X133404762Y-58586467D01*
X133404762Y-58586467D02*
X133485714Y-58545991D01*
X133485714Y-58545991D02*
X133526190Y-58505514D01*
X133526190Y-58505514D02*
X133566667Y-58424562D01*
X133566667Y-58424562D02*
X133566667Y-58222181D01*
X133566667Y-58222181D02*
X133526190Y-58141229D01*
X133526190Y-58141229D02*
X133485714Y-58100752D01*
X133485714Y-58100752D02*
X133404762Y-58060276D01*
X133404762Y-58060276D02*
X133242857Y-58060276D01*
X133242857Y-58060276D02*
X133161905Y-58100752D01*
X133161905Y-58100752D02*
X133121428Y-58141229D01*
X133121428Y-58141229D02*
X133080952Y-58222181D01*
X126866666Y-122545991D02*
X126988095Y-122586467D01*
X126988095Y-122586467D02*
X127190476Y-122586467D01*
X127190476Y-122586467D02*
X127271428Y-122545991D01*
X127271428Y-122545991D02*
X127311904Y-122505514D01*
X127311904Y-122505514D02*
X127352381Y-122424562D01*
X127352381Y-122424562D02*
X127352381Y-122343610D01*
X127352381Y-122343610D02*
X127311904Y-122262657D01*
X127311904Y-122262657D02*
X127271428Y-122222181D01*
X127271428Y-122222181D02*
X127190476Y-122181705D01*
X127190476Y-122181705D02*
X127028571Y-122141229D01*
X127028571Y-122141229D02*
X126947619Y-122100752D01*
X126947619Y-122100752D02*
X126907142Y-122060276D01*
X126907142Y-122060276D02*
X126866666Y-121979324D01*
X126866666Y-121979324D02*
X126866666Y-121898371D01*
X126866666Y-121898371D02*
X126907142Y-121817419D01*
X126907142Y-121817419D02*
X126947619Y-121776943D01*
X126947619Y-121776943D02*
X127028571Y-121736467D01*
X127028571Y-121736467D02*
X127230952Y-121736467D01*
X127230952Y-121736467D02*
X127352381Y-121776943D01*
X127635714Y-121736467D02*
X127838095Y-122586467D01*
X127838095Y-122586467D02*
X128000000Y-121979324D01*
X128000000Y-121979324D02*
X128161905Y-122586467D01*
X128161905Y-122586467D02*
X128364286Y-121736467D01*
X128647619Y-121817419D02*
X128688095Y-121776943D01*
X128688095Y-121776943D02*
X128769048Y-121736467D01*
X128769048Y-121736467D02*
X128971429Y-121736467D01*
X128971429Y-121736467D02*
X129052381Y-121776943D01*
X129052381Y-121776943D02*
X129092857Y-121817419D01*
X129092857Y-121817419D02*
X129133334Y-121898371D01*
X129133334Y-121898371D02*
X129133334Y-121979324D01*
X129133334Y-121979324D02*
X129092857Y-122100752D01*
X129092857Y-122100752D02*
X128607143Y-122586467D01*
X128607143Y-122586467D02*
X129133334Y-122586467D01*
X130716667Y-57736467D02*
X130716667Y-58343610D01*
X130716667Y-58343610D02*
X130676190Y-58465038D01*
X130676190Y-58465038D02*
X130595238Y-58545991D01*
X130595238Y-58545991D02*
X130473809Y-58586467D01*
X130473809Y-58586467D02*
X130392857Y-58586467D01*
X131040476Y-57736467D02*
X131566667Y-57736467D01*
X131566667Y-57736467D02*
X131283333Y-58060276D01*
X131283333Y-58060276D02*
X131404762Y-58060276D01*
X131404762Y-58060276D02*
X131485714Y-58100752D01*
X131485714Y-58100752D02*
X131526190Y-58141229D01*
X131526190Y-58141229D02*
X131566667Y-58222181D01*
X131566667Y-58222181D02*
X131566667Y-58424562D01*
X131566667Y-58424562D02*
X131526190Y-58505514D01*
X131526190Y-58505514D02*
X131485714Y-58545991D01*
X131485714Y-58545991D02*
X131404762Y-58586467D01*
X131404762Y-58586467D02*
X131161905Y-58586467D01*
X131161905Y-58586467D02*
X131080952Y-58545991D01*
X131080952Y-58545991D02*
X131040476Y-58505514D01*
X130858333Y-143505514D02*
X130817857Y-143545991D01*
X130817857Y-143545991D02*
X130696428Y-143586467D01*
X130696428Y-143586467D02*
X130615476Y-143586467D01*
X130615476Y-143586467D02*
X130494047Y-143545991D01*
X130494047Y-143545991D02*
X130413095Y-143465038D01*
X130413095Y-143465038D02*
X130372618Y-143384086D01*
X130372618Y-143384086D02*
X130332142Y-143222181D01*
X130332142Y-143222181D02*
X130332142Y-143100752D01*
X130332142Y-143100752D02*
X130372618Y-142938848D01*
X130372618Y-142938848D02*
X130413095Y-142857895D01*
X130413095Y-142857895D02*
X130494047Y-142776943D01*
X130494047Y-142776943D02*
X130615476Y-142736467D01*
X130615476Y-142736467D02*
X130696428Y-142736467D01*
X130696428Y-142736467D02*
X130817857Y-142776943D01*
X130817857Y-142776943D02*
X130858333Y-142817419D01*
X131586904Y-143019800D02*
X131586904Y-143586467D01*
X131384523Y-142695991D02*
X131182142Y-143303133D01*
X131182142Y-143303133D02*
X131708333Y-143303133D01*
X140322619Y-87536467D02*
X140808333Y-87536467D01*
X140565476Y-88386467D02*
X140565476Y-87536467D01*
X141091666Y-88386467D02*
X141091666Y-87536467D01*
X141091666Y-87536467D02*
X141415476Y-87536467D01*
X141415476Y-87536467D02*
X141496428Y-87576943D01*
X141496428Y-87576943D02*
X141536905Y-87617419D01*
X141536905Y-87617419D02*
X141577381Y-87698371D01*
X141577381Y-87698371D02*
X141577381Y-87819800D01*
X141577381Y-87819800D02*
X141536905Y-87900752D01*
X141536905Y-87900752D02*
X141496428Y-87941229D01*
X141496428Y-87941229D02*
X141415476Y-87981705D01*
X141415476Y-87981705D02*
X141091666Y-87981705D01*
X142386905Y-88386467D02*
X141901190Y-88386467D01*
X142144047Y-88386467D02*
X142144047Y-87536467D01*
X142144047Y-87536467D02*
X142063095Y-87657895D01*
X142063095Y-87657895D02*
X141982143Y-87738848D01*
X141982143Y-87738848D02*
X141901190Y-87779324D01*
X142913095Y-87536467D02*
X142994048Y-87536467D01*
X142994048Y-87536467D02*
X143075000Y-87576943D01*
X143075000Y-87576943D02*
X143115476Y-87617419D01*
X143115476Y-87617419D02*
X143155952Y-87698371D01*
X143155952Y-87698371D02*
X143196429Y-87860276D01*
X143196429Y-87860276D02*
X143196429Y-88062657D01*
X143196429Y-88062657D02*
X143155952Y-88224562D01*
X143155952Y-88224562D02*
X143115476Y-88305514D01*
X143115476Y-88305514D02*
X143075000Y-88345991D01*
X143075000Y-88345991D02*
X142994048Y-88386467D01*
X142994048Y-88386467D02*
X142913095Y-88386467D01*
X142913095Y-88386467D02*
X142832143Y-88345991D01*
X142832143Y-88345991D02*
X142791667Y-88305514D01*
X142791667Y-88305514D02*
X142751190Y-88224562D01*
X142751190Y-88224562D02*
X142710714Y-88062657D01*
X142710714Y-88062657D02*
X142710714Y-87860276D01*
X142710714Y-87860276D02*
X142751190Y-87698371D01*
X142751190Y-87698371D02*
X142791667Y-87617419D01*
X142791667Y-87617419D02*
X142832143Y-87576943D01*
X142832143Y-87576943D02*
X142913095Y-87536467D01*
X138727381Y-98536467D02*
X139213095Y-98536467D01*
X138970238Y-99386467D02*
X138970238Y-98536467D01*
X139496428Y-99386467D02*
X139496428Y-98536467D01*
X139496428Y-98536467D02*
X139820238Y-98536467D01*
X139820238Y-98536467D02*
X139901190Y-98576943D01*
X139901190Y-98576943D02*
X139941667Y-98617419D01*
X139941667Y-98617419D02*
X139982143Y-98698371D01*
X139982143Y-98698371D02*
X139982143Y-98819800D01*
X139982143Y-98819800D02*
X139941667Y-98900752D01*
X139941667Y-98900752D02*
X139901190Y-98941229D01*
X139901190Y-98941229D02*
X139820238Y-98981705D01*
X139820238Y-98981705D02*
X139496428Y-98981705D01*
X140265476Y-98536467D02*
X140832143Y-98536467D01*
X140832143Y-98536467D02*
X140467857Y-99386467D01*
X113116666Y-91545991D02*
X113238095Y-91586467D01*
X113238095Y-91586467D02*
X113440476Y-91586467D01*
X113440476Y-91586467D02*
X113521428Y-91545991D01*
X113521428Y-91545991D02*
X113561904Y-91505514D01*
X113561904Y-91505514D02*
X113602381Y-91424562D01*
X113602381Y-91424562D02*
X113602381Y-91343610D01*
X113602381Y-91343610D02*
X113561904Y-91262657D01*
X113561904Y-91262657D02*
X113521428Y-91222181D01*
X113521428Y-91222181D02*
X113440476Y-91181705D01*
X113440476Y-91181705D02*
X113278571Y-91141229D01*
X113278571Y-91141229D02*
X113197619Y-91100752D01*
X113197619Y-91100752D02*
X113157142Y-91060276D01*
X113157142Y-91060276D02*
X113116666Y-90979324D01*
X113116666Y-90979324D02*
X113116666Y-90898371D01*
X113116666Y-90898371D02*
X113157142Y-90817419D01*
X113157142Y-90817419D02*
X113197619Y-90776943D01*
X113197619Y-90776943D02*
X113278571Y-90736467D01*
X113278571Y-90736467D02*
X113480952Y-90736467D01*
X113480952Y-90736467D02*
X113602381Y-90776943D01*
X113885714Y-90736467D02*
X114088095Y-91586467D01*
X114088095Y-91586467D02*
X114250000Y-90979324D01*
X114250000Y-90979324D02*
X114411905Y-91586467D01*
X114411905Y-91586467D02*
X114614286Y-90736467D01*
X115383334Y-91586467D02*
X114897619Y-91586467D01*
X115140476Y-91586467D02*
X115140476Y-90736467D01*
X115140476Y-90736467D02*
X115059524Y-90857895D01*
X115059524Y-90857895D02*
X114978572Y-90938848D01*
X114978572Y-90938848D02*
X114897619Y-90979324D01*
X122216667Y-150690467D02*
X122216667Y-151297610D01*
X122216667Y-151297610D02*
X122176190Y-151419038D01*
X122176190Y-151419038D02*
X122095238Y-151499991D01*
X122095238Y-151499991D02*
X121973809Y-151540467D01*
X121973809Y-151540467D02*
X121892857Y-151540467D01*
X123026190Y-150690467D02*
X122621428Y-150690467D01*
X122621428Y-150690467D02*
X122580952Y-151095229D01*
X122580952Y-151095229D02*
X122621428Y-151054752D01*
X122621428Y-151054752D02*
X122702381Y-151014276D01*
X122702381Y-151014276D02*
X122904762Y-151014276D01*
X122904762Y-151014276D02*
X122985714Y-151054752D01*
X122985714Y-151054752D02*
X123026190Y-151095229D01*
X123026190Y-151095229D02*
X123066667Y-151176181D01*
X123066667Y-151176181D02*
X123066667Y-151378562D01*
X123066667Y-151378562D02*
X123026190Y-151459514D01*
X123026190Y-151459514D02*
X122985714Y-151499991D01*
X122985714Y-151499991D02*
X122904762Y-151540467D01*
X122904762Y-151540467D02*
X122702381Y-151540467D01*
X122702381Y-151540467D02*
X122621428Y-151499991D01*
X122621428Y-151499991D02*
X122580952Y-151459514D01*
X117358333Y-125586467D02*
X117074999Y-125181705D01*
X116872618Y-125586467D02*
X116872618Y-124736467D01*
X116872618Y-124736467D02*
X117196428Y-124736467D01*
X117196428Y-124736467D02*
X117277380Y-124776943D01*
X117277380Y-124776943D02*
X117317857Y-124817419D01*
X117317857Y-124817419D02*
X117358333Y-124898371D01*
X117358333Y-124898371D02*
X117358333Y-125019800D01*
X117358333Y-125019800D02*
X117317857Y-125100752D01*
X117317857Y-125100752D02*
X117277380Y-125141229D01*
X117277380Y-125141229D02*
X117196428Y-125181705D01*
X117196428Y-125181705D02*
X116872618Y-125181705D01*
X118167857Y-125586467D02*
X117682142Y-125586467D01*
X117924999Y-125586467D02*
X117924999Y-124736467D01*
X117924999Y-124736467D02*
X117844047Y-124857895D01*
X117844047Y-124857895D02*
X117763095Y-124938848D01*
X117763095Y-124938848D02*
X117682142Y-124979324D01*
X109727381Y-81536467D02*
X110213095Y-81536467D01*
X109970238Y-82386467D02*
X109970238Y-81536467D01*
X110496428Y-82386467D02*
X110496428Y-81536467D01*
X110496428Y-81536467D02*
X110820238Y-81536467D01*
X110820238Y-81536467D02*
X110901190Y-81576943D01*
X110901190Y-81576943D02*
X110941667Y-81617419D01*
X110941667Y-81617419D02*
X110982143Y-81698371D01*
X110982143Y-81698371D02*
X110982143Y-81819800D01*
X110982143Y-81819800D02*
X110941667Y-81900752D01*
X110941667Y-81900752D02*
X110901190Y-81941229D01*
X110901190Y-81941229D02*
X110820238Y-81981705D01*
X110820238Y-81981705D02*
X110496428Y-81981705D01*
X111710714Y-81819800D02*
X111710714Y-82386467D01*
X111508333Y-81495991D02*
X111305952Y-82103133D01*
X111305952Y-82103133D02*
X111832143Y-82103133D01*
X105727381Y-117536467D02*
X106213095Y-117536467D01*
X105970238Y-118386467D02*
X105970238Y-117536467D01*
X106496428Y-118386467D02*
X106496428Y-117536467D01*
X106496428Y-117536467D02*
X106820238Y-117536467D01*
X106820238Y-117536467D02*
X106901190Y-117576943D01*
X106901190Y-117576943D02*
X106941667Y-117617419D01*
X106941667Y-117617419D02*
X106982143Y-117698371D01*
X106982143Y-117698371D02*
X106982143Y-117819800D01*
X106982143Y-117819800D02*
X106941667Y-117900752D01*
X106941667Y-117900752D02*
X106901190Y-117941229D01*
X106901190Y-117941229D02*
X106820238Y-117981705D01*
X106820238Y-117981705D02*
X106496428Y-117981705D01*
X107305952Y-117617419D02*
X107346428Y-117576943D01*
X107346428Y-117576943D02*
X107427381Y-117536467D01*
X107427381Y-117536467D02*
X107629762Y-117536467D01*
X107629762Y-117536467D02*
X107710714Y-117576943D01*
X107710714Y-117576943D02*
X107751190Y-117617419D01*
X107751190Y-117617419D02*
X107791667Y-117698371D01*
X107791667Y-117698371D02*
X107791667Y-117779324D01*
X107791667Y-117779324D02*
X107751190Y-117900752D01*
X107751190Y-117900752D02*
X107265476Y-118386467D01*
X107265476Y-118386467D02*
X107791667Y-118386467D01*
X117358333Y-130586465D02*
X117074999Y-130181703D01*
X116872618Y-130586465D02*
X116872618Y-129736465D01*
X116872618Y-129736465D02*
X117196428Y-129736465D01*
X117196428Y-129736465D02*
X117277380Y-129776941D01*
X117277380Y-129776941D02*
X117317857Y-129817417D01*
X117317857Y-129817417D02*
X117358333Y-129898369D01*
X117358333Y-129898369D02*
X117358333Y-130019798D01*
X117358333Y-130019798D02*
X117317857Y-130100750D01*
X117317857Y-130100750D02*
X117277380Y-130141227D01*
X117277380Y-130141227D02*
X117196428Y-130181703D01*
X117196428Y-130181703D02*
X116872618Y-130181703D01*
X118127380Y-129736465D02*
X117722618Y-129736465D01*
X117722618Y-129736465D02*
X117682142Y-130141227D01*
X117682142Y-130141227D02*
X117722618Y-130100750D01*
X117722618Y-130100750D02*
X117803571Y-130060274D01*
X117803571Y-130060274D02*
X118005952Y-130060274D01*
X118005952Y-130060274D02*
X118086904Y-130100750D01*
X118086904Y-130100750D02*
X118127380Y-130141227D01*
X118127380Y-130141227D02*
X118167857Y-130222179D01*
X118167857Y-130222179D02*
X118167857Y-130424560D01*
X118167857Y-130424560D02*
X118127380Y-130505512D01*
X118127380Y-130505512D02*
X118086904Y-130545989D01*
X118086904Y-130545989D02*
X118005952Y-130586465D01*
X118005952Y-130586465D02*
X117803571Y-130586465D01*
X117803571Y-130586465D02*
X117722618Y-130545989D01*
X117722618Y-130545989D02*
X117682142Y-130505512D01*
X131716667Y-111736467D02*
X131716667Y-112343610D01*
X131716667Y-112343610D02*
X131676190Y-112465038D01*
X131676190Y-112465038D02*
X131595238Y-112545991D01*
X131595238Y-112545991D02*
X131473809Y-112586467D01*
X131473809Y-112586467D02*
X131392857Y-112586467D01*
X132566667Y-112586467D02*
X132080952Y-112586467D01*
X132323809Y-112586467D02*
X132323809Y-111736467D01*
X132323809Y-111736467D02*
X132242857Y-111857895D01*
X132242857Y-111857895D02*
X132161905Y-111938848D01*
X132161905Y-111938848D02*
X132080952Y-111979324D01*
X139727381Y-127536467D02*
X140213095Y-127536467D01*
X139970238Y-128386467D02*
X139970238Y-127536467D01*
X140496428Y-128386467D02*
X140496428Y-127536467D01*
X140496428Y-127536467D02*
X140820238Y-127536467D01*
X140820238Y-127536467D02*
X140901190Y-127576943D01*
X140901190Y-127576943D02*
X140941667Y-127617419D01*
X140941667Y-127617419D02*
X140982143Y-127698371D01*
X140982143Y-127698371D02*
X140982143Y-127819800D01*
X140982143Y-127819800D02*
X140941667Y-127900752D01*
X140941667Y-127900752D02*
X140901190Y-127941229D01*
X140901190Y-127941229D02*
X140820238Y-127981705D01*
X140820238Y-127981705D02*
X140496428Y-127981705D01*
X141467857Y-127900752D02*
X141386905Y-127860276D01*
X141386905Y-127860276D02*
X141346428Y-127819800D01*
X141346428Y-127819800D02*
X141305952Y-127738848D01*
X141305952Y-127738848D02*
X141305952Y-127698371D01*
X141305952Y-127698371D02*
X141346428Y-127617419D01*
X141346428Y-127617419D02*
X141386905Y-127576943D01*
X141386905Y-127576943D02*
X141467857Y-127536467D01*
X141467857Y-127536467D02*
X141629762Y-127536467D01*
X141629762Y-127536467D02*
X141710714Y-127576943D01*
X141710714Y-127576943D02*
X141751190Y-127617419D01*
X141751190Y-127617419D02*
X141791667Y-127698371D01*
X141791667Y-127698371D02*
X141791667Y-127738848D01*
X141791667Y-127738848D02*
X141751190Y-127819800D01*
X141751190Y-127819800D02*
X141710714Y-127860276D01*
X141710714Y-127860276D02*
X141629762Y-127900752D01*
X141629762Y-127900752D02*
X141467857Y-127900752D01*
X141467857Y-127900752D02*
X141386905Y-127941229D01*
X141386905Y-127941229D02*
X141346428Y-127981705D01*
X141346428Y-127981705D02*
X141305952Y-128062657D01*
X141305952Y-128062657D02*
X141305952Y-128224562D01*
X141305952Y-128224562D02*
X141346428Y-128305514D01*
X141346428Y-128305514D02*
X141386905Y-128345991D01*
X141386905Y-128345991D02*
X141467857Y-128386467D01*
X141467857Y-128386467D02*
X141629762Y-128386467D01*
X141629762Y-128386467D02*
X141710714Y-128345991D01*
X141710714Y-128345991D02*
X141751190Y-128305514D01*
X141751190Y-128305514D02*
X141791667Y-128224562D01*
X141791667Y-128224562D02*
X141791667Y-128062657D01*
X141791667Y-128062657D02*
X141751190Y-127981705D01*
X141751190Y-127981705D02*
X141710714Y-127941229D01*
X141710714Y-127941229D02*
X141629762Y-127900752D01*
X117358333Y-112586467D02*
X117074999Y-112181705D01*
X116872618Y-112586467D02*
X116872618Y-111736467D01*
X116872618Y-111736467D02*
X117196428Y-111736467D01*
X117196428Y-111736467D02*
X117277380Y-111776943D01*
X117277380Y-111776943D02*
X117317857Y-111817419D01*
X117317857Y-111817419D02*
X117358333Y-111898371D01*
X117358333Y-111898371D02*
X117358333Y-112019800D01*
X117358333Y-112019800D02*
X117317857Y-112100752D01*
X117317857Y-112100752D02*
X117277380Y-112141229D01*
X117277380Y-112141229D02*
X117196428Y-112181705D01*
X117196428Y-112181705D02*
X116872618Y-112181705D01*
X118086904Y-111736467D02*
X117924999Y-111736467D01*
X117924999Y-111736467D02*
X117844047Y-111776943D01*
X117844047Y-111776943D02*
X117803571Y-111817419D01*
X117803571Y-111817419D02*
X117722618Y-111938848D01*
X117722618Y-111938848D02*
X117682142Y-112100752D01*
X117682142Y-112100752D02*
X117682142Y-112424562D01*
X117682142Y-112424562D02*
X117722618Y-112505514D01*
X117722618Y-112505514D02*
X117763095Y-112545991D01*
X117763095Y-112545991D02*
X117844047Y-112586467D01*
X117844047Y-112586467D02*
X118005952Y-112586467D01*
X118005952Y-112586467D02*
X118086904Y-112545991D01*
X118086904Y-112545991D02*
X118127380Y-112505514D01*
X118127380Y-112505514D02*
X118167857Y-112424562D01*
X118167857Y-112424562D02*
X118167857Y-112222181D01*
X118167857Y-112222181D02*
X118127380Y-112141229D01*
X118127380Y-112141229D02*
X118086904Y-112100752D01*
X118086904Y-112100752D02*
X118005952Y-112060276D01*
X118005952Y-112060276D02*
X117844047Y-112060276D01*
X117844047Y-112060276D02*
X117763095Y-112100752D01*
X117763095Y-112100752D02*
X117722618Y-112141229D01*
X117722618Y-112141229D02*
X117682142Y-112222181D01*
X121216667Y-156736467D02*
X121216667Y-157343610D01*
X121216667Y-157343610D02*
X121176190Y-157465038D01*
X121176190Y-157465038D02*
X121095238Y-157545991D01*
X121095238Y-157545991D02*
X120973809Y-157586467D01*
X120973809Y-157586467D02*
X120892857Y-157586467D01*
X121580952Y-156817419D02*
X121621428Y-156776943D01*
X121621428Y-156776943D02*
X121702381Y-156736467D01*
X121702381Y-156736467D02*
X121904762Y-156736467D01*
X121904762Y-156736467D02*
X121985714Y-156776943D01*
X121985714Y-156776943D02*
X122026190Y-156817419D01*
X122026190Y-156817419D02*
X122066667Y-156898371D01*
X122066667Y-156898371D02*
X122066667Y-156979324D01*
X122066667Y-156979324D02*
X122026190Y-157100752D01*
X122026190Y-157100752D02*
X121540476Y-157586467D01*
X121540476Y-157586467D02*
X122066667Y-157586467D01*
%TO.C,C7*%
D10*
X106880000Y-98630000D02*
X112120000Y-98630000D01*
X106880000Y-98967000D02*
X106880000Y-98630000D01*
X106880000Y-101370000D02*
X106880000Y-101033000D01*
X112120000Y-98630000D02*
X112120000Y-98967000D01*
X112120000Y-101033000D02*
X112120000Y-101370000D01*
X112120000Y-101370000D02*
X106880000Y-101370000D01*
%TO.C,TP6*%
X104950000Y-90000000D02*
G75*
G02*
X103050000Y-90000000I-950000J0D01*
G01*
X103050000Y-90000000D02*
G75*
G02*
X104950000Y-90000000I950000J0D01*
G01*
%TO.C,R4*%
X107000000Y-83880000D02*
X107000000Y-84650000D01*
X107000000Y-91960000D02*
X107000000Y-91190000D01*
X105630000Y-84650000D02*
X108370000Y-84650000D01*
X108370000Y-91190000D01*
X105630000Y-91190000D01*
X105630000Y-84650000D01*
%TO.C,R2*%
X105040000Y-59000000D02*
X105810000Y-59000000D01*
X113120000Y-59000000D02*
X112350000Y-59000000D01*
X105810000Y-57630000D02*
X112350000Y-57630000D01*
X112350000Y-60370000D01*
X105810000Y-60370000D01*
X105810000Y-57630000D01*
%TO.C,C3*%
X132749759Y-138161000D02*
X133379759Y-138161000D01*
X133064759Y-137846000D02*
X133064759Y-138476000D01*
X136250000Y-136770000D02*
X136250000Y-143230000D01*
X136290000Y-136770000D02*
X136290000Y-143230000D01*
X136330000Y-136771000D02*
X136330000Y-143229000D01*
X136370000Y-136772000D02*
X136370000Y-143228000D01*
X136410000Y-136774000D02*
X136410000Y-143226000D01*
X136450000Y-136776000D02*
X136450000Y-143224000D01*
X136490000Y-136779000D02*
X136490000Y-138960000D01*
X136490000Y-141040000D02*
X136490000Y-143221000D01*
X136530000Y-136782000D02*
X136530000Y-138960000D01*
X136530000Y-141040000D02*
X136530000Y-143218000D01*
X136570000Y-136786000D02*
X136570000Y-138960000D01*
X136570000Y-141040000D02*
X136570000Y-143214000D01*
X136610000Y-136790000D02*
X136610000Y-138960000D01*
X136610000Y-141040000D02*
X136610000Y-143210000D01*
X136650000Y-136795000D02*
X136650000Y-138960000D01*
X136650000Y-141040000D02*
X136650000Y-143205000D01*
X136690000Y-136800000D02*
X136690000Y-138960000D01*
X136690000Y-141040000D02*
X136690000Y-143200000D01*
X136730000Y-136805000D02*
X136730000Y-138960000D01*
X136730000Y-141040000D02*
X136730000Y-143195000D01*
X136770000Y-136812000D02*
X136770000Y-138960000D01*
X136770000Y-141040000D02*
X136770000Y-143188000D01*
X136810000Y-136818000D02*
X136810000Y-138960000D01*
X136810000Y-141040000D02*
X136810000Y-143182000D01*
X136850000Y-136826000D02*
X136850000Y-138960000D01*
X136850000Y-141040000D02*
X136850000Y-143174000D01*
X136890000Y-136833000D02*
X136890000Y-138960000D01*
X136890000Y-141040000D02*
X136890000Y-143167000D01*
X136930000Y-136841000D02*
X136930000Y-138960000D01*
X136930000Y-141040000D02*
X136930000Y-143159000D01*
X136970000Y-136850000D02*
X136970000Y-138960000D01*
X136970000Y-141040000D02*
X136970000Y-143150000D01*
X137010000Y-136860000D02*
X137010000Y-138960000D01*
X137010000Y-141040000D02*
X137010000Y-143140000D01*
X137050000Y-136869000D02*
X137050000Y-138960000D01*
X137050000Y-141040000D02*
X137050000Y-143131000D01*
X137090000Y-136880000D02*
X137090000Y-138960000D01*
X137090000Y-141040000D02*
X137090000Y-143120000D01*
X137130000Y-136891000D02*
X137130000Y-138960000D01*
X137130000Y-141040000D02*
X137130000Y-143109000D01*
X137170000Y-136902000D02*
X137170000Y-138960000D01*
X137170000Y-141040000D02*
X137170000Y-143098000D01*
X137210000Y-136914000D02*
X137210000Y-138960000D01*
X137210000Y-141040000D02*
X137210000Y-143086000D01*
X137250000Y-136927000D02*
X137250000Y-138960000D01*
X137250000Y-141040000D02*
X137250000Y-143073000D01*
X137290000Y-136940000D02*
X137290000Y-138960000D01*
X137290000Y-141040000D02*
X137290000Y-143060000D01*
X137330000Y-136953000D02*
X137330000Y-138960000D01*
X137330000Y-141040000D02*
X137330000Y-143047000D01*
X137370000Y-136968000D02*
X137370000Y-138960000D01*
X137370000Y-141040000D02*
X137370000Y-143032000D01*
X137410000Y-136983000D02*
X137410000Y-138960000D01*
X137410000Y-141040000D02*
X137410000Y-143017000D01*
X137450000Y-136998000D02*
X137450000Y-138960000D01*
X137450000Y-141040000D02*
X137450000Y-143002000D01*
X137490000Y-137014000D02*
X137490000Y-138960000D01*
X137490000Y-141040000D02*
X137490000Y-142986000D01*
X137530000Y-137031000D02*
X137530000Y-138960000D01*
X137530000Y-141040000D02*
X137530000Y-142969000D01*
X137570000Y-137048000D02*
X137570000Y-138960000D01*
X137570000Y-141040000D02*
X137570000Y-142952000D01*
X137610000Y-137066000D02*
X137610000Y-138960000D01*
X137610000Y-141040000D02*
X137610000Y-142934000D01*
X137650000Y-137085000D02*
X137650000Y-138960000D01*
X137650000Y-141040000D02*
X137650000Y-142915000D01*
X137690000Y-137104000D02*
X137690000Y-138960000D01*
X137690000Y-141040000D02*
X137690000Y-142896000D01*
X137730000Y-137124000D02*
X137730000Y-138960000D01*
X137730000Y-141040000D02*
X137730000Y-142876000D01*
X137770000Y-137145000D02*
X137770000Y-138960000D01*
X137770000Y-141040000D02*
X137770000Y-142855000D01*
X137810000Y-137166000D02*
X137810000Y-138960000D01*
X137810000Y-141040000D02*
X137810000Y-142834000D01*
X137850000Y-137188000D02*
X137850000Y-138960000D01*
X137850000Y-141040000D02*
X137850000Y-142812000D01*
X137890000Y-137211000D02*
X137890000Y-138960000D01*
X137890000Y-141040000D02*
X137890000Y-142789000D01*
X137930000Y-137235000D02*
X137930000Y-138960000D01*
X137930000Y-141040000D02*
X137930000Y-142765000D01*
X137970000Y-137259000D02*
X137970000Y-138960000D01*
X137970000Y-141040000D02*
X137970000Y-142741000D01*
X138010000Y-137284000D02*
X138010000Y-138960000D01*
X138010000Y-141040000D02*
X138010000Y-142716000D01*
X138050000Y-137310000D02*
X138050000Y-138960000D01*
X138050000Y-141040000D02*
X138050000Y-142690000D01*
X138090000Y-137337000D02*
X138090000Y-138960000D01*
X138090000Y-141040000D02*
X138090000Y-142663000D01*
X138130000Y-137364000D02*
X138130000Y-138960000D01*
X138130000Y-141040000D02*
X138130000Y-142636000D01*
X138170000Y-137393000D02*
X138170000Y-138960000D01*
X138170000Y-141040000D02*
X138170000Y-142607000D01*
X138210000Y-137423000D02*
X138210000Y-138960000D01*
X138210000Y-141040000D02*
X138210000Y-142577000D01*
X138250000Y-137453000D02*
X138250000Y-138960000D01*
X138250000Y-141040000D02*
X138250000Y-142547000D01*
X138290000Y-137484000D02*
X138290000Y-138960000D01*
X138290000Y-141040000D02*
X138290000Y-142516000D01*
X138330000Y-137517000D02*
X138330000Y-138960000D01*
X138330000Y-141040000D02*
X138330000Y-142483000D01*
X138370000Y-137550000D02*
X138370000Y-138960000D01*
X138370000Y-141040000D02*
X138370000Y-142450000D01*
X138410000Y-137585000D02*
X138410000Y-138960000D01*
X138410000Y-141040000D02*
X138410000Y-142415000D01*
X138450000Y-137621000D02*
X138450000Y-138960000D01*
X138450000Y-141040000D02*
X138450000Y-142379000D01*
X138490000Y-137658000D02*
X138490000Y-138960000D01*
X138490000Y-141040000D02*
X138490000Y-142342000D01*
X138530000Y-137696000D02*
X138530000Y-138960000D01*
X138530000Y-141040000D02*
X138530000Y-142304000D01*
X138570000Y-137736000D02*
X138570000Y-142264000D01*
X138610000Y-137777000D02*
X138610000Y-142223000D01*
X138650000Y-137819000D02*
X138650000Y-142181000D01*
X138690000Y-137863000D02*
X138690000Y-142137000D01*
X138730000Y-137909000D02*
X138730000Y-142091000D01*
X138770000Y-137956000D02*
X138770000Y-142044000D01*
X138810000Y-138005000D02*
X138810000Y-141995000D01*
X138850000Y-138057000D02*
X138850000Y-141943000D01*
X138890000Y-138110000D02*
X138890000Y-141890000D01*
X138930000Y-138166000D02*
X138930000Y-141834000D01*
X138970000Y-138225000D02*
X138970000Y-141775000D01*
X139010000Y-138286000D02*
X139010000Y-141714000D01*
X139050000Y-138351000D02*
X139050000Y-141649000D01*
X139090000Y-138419000D02*
X139090000Y-141581000D01*
X139130000Y-138491000D02*
X139130000Y-141509000D01*
X139170000Y-138568000D02*
X139170000Y-141432000D01*
X139210000Y-138650000D02*
X139210000Y-141350000D01*
X139250000Y-138739000D02*
X139250000Y-141261000D01*
X139290000Y-138835000D02*
X139290000Y-141165000D01*
X139330000Y-138942000D02*
X139330000Y-141058000D01*
X139370000Y-139061000D02*
X139370000Y-140939000D01*
X139410000Y-139199000D02*
X139410000Y-140801000D01*
X139450000Y-139367000D02*
X139450000Y-140633000D01*
X139490000Y-139598000D02*
X139490000Y-140402000D01*
X139520000Y-140000000D02*
G75*
G02*
X132980000Y-140000000I-3270000J0D01*
G01*
X132980000Y-140000000D02*
G75*
G02*
X139520000Y-140000000I3270000J0D01*
G01*
%TO.C,TP3*%
X104950000Y-122000000D02*
G75*
G02*
X103050000Y-122000000I-950000J0D01*
G01*
X103050000Y-122000000D02*
G75*
G02*
X104950000Y-122000000I950000J0D01*
G01*
%TO.C,C2*%
X104880000Y-77630000D02*
X110120000Y-77630000D01*
X104880000Y-77967000D02*
X104880000Y-77630000D01*
X104880000Y-80370000D02*
X104880000Y-80033000D01*
X110120000Y-77630000D02*
X110120000Y-77967000D01*
X110120000Y-80033000D02*
X110120000Y-80370000D01*
X110120000Y-80370000D02*
X104880000Y-80370000D01*
%TO.C,C6*%
X104880000Y-66630000D02*
X110120000Y-66630000D01*
X104880000Y-66967000D02*
X104880000Y-66630000D01*
X104880000Y-69370000D02*
X104880000Y-69033000D01*
X110120000Y-66630000D02*
X110120000Y-66967000D01*
X110120000Y-69033000D02*
X110120000Y-69370000D01*
X110120000Y-69370000D02*
X104880000Y-69370000D01*
%TO.C,TP11*%
X104950000Y-158000000D02*
G75*
G02*
X103050000Y-158000000I-950000J0D01*
G01*
X103050000Y-158000000D02*
G75*
G02*
X104950000Y-158000000I950000J0D01*
G01*
%TO.C,TP9*%
X118950000Y-68000000D02*
G75*
G02*
X117050000Y-68000000I-950000J0D01*
G01*
X117050000Y-68000000D02*
G75*
G02*
X118950000Y-68000000I950000J0D01*
G01*
%TO.C,C5*%
X132749759Y-152161000D02*
X133379759Y-152161000D01*
X133064759Y-151846000D02*
X133064759Y-152476000D01*
X136250000Y-150770000D02*
X136250000Y-157230000D01*
X136290000Y-150770000D02*
X136290000Y-157230000D01*
X136330000Y-150771000D02*
X136330000Y-157229000D01*
X136370000Y-150772000D02*
X136370000Y-157228000D01*
X136410000Y-150774000D02*
X136410000Y-157226000D01*
X136450000Y-150776000D02*
X136450000Y-157224000D01*
X136490000Y-150779000D02*
X136490000Y-152960000D01*
X136490000Y-155040000D02*
X136490000Y-157221000D01*
X136530000Y-150782000D02*
X136530000Y-152960000D01*
X136530000Y-155040000D02*
X136530000Y-157218000D01*
X136570000Y-150786000D02*
X136570000Y-152960000D01*
X136570000Y-155040000D02*
X136570000Y-157214000D01*
X136610000Y-150790000D02*
X136610000Y-152960000D01*
X136610000Y-155040000D02*
X136610000Y-157210000D01*
X136650000Y-150795000D02*
X136650000Y-152960000D01*
X136650000Y-155040000D02*
X136650000Y-157205000D01*
X136690000Y-150800000D02*
X136690000Y-152960000D01*
X136690000Y-155040000D02*
X136690000Y-157200000D01*
X136730000Y-150805000D02*
X136730000Y-152960000D01*
X136730000Y-155040000D02*
X136730000Y-157195000D01*
X136770000Y-150812000D02*
X136770000Y-152960000D01*
X136770000Y-155040000D02*
X136770000Y-157188000D01*
X136810000Y-150818000D02*
X136810000Y-152960000D01*
X136810000Y-155040000D02*
X136810000Y-157182000D01*
X136850000Y-150826000D02*
X136850000Y-152960000D01*
X136850000Y-155040000D02*
X136850000Y-157174000D01*
X136890000Y-150833000D02*
X136890000Y-152960000D01*
X136890000Y-155040000D02*
X136890000Y-157167000D01*
X136930000Y-150841000D02*
X136930000Y-152960000D01*
X136930000Y-155040000D02*
X136930000Y-157159000D01*
X136970000Y-150850000D02*
X136970000Y-152960000D01*
X136970000Y-155040000D02*
X136970000Y-157150000D01*
X137010000Y-150860000D02*
X137010000Y-152960000D01*
X137010000Y-155040000D02*
X137010000Y-157140000D01*
X137050000Y-150869000D02*
X137050000Y-152960000D01*
X137050000Y-155040000D02*
X137050000Y-157131000D01*
X137090000Y-150880000D02*
X137090000Y-152960000D01*
X137090000Y-155040000D02*
X137090000Y-157120000D01*
X137130000Y-150891000D02*
X137130000Y-152960000D01*
X137130000Y-155040000D02*
X137130000Y-157109000D01*
X137170000Y-150902000D02*
X137170000Y-152960000D01*
X137170000Y-155040000D02*
X137170000Y-157098000D01*
X137210000Y-150914000D02*
X137210000Y-152960000D01*
X137210000Y-155040000D02*
X137210000Y-157086000D01*
X137250000Y-150927000D02*
X137250000Y-152960000D01*
X137250000Y-155040000D02*
X137250000Y-157073000D01*
X137290000Y-150940000D02*
X137290000Y-152960000D01*
X137290000Y-155040000D02*
X137290000Y-157060000D01*
X137330000Y-150953000D02*
X137330000Y-152960000D01*
X137330000Y-155040000D02*
X137330000Y-157047000D01*
X137370000Y-150968000D02*
X137370000Y-152960000D01*
X137370000Y-155040000D02*
X137370000Y-157032000D01*
X137410000Y-150983000D02*
X137410000Y-152960000D01*
X137410000Y-155040000D02*
X137410000Y-157017000D01*
X137450000Y-150998000D02*
X137450000Y-152960000D01*
X137450000Y-155040000D02*
X137450000Y-157002000D01*
X137490000Y-151014000D02*
X137490000Y-152960000D01*
X137490000Y-155040000D02*
X137490000Y-156986000D01*
X137530000Y-151031000D02*
X137530000Y-152960000D01*
X137530000Y-155040000D02*
X137530000Y-156969000D01*
X137570000Y-151048000D02*
X137570000Y-152960000D01*
X137570000Y-155040000D02*
X137570000Y-156952000D01*
X137610000Y-151066000D02*
X137610000Y-152960000D01*
X137610000Y-155040000D02*
X137610000Y-156934000D01*
X137650000Y-151085000D02*
X137650000Y-152960000D01*
X137650000Y-155040000D02*
X137650000Y-156915000D01*
X137690000Y-151104000D02*
X137690000Y-152960000D01*
X137690000Y-155040000D02*
X137690000Y-156896000D01*
X137730000Y-151124000D02*
X137730000Y-152960000D01*
X137730000Y-155040000D02*
X137730000Y-156876000D01*
X137770000Y-151145000D02*
X137770000Y-152960000D01*
X137770000Y-155040000D02*
X137770000Y-156855000D01*
X137810000Y-151166000D02*
X137810000Y-152960000D01*
X137810000Y-155040000D02*
X137810000Y-156834000D01*
X137850000Y-151188000D02*
X137850000Y-152960000D01*
X137850000Y-155040000D02*
X137850000Y-156812000D01*
X137890000Y-151211000D02*
X137890000Y-152960000D01*
X137890000Y-155040000D02*
X137890000Y-156789000D01*
X137930000Y-151235000D02*
X137930000Y-152960000D01*
X137930000Y-155040000D02*
X137930000Y-156765000D01*
X137970000Y-151259000D02*
X137970000Y-152960000D01*
X137970000Y-155040000D02*
X137970000Y-156741000D01*
X138010000Y-151284000D02*
X138010000Y-152960000D01*
X138010000Y-155040000D02*
X138010000Y-156716000D01*
X138050000Y-151310000D02*
X138050000Y-152960000D01*
X138050000Y-155040000D02*
X138050000Y-156690000D01*
X138090000Y-151337000D02*
X138090000Y-152960000D01*
X138090000Y-155040000D02*
X138090000Y-156663000D01*
X138130000Y-151364000D02*
X138130000Y-152960000D01*
X138130000Y-155040000D02*
X138130000Y-156636000D01*
X138170000Y-151393000D02*
X138170000Y-152960000D01*
X138170000Y-155040000D02*
X138170000Y-156607000D01*
X138210000Y-151423000D02*
X138210000Y-152960000D01*
X138210000Y-155040000D02*
X138210000Y-156577000D01*
X138250000Y-151453000D02*
X138250000Y-152960000D01*
X138250000Y-155040000D02*
X138250000Y-156547000D01*
X138290000Y-151484000D02*
X138290000Y-152960000D01*
X138290000Y-155040000D02*
X138290000Y-156516000D01*
X138330000Y-151517000D02*
X138330000Y-152960000D01*
X138330000Y-155040000D02*
X138330000Y-156483000D01*
X138370000Y-151550000D02*
X138370000Y-152960000D01*
X138370000Y-155040000D02*
X138370000Y-156450000D01*
X138410000Y-151585000D02*
X138410000Y-152960000D01*
X138410000Y-155040000D02*
X138410000Y-156415000D01*
X138450000Y-151621000D02*
X138450000Y-152960000D01*
X138450000Y-155040000D02*
X138450000Y-156379000D01*
X138490000Y-151658000D02*
X138490000Y-152960000D01*
X138490000Y-155040000D02*
X138490000Y-156342000D01*
X138530000Y-151696000D02*
X138530000Y-152960000D01*
X138530000Y-155040000D02*
X138530000Y-156304000D01*
X138570000Y-151736000D02*
X138570000Y-156264000D01*
X138610000Y-151777000D02*
X138610000Y-156223000D01*
X138650000Y-151819000D02*
X138650000Y-156181000D01*
X138690000Y-151863000D02*
X138690000Y-156137000D01*
X138730000Y-151909000D02*
X138730000Y-156091000D01*
X138770000Y-151956000D02*
X138770000Y-156044000D01*
X138810000Y-152005000D02*
X138810000Y-155995000D01*
X138850000Y-152057000D02*
X138850000Y-155943000D01*
X138890000Y-152110000D02*
X138890000Y-155890000D01*
X138930000Y-152166000D02*
X138930000Y-155834000D01*
X138970000Y-152225000D02*
X138970000Y-155775000D01*
X139010000Y-152286000D02*
X139010000Y-155714000D01*
X139050000Y-152351000D02*
X139050000Y-155649000D01*
X139090000Y-152419000D02*
X139090000Y-155581000D01*
X139130000Y-152491000D02*
X139130000Y-155509000D01*
X139170000Y-152568000D02*
X139170000Y-155432000D01*
X139210000Y-152650000D02*
X139210000Y-155350000D01*
X139250000Y-152739000D02*
X139250000Y-155261000D01*
X139290000Y-152835000D02*
X139290000Y-155165000D01*
X139330000Y-152942000D02*
X139330000Y-155058000D01*
X139370000Y-153061000D02*
X139370000Y-154939000D01*
X139410000Y-153199000D02*
X139410000Y-154801000D01*
X139450000Y-153367000D02*
X139450000Y-154633000D01*
X139490000Y-153598000D02*
X139490000Y-154402000D01*
X139520000Y-154000000D02*
G75*
G02*
X132980000Y-154000000I-3270000J0D01*
G01*
X132980000Y-154000000D02*
G75*
G02*
X139520000Y-154000000I3270000J0D01*
G01*
%TO.C,C1*%
X102749759Y-71161000D02*
X103379759Y-71161000D01*
X103064759Y-70846000D02*
X103064759Y-71476000D01*
X106250000Y-69770000D02*
X106250000Y-76230000D01*
X106290000Y-69770000D02*
X106290000Y-76230000D01*
X106330000Y-69771000D02*
X106330000Y-76229000D01*
X106370000Y-69772000D02*
X106370000Y-76228000D01*
X106410000Y-69774000D02*
X106410000Y-76226000D01*
X106450000Y-69776000D02*
X106450000Y-76224000D01*
X106490000Y-69779000D02*
X106490000Y-71960000D01*
X106490000Y-74040000D02*
X106490000Y-76221000D01*
X106530000Y-69782000D02*
X106530000Y-71960000D01*
X106530000Y-74040000D02*
X106530000Y-76218000D01*
X106570000Y-69786000D02*
X106570000Y-71960000D01*
X106570000Y-74040000D02*
X106570000Y-76214000D01*
X106610000Y-69790000D02*
X106610000Y-71960000D01*
X106610000Y-74040000D02*
X106610000Y-76210000D01*
X106650000Y-69795000D02*
X106650000Y-71960000D01*
X106650000Y-74040000D02*
X106650000Y-76205000D01*
X106690000Y-69800000D02*
X106690000Y-71960000D01*
X106690000Y-74040000D02*
X106690000Y-76200000D01*
X106730000Y-69805000D02*
X106730000Y-71960000D01*
X106730000Y-74040000D02*
X106730000Y-76195000D01*
X106770000Y-69812000D02*
X106770000Y-71960000D01*
X106770000Y-74040000D02*
X106770000Y-76188000D01*
X106810000Y-69818000D02*
X106810000Y-71960000D01*
X106810000Y-74040000D02*
X106810000Y-76182000D01*
X106850000Y-69826000D02*
X106850000Y-71960000D01*
X106850000Y-74040000D02*
X106850000Y-76174000D01*
X106890000Y-69833000D02*
X106890000Y-71960000D01*
X106890000Y-74040000D02*
X106890000Y-76167000D01*
X106930000Y-69841000D02*
X106930000Y-71960000D01*
X106930000Y-74040000D02*
X106930000Y-76159000D01*
X106970000Y-69850000D02*
X106970000Y-71960000D01*
X106970000Y-74040000D02*
X106970000Y-76150000D01*
X107010000Y-69860000D02*
X107010000Y-71960000D01*
X107010000Y-74040000D02*
X107010000Y-76140000D01*
X107050000Y-69869000D02*
X107050000Y-71960000D01*
X107050000Y-74040000D02*
X107050000Y-76131000D01*
X107090000Y-69880000D02*
X107090000Y-71960000D01*
X107090000Y-74040000D02*
X107090000Y-76120000D01*
X107130000Y-69891000D02*
X107130000Y-71960000D01*
X107130000Y-74040000D02*
X107130000Y-76109000D01*
X107170000Y-69902000D02*
X107170000Y-71960000D01*
X107170000Y-74040000D02*
X107170000Y-76098000D01*
X107210000Y-69914000D02*
X107210000Y-71960000D01*
X107210000Y-74040000D02*
X107210000Y-76086000D01*
X107250000Y-69927000D02*
X107250000Y-71960000D01*
X107250000Y-74040000D02*
X107250000Y-76073000D01*
X107290000Y-69940000D02*
X107290000Y-71960000D01*
X107290000Y-74040000D02*
X107290000Y-76060000D01*
X107330000Y-69953000D02*
X107330000Y-71960000D01*
X107330000Y-74040000D02*
X107330000Y-76047000D01*
X107370000Y-69968000D02*
X107370000Y-71960000D01*
X107370000Y-74040000D02*
X107370000Y-76032000D01*
X107410000Y-69983000D02*
X107410000Y-71960000D01*
X107410000Y-74040000D02*
X107410000Y-76017000D01*
X107450000Y-69998000D02*
X107450000Y-71960000D01*
X107450000Y-74040000D02*
X107450000Y-76002000D01*
X107490000Y-70014000D02*
X107490000Y-71960000D01*
X107490000Y-74040000D02*
X107490000Y-75986000D01*
X107530000Y-70031000D02*
X107530000Y-71960000D01*
X107530000Y-74040000D02*
X107530000Y-75969000D01*
X107570000Y-70048000D02*
X107570000Y-71960000D01*
X107570000Y-74040000D02*
X107570000Y-75952000D01*
X107610000Y-70066000D02*
X107610000Y-71960000D01*
X107610000Y-74040000D02*
X107610000Y-75934000D01*
X107650000Y-70085000D02*
X107650000Y-71960000D01*
X107650000Y-74040000D02*
X107650000Y-75915000D01*
X107690000Y-70104000D02*
X107690000Y-71960000D01*
X107690000Y-74040000D02*
X107690000Y-75896000D01*
X107730000Y-70124000D02*
X107730000Y-71960000D01*
X107730000Y-74040000D02*
X107730000Y-75876000D01*
X107770000Y-70145000D02*
X107770000Y-71960000D01*
X107770000Y-74040000D02*
X107770000Y-75855000D01*
X107810000Y-70166000D02*
X107810000Y-71960000D01*
X107810000Y-74040000D02*
X107810000Y-75834000D01*
X107850000Y-70188000D02*
X107850000Y-71960000D01*
X107850000Y-74040000D02*
X107850000Y-75812000D01*
X107890000Y-70211000D02*
X107890000Y-71960000D01*
X107890000Y-74040000D02*
X107890000Y-75789000D01*
X107930000Y-70235000D02*
X107930000Y-71960000D01*
X107930000Y-74040000D02*
X107930000Y-75765000D01*
X107970000Y-70259000D02*
X107970000Y-71960000D01*
X107970000Y-74040000D02*
X107970000Y-75741000D01*
X108010000Y-70284000D02*
X108010000Y-71960000D01*
X108010000Y-74040000D02*
X108010000Y-75716000D01*
X108050000Y-70310000D02*
X108050000Y-71960000D01*
X108050000Y-74040000D02*
X108050000Y-75690000D01*
X108090000Y-70337000D02*
X108090000Y-71960000D01*
X108090000Y-74040000D02*
X108090000Y-75663000D01*
X108130000Y-70364000D02*
X108130000Y-71960000D01*
X108130000Y-74040000D02*
X108130000Y-75636000D01*
X108170000Y-70393000D02*
X108170000Y-71960000D01*
X108170000Y-74040000D02*
X108170000Y-75607000D01*
X108210000Y-70423000D02*
X108210000Y-71960000D01*
X108210000Y-74040000D02*
X108210000Y-75577000D01*
X108250000Y-70453000D02*
X108250000Y-71960000D01*
X108250000Y-74040000D02*
X108250000Y-75547000D01*
X108290000Y-70484000D02*
X108290000Y-71960000D01*
X108290000Y-74040000D02*
X108290000Y-75516000D01*
X108330000Y-70517000D02*
X108330000Y-71960000D01*
X108330000Y-74040000D02*
X108330000Y-75483000D01*
X108370000Y-70550000D02*
X108370000Y-71960000D01*
X108370000Y-74040000D02*
X108370000Y-75450000D01*
X108410000Y-70585000D02*
X108410000Y-71960000D01*
X108410000Y-74040000D02*
X108410000Y-75415000D01*
X108450000Y-70621000D02*
X108450000Y-71960000D01*
X108450000Y-74040000D02*
X108450000Y-75379000D01*
X108490000Y-70658000D02*
X108490000Y-71960000D01*
X108490000Y-74040000D02*
X108490000Y-75342000D01*
X108530000Y-70696000D02*
X108530000Y-71960000D01*
X108530000Y-74040000D02*
X108530000Y-75304000D01*
X108570000Y-70736000D02*
X108570000Y-75264000D01*
X108610000Y-70777000D02*
X108610000Y-75223000D01*
X108650000Y-70819000D02*
X108650000Y-75181000D01*
X108690000Y-70863000D02*
X108690000Y-75137000D01*
X108730000Y-70909000D02*
X108730000Y-75091000D01*
X108770000Y-70956000D02*
X108770000Y-75044000D01*
X108810000Y-71005000D02*
X108810000Y-74995000D01*
X108850000Y-71057000D02*
X108850000Y-74943000D01*
X108890000Y-71110000D02*
X108890000Y-74890000D01*
X108930000Y-71166000D02*
X108930000Y-74834000D01*
X108970000Y-71225000D02*
X108970000Y-74775000D01*
X109010000Y-71286000D02*
X109010000Y-74714000D01*
X109050000Y-71351000D02*
X109050000Y-74649000D01*
X109090000Y-71419000D02*
X109090000Y-74581000D01*
X109130000Y-71491000D02*
X109130000Y-74509000D01*
X109170000Y-71568000D02*
X109170000Y-74432000D01*
X109210000Y-71650000D02*
X109210000Y-74350000D01*
X109250000Y-71739000D02*
X109250000Y-74261000D01*
X109290000Y-71835000D02*
X109290000Y-74165000D01*
X109330000Y-71942000D02*
X109330000Y-74058000D01*
X109370000Y-72061000D02*
X109370000Y-73939000D01*
X109410000Y-72199000D02*
X109410000Y-73801000D01*
X109450000Y-72367000D02*
X109450000Y-73633000D01*
X109490000Y-72598000D02*
X109490000Y-73402000D01*
X109520000Y-73000000D02*
G75*
G02*
X102980000Y-73000000I-3270000J0D01*
G01*
X102980000Y-73000000D02*
G75*
G02*
X109520000Y-73000000I3270000J0D01*
G01*
%TO.C,TP5*%
X104950000Y-86000000D02*
G75*
G02*
X103050000Y-86000000I-950000J0D01*
G01*
X103050000Y-86000000D02*
G75*
G02*
X104950000Y-86000000I950000J0D01*
G01*
%TO.C,R3*%
X105040000Y-63500000D02*
X105810000Y-63500000D01*
X113120000Y-63500000D02*
X112350000Y-63500000D01*
X105810000Y-62130000D02*
X112350000Y-62130000D01*
X112350000Y-64870000D01*
X105810000Y-64870000D01*
X105810000Y-62130000D01*
%TO.C,TP1*%
X104950000Y-114000000D02*
G75*
G02*
X103050000Y-114000000I-950000J0D01*
G01*
X103050000Y-114000000D02*
G75*
G02*
X104950000Y-114000000I950000J0D01*
G01*
%TO.C,R7*%
X118540000Y-120000000D02*
X119310000Y-120000000D01*
X126620000Y-120000000D02*
X125850000Y-120000000D01*
X119310000Y-118630000D02*
X125850000Y-118630000D01*
X125850000Y-121370000D01*
X119310000Y-121370000D01*
X119310000Y-118630000D01*
%TO.C,SW2*%
X130550000Y-118500000D02*
X137450000Y-118500000D01*
X130550000Y-131500000D02*
X130550000Y-118500000D01*
X137450000Y-118500000D02*
X137450000Y-131500000D01*
X137450000Y-131500000D02*
X130550000Y-131500000D01*
%TO.C,C4*%
X134880000Y-144630000D02*
X140120000Y-144630000D01*
X134880000Y-144967000D02*
X134880000Y-144630000D01*
X134880000Y-147370000D02*
X134880000Y-147033000D01*
X140120000Y-144630000D02*
X140120000Y-144967000D01*
X140120000Y-147033000D02*
X140120000Y-147370000D01*
X140120000Y-147370000D02*
X134880000Y-147370000D01*
%TO.C,TP10*%
X137950000Y-88000000D02*
G75*
G02*
X136050000Y-88000000I-950000J0D01*
G01*
X136050000Y-88000000D02*
G75*
G02*
X137950000Y-88000000I950000J0D01*
G01*
%TO.C,TP7*%
X137950000Y-99000000D02*
G75*
G02*
X136050000Y-99000000I-950000J0D01*
G01*
X136050000Y-99000000D02*
G75*
G02*
X137950000Y-99000000I950000J0D01*
G01*
%TO.C,SW1*%
X116390000Y-90390000D02*
X116390000Y-92900000D01*
X116390000Y-90390000D02*
X128610000Y-90390000D01*
X116390000Y-95200000D02*
X116390000Y-97800000D01*
X116390000Y-100100000D02*
X116390000Y-102610000D01*
X128610000Y-90390000D02*
X128610000Y-92900000D01*
X128610000Y-95200000D02*
X128610000Y-97800000D01*
X128610000Y-100100000D02*
X128610000Y-102610000D01*
X128610000Y-102610000D02*
X116390000Y-102610000D01*
%TO.C,R1*%
X118540000Y-128000000D02*
X119310000Y-128000000D01*
X126620000Y-128000000D02*
X125850000Y-128000000D01*
X119310000Y-126630000D02*
X125850000Y-126630000D01*
X125850000Y-129370000D01*
X119310000Y-129370000D01*
X119310000Y-126630000D01*
%TO.C,TP4*%
X104950000Y-82000000D02*
G75*
G02*
X103050000Y-82000000I-950000J0D01*
G01*
X103050000Y-82000000D02*
G75*
G02*
X104950000Y-82000000I950000J0D01*
G01*
%TO.C,TP2*%
X104950000Y-118000000D02*
G75*
G02*
X103050000Y-118000000I-950000J0D01*
G01*
X103050000Y-118000000D02*
G75*
G02*
X104950000Y-118000000I950000J0D01*
G01*
%TO.C,R5*%
X118540000Y-133000000D02*
X119310000Y-133000000D01*
X126620000Y-133000000D02*
X125850000Y-133000000D01*
X119310000Y-131630000D02*
X125850000Y-131630000D01*
X125850000Y-134370000D01*
X119310000Y-134370000D01*
X119310000Y-131630000D01*
%TO.C,J1*%
X134540000Y-110940000D02*
X134540000Y-111860000D01*
X134540000Y-111860000D02*
X136140000Y-111860000D01*
X134540000Y-116140000D02*
X134540000Y-117060000D01*
X134540000Y-117060000D02*
X142360000Y-117060000D01*
X136140000Y-110940000D02*
X136140000Y-111860000D01*
X136140000Y-111860000D02*
X136140000Y-112140000D01*
X136140000Y-115860000D02*
X134925000Y-115860000D01*
X136140000Y-115860000D02*
X136140000Y-116140000D01*
X136140000Y-116140000D02*
X134540000Y-116140000D01*
X136140000Y-117060000D02*
X136140000Y-116140000D01*
X138000000Y-113500000D02*
X142360000Y-113500000D01*
X138000000Y-114500000D02*
X138000000Y-113500000D01*
X140100000Y-115300000D02*
X142360000Y-115300000D01*
X140100000Y-115800000D02*
X142360000Y-115800000D01*
X142360000Y-110940000D02*
X134540000Y-110940000D01*
X142360000Y-114500000D02*
X138000000Y-114500000D01*
X142360000Y-117060000D02*
X142360000Y-110940000D01*
X138500000Y-111700000D02*
X140100000Y-111700000D01*
X140100000Y-112700000D01*
X138500000Y-112700000D01*
X138500000Y-111700000D01*
X138500000Y-115300000D02*
X140100000Y-115300000D01*
X140100000Y-116300000D01*
X138500000Y-116300000D01*
X138500000Y-115300000D01*
%TO.C,TP8*%
X140950000Y-131000000D02*
G75*
G02*
X139050000Y-131000000I-950000J0D01*
G01*
X139050000Y-131000000D02*
G75*
G02*
X140950000Y-131000000I950000J0D01*
G01*
%TO.C,R6*%
X118540000Y-115000000D02*
X119310000Y-115000000D01*
X126620000Y-115000000D02*
X125850000Y-115000000D01*
X119310000Y-113630000D02*
X125850000Y-113630000D01*
X125850000Y-116370000D01*
X119310000Y-116370000D01*
X119310000Y-113630000D01*
%TO.C,J2*%
X119140000Y-160890000D02*
X119140000Y-162140000D01*
X119440000Y-162500000D02*
X120050000Y-162500000D01*
X119440000Y-163800000D02*
X120050000Y-163800000D01*
X120050000Y-161800000D02*
X120050000Y-165300000D01*
X120050000Y-165300000D02*
X124950000Y-165300000D01*
X120390000Y-160890000D02*
X119140000Y-160890000D01*
X120900000Y-160990000D02*
X120900000Y-161190000D01*
X121200000Y-160990000D02*
X120900000Y-160990000D01*
X121200000Y-161090000D02*
X120900000Y-161090000D01*
X121200000Y-161190000D02*
X121200000Y-160990000D01*
X122000000Y-161190000D02*
X122000000Y-161800000D01*
X122000000Y-161800000D02*
X120050000Y-161800000D01*
X122400000Y-164800000D02*
X122600000Y-164800000D01*
X122400000Y-165300000D02*
X122400000Y-164800000D01*
X122500000Y-165300000D02*
X122500000Y-164800000D01*
X122600000Y-164800000D02*
X122600000Y-165300000D01*
X123000000Y-161800000D02*
X123000000Y-161190000D01*
X124950000Y-161800000D02*
X123000000Y-161800000D01*
X124950000Y-165300000D02*
X124950000Y-161800000D01*
X125560000Y-162500000D02*
X124950000Y-162500000D01*
X125560000Y-163800000D02*
X124950000Y-163800000D01*
X119440000Y-161190000D02*
X125560000Y-161190000D01*
X125560000Y-165910000D01*
X119440000Y-165910000D01*
X119440000Y-161190000D01*
%TD*%
%LPC*%
D13*
%TO.C,C7*%
X107000000Y-100000000D03*
X112000000Y-100000000D03*
%TD*%
D14*
%TO.C,TP6*%
X104000000Y-90000000D03*
%TD*%
D13*
%TO.C,R4*%
X107000000Y-93000000D03*
X107000000Y-82840000D03*
%TD*%
%TO.C,R2*%
X104000000Y-59000000D03*
X114160000Y-59000000D03*
%TD*%
D15*
%TO.C,C3*%
X135000000Y-140000000D03*
D13*
X137500000Y-140000000D03*
%TD*%
D16*
%TO.C,U3*%
X130120000Y-141000000D03*
D17*
X127580000Y-141000000D03*
X125040000Y-141000000D03*
X122500000Y-141000000D03*
X117420000Y-141000000D03*
X114880000Y-141000000D03*
X119960000Y-141000000D03*
%TD*%
D14*
%TO.C,TP3*%
X104000000Y-122000000D03*
%TD*%
D18*
%TO.C,J4*%
X138620000Y-68620000D03*
D19*
X139455000Y-68620000D03*
D20*
X138620000Y-66080000D03*
D19*
X139455000Y-66080000D03*
D20*
X138620000Y-63540000D03*
D19*
X139455000Y-63540000D03*
D20*
X138620000Y-61000000D03*
D19*
X139455000Y-61000000D03*
D20*
X138620000Y-58460000D03*
D19*
X139455000Y-58460000D03*
D20*
X138620000Y-55920001D03*
D19*
X139455000Y-55920001D03*
D20*
X138620000Y-53380000D03*
D19*
X139455000Y-53380000D03*
%TD*%
D13*
%TO.C,C2*%
X105000000Y-79000000D03*
X110000000Y-79000000D03*
%TD*%
%TO.C,C6*%
X105000000Y-68000000D03*
X110000000Y-68000000D03*
%TD*%
D14*
%TO.C,TP11*%
X104000000Y-158000000D03*
%TD*%
%TO.C,TP9*%
X118000000Y-68000000D03*
%TD*%
D15*
%TO.C,C5*%
X135000000Y-154000000D03*
D13*
X137500000Y-154000000D03*
%TD*%
D15*
%TO.C,C1*%
X105000000Y-73000000D03*
D13*
X107500000Y-73000000D03*
%TD*%
D14*
%TO.C,TP5*%
X104000000Y-86000000D03*
%TD*%
D13*
%TO.C,R3*%
X114160000Y-63500000D03*
X104000000Y-63500000D03*
%TD*%
D14*
%TO.C,TP1*%
X104000000Y-114000000D03*
%TD*%
D21*
%TO.C,U2*%
X122500000Y-81000000D03*
D16*
X122500000Y-84810000D03*
D17*
X119960000Y-84810000D03*
X125040000Y-84810000D03*
X119960000Y-77190000D03*
X122500000Y-77190000D03*
X125040000Y-77190000D03*
%TD*%
D13*
%TO.C,R7*%
X117500000Y-120000000D03*
X127660000Y-120000000D03*
%TD*%
D22*
%TO.C,J6*%
X126555000Y-60618000D03*
D23*
X126555000Y-58713000D03*
%TD*%
D24*
%TO.C,SW2*%
X134000000Y-129700000D03*
D25*
X134000000Y-125000000D03*
X134000000Y-120300000D03*
%TD*%
D19*
%TO.C,J3*%
X122545000Y-53380000D03*
D18*
X123380000Y-53380000D03*
D19*
X122545000Y-55920000D03*
D20*
X123380000Y-55920000D03*
D19*
X122545000Y-58460000D03*
D20*
X123380000Y-58460000D03*
D19*
X122545000Y-61000000D03*
D20*
X123380000Y-61000000D03*
D19*
X122545000Y-63540000D03*
D20*
X123380000Y-63540000D03*
D19*
X122545000Y-66079999D03*
D20*
X123380000Y-66079999D03*
D19*
X122545000Y-68620000D03*
D20*
X123380000Y-68620000D03*
%TD*%
D13*
%TO.C,C4*%
X135000000Y-146000000D03*
X140000000Y-146000000D03*
%TD*%
D14*
%TO.C,TP10*%
X137000000Y-88000000D03*
%TD*%
%TO.C,TP7*%
X137000000Y-99000000D03*
%TD*%
D26*
%TO.C,SW1*%
X122500000Y-92000000D03*
X122500000Y-101000000D03*
D27*
X116250000Y-94000000D03*
X128750000Y-94000000D03*
X116250000Y-99000000D03*
X128750000Y-99000000D03*
%TD*%
D28*
%TO.C,J5*%
X124200000Y-153954000D03*
D29*
X120700000Y-153954000D03*
%TD*%
D13*
%TO.C,R1*%
X117500000Y-128000000D03*
X127660000Y-128000000D03*
%TD*%
D14*
%TO.C,TP4*%
X104000000Y-82000000D03*
%TD*%
%TO.C,TP2*%
X104000000Y-118000000D03*
%TD*%
D13*
%TO.C,R5*%
X117500000Y-133000000D03*
X127660000Y-133000000D03*
%TD*%
D30*
%TO.C,J1*%
X136000000Y-115000000D03*
D31*
X136000000Y-113000000D03*
%TD*%
D14*
%TO.C,TP8*%
X140000000Y-131000000D03*
%TD*%
D13*
%TO.C,R6*%
X117500000Y-115000000D03*
X127660000Y-115000000D03*
%TD*%
D32*
%TO.C,J2*%
X121500000Y-163000000D03*
D33*
X123500000Y-163000000D03*
%TD*%
%LPD*%
M02*
