%TF.GenerationSoftware,KiCad,Pcbnew,10.0.6*%
%TF.CreationDate,2026-09-07T16:07:09+05:30*%
%TF.ProjectId,remote,72656d6f-7465-42e6-9b69-6361645f7063,rev?*%
%TF.SameCoordinates,Original*%
%TF.FileFunction,Copper,L1,Top*%
%TF.FilePolarity,Positive*%
%FSLAX46Y46*%
G04 Gerber Fmt 4.6, Leading zero omitted, Abs format (unit mm)*
G04 Created by KiCad (PCBNEW 10.0.6) date 2026-09-07 16:07:09*
%MOMM*%
%LPD*%
G01*
G04 APERTURE LIST*
G04 Aperture macros list*
%AMRoundRect*
0 Rectangle with rounded corners*
0 $1 Rounding radius*
0 $2 $3 $4 $5 $6 $7 $8 $9 X,Y pos of 4 corners*
0 Add a 4 corners polygon primitive as box body*
4,1,4,$2,$3,$4,$5,$6,$7,$8,$9,$2,$3,0*
0 Add four circle primitives for the rounded corners*
1,1,$1+$1,$2,$3*
1,1,$1+$1,$4,$5*
1,1,$1+$1,$6,$7*
1,1,$1+$1,$8,$9*
0 Add four rect primitives between the rounded corners*
20,1,$1+$1,$2,$3,$4,$5,0*
20,1,$1+$1,$4,$5,$6,$7,0*
20,1,$1+$1,$6,$7,$8,$9,0*
20,1,$1+$1,$8,$9,$2,$3,0*%
G04 Aperture macros list end*
%TA.AperFunction,ComponentPad*%
%ADD10C,1.600000*%
%TD*%
%TA.AperFunction,ComponentPad*%
%ADD11C,1.500000*%
%TD*%
%TA.AperFunction,ComponentPad*%
%ADD12RoundRect,0.250000X-0.550000X-0.550000X0.550000X-0.550000X0.550000X0.550000X-0.550000X0.550000X0*%
%TD*%
%TA.AperFunction,ComponentPad*%
%ADD13R,1.900000X1.900000*%
%TD*%
%TA.AperFunction,ComponentPad*%
%ADD14C,1.900000*%
%TD*%
%TA.AperFunction,ComponentPad*%
%ADD15R,1.524000X1.524000*%
%TD*%
%TA.AperFunction,SMDPad,CuDef*%
%ADD16RoundRect,0.228600X-0.987400X-0.533400X0.987400X-0.533400X0.987400X0.533400X-0.987400X0.533400X0*%
%TD*%
%TA.AperFunction,ComponentPad*%
%ADD17C,1.524000*%
%TD*%
%TA.AperFunction,ComponentPad*%
%ADD18R,2.500000X1.300000*%
%TD*%
%TA.AperFunction,ComponentPad*%
%ADD19O,2.500000X1.300000*%
%TD*%
%TA.AperFunction,ComponentPad*%
%ADD20R,3.000000X3.000000*%
%TD*%
%TA.AperFunction,ComponentPad*%
%ADD21C,3.000000*%
%TD*%
%TA.AperFunction,ComponentPad*%
%ADD22O,2.900000X1.700000*%
%TD*%
%TA.AperFunction,ComponentPad*%
%ADD23R,2.200000X2.200000*%
%TD*%
%TA.AperFunction,ComponentPad*%
%ADD24C,2.200000*%
%TD*%
%TA.AperFunction,ComponentPad*%
%ADD25RoundRect,0.250000X0.625000X-0.350000X0.625000X0.350000X-0.625000X0.350000X-0.625000X-0.350000X0*%
%TD*%
%TA.AperFunction,ComponentPad*%
%ADD26O,1.750000X1.200000*%
%TD*%
%TA.AperFunction,ComponentPad*%
%ADD27RoundRect,0.250000X-0.350000X-0.625000X0.350000X-0.625000X0.350000X0.625000X-0.350000X0.625000X0*%
%TD*%
%TA.AperFunction,ComponentPad*%
%ADD28O,1.200000X1.750000*%
%TD*%
%TA.AperFunction,ViaPad*%
%ADD29C,0.700000*%
%TD*%
%TA.AperFunction,Conductor*%
%ADD30C,0.250000*%
%TD*%
%TA.AperFunction,Conductor*%
%ADD31C,0.600000*%
%TD*%
%TA.AperFunction,Conductor*%
%ADD32C,0.500000*%
%TD*%
%TA.AperFunction,Conductor*%
%ADD33C,1.000000*%
%TD*%
%TA.AperFunction,Conductor*%
%ADD34C,0.800000*%
%TD*%
G04 APERTURE END LIST*
D10*
%TO.P,C7,1*%
%TO.N,/BUTTON*%
X107000000Y-100000000D03*
%TO.P,C7,2*%
%TO.N,/GND*%
X112000000Y-100000000D03*
%TD*%
D11*
%TO.P,TP6,1*%
%TO.N,/I2S_MIC_SD*%
X104000000Y-90000000D03*
%TD*%
D10*
%TO.P,R4,1*%
%TO.N,/+3V3*%
X107000000Y-93000000D03*
%TO.P,R4,2*%
%TO.N,/BUTTON*%
X107000000Y-82840000D03*
%TD*%
%TO.P,R2,1*%
%TO.N,/VBAT_SW*%
X104000000Y-59000000D03*
%TO.P,R2,2*%
%TO.N,/VBAT_SENSE*%
X114160000Y-59000000D03*
%TD*%
D12*
%TO.P,C3,1*%
%TO.N,/VBAT_SW*%
X135000000Y-140000000D03*
D10*
%TO.P,C3,2*%
%TO.N,/GND*%
X137500000Y-140000000D03*
%TD*%
D13*
%TO.P,U3,1*%
%TO.N,/VBAT_SW*%
X130120000Y-141000000D03*
D14*
%TO.P,U3,2*%
%TO.N,/GND*%
X127580000Y-141000000D03*
%TO.P,U3,3*%
%TO.N,/AMP_SD_SAFE*%
X125040000Y-141000000D03*
%TO.P,U3,4*%
%TO.N,/AMP_GAIN*%
X122500000Y-141000000D03*
%TO.P,U3,5*%
%TO.N,/I2S_AMP_BCLK*%
X117420000Y-141000000D03*
%TO.P,U3,6*%
%TO.N,/I2S_AMP_LRC*%
X114880000Y-141000000D03*
%TO.P,U3,7*%
%TO.N,/I2S_AMP_DIN*%
X119960000Y-141000000D03*
%TD*%
D11*
%TO.P,TP3,1*%
%TO.N,/I2S_AMP_DIN*%
X104000000Y-122000000D03*
%TD*%
D15*
%TO.P,J4,1*%
%TO.N,unconnected-(J4-Pin_1-Pad1)*%
X138620000Y-68620000D03*
D16*
X139455000Y-68620000D03*
D17*
%TO.P,J4,2*%
%TO.N,/I2S_MIC_SCK*%
X138620000Y-66080000D03*
D16*
X139455000Y-66080000D03*
D17*
%TO.P,J4,3*%
%TO.N,/I2S_MIC_WS*%
X138620000Y-63540000D03*
D16*
X139455000Y-63540000D03*
D17*
%TO.P,J4,4*%
%TO.N,/I2S_MIC_SD*%
X138620000Y-61000000D03*
D16*
X139455000Y-61000000D03*
D17*
%TO.P,J4,5*%
%TO.N,/+3V3*%
X138620000Y-58460000D03*
D16*
X139455000Y-58460000D03*
D17*
%TO.P,J4,6*%
%TO.N,/GND*%
X138620000Y-55920001D03*
D16*
X139455000Y-55920001D03*
D17*
%TO.P,J4,7*%
%TO.N,unconnected-(J4-Pin_7-Pad7)*%
X138620000Y-53380000D03*
D16*
X139455000Y-53380000D03*
%TD*%
D10*
%TO.P,C2,1*%
%TO.N,/+3V3*%
X105000000Y-79000000D03*
%TO.P,C2,2*%
%TO.N,/GND*%
X110000000Y-79000000D03*
%TD*%
%TO.P,C6,1*%
%TO.N,/VBAT_SENSE*%
X105000000Y-68000000D03*
%TO.P,C6,2*%
%TO.N,/GND*%
X110000000Y-68000000D03*
%TD*%
D11*
%TO.P,TP11,1*%
%TO.N,/GND*%
X104000000Y-158000000D03*
%TD*%
%TO.P,TP9,1*%
%TO.N,/VBAT_SENSE*%
X118000000Y-68000000D03*
%TD*%
D12*
%TO.P,C5,1*%
%TO.N,/VBAT_SW*%
X135000000Y-154000000D03*
D10*
%TO.P,C5,2*%
%TO.N,/GND*%
X137500000Y-154000000D03*
%TD*%
D12*
%TO.P,C1,1*%
%TO.N,/+3V3*%
X105000000Y-73000000D03*
D10*
%TO.P,C1,2*%
%TO.N,/GND*%
X107500000Y-73000000D03*
%TD*%
D11*
%TO.P,TP5,1*%
%TO.N,/I2S_MIC_WS*%
X104000000Y-86000000D03*
%TD*%
D10*
%TO.P,R3,1*%
%TO.N,/VBAT_SENSE*%
X114160000Y-63500000D03*
%TO.P,R3,2*%
%TO.N,/GND*%
X104000000Y-63500000D03*
%TD*%
D11*
%TO.P,TP1,1*%
%TO.N,/I2S_AMP_BCLK*%
X104000000Y-114000000D03*
%TD*%
D13*
%TO.P,U2,1*%
%TO.N,/+3V3*%
X122500000Y-84810000D03*
D14*
%TO.P,U2,2*%
%TO.N,/GND*%
X119960000Y-84810000D03*
%TO.P,U2,3*%
%TO.N,/I2S_MIC_SD*%
X125040000Y-84810000D03*
%TO.P,U2,4*%
%TO.N,/GND*%
X119960000Y-77190000D03*
%TO.P,U2,5*%
%TO.N,/I2S_MIC_WS*%
X122500000Y-77190000D03*
%TO.P,U2,6*%
%TO.N,/I2S_MIC_SCK*%
X125040000Y-77190000D03*
%TD*%
D10*
%TO.P,R7,1*%
%TO.N,/AMP_SD_SAFE*%
X117500000Y-120000000D03*
%TO.P,R7,2*%
%TO.N,/GND*%
X127660000Y-120000000D03*
%TD*%
D18*
%TO.P,J6,1*%
%TO.N,/VBAT_SW*%
X126555000Y-60618000D03*
D19*
%TO.P,J6,2*%
%TO.N,/GND*%
X126555000Y-58713000D03*
%TD*%
D20*
%TO.P,SW2,1*%
%TO.N,/VBAT_SW*%
X134000000Y-129700000D03*
D21*
%TO.P,SW2,2*%
%TO.N,/VBAT_IN*%
X134000000Y-125000000D03*
%TO.P,SW2,3*%
%TO.N,unconnected-(SW2-C-Pad3)*%
X134000000Y-120300000D03*
%TD*%
D16*
%TO.P,J3,1*%
%TO.N,/I2S_AMP_BCLK*%
X122545000Y-53380000D03*
D15*
X123380000Y-53380000D03*
D16*
%TO.P,J3,2*%
%TO.N,/I2S_AMP_LRC*%
X122545000Y-55920000D03*
D17*
X123380000Y-55920000D03*
D16*
%TO.P,J3,3*%
%TO.N,/I2S_AMP_DIN*%
X122545000Y-58460000D03*
D17*
X123380000Y-58460000D03*
D16*
%TO.P,J3,4*%
%TO.N,/BUTTON*%
X122545000Y-61000000D03*
D17*
X123380000Y-61000000D03*
D16*
%TO.P,J3,5*%
%TO.N,/AMP_SD*%
X122545000Y-63540000D03*
D17*
X123380000Y-63540000D03*
D16*
%TO.P,J3,6*%
%TO.N,/VBAT_SENSE*%
X122545000Y-66079999D03*
D17*
X123380000Y-66079999D03*
D16*
%TO.P,J3,7*%
%TO.N,unconnected-(J3-Pin_7-Pad7)*%
X122545000Y-68620000D03*
D17*
X123380000Y-68620000D03*
%TD*%
D10*
%TO.P,C4,1*%
%TO.N,/VBAT_SW*%
X135000000Y-146000000D03*
%TO.P,C4,2*%
%TO.N,/GND*%
X140000000Y-146000000D03*
%TD*%
D11*
%TO.P,TP10,1*%
%TO.N,/GND*%
X137000000Y-88000000D03*
%TD*%
%TO.P,TP7,1*%
%TO.N,/BUTTON*%
X137000000Y-99000000D03*
%TD*%
D22*
%TO.P,SW1,1*%
%TO.N,/GND*%
X116250000Y-94000000D03*
X128750000Y-94000000D03*
%TO.P,SW1,2*%
%TO.N,/BUTTON*%
X116250000Y-99000000D03*
X128750000Y-99000000D03*
%TD*%
D23*
%TO.P,J5,1*%
%TO.N,/SPK+*%
X124200000Y-153954000D03*
D24*
%TO.P,J5,2*%
%TO.N,/SPK-*%
X120700000Y-153954000D03*
%TD*%
D10*
%TO.P,R1,1*%
%TO.N,/AMP_GAIN*%
X117500000Y-128000000D03*
%TO.P,R1,2*%
%TO.N,/GND*%
X127660000Y-128000000D03*
%TD*%
D11*
%TO.P,TP4,1*%
%TO.N,/I2S_MIC_SCK*%
X104000000Y-82000000D03*
%TD*%
%TO.P,TP2,1*%
%TO.N,/I2S_AMP_LRC*%
X104000000Y-118000000D03*
%TD*%
D10*
%TO.P,R5,1*%
%TO.N,/AMP_GAIN*%
X117500000Y-133000000D03*
%TO.P,R5,2*%
%TO.N,/GND*%
X127660000Y-133000000D03*
%TD*%
D25*
%TO.P,J1,1*%
%TO.N,/VBAT_IN*%
X136000000Y-115000000D03*
D26*
%TO.P,J1,2*%
%TO.N,/GND*%
X136000000Y-113000000D03*
%TD*%
D11*
%TO.P,TP8,1*%
%TO.N,/VBAT_SW*%
X140000000Y-131000000D03*
%TD*%
D10*
%TO.P,R6,1*%
%TO.N,/AMP_SD*%
X117500000Y-115000000D03*
%TO.P,R6,2*%
%TO.N,/AMP_SD_SAFE*%
X127660000Y-115000000D03*
%TD*%
D27*
%TO.P,J2,1*%
%TO.N,/SPK+*%
X121500000Y-163000000D03*
D28*
%TO.P,J2,2*%
%TO.N,/SPK-*%
X123500000Y-163000000D03*
%TD*%
D29*
%TO.N,/GND*%
X143000000Y-64000000D03*
X102000000Y-88000000D03*
X130000000Y-112000000D03*
X143000000Y-160000000D03*
X143000000Y-112000000D03*
X143000000Y-124000000D03*
X102000000Y-112000000D03*
X143000000Y-148000000D03*
X143000000Y-88000000D03*
X112000000Y-136000000D03*
X102000000Y-160000000D03*
X112000000Y-112000000D03*
X102000000Y-76000000D03*
X132000000Y-161000000D03*
X143000000Y-76000000D03*
X143000000Y-136000000D03*
X143000000Y-100000000D03*
X102000000Y-64000000D03*
X102000000Y-136000000D03*
X102000000Y-100000000D03*
X102000000Y-148000000D03*
%TO.N,/I2S_MIC_SD*%
X131802500Y-83633000D03*
%TO.N,/VBAT_SW*%
X139885500Y-72222400D03*
%TD*%
%TO.N,/BUTTON*%
D30*
X123380000Y-61000000D02*
X122545000Y-61000000D01*
X122545000Y-61000000D02*
X115149100Y-68395900D01*
X118026700Y-92117000D02*
X118026700Y-99000000D01*
X108176700Y-98823300D02*
X107000000Y-100000000D01*
X117885800Y-91976100D02*
X118026700Y-92117000D01*
X107000000Y-82840000D02*
X108176700Y-84016700D01*
X108176700Y-84016700D02*
X108176700Y-98823300D01*
X115149100Y-68395900D02*
X115149100Y-89239400D01*
X116250000Y-99000000D02*
X118026700Y-99000000D01*
X115149100Y-89239400D02*
X117885800Y-91976100D01*
X117885800Y-91976100D02*
X118026700Y-92117000D01*
%TO.N,/GND*%
D31*
X110000000Y-68000000D02*
X107500000Y-68000000D01*
X130701700Y-94000000D02*
X130701700Y-106600000D01*
X137500000Y-140000000D02*
X140000000Y-142500000D01*
X127580000Y-133080000D02*
X127660000Y-133000000D01*
X107500000Y-73000000D02*
X110000000Y-75500000D01*
X107500000Y-68000000D02*
X107500000Y-73000000D01*
X140000000Y-142500000D02*
X140000000Y-146000000D01*
X136000000Y-113000000D02*
X136000000Y-111898300D01*
X139455000Y-55920000D02*
X138620000Y-55920000D01*
X140000000Y-151500000D02*
X140000000Y-146000000D01*
X130701700Y-106600000D02*
X136000000Y-111898300D01*
X116250000Y-94000000D02*
X116250000Y-95750000D01*
X127660000Y-133000000D02*
X127660000Y-128000000D01*
X127660000Y-120000000D02*
X127660000Y-128000000D01*
X110000000Y-75500000D02*
X110000000Y-79000000D01*
X104000000Y-63500000D02*
X107500000Y-67000000D01*
X137500000Y-154000000D02*
X140000000Y-151500000D01*
X127580000Y-141000000D02*
X127580000Y-133080000D01*
X107500000Y-67000000D02*
X107500000Y-68000000D01*
X128750000Y-94000000D02*
X130701700Y-94000000D01*
X116250000Y-95750000D02*
X112000000Y-100000000D01*
%TO.N,/I2S_MIC_SD*%
D30*
X137529100Y-62090900D02*
X137529100Y-77906400D01*
X137529100Y-77906400D02*
X131802500Y-83633000D01*
X138620000Y-61000000D02*
X137529100Y-62090900D01*
X139455000Y-61000000D02*
X138620000Y-61000000D01*
%TO.N,/+3V3*%
D32*
X107000000Y-91273800D02*
X102787300Y-87061100D01*
X107000000Y-93000000D02*
X107000000Y-91273800D01*
X139455000Y-58460000D02*
X138620000Y-58460000D01*
X102787300Y-81212700D02*
X105000000Y-79000000D01*
X105000000Y-73000000D02*
X105000000Y-79000000D01*
X102787300Y-87061100D02*
X102787300Y-81212700D01*
%TO.N,/VBAT_SW*%
D33*
X139191100Y-72916800D02*
X139191100Y-130191100D01*
X139885500Y-72222400D02*
X139191100Y-72916800D01*
X135000000Y-132901700D02*
X135000000Y-140000000D01*
X134000000Y-129700000D02*
X134000000Y-131901700D01*
X134000000Y-131901700D02*
X135000000Y-132901700D01*
X135000000Y-146000000D02*
X135000000Y-140000000D01*
X135000000Y-154000000D02*
X135000000Y-146000000D01*
X139191100Y-130191100D02*
X140000000Y-131000000D01*
%TO.N,/VBAT_SENSE*%
D30*
X122545000Y-66080000D02*
X123380000Y-66080000D01*
X114160000Y-59000000D02*
X114160000Y-63500000D01*
%TO.N,/AMP_SD_SAFE*%
X125040000Y-141000000D02*
X125040000Y-127540000D01*
X125040000Y-127540000D02*
X117500000Y-120000000D01*
%TO.N,/AMP_GAIN*%
X122500000Y-138000000D02*
X122500000Y-141000000D01*
X117500000Y-128000000D02*
X117500000Y-133000000D01*
X117500000Y-133000000D02*
X122500000Y-138000000D01*
%TO.N,/I2S_AMP_BCLK*%
X102409200Y-115590800D02*
X104000000Y-114000000D01*
X114330400Y-142284300D02*
X102409200Y-130363100D01*
X116135700Y-142284300D02*
X114330400Y-142284300D01*
X102409200Y-130363100D02*
X102409200Y-115590800D01*
X123380000Y-53380000D02*
X122545000Y-53380000D01*
X117420000Y-141000000D02*
X116135700Y-142284300D01*
%TO.N,/I2S_AMP_LRC*%
X110396800Y-101945000D02*
X110396800Y-111603200D01*
X112047900Y-97137500D02*
X110384100Y-98801300D01*
X112047900Y-67595100D02*
X112047900Y-97137500D01*
X120991100Y-57473900D02*
X120991100Y-58651900D01*
X102918500Y-129038500D02*
X102918500Y-119081500D01*
X110384100Y-101932300D02*
X110396800Y-101945000D01*
X120991100Y-58651900D02*
X112047900Y-67595100D01*
X110384100Y-98801300D02*
X110384100Y-101932300D01*
X102918500Y-119081500D02*
X104000000Y-118000000D01*
X110384100Y-101932300D02*
X110396800Y-101945000D01*
X123380000Y-55920000D02*
X122545000Y-55920000D01*
X114880000Y-141000000D02*
X102918500Y-129038500D01*
X122545000Y-55920000D02*
X120991100Y-57473900D01*
X110396800Y-111603200D02*
X104000000Y-118000000D01*
%TO.N,/I2S_AMP_DIN*%
X104000000Y-125040000D02*
X104000000Y-122000000D01*
X123380000Y-58460000D02*
X122545000Y-58460000D01*
X110854600Y-115145400D02*
X110854600Y-99506800D01*
X113292400Y-67712600D02*
X122545000Y-58460000D01*
X104000000Y-122000000D02*
X110854600Y-115145400D01*
X110854600Y-99506800D02*
X113292400Y-97069000D01*
X113292400Y-97069000D02*
X113292400Y-67712600D01*
X119960000Y-141000000D02*
X104000000Y-125040000D01*
%TO.N,/I2S_MIC_SCK*%
X138620000Y-66080000D02*
X139455000Y-66080000D01*
%TO.N,/I2S_MIC_WS*%
X139455000Y-63540000D02*
X138620000Y-63540000D01*
%TO.N,/VBAT_IN*%
D33*
X136249900Y-115249900D02*
X136249900Y-122750100D01*
X136249900Y-122750100D02*
X134000000Y-125000000D01*
X136000000Y-115000000D02*
X136249900Y-115249900D01*
%TO.N,/AMP_SD*%
D30*
X115624100Y-73531600D02*
X115624100Y-89075500D01*
X118524600Y-113975400D02*
X117500000Y-115000000D01*
X122545000Y-63540000D02*
X119579200Y-66505800D01*
X118524600Y-91976000D02*
X118524600Y-113975400D01*
X115624100Y-89075500D02*
X118524600Y-91976000D01*
X123380000Y-63540000D02*
X122545000Y-63540000D01*
X119579200Y-66505800D02*
X119579200Y-69576500D01*
X119579200Y-69576500D02*
X115624100Y-73531600D01*
%TO.N,/SPK-*%
D34*
X123500000Y-163000000D02*
X123500000Y-156754000D01*
X123500000Y-156754000D02*
X120700000Y-153954000D01*
%TD*%
%TA.AperFunction,Conductor*%
%TO.N,/GND*%
G36*
X137002107Y-50400571D02*
G01*
X137514388Y-50418071D01*
X137522811Y-50418648D01*
X138030610Y-50470851D01*
X138038948Y-50471997D01*
X138541994Y-50558732D01*
X138550283Y-50560454D01*
X139046219Y-50681310D01*
X139054333Y-50683583D01*
X139540895Y-50838011D01*
X139548852Y-50840840D01*
X140023717Y-51028103D01*
X140031473Y-51031472D01*
X140492445Y-51250701D01*
X140499937Y-51254582D01*
X140922045Y-51491921D01*
X140944884Y-51504763D01*
X140952118Y-51509162D01*
X141378952Y-51789122D01*
X141385853Y-51793995D01*
X141609399Y-51963514D01*
X141792582Y-52102426D01*
X141799150Y-52107770D01*
X142097021Y-52367500D01*
X142159270Y-52421779D01*
X142183867Y-52443226D01*
X142190055Y-52449005D01*
X142550994Y-52809944D01*
X142556773Y-52816132D01*
X142892229Y-53200849D01*
X142897573Y-53207417D01*
X143205999Y-53614138D01*
X143210882Y-53621055D01*
X143490837Y-54047881D01*
X143495236Y-54055115D01*
X143745410Y-54500049D01*
X143749305Y-54507567D01*
X143968523Y-54968516D01*
X143971896Y-54976282D01*
X144159159Y-55451147D01*
X144161993Y-55459121D01*
X144240943Y-55707869D01*
X144316410Y-55945647D01*
X144318694Y-55953800D01*
X144439544Y-56449715D01*
X144441267Y-56458005D01*
X144527998Y-56961026D01*
X144529151Y-56969414D01*
X144581350Y-57477175D01*
X144581928Y-57485622D01*
X144593478Y-57823711D01*
X144598830Y-57980401D01*
X144599428Y-57997891D01*
X144599500Y-58002125D01*
X144599500Y-161997874D01*
X144599428Y-162002108D01*
X144581928Y-162514377D01*
X144581350Y-162522824D01*
X144529151Y-163030585D01*
X144527998Y-163038973D01*
X144441267Y-163541994D01*
X144439544Y-163550284D01*
X144318694Y-164046199D01*
X144316410Y-164054352D01*
X144161995Y-164540874D01*
X144159159Y-164548852D01*
X143971896Y-165023717D01*
X143968523Y-165031483D01*
X143749305Y-165492432D01*
X143745410Y-165499950D01*
X143495236Y-165944884D01*
X143490837Y-165952118D01*
X143210882Y-166378944D01*
X143205999Y-166385861D01*
X142897573Y-166792582D01*
X142892229Y-166799150D01*
X142556773Y-167183867D01*
X142550994Y-167190055D01*
X142190055Y-167550994D01*
X142183867Y-167556773D01*
X141799150Y-167892229D01*
X141792582Y-167897573D01*
X141385861Y-168205999D01*
X141378944Y-168210882D01*
X140952118Y-168490837D01*
X140944884Y-168495236D01*
X140499950Y-168745410D01*
X140492432Y-168749305D01*
X140031483Y-168968523D01*
X140023717Y-168971896D01*
X139548852Y-169159159D01*
X139540874Y-169161995D01*
X139054352Y-169316410D01*
X139046199Y-169318694D01*
X138550284Y-169439544D01*
X138541994Y-169441267D01*
X138038973Y-169527998D01*
X138030585Y-169529151D01*
X137522824Y-169581350D01*
X137514377Y-169581928D01*
X137041825Y-169598071D01*
X137002106Y-169599428D01*
X136997875Y-169599500D01*
X108002125Y-169599500D01*
X107997893Y-169599428D01*
X107955682Y-169597986D01*
X107485622Y-169581928D01*
X107477175Y-169581350D01*
X106969414Y-169529151D01*
X106961026Y-169527998D01*
X106458005Y-169441267D01*
X106449715Y-169439544D01*
X105953800Y-169318694D01*
X105945647Y-169316410D01*
X105459125Y-169161995D01*
X105451147Y-169159159D01*
X104976282Y-168971896D01*
X104968516Y-168968523D01*
X104507567Y-168749305D01*
X104500049Y-168745410D01*
X104055115Y-168495236D01*
X104047881Y-168490837D01*
X103621055Y-168210882D01*
X103614138Y-168205999D01*
X103207417Y-167897573D01*
X103200849Y-167892229D01*
X102816132Y-167556773D01*
X102809944Y-167550994D01*
X102449005Y-167190055D01*
X102443226Y-167183867D01*
X102107770Y-166799150D01*
X102102426Y-166792582D01*
X101926880Y-166561090D01*
X101793995Y-166385853D01*
X101789117Y-166378944D01*
X101782509Y-166368870D01*
X101509162Y-165952118D01*
X101504763Y-165944884D01*
X101445140Y-165838845D01*
X101254582Y-165499937D01*
X101250701Y-165492445D01*
X101031472Y-165031473D01*
X101028102Y-165023717D01*
X101003236Y-164960662D01*
X100969076Y-164874038D01*
X103399500Y-164874038D01*
X103399500Y-165125961D01*
X103438910Y-165374785D01*
X103516760Y-165614383D01*
X103631132Y-165838848D01*
X103779201Y-166042649D01*
X103779205Y-166042654D01*
X103957345Y-166220794D01*
X103957350Y-166220798D01*
X104135117Y-166349952D01*
X104161155Y-166368870D01*
X104297635Y-166438410D01*
X104385616Y-166483239D01*
X104385618Y-166483239D01*
X104385621Y-166483241D01*
X104625215Y-166561090D01*
X104874038Y-166600500D01*
X104874039Y-166600500D01*
X105125961Y-166600500D01*
X105125962Y-166600500D01*
X105374785Y-166561090D01*
X105614379Y-166483241D01*
X105838845Y-166368870D01*
X106042656Y-166220793D01*
X106220793Y-166042656D01*
X106368870Y-165838845D01*
X106483241Y-165614379D01*
X106561090Y-165374785D01*
X106600500Y-165125962D01*
X106600500Y-164874038D01*
X138399500Y-164874038D01*
X138399500Y-165125961D01*
X138438910Y-165374785D01*
X138516760Y-165614383D01*
X138631132Y-165838848D01*
X138779201Y-166042649D01*
X138779205Y-166042654D01*
X138957345Y-166220794D01*
X138957350Y-166220798D01*
X139135117Y-166349952D01*
X139161155Y-166368870D01*
X139297635Y-166438410D01*
X139385616Y-166483239D01*
X139385618Y-166483239D01*
X139385621Y-166483241D01*
X139625215Y-166561090D01*
X139874038Y-166600500D01*
X139874039Y-166600500D01*
X140125961Y-166600500D01*
X140125962Y-166600500D01*
X140374785Y-166561090D01*
X140614379Y-166483241D01*
X140838845Y-166368870D01*
X141042656Y-166220793D01*
X141220793Y-166042656D01*
X141368870Y-165838845D01*
X141483241Y-165614379D01*
X141561090Y-165374785D01*
X141600500Y-165125962D01*
X141600500Y-164874038D01*
X141561090Y-164625215D01*
X141483241Y-164385621D01*
X141483239Y-164385618D01*
X141483239Y-164385616D01*
X141441747Y-164304184D01*
X141368870Y-164161155D01*
X141301768Y-164068797D01*
X141220798Y-163957350D01*
X141220794Y-163957345D01*
X141042654Y-163779205D01*
X141042649Y-163779201D01*
X140838848Y-163631132D01*
X140838847Y-163631131D01*
X140838845Y-163631130D01*
X140768747Y-163595413D01*
X140614383Y-163516760D01*
X140374785Y-163438910D01*
X140125962Y-163399500D01*
X139874038Y-163399500D01*
X139749626Y-163419205D01*
X139625214Y-163438910D01*
X139385616Y-163516760D01*
X139161151Y-163631132D01*
X138957350Y-163779201D01*
X138957345Y-163779205D01*
X138779205Y-163957345D01*
X138779201Y-163957350D01*
X138631132Y-164161151D01*
X138516760Y-164385616D01*
X138438910Y-164625214D01*
X138399500Y-164874038D01*
X106600500Y-164874038D01*
X106561090Y-164625215D01*
X106483241Y-164385621D01*
X106483239Y-164385618D01*
X106483239Y-164385616D01*
X106441747Y-164304184D01*
X106368870Y-164161155D01*
X106301768Y-164068797D01*
X106220798Y-163957350D01*
X106220794Y-163957345D01*
X106042654Y-163779205D01*
X106042649Y-163779201D01*
X105838848Y-163631132D01*
X105838847Y-163631131D01*
X105838845Y-163631130D01*
X105768747Y-163595413D01*
X105614383Y-163516760D01*
X105374785Y-163438910D01*
X105125962Y-163399500D01*
X104874038Y-163399500D01*
X104749626Y-163419205D01*
X104625214Y-163438910D01*
X104385616Y-163516760D01*
X104161151Y-163631132D01*
X103957350Y-163779201D01*
X103957345Y-163779205D01*
X103779205Y-163957345D01*
X103779201Y-163957350D01*
X103631132Y-164161151D01*
X103516760Y-164385616D01*
X103438910Y-164625214D01*
X103399500Y-164874038D01*
X100969076Y-164874038D01*
X100870953Y-164625215D01*
X100840840Y-164548852D01*
X100838011Y-164540895D01*
X100683583Y-164054333D01*
X100681310Y-164046219D01*
X100560454Y-163550283D01*
X100558732Y-163541994D01*
X100527140Y-163358767D01*
X100471997Y-163038948D01*
X100470851Y-163030610D01*
X100418648Y-162522811D01*
X100418071Y-162514376D01*
X100416791Y-162476918D01*
X100411675Y-162327135D01*
X120649500Y-162327135D01*
X120649500Y-163672870D01*
X120649501Y-163672876D01*
X120655908Y-163732483D01*
X120706202Y-163867328D01*
X120706206Y-163867335D01*
X120792452Y-163982544D01*
X120792455Y-163982547D01*
X120907664Y-164068793D01*
X120907671Y-164068797D01*
X121042517Y-164119091D01*
X121042516Y-164119091D01*
X121049444Y-164119835D01*
X121102127Y-164125500D01*
X121897872Y-164125499D01*
X121957483Y-164119091D01*
X122092331Y-164068796D01*
X122207546Y-163982546D01*
X122293796Y-163867331D01*
X122344091Y-163732483D01*
X122350500Y-163672873D01*
X122350499Y-162327128D01*
X122344091Y-162267517D01*
X122293796Y-162132669D01*
X122293795Y-162132668D01*
X122293793Y-162132664D01*
X122207547Y-162017455D01*
X122207544Y-162017452D01*
X122092335Y-161931206D01*
X122092328Y-161931202D01*
X121957482Y-161880908D01*
X121957483Y-161880908D01*
X121897883Y-161874501D01*
X121897881Y-161874500D01*
X121897873Y-161874500D01*
X121897864Y-161874500D01*
X121102129Y-161874500D01*
X121102123Y-161874501D01*
X121042516Y-161880908D01*
X120907671Y-161931202D01*
X120907664Y-161931206D01*
X120792455Y-162017452D01*
X120792452Y-162017455D01*
X120706206Y-162132664D01*
X120706202Y-162132671D01*
X120655908Y-162267517D01*
X120650036Y-162322139D01*
X120649501Y-162327123D01*
X120649500Y-162327135D01*
X100411675Y-162327135D01*
X100400572Y-162002107D01*
X100400500Y-161997874D01*
X100400500Y-157896579D01*
X102950000Y-157896579D01*
X102950000Y-158103420D01*
X102990348Y-158306266D01*
X102990350Y-158306274D01*
X103069502Y-158497363D01*
X103069502Y-158497364D01*
X103158021Y-158629843D01*
X103158023Y-158629843D01*
X103669397Y-158118470D01*
X103673852Y-158135095D01*
X103719930Y-158214905D01*
X103785095Y-158280070D01*
X103864905Y-158326148D01*
X103881529Y-158330602D01*
X103370155Y-158841975D01*
X103502631Y-158930494D01*
X103502641Y-158930499D01*
X103693725Y-159009649D01*
X103693733Y-159009651D01*
X103896579Y-159049999D01*
X103896583Y-159050000D01*
X104103417Y-159050000D01*
X104103420Y-159049999D01*
X104306266Y-159009651D01*
X104306274Y-159009649D01*
X104497359Y-158930499D01*
X104629844Y-158841976D01*
X104118471Y-158330602D01*
X104135095Y-158326148D01*
X104214905Y-158280070D01*
X104280070Y-158214905D01*
X104326148Y-158135095D01*
X104330602Y-158118470D01*
X104841976Y-158629844D01*
X104930499Y-158497359D01*
X105009649Y-158306274D01*
X105009651Y-158306266D01*
X105049999Y-158103420D01*
X105050000Y-158103417D01*
X105050000Y-157896583D01*
X105049999Y-157896579D01*
X105009651Y-157693733D01*
X105009649Y-157693725D01*
X104930499Y-157502641D01*
X104930494Y-157502631D01*
X104841975Y-157370155D01*
X104330602Y-157881528D01*
X104326148Y-157864905D01*
X104280070Y-157785095D01*
X104214905Y-157719930D01*
X104135095Y-157673852D01*
X104118470Y-157669397D01*
X104629843Y-157158023D01*
X104629843Y-157158021D01*
X104497363Y-157069502D01*
X104306274Y-156990350D01*
X104306266Y-156990348D01*
X104103420Y-156950000D01*
X103896579Y-156950000D01*
X103693733Y-156990348D01*
X103693725Y-156990350D01*
X103502639Y-157069501D01*
X103370155Y-157158023D01*
X103370154Y-157158023D01*
X103881529Y-157669397D01*
X103864905Y-157673852D01*
X103785095Y-157719930D01*
X103719930Y-157785095D01*
X103673852Y-157864905D01*
X103669397Y-157881528D01*
X103158023Y-157370154D01*
X103158023Y-157370155D01*
X103069501Y-157502639D01*
X102990350Y-157693725D01*
X102990348Y-157693733D01*
X102950000Y-157896579D01*
X100400500Y-157896579D01*
X100400500Y-152400000D01*
X114000000Y-152400000D01*
X120329507Y-152400000D01*
X120396546Y-152419685D01*
X120442301Y-152472489D01*
X120452245Y-152541647D01*
X120423220Y-152605203D01*
X120367826Y-152641930D01*
X120270976Y-152673399D01*
X120181585Y-152702444D01*
X119992179Y-152798951D01*
X119820213Y-152923890D01*
X119669890Y-153074213D01*
X119544951Y-153246179D01*
X119448444Y-153435585D01*
X119382753Y-153637760D01*
X119349834Y-153845606D01*
X119349500Y-153847713D01*
X119349500Y-154060287D01*
X119382754Y-154270243D01*
X119384379Y-154275245D01*
X119448444Y-154472414D01*
X119544951Y-154661820D01*
X119669890Y-154833786D01*
X119820213Y-154984109D01*
X119992179Y-155109048D01*
X119992181Y-155109049D01*
X119992184Y-155109051D01*
X120181588Y-155205557D01*
X120383757Y-155271246D01*
X120593713Y-155304500D01*
X120593714Y-155304500D01*
X120806286Y-155304500D01*
X120806287Y-155304500D01*
X120916111Y-155287105D01*
X121021055Y-155270484D01*
X121021315Y-155272128D01*
X121083852Y-155275250D01*
X121130711Y-155304657D01*
X122813181Y-156987127D01*
X122846666Y-157048450D01*
X122849500Y-157074808D01*
X122849500Y-162130068D01*
X122829815Y-162197107D01*
X122828602Y-162198959D01*
X122746295Y-162322139D01*
X122682184Y-162476917D01*
X122682182Y-162476925D01*
X122649500Y-162641228D01*
X122649500Y-163358771D01*
X122682182Y-163523074D01*
X122682184Y-163523082D01*
X122746295Y-163677860D01*
X122839373Y-163817162D01*
X122957837Y-163935626D01*
X123028055Y-163982544D01*
X123097137Y-164028703D01*
X123251918Y-164092816D01*
X123416223Y-164125498D01*
X123416228Y-164125499D01*
X123416232Y-164125500D01*
X123416233Y-164125500D01*
X123583768Y-164125500D01*
X123583769Y-164125499D01*
X123748082Y-164092816D01*
X123902863Y-164028703D01*
X124042162Y-163935626D01*
X124160626Y-163817162D01*
X124253703Y-163677863D01*
X124317816Y-163523082D01*
X124350500Y-163358767D01*
X124350500Y-162641233D01*
X124317816Y-162476918D01*
X124255771Y-162327129D01*
X124253704Y-162322139D01*
X124222209Y-162275004D01*
X124171398Y-162198959D01*
X124150520Y-162132281D01*
X124150500Y-162130068D01*
X124150500Y-156689928D01*
X124125502Y-156564261D01*
X124125501Y-156564260D01*
X124125501Y-156564256D01*
X124076465Y-156445873D01*
X124005277Y-156339331D01*
X124005275Y-156339329D01*
X124005273Y-156339326D01*
X123182128Y-155516181D01*
X123148643Y-155454858D01*
X123153627Y-155385166D01*
X123195499Y-155329233D01*
X123260963Y-155304816D01*
X123269809Y-155304500D01*
X125324676Y-155304500D01*
X125324677Y-155304499D01*
X125397740Y-155289966D01*
X125480601Y-155234601D01*
X125535966Y-155151740D01*
X125550500Y-155078674D01*
X125550500Y-152829326D01*
X125550500Y-152829323D01*
X125550499Y-152829321D01*
X125535967Y-152756264D01*
X125535966Y-152756260D01*
X125480601Y-152673399D01*
X125411310Y-152627101D01*
X125366507Y-152573491D01*
X125357799Y-152504166D01*
X125387953Y-152441138D01*
X125447396Y-152404418D01*
X125480202Y-152400000D01*
X131000000Y-152400000D01*
X131000000Y-143000000D01*
X114000000Y-143000000D01*
X114000000Y-152400000D01*
X100400500Y-152400000D01*
X100400500Y-110124000D01*
X100420185Y-110056961D01*
X100472989Y-110011206D01*
X100524500Y-110000000D01*
X109897300Y-110000000D01*
X109964339Y-110019685D01*
X110010094Y-110072489D01*
X110021300Y-110124000D01*
X110021300Y-111396300D01*
X110001615Y-111463339D01*
X109984981Y-111483981D01*
X104448835Y-117020126D01*
X104387512Y-117053611D01*
X104317820Y-117048627D01*
X104313704Y-117047007D01*
X104291836Y-117037949D01*
X104291828Y-117037947D01*
X104098543Y-116999500D01*
X104098541Y-116999500D01*
X103901459Y-116999500D01*
X103901457Y-116999500D01*
X103708170Y-117037947D01*
X103708160Y-117037950D01*
X103526092Y-117113364D01*
X103526079Y-117113371D01*
X103362218Y-117222860D01*
X103362214Y-117222863D01*
X103222863Y-117362214D01*
X103222860Y-117362218D01*
X103113371Y-117526079D01*
X103113364Y-117526092D01*
X103037950Y-117708160D01*
X103037947Y-117708170D01*
X103030317Y-117746531D01*
X102997932Y-117808442D01*
X102937216Y-117843016D01*
X102867447Y-117839276D01*
X102810775Y-117798409D01*
X102785193Y-117733391D01*
X102784700Y-117722339D01*
X102784700Y-115797698D01*
X102804385Y-115730659D01*
X102821015Y-115710021D01*
X103551165Y-114979870D01*
X103612486Y-114946387D01*
X103682177Y-114951371D01*
X103686243Y-114952970D01*
X103708165Y-114962051D01*
X103708169Y-114962051D01*
X103708170Y-114962052D01*
X103901456Y-115000500D01*
X103901459Y-115000500D01*
X104098543Y-115000500D01*
X104228582Y-114974632D01*
X104291835Y-114962051D01*
X104473914Y-114886632D01*
X104637782Y-114777139D01*
X104777139Y-114637782D01*
X104886632Y-114473914D01*
X104962051Y-114291835D01*
X104983496Y-114184024D01*
X105000500Y-114098543D01*
X105000500Y-113901456D01*
X104962052Y-113708170D01*
X104962051Y-113708169D01*
X104962051Y-113708165D01*
X104958285Y-113699073D01*
X104886635Y-113526092D01*
X104886628Y-113526079D01*
X104777139Y-113362218D01*
X104777136Y-113362214D01*
X104637785Y-113222863D01*
X104637781Y-113222860D01*
X104473920Y-113113371D01*
X104473907Y-113113364D01*
X104291839Y-113037950D01*
X104291829Y-113037947D01*
X104098543Y-112999500D01*
X104098541Y-112999500D01*
X103901459Y-112999500D01*
X103901457Y-112999500D01*
X103708170Y-113037947D01*
X103708160Y-113037950D01*
X103526092Y-113113364D01*
X103526079Y-113113371D01*
X103362218Y-113222860D01*
X103362214Y-113222863D01*
X103222863Y-113362214D01*
X103222860Y-113362218D01*
X103113371Y-113526079D01*
X103113364Y-113526092D01*
X103037950Y-113708160D01*
X103037947Y-113708170D01*
X102999500Y-113901456D01*
X102999500Y-113901459D01*
X102999500Y-114098541D01*
X102999500Y-114098543D01*
X102999499Y-114098543D01*
X103037947Y-114291828D01*
X103037949Y-114291836D01*
X103047007Y-114313704D01*
X103054474Y-114383174D01*
X103023198Y-114445652D01*
X103020126Y-114448835D01*
X102178638Y-115290325D01*
X102108727Y-115360235D01*
X102108725Y-115360237D01*
X102108725Y-115360238D01*
X102086995Y-115397876D01*
X102059291Y-115445860D01*
X102059290Y-115445863D01*
X102039185Y-115520897D01*
X102039184Y-115520901D01*
X102033700Y-115541365D01*
X102033700Y-130412536D01*
X102046477Y-130460223D01*
X102046491Y-130460273D01*
X102046495Y-130460286D01*
X102059290Y-130508038D01*
X102059291Y-130508040D01*
X102059292Y-130508043D01*
X102081550Y-130546594D01*
X102081551Y-130546595D01*
X102108723Y-130593659D01*
X102108724Y-130593660D01*
X102108726Y-130593663D01*
X114099837Y-142584775D01*
X114185463Y-142634211D01*
X114280964Y-142659800D01*
X114280965Y-142659800D01*
X114280966Y-142659800D01*
X116185135Y-142659800D01*
X116185136Y-142659800D01*
X116232886Y-142647005D01*
X116280638Y-142634210D01*
X116366262Y-142584775D01*
X116436175Y-142514862D01*
X116815520Y-142135515D01*
X116876841Y-142102032D01*
X116946532Y-142107016D01*
X116958256Y-142112169D01*
X116959157Y-142112543D01*
X116959165Y-142112545D01*
X116959168Y-142112547D01*
X117029862Y-142135517D01*
X117138881Y-142170940D01*
X117325514Y-142200500D01*
X117325519Y-142200500D01*
X117514486Y-142200500D01*
X117701118Y-142170940D01*
X117880832Y-142112547D01*
X118049199Y-142026760D01*
X118202073Y-141915690D01*
X118335690Y-141782073D01*
X118446760Y-141629199D01*
X118532547Y-141460832D01*
X118572069Y-141339195D01*
X118611507Y-141281521D01*
X118675866Y-141254323D01*
X118744712Y-141266238D01*
X118796188Y-141313482D01*
X118807931Y-141339196D01*
X118847454Y-141460836D01*
X118933240Y-141629199D01*
X119044310Y-141782073D01*
X119177927Y-141915690D01*
X119330801Y-142026760D01*
X119371967Y-142047735D01*
X119499163Y-142112545D01*
X119499165Y-142112545D01*
X119499168Y-142112547D01*
X119569862Y-142135517D01*
X119678881Y-142170940D01*
X119865514Y-142200500D01*
X119865519Y-142200500D01*
X120054486Y-142200500D01*
X120241118Y-142170940D01*
X120420832Y-142112547D01*
X120589199Y-142026760D01*
X120742073Y-141915690D01*
X120875690Y-141782073D01*
X120986760Y-141629199D01*
X121072547Y-141460832D01*
X121112069Y-141339195D01*
X121151507Y-141281521D01*
X121215866Y-141254323D01*
X121284712Y-141266238D01*
X121336188Y-141313482D01*
X121347931Y-141339196D01*
X121387454Y-141460836D01*
X121473240Y-141629199D01*
X121584310Y-141782073D01*
X121717927Y-141915690D01*
X121870801Y-142026760D01*
X121911967Y-142047735D01*
X122039163Y-142112545D01*
X122039165Y-142112545D01*
X122039168Y-142112547D01*
X122109862Y-142135517D01*
X122218881Y-142170940D01*
X122405514Y-142200500D01*
X122405519Y-142200500D01*
X122594486Y-142200500D01*
X122781118Y-142170940D01*
X122960832Y-142112547D01*
X123129199Y-142026760D01*
X123282073Y-141915690D01*
X123415690Y-141782073D01*
X123526760Y-141629199D01*
X123612547Y-141460832D01*
X123652069Y-141339195D01*
X123691507Y-141281521D01*
X123755866Y-141254323D01*
X123824712Y-141266238D01*
X123876188Y-141313482D01*
X123887931Y-141339196D01*
X123927454Y-141460836D01*
X124013240Y-141629199D01*
X124124310Y-141782073D01*
X124257927Y-141915690D01*
X124410801Y-142026760D01*
X124451967Y-142047735D01*
X124579163Y-142112545D01*
X124579165Y-142112545D01*
X124579168Y-142112547D01*
X124649862Y-142135517D01*
X124758881Y-142170940D01*
X124945514Y-142200500D01*
X124945519Y-142200500D01*
X125134486Y-142200500D01*
X125321118Y-142170940D01*
X125500832Y-142112547D01*
X125669199Y-142026760D01*
X125822073Y-141915690D01*
X125955690Y-141782073D01*
X126066760Y-141629199D01*
X126152547Y-141460832D01*
X126166046Y-141419286D01*
X126205482Y-141361612D01*
X126269840Y-141334413D01*
X126338686Y-141346327D01*
X126390163Y-141393571D01*
X126401907Y-141419286D01*
X126421581Y-141479837D01*
X126510904Y-141655143D01*
X126595832Y-141772034D01*
X126595833Y-141772035D01*
X127136329Y-141231538D01*
X127179901Y-141307007D01*
X127272993Y-141400099D01*
X127348460Y-141443670D01*
X126807963Y-141984166D01*
X126924858Y-142069095D01*
X126924864Y-142069099D01*
X127100164Y-142158418D01*
X127287294Y-142219221D01*
X127481618Y-142250000D01*
X127678382Y-142250000D01*
X127872705Y-142219221D01*
X128059835Y-142158418D01*
X128235143Y-142069095D01*
X128352034Y-141984166D01*
X127811538Y-141443670D01*
X127887007Y-141400099D01*
X127980099Y-141307007D01*
X128023670Y-141231539D01*
X128564166Y-141772035D01*
X128564166Y-141772034D01*
X128649097Y-141655141D01*
X128649097Y-141655140D01*
X128685015Y-141584648D01*
X128732989Y-141533851D01*
X128800810Y-141517056D01*
X128866945Y-141539593D01*
X128910397Y-141594308D01*
X128919500Y-141640942D01*
X128919500Y-141974678D01*
X128934032Y-142047735D01*
X128934033Y-142047739D01*
X128934034Y-142047740D01*
X128989399Y-142130601D01*
X129049772Y-142170940D01*
X129072260Y-142185966D01*
X129072264Y-142185967D01*
X129145321Y-142200499D01*
X129145324Y-142200500D01*
X129145326Y-142200500D01*
X131094676Y-142200500D01*
X131094677Y-142200499D01*
X131167740Y-142185966D01*
X131250601Y-142130601D01*
X131305966Y-142047740D01*
X131320500Y-141974674D01*
X131320500Y-140025326D01*
X131320500Y-140025323D01*
X131320499Y-140025321D01*
X131305967Y-139952264D01*
X131305966Y-139952260D01*
X131302678Y-139947339D01*
X131250601Y-139869399D01*
X131167740Y-139814034D01*
X131167739Y-139814033D01*
X131167735Y-139814032D01*
X131094677Y-139799500D01*
X131094674Y-139799500D01*
X129145326Y-139799500D01*
X129145323Y-139799500D01*
X129072264Y-139814032D01*
X129072260Y-139814033D01*
X128989399Y-139869399D01*
X128934033Y-139952260D01*
X128934032Y-139952264D01*
X128919500Y-140025321D01*
X128919500Y-140359057D01*
X128899815Y-140426096D01*
X128847011Y-140471851D01*
X128777853Y-140481795D01*
X128714297Y-140452770D01*
X128685015Y-140415352D01*
X128649099Y-140344864D01*
X128649095Y-140344858D01*
X128564166Y-140227964D01*
X128564166Y-140227963D01*
X128023670Y-140768460D01*
X127980099Y-140692993D01*
X127887007Y-140599901D01*
X127811539Y-140556329D01*
X128352035Y-140015833D01*
X128352034Y-140015832D01*
X128235143Y-139930904D01*
X128059835Y-139841581D01*
X127872705Y-139780778D01*
X127678382Y-139750000D01*
X127481618Y-139750000D01*
X127287294Y-139780778D01*
X127100164Y-139841581D01*
X126924855Y-139930905D01*
X126924852Y-139930907D01*
X126807964Y-140015832D01*
X126807963Y-140015832D01*
X127348461Y-140556329D01*
X127272993Y-140599901D01*
X127179901Y-140692993D01*
X127136329Y-140768460D01*
X126595832Y-140227963D01*
X126595832Y-140227964D01*
X126510907Y-140344852D01*
X126510905Y-140344855D01*
X126421579Y-140520166D01*
X126401906Y-140580714D01*
X126362468Y-140638389D01*
X126298109Y-140665586D01*
X126229263Y-140653671D01*
X126177788Y-140606426D01*
X126166046Y-140580714D01*
X126152547Y-140539168D01*
X126066760Y-140370801D01*
X125955690Y-140217927D01*
X125822073Y-140084310D01*
X125669199Y-139973240D01*
X125500830Y-139887451D01*
X125496339Y-139885592D01*
X125496768Y-139884556D01*
X125443489Y-139848107D01*
X125416305Y-139783743D01*
X125415500Y-139769635D01*
X125415500Y-132913428D01*
X126560000Y-132913428D01*
X126560000Y-133086571D01*
X126587085Y-133257584D01*
X126640591Y-133422257D01*
X126719198Y-133576528D01*
X126783219Y-133664646D01*
X126783220Y-133664647D01*
X127289533Y-133158334D01*
X127339920Y-133245606D01*
X127414394Y-133320080D01*
X127501665Y-133370465D01*
X126995351Y-133876778D01*
X126995352Y-133876780D01*
X127083471Y-133940801D01*
X127237742Y-134019408D01*
X127402415Y-134072914D01*
X127573429Y-134100000D01*
X127746571Y-134100000D01*
X127917584Y-134072914D01*
X128082257Y-134019408D01*
X128236525Y-133940803D01*
X128324646Y-133876778D01*
X128324647Y-133876778D01*
X127818334Y-133370465D01*
X127905606Y-133320080D01*
X127980080Y-133245606D01*
X128030465Y-133158334D01*
X128536778Y-133664647D01*
X128536778Y-133664646D01*
X128600803Y-133576525D01*
X128679408Y-133422257D01*
X128732914Y-133257584D01*
X128760000Y-133086571D01*
X128760000Y-132913428D01*
X128732914Y-132742415D01*
X128679408Y-132577742D01*
X128600801Y-132423471D01*
X128536780Y-132335352D01*
X128536778Y-132335351D01*
X128030465Y-132841664D01*
X127980080Y-132754394D01*
X127905606Y-132679920D01*
X127818334Y-132629534D01*
X128324647Y-132123220D01*
X128324646Y-132123219D01*
X128236528Y-132059198D01*
X128082257Y-131980591D01*
X127917584Y-131927085D01*
X127746571Y-131900000D01*
X127573429Y-131900000D01*
X127402415Y-131927085D01*
X127237742Y-131980591D01*
X127083478Y-132059194D01*
X126995352Y-132123220D01*
X127501665Y-132629533D01*
X127414394Y-132679920D01*
X127339920Y-132754394D01*
X127289533Y-132841665D01*
X126783220Y-132335352D01*
X126719194Y-132423478D01*
X126640591Y-132577742D01*
X126587085Y-132742415D01*
X126560000Y-132913428D01*
X125415500Y-132913428D01*
X125415500Y-127913428D01*
X126560000Y-127913428D01*
X126560000Y-128086571D01*
X126587085Y-128257584D01*
X126640591Y-128422257D01*
X126719198Y-128576528D01*
X126783219Y-128664646D01*
X126783220Y-128664647D01*
X127289533Y-128158334D01*
X127339920Y-128245606D01*
X127414394Y-128320080D01*
X127501665Y-128370465D01*
X126995351Y-128876778D01*
X126995352Y-128876780D01*
X127083471Y-128940801D01*
X127237742Y-129019408D01*
X127402415Y-129072914D01*
X127573429Y-129100000D01*
X127746571Y-129100000D01*
X127917584Y-129072914D01*
X128082257Y-129019408D01*
X128236525Y-128940803D01*
X128324646Y-128876778D01*
X128324647Y-128876778D01*
X127818334Y-128370465D01*
X127905606Y-128320080D01*
X127980080Y-128245606D01*
X128030465Y-128158334D01*
X128536778Y-128664647D01*
X128536778Y-128664646D01*
X128600803Y-128576525D01*
X128679408Y-128422257D01*
X128732914Y-128257584D01*
X128745943Y-128175321D01*
X132249500Y-128175321D01*
X132249500Y-131224678D01*
X132264032Y-131297735D01*
X132264033Y-131297739D01*
X132264034Y-131297740D01*
X132319399Y-131380601D01*
X132402260Y-131435966D01*
X132402264Y-131435967D01*
X132475321Y-131450499D01*
X132475324Y-131450500D01*
X132475326Y-131450500D01*
X133125500Y-131450500D01*
X133192539Y-131470185D01*
X133238294Y-131522989D01*
X133249500Y-131574500D01*
X133249500Y-131975618D01*
X133249500Y-131975620D01*
X133249499Y-131975620D01*
X133278340Y-132120607D01*
X133278343Y-132120617D01*
X133334914Y-132257192D01*
X133367812Y-132306427D01*
X133367813Y-132306430D01*
X133417046Y-132380114D01*
X133417052Y-132380121D01*
X134213181Y-133176248D01*
X134246666Y-133237571D01*
X134249500Y-133263929D01*
X134249500Y-138912819D01*
X134229815Y-138979858D01*
X134199812Y-139012085D01*
X134092452Y-139092455D01*
X134006206Y-139207664D01*
X134006202Y-139207671D01*
X133955908Y-139342517D01*
X133949501Y-139402116D01*
X133949501Y-139402123D01*
X133949500Y-139402135D01*
X133949500Y-140597870D01*
X133949501Y-140597876D01*
X133955908Y-140657483D01*
X134006202Y-140792328D01*
X134006206Y-140792335D01*
X134075358Y-140884709D01*
X134092454Y-140907546D01*
X134199811Y-140987914D01*
X134241682Y-141043847D01*
X134249500Y-141087180D01*
X134249500Y-145213505D01*
X134229815Y-145280544D01*
X134213181Y-145301186D01*
X134184025Y-145330341D01*
X134184024Y-145330342D01*
X134069058Y-145502403D01*
X133989870Y-145693579D01*
X133989868Y-145693587D01*
X133949500Y-145896530D01*
X133949500Y-146103469D01*
X133989868Y-146306412D01*
X133989870Y-146306420D01*
X134069058Y-146497596D01*
X134180676Y-146664647D01*
X134184023Y-146669655D01*
X134213181Y-146698813D01*
X134246666Y-146760134D01*
X134249500Y-146786494D01*
X134249500Y-152912819D01*
X134229815Y-152979858D01*
X134199812Y-153012085D01*
X134092452Y-153092455D01*
X134006206Y-153207664D01*
X134006202Y-153207671D01*
X133955908Y-153342517D01*
X133949501Y-153402116D01*
X133949501Y-153402123D01*
X133949500Y-153402135D01*
X133949500Y-154597870D01*
X133949501Y-154597876D01*
X133955908Y-154657483D01*
X134006202Y-154792328D01*
X134006206Y-154792335D01*
X134092452Y-154907544D01*
X134092455Y-154907547D01*
X134207664Y-154993793D01*
X134207671Y-154993797D01*
X134342517Y-155044091D01*
X134342516Y-155044091D01*
X134349444Y-155044835D01*
X134402127Y-155050500D01*
X135597872Y-155050499D01*
X135657483Y-155044091D01*
X135792331Y-154993796D01*
X135907546Y-154907546D01*
X135993796Y-154792331D01*
X136044091Y-154657483D01*
X136050500Y-154597873D01*
X136050499Y-153913428D01*
X136400000Y-153913428D01*
X136400000Y-154086571D01*
X136427085Y-154257584D01*
X136480591Y-154422257D01*
X136559198Y-154576528D01*
X136623219Y-154664646D01*
X136623220Y-154664647D01*
X137129533Y-154158334D01*
X137179920Y-154245606D01*
X137254394Y-154320080D01*
X137341665Y-154370465D01*
X136835351Y-154876778D01*
X136835352Y-154876780D01*
X136923471Y-154940801D01*
X137077742Y-155019408D01*
X137242415Y-155072914D01*
X137413429Y-155100000D01*
X137586571Y-155100000D01*
X137757584Y-155072914D01*
X137922257Y-155019408D01*
X138076525Y-154940803D01*
X138164646Y-154876778D01*
X138164647Y-154876778D01*
X137658334Y-154370465D01*
X137745606Y-154320080D01*
X137820080Y-154245606D01*
X137870466Y-154158334D01*
X138376778Y-154664647D01*
X138376778Y-154664646D01*
X138440803Y-154576525D01*
X138519408Y-154422257D01*
X138572914Y-154257584D01*
X138600000Y-154086571D01*
X138600000Y-153913428D01*
X138572914Y-153742415D01*
X138519408Y-153577742D01*
X138440801Y-153423471D01*
X138376780Y-153335352D01*
X138376778Y-153335351D01*
X137870465Y-153841664D01*
X137820080Y-153754394D01*
X137745606Y-153679920D01*
X137658334Y-153629534D01*
X138164647Y-153123220D01*
X138164646Y-153123219D01*
X138076528Y-153059198D01*
X137922257Y-152980591D01*
X137757584Y-152927085D01*
X137586571Y-152900000D01*
X137413429Y-152900000D01*
X137242415Y-152927085D01*
X137077742Y-152980591D01*
X136923478Y-153059194D01*
X136835352Y-153123220D01*
X137341665Y-153629533D01*
X137254394Y-153679920D01*
X137179920Y-153754394D01*
X137129534Y-153841665D01*
X136623220Y-153335352D01*
X136559194Y-153423478D01*
X136480591Y-153577742D01*
X136427085Y-153742415D01*
X136400000Y-153913428D01*
X136050499Y-153913428D01*
X136050499Y-153402128D01*
X136044091Y-153342517D01*
X136041419Y-153335352D01*
X135996088Y-153213812D01*
X135993797Y-153207672D01*
X135993797Y-153207671D01*
X135993796Y-153207669D01*
X135993794Y-153207666D01*
X135993793Y-153207664D01*
X135907547Y-153092455D01*
X135883172Y-153074208D01*
X135863122Y-153059198D01*
X135800188Y-153012085D01*
X135758318Y-152956151D01*
X135750500Y-152912819D01*
X135750500Y-146786494D01*
X135770185Y-146719455D01*
X135786815Y-146698816D01*
X135815977Y-146669655D01*
X135930941Y-146497598D01*
X136010130Y-146306420D01*
X136050500Y-146103465D01*
X136050500Y-145913428D01*
X138900000Y-145913428D01*
X138900000Y-146086571D01*
X138927085Y-146257584D01*
X138980591Y-146422257D01*
X139059198Y-146576528D01*
X139123219Y-146664646D01*
X139123220Y-146664647D01*
X139629533Y-146158334D01*
X139679920Y-146245606D01*
X139754394Y-146320080D01*
X139841665Y-146370465D01*
X139335351Y-146876778D01*
X139335352Y-146876780D01*
X139423471Y-146940801D01*
X139577742Y-147019408D01*
X139742415Y-147072914D01*
X139913429Y-147100000D01*
X140086571Y-147100000D01*
X140257584Y-147072914D01*
X140422257Y-147019408D01*
X140576525Y-146940803D01*
X140664646Y-146876778D01*
X140664647Y-146876778D01*
X140158334Y-146370465D01*
X140245606Y-146320080D01*
X140320080Y-146245606D01*
X140370465Y-146158334D01*
X140876778Y-146664647D01*
X140876778Y-146664646D01*
X140940803Y-146576525D01*
X141019408Y-146422257D01*
X141072914Y-146257584D01*
X141100000Y-146086571D01*
X141100000Y-145913428D01*
X141072914Y-145742415D01*
X141019408Y-145577742D01*
X140940801Y-145423471D01*
X140876780Y-145335352D01*
X140876778Y-145335351D01*
X140370465Y-145841664D01*
X140320080Y-145754394D01*
X140245606Y-145679920D01*
X140158334Y-145629534D01*
X140664647Y-145123220D01*
X140664646Y-145123219D01*
X140576528Y-145059198D01*
X140422257Y-144980591D01*
X140257584Y-144927085D01*
X140086571Y-144900000D01*
X139913429Y-144900000D01*
X139742415Y-144927085D01*
X139577742Y-144980591D01*
X139423478Y-145059194D01*
X139335352Y-145123220D01*
X139841665Y-145629533D01*
X139754394Y-145679920D01*
X139679920Y-145754394D01*
X139629533Y-145841665D01*
X139123220Y-145335352D01*
X139059194Y-145423478D01*
X138980591Y-145577742D01*
X138927085Y-145742415D01*
X138900000Y-145913428D01*
X136050500Y-145913428D01*
X136050500Y-145896535D01*
X136010130Y-145693580D01*
X135930941Y-145502402D01*
X135815977Y-145330345D01*
X135815975Y-145330342D01*
X135786819Y-145301186D01*
X135772115Y-145274258D01*
X135755523Y-145248440D01*
X135754631Y-145242239D01*
X135753334Y-145239863D01*
X135750500Y-145213505D01*
X135750500Y-141087180D01*
X135770185Y-141020141D01*
X135800187Y-140987914D01*
X135907546Y-140907546D01*
X135993796Y-140792331D01*
X136044091Y-140657483D01*
X136050500Y-140597873D01*
X136050499Y-139913428D01*
X136400000Y-139913428D01*
X136400000Y-140086571D01*
X136427085Y-140257584D01*
X136480591Y-140422257D01*
X136559198Y-140576528D01*
X136623219Y-140664646D01*
X136623220Y-140664647D01*
X137129533Y-140158334D01*
X137179920Y-140245606D01*
X137254394Y-140320080D01*
X137341665Y-140370465D01*
X136835351Y-140876778D01*
X136835352Y-140876780D01*
X136923471Y-140940801D01*
X137077742Y-141019408D01*
X137242415Y-141072914D01*
X137413429Y-141100000D01*
X137586571Y-141100000D01*
X137757584Y-141072914D01*
X137922257Y-141019408D01*
X138076525Y-140940803D01*
X138164646Y-140876778D01*
X138164647Y-140876778D01*
X137658334Y-140370465D01*
X137745606Y-140320080D01*
X137820080Y-140245606D01*
X137870466Y-140158334D01*
X138376778Y-140664647D01*
X138376778Y-140664646D01*
X138440803Y-140576525D01*
X138519408Y-140422257D01*
X138572914Y-140257584D01*
X138600000Y-140086571D01*
X138600000Y-139913428D01*
X138572914Y-139742415D01*
X138519408Y-139577742D01*
X138440801Y-139423471D01*
X138376780Y-139335352D01*
X138376778Y-139335351D01*
X137870465Y-139841664D01*
X137820080Y-139754394D01*
X137745606Y-139679920D01*
X137658334Y-139629534D01*
X138164647Y-139123220D01*
X138164646Y-139123219D01*
X138076528Y-139059198D01*
X137922257Y-138980591D01*
X137757584Y-138927085D01*
X137586571Y-138900000D01*
X137413429Y-138900000D01*
X137242415Y-138927085D01*
X137077742Y-138980591D01*
X136923478Y-139059194D01*
X136835352Y-139123220D01*
X137341665Y-139629533D01*
X137254394Y-139679920D01*
X137179920Y-139754394D01*
X137129534Y-139841665D01*
X136623220Y-139335352D01*
X136559194Y-139423478D01*
X136480591Y-139577742D01*
X136427085Y-139742415D01*
X136400000Y-139913428D01*
X136050499Y-139913428D01*
X136050499Y-139402128D01*
X136044091Y-139342517D01*
X136041419Y-139335352D01*
X135996088Y-139213812D01*
X135993797Y-139207672D01*
X135993797Y-139207671D01*
X135993796Y-139207669D01*
X135993794Y-139207666D01*
X135993793Y-139207664D01*
X135907547Y-139092455D01*
X135800188Y-139012085D01*
X135758318Y-138956151D01*
X135750500Y-138912819D01*
X135750500Y-132827779D01*
X135724988Y-132699527D01*
X135724988Y-132699526D01*
X135721659Y-132682788D01*
X135667408Y-132551817D01*
X135665764Y-132547222D01*
X135582954Y-132423288D01*
X135582953Y-132423287D01*
X135582951Y-132423284D01*
X135478416Y-132318749D01*
X135160167Y-132000500D01*
X134821849Y-131662181D01*
X134788364Y-131600858D01*
X134793348Y-131531166D01*
X134835220Y-131475233D01*
X134900684Y-131450816D01*
X134909530Y-131450500D01*
X135524676Y-131450500D01*
X135524677Y-131450499D01*
X135597740Y-131435966D01*
X135680601Y-131380601D01*
X135735966Y-131297740D01*
X135750500Y-131224674D01*
X135750500Y-130265020D01*
X138440599Y-130265020D01*
X138469440Y-130410007D01*
X138469443Y-130410017D01*
X138526014Y-130546592D01*
X138557464Y-130593660D01*
X138557465Y-130593663D01*
X138608146Y-130669514D01*
X138608152Y-130669521D01*
X138964010Y-131025377D01*
X138997495Y-131086700D01*
X138998831Y-131095183D01*
X139037947Y-131291829D01*
X139037950Y-131291839D01*
X139113364Y-131473907D01*
X139113371Y-131473920D01*
X139222860Y-131637781D01*
X139222863Y-131637785D01*
X139362214Y-131777136D01*
X139362218Y-131777139D01*
X139526079Y-131886628D01*
X139526092Y-131886635D01*
X139708160Y-131962049D01*
X139708165Y-131962051D01*
X139708169Y-131962051D01*
X139708170Y-131962052D01*
X139901456Y-132000500D01*
X139901459Y-132000500D01*
X140098543Y-132000500D01*
X140228582Y-131974632D01*
X140291835Y-131962051D01*
X140473914Y-131886632D01*
X140637782Y-131777139D01*
X140777139Y-131637782D01*
X140886632Y-131473914D01*
X140962051Y-131291835D01*
X141000500Y-131098541D01*
X141000500Y-130901459D01*
X141000500Y-130901456D01*
X140962052Y-130708170D01*
X140962051Y-130708169D01*
X140962051Y-130708165D01*
X140946042Y-130669516D01*
X140886635Y-130526092D01*
X140886628Y-130526079D01*
X140777139Y-130362218D01*
X140777136Y-130362214D01*
X140637785Y-130222863D01*
X140637781Y-130222860D01*
X140473920Y-130113371D01*
X140473907Y-130113364D01*
X140291839Y-130037950D01*
X140291829Y-130037947D01*
X140092566Y-129998311D01*
X140092923Y-129996514D01*
X140036100Y-129973557D01*
X140025378Y-129964010D01*
X139977919Y-129916551D01*
X139944434Y-129855228D01*
X139941600Y-129828870D01*
X139941600Y-84959612D01*
X139961285Y-84892573D01*
X140014089Y-84846818D01*
X140083247Y-84836874D01*
X140146803Y-84865899D01*
X140165918Y-84886727D01*
X140279201Y-85042650D01*
X140457345Y-85220794D01*
X140457350Y-85220798D01*
X140562618Y-85297279D01*
X140661155Y-85368870D01*
X140804184Y-85441747D01*
X140885616Y-85483239D01*
X140885618Y-85483239D01*
X140885621Y-85483241D01*
X141125215Y-85561090D01*
X141374038Y-85600500D01*
X141374039Y-85600500D01*
X141625961Y-85600500D01*
X141625962Y-85600500D01*
X141874785Y-85561090D01*
X142114379Y-85483241D01*
X142338845Y-85368870D01*
X142542656Y-85220793D01*
X142720793Y-85042656D01*
X142868870Y-84838845D01*
X142983241Y-84614379D01*
X143061090Y-84374785D01*
X143100500Y-84125962D01*
X143100500Y-83874038D01*
X143061090Y-83625215D01*
X142983241Y-83385621D01*
X142983239Y-83385618D01*
X142983239Y-83385616D01*
X142923574Y-83268518D01*
X142868870Y-83161155D01*
X142834081Y-83113272D01*
X142720798Y-82957350D01*
X142720794Y-82957345D01*
X142542654Y-82779205D01*
X142542649Y-82779201D01*
X142338848Y-82631132D01*
X142338847Y-82631131D01*
X142338845Y-82631130D01*
X142268747Y-82595413D01*
X142114383Y-82516760D01*
X141874785Y-82438910D01*
X141625962Y-82399500D01*
X141374038Y-82399500D01*
X141249626Y-82419205D01*
X141125214Y-82438910D01*
X140885616Y-82516760D01*
X140661151Y-82631132D01*
X140457350Y-82779201D01*
X140457345Y-82779205D01*
X140279205Y-82957345D01*
X140279201Y-82957350D01*
X140165918Y-83113272D01*
X140110588Y-83155938D01*
X140040975Y-83161917D01*
X139979180Y-83129311D01*
X139944823Y-83068473D01*
X139941600Y-83040387D01*
X139941600Y-73279030D01*
X139961285Y-73211991D01*
X139977919Y-73191349D01*
X140468447Y-72700821D01*
X140468452Y-72700816D01*
X140550584Y-72577894D01*
X140607158Y-72441312D01*
X140636000Y-72296317D01*
X140636000Y-72148483D01*
X140636000Y-72148480D01*
X140607159Y-72003492D01*
X140607158Y-72003491D01*
X140607158Y-72003487D01*
X140550584Y-71866906D01*
X140468452Y-71743984D01*
X140468447Y-71743979D01*
X140468447Y-71743978D01*
X140363921Y-71639452D01*
X140363917Y-71639449D01*
X140363916Y-71639448D01*
X140240994Y-71557316D01*
X140240989Y-71557314D01*
X140104413Y-71500742D01*
X140104407Y-71500740D01*
X139959419Y-71471900D01*
X139959417Y-71471900D01*
X139811583Y-71471900D01*
X139811581Y-71471900D01*
X139666593Y-71500740D01*
X139666587Y-71500742D01*
X139530009Y-71557314D01*
X139530002Y-71557318D01*
X139507297Y-71572489D01*
X139407084Y-71639448D01*
X139407082Y-71639449D01*
X139407079Y-71639452D01*
X139407078Y-71639452D01*
X138608149Y-72438382D01*
X138608149Y-72438383D01*
X138588150Y-72468314D01*
X138526013Y-72561308D01*
X138469443Y-72697882D01*
X138469440Y-72697892D01*
X138440600Y-72842879D01*
X138440600Y-72842882D01*
X138440600Y-130265018D01*
X138440600Y-130265020D01*
X138440599Y-130265020D01*
X135750500Y-130265020D01*
X135750500Y-128175326D01*
X135750500Y-128175323D01*
X135750499Y-128175321D01*
X135735967Y-128102264D01*
X135735966Y-128102260D01*
X135725483Y-128086571D01*
X135680601Y-128019399D01*
X135597740Y-127964034D01*
X135597739Y-127964033D01*
X135597735Y-127964032D01*
X135524677Y-127949500D01*
X135524674Y-127949500D01*
X132475326Y-127949500D01*
X132475323Y-127949500D01*
X132402264Y-127964032D01*
X132402260Y-127964033D01*
X132319399Y-128019399D01*
X132264033Y-128102260D01*
X132264032Y-128102264D01*
X132249500Y-128175321D01*
X128745943Y-128175321D01*
X128749980Y-128149836D01*
X128760000Y-128086571D01*
X128760000Y-127913428D01*
X128732914Y-127742415D01*
X128679408Y-127577742D01*
X128600801Y-127423471D01*
X128536780Y-127335352D01*
X128536778Y-127335351D01*
X128030465Y-127841664D01*
X127980080Y-127754394D01*
X127905606Y-127679920D01*
X127818334Y-127629534D01*
X128324647Y-127123220D01*
X128324646Y-127123219D01*
X128236528Y-127059198D01*
X128082257Y-126980591D01*
X127917584Y-126927085D01*
X127746571Y-126900000D01*
X127573429Y-126900000D01*
X127402415Y-126927085D01*
X127237742Y-126980591D01*
X127083478Y-127059194D01*
X126995352Y-127123220D01*
X127501665Y-127629533D01*
X127414394Y-127679920D01*
X127339920Y-127754394D01*
X127289533Y-127841665D01*
X126783220Y-127335352D01*
X126719194Y-127423478D01*
X126640591Y-127577742D01*
X126587085Y-127742415D01*
X126560000Y-127913428D01*
X125415500Y-127913428D01*
X125415500Y-127490567D01*
X125415500Y-127490565D01*
X125389910Y-127395062D01*
X125340475Y-127309438D01*
X125270562Y-127239525D01*
X118518141Y-120487104D01*
X118484656Y-120425781D01*
X118489640Y-120356089D01*
X118491237Y-120352029D01*
X118510130Y-120306420D01*
X118550500Y-120103465D01*
X118550500Y-119913428D01*
X126560000Y-119913428D01*
X126560000Y-120086571D01*
X126587085Y-120257584D01*
X126640591Y-120422257D01*
X126719198Y-120576528D01*
X126783219Y-120664646D01*
X126783220Y-120664647D01*
X127289533Y-120158334D01*
X127339920Y-120245606D01*
X127414394Y-120320080D01*
X127501665Y-120370465D01*
X126995351Y-120876778D01*
X126995352Y-120876780D01*
X127083471Y-120940801D01*
X127237742Y-121019408D01*
X127402415Y-121072914D01*
X127573429Y-121100000D01*
X127746571Y-121100000D01*
X127917584Y-121072914D01*
X128082257Y-121019408D01*
X128236525Y-120940803D01*
X128324646Y-120876778D01*
X128324647Y-120876778D01*
X127818334Y-120370465D01*
X127905606Y-120320080D01*
X127980080Y-120245606D01*
X128030465Y-120158334D01*
X128536778Y-120664647D01*
X128536778Y-120664646D01*
X128600803Y-120576525D01*
X128679408Y-120422257D01*
X128732914Y-120257584D01*
X128732914Y-120257583D01*
X128744369Y-120185258D01*
X132249500Y-120185258D01*
X132249500Y-120414741D01*
X132270801Y-120576528D01*
X132279452Y-120642238D01*
X132286799Y-120669657D01*
X132338842Y-120863887D01*
X132426650Y-121075876D01*
X132426657Y-121075890D01*
X132541392Y-121274617D01*
X132681081Y-121456661D01*
X132681089Y-121456670D01*
X132843330Y-121618911D01*
X132843338Y-121618918D01*
X133025382Y-121758607D01*
X133025385Y-121758608D01*
X133025388Y-121758611D01*
X133224112Y-121873344D01*
X133224117Y-121873346D01*
X133224123Y-121873349D01*
X133291980Y-121901456D01*
X133436113Y-121961158D01*
X133657762Y-122020548D01*
X133885266Y-122050500D01*
X133885273Y-122050500D01*
X134114727Y-122050500D01*
X134114734Y-122050500D01*
X134342238Y-122020548D01*
X134563887Y-121961158D01*
X134775888Y-121873344D01*
X134974612Y-121758611D01*
X135156661Y-121618919D01*
X135156665Y-121618914D01*
X135156670Y-121618911D01*
X135287719Y-121487862D01*
X135349042Y-121454377D01*
X135418734Y-121459361D01*
X135474667Y-121501233D01*
X135499084Y-121566697D01*
X135499400Y-121575543D01*
X135499400Y-122387869D01*
X135479715Y-122454908D01*
X135463081Y-122475550D01*
X134642824Y-123295806D01*
X134581501Y-123329291D01*
X134523050Y-123327900D01*
X134342238Y-123279452D01*
X134304215Y-123274446D01*
X134114741Y-123249500D01*
X134114734Y-123249500D01*
X133885266Y-123249500D01*
X133885258Y-123249500D01*
X133668715Y-123278009D01*
X133657762Y-123279452D01*
X133564076Y-123304554D01*
X133436112Y-123338842D01*
X133224123Y-123426650D01*
X133224109Y-123426657D01*
X133025382Y-123541392D01*
X132843338Y-123681081D01*
X132681081Y-123843338D01*
X132541392Y-124025382D01*
X132426657Y-124224109D01*
X132426650Y-124224123D01*
X132338842Y-124436112D01*
X132279453Y-124657759D01*
X132279451Y-124657770D01*
X132249500Y-124885258D01*
X132249500Y-125114741D01*
X132270016Y-125270565D01*
X132279452Y-125342238D01*
X132279453Y-125342240D01*
X132338842Y-125563887D01*
X132426650Y-125775876D01*
X132426657Y-125775890D01*
X132541392Y-125974617D01*
X132681081Y-126156661D01*
X132681089Y-126156670D01*
X132843330Y-126318911D01*
X132843338Y-126318918D01*
X133025382Y-126458607D01*
X133025385Y-126458608D01*
X133025388Y-126458611D01*
X133224112Y-126573344D01*
X133224117Y-126573346D01*
X133224123Y-126573349D01*
X133315480Y-126611190D01*
X133436113Y-126661158D01*
X133657762Y-126720548D01*
X133885266Y-126750500D01*
X133885273Y-126750500D01*
X134114727Y-126750500D01*
X134114734Y-126750500D01*
X134342238Y-126720548D01*
X134563887Y-126661158D01*
X134775888Y-126573344D01*
X134974612Y-126458611D01*
X135156661Y-126318919D01*
X135156665Y-126318914D01*
X135156670Y-126318911D01*
X135318911Y-126156670D01*
X135318914Y-126156665D01*
X135318919Y-126156661D01*
X135458611Y-125974612D01*
X135573344Y-125775888D01*
X135661158Y-125563887D01*
X135720548Y-125342238D01*
X135750500Y-125114734D01*
X135750500Y-124885266D01*
X135720548Y-124657762D01*
X135672099Y-124476945D01*
X135673762Y-124407097D01*
X135704191Y-124357175D01*
X136832851Y-123228516D01*
X136914984Y-123105595D01*
X136971558Y-122969013D01*
X136987946Y-122886627D01*
X137000400Y-122824020D01*
X137000400Y-115724968D01*
X137020085Y-115657929D01*
X137025133Y-115650657D01*
X137068796Y-115592331D01*
X137119091Y-115457483D01*
X137125500Y-115397873D01*
X137125499Y-114602128D01*
X137119091Y-114542517D01*
X137104129Y-114502403D01*
X137068797Y-114407671D01*
X137068793Y-114407664D01*
X136982547Y-114292455D01*
X136982544Y-114292452D01*
X136867335Y-114206206D01*
X136867328Y-114206202D01*
X136732482Y-114155908D01*
X136732483Y-114155908D01*
X136672883Y-114149501D01*
X136672881Y-114149500D01*
X136672873Y-114149500D01*
X136672864Y-114149500D01*
X135327129Y-114149500D01*
X135327123Y-114149501D01*
X135267516Y-114155908D01*
X135132671Y-114206202D01*
X135132664Y-114206206D01*
X135017455Y-114292452D01*
X135017452Y-114292455D01*
X134931206Y-114407664D01*
X134931202Y-114407671D01*
X134880908Y-114542517D01*
X134874501Y-114602116D01*
X134874501Y-114602123D01*
X134874500Y-114602135D01*
X134874500Y-115397870D01*
X134874501Y-115397876D01*
X134880908Y-115457483D01*
X134931202Y-115592328D01*
X134931206Y-115592335D01*
X135017452Y-115707544D01*
X135017455Y-115707547D01*
X135132664Y-115793793D01*
X135132671Y-115793797D01*
X135177618Y-115810561D01*
X135267517Y-115844091D01*
X135327127Y-115850500D01*
X135375400Y-115850499D01*
X135442437Y-115870182D01*
X135488193Y-115922985D01*
X135499400Y-115974499D01*
X135499400Y-119024457D01*
X135479715Y-119091496D01*
X135426911Y-119137251D01*
X135357753Y-119147195D01*
X135294197Y-119118170D01*
X135287719Y-119112138D01*
X135156670Y-118981089D01*
X135156661Y-118981081D01*
X134974617Y-118841392D01*
X134775890Y-118726657D01*
X134775876Y-118726650D01*
X134563887Y-118638842D01*
X134559927Y-118637781D01*
X134342238Y-118579452D01*
X134304215Y-118574446D01*
X134114741Y-118549500D01*
X134114734Y-118549500D01*
X133885266Y-118549500D01*
X133885258Y-118549500D01*
X133668715Y-118578009D01*
X133657762Y-118579452D01*
X133564076Y-118604554D01*
X133436112Y-118638842D01*
X133224123Y-118726650D01*
X133224109Y-118726657D01*
X133025382Y-118841392D01*
X132843338Y-118981081D01*
X132681081Y-119143338D01*
X132541392Y-119325382D01*
X132426657Y-119524109D01*
X132426650Y-119524123D01*
X132338842Y-119736112D01*
X132279453Y-119957759D01*
X132279451Y-119957770D01*
X132249500Y-120185258D01*
X128744369Y-120185258D01*
X128748083Y-120161810D01*
X128748083Y-120161808D01*
X128760000Y-120086569D01*
X128760000Y-119913428D01*
X128732914Y-119742415D01*
X128679408Y-119577742D01*
X128600801Y-119423471D01*
X128536780Y-119335352D01*
X128536778Y-119335351D01*
X128030465Y-119841664D01*
X127980080Y-119754394D01*
X127905606Y-119679920D01*
X127818334Y-119629534D01*
X128324647Y-119123220D01*
X128324646Y-119123219D01*
X128236528Y-119059198D01*
X128082257Y-118980591D01*
X127917584Y-118927085D01*
X127746571Y-118900000D01*
X127573429Y-118900000D01*
X127402415Y-118927085D01*
X127237742Y-118980591D01*
X127083478Y-119059194D01*
X126995352Y-119123220D01*
X127501665Y-119629533D01*
X127414394Y-119679920D01*
X127339920Y-119754394D01*
X127289533Y-119841665D01*
X126783220Y-119335352D01*
X126719194Y-119423478D01*
X126640591Y-119577742D01*
X126587085Y-119742415D01*
X126560000Y-119913428D01*
X118550500Y-119913428D01*
X118550500Y-119896535D01*
X118510130Y-119693580D01*
X118430941Y-119502402D01*
X118315977Y-119330345D01*
X118315975Y-119330342D01*
X118169657Y-119184024D01*
X118062071Y-119112138D01*
X117997598Y-119069059D01*
X117806420Y-118989870D01*
X117806412Y-118989868D01*
X117603469Y-118949500D01*
X117603465Y-118949500D01*
X117396535Y-118949500D01*
X117396530Y-118949500D01*
X117193587Y-118989868D01*
X117193579Y-118989870D01*
X117002403Y-119069058D01*
X116830342Y-119184024D01*
X116684024Y-119330342D01*
X116569058Y-119502403D01*
X116489870Y-119693579D01*
X116489868Y-119693587D01*
X116449500Y-119896530D01*
X116449500Y-120103469D01*
X116489868Y-120306412D01*
X116489870Y-120306420D01*
X116569058Y-120497596D01*
X116684024Y-120669657D01*
X116830342Y-120815975D01*
X116830345Y-120815977D01*
X117002402Y-120930941D01*
X117193580Y-121010130D01*
X117387119Y-121048627D01*
X117396530Y-121050499D01*
X117396534Y-121050500D01*
X117396535Y-121050500D01*
X117603466Y-121050500D01*
X117603467Y-121050499D01*
X117806420Y-121010130D01*
X117851972Y-120991261D01*
X117921437Y-120983792D01*
X117983917Y-121015065D01*
X117987104Y-121018141D01*
X124628181Y-127659218D01*
X124661666Y-127720541D01*
X124664500Y-127746899D01*
X124664500Y-139769635D01*
X124644815Y-139836674D01*
X124592011Y-139882429D01*
X124580017Y-139887100D01*
X124579169Y-139887451D01*
X124410800Y-139973240D01*
X124352178Y-140015832D01*
X124257927Y-140084310D01*
X124257925Y-140084312D01*
X124257924Y-140084312D01*
X124124312Y-140217924D01*
X124124312Y-140217925D01*
X124124310Y-140217927D01*
X124076610Y-140283579D01*
X124013240Y-140370800D01*
X123927454Y-140539163D01*
X123887931Y-140660803D01*
X123848493Y-140718478D01*
X123784134Y-140745676D01*
X123715288Y-140733761D01*
X123663812Y-140686516D01*
X123652069Y-140660803D01*
X123641649Y-140628734D01*
X123612547Y-140539168D01*
X123612545Y-140539165D01*
X123612545Y-140539163D01*
X123549460Y-140415352D01*
X123526760Y-140370801D01*
X123415690Y-140217927D01*
X123282073Y-140084310D01*
X123129199Y-139973240D01*
X122960830Y-139887451D01*
X122956339Y-139885592D01*
X122956768Y-139884556D01*
X122903489Y-139848107D01*
X122876305Y-139783743D01*
X122875500Y-139769635D01*
X122875500Y-137950566D01*
X122875500Y-137950565D01*
X122875500Y-137950564D01*
X122849911Y-137855063D01*
X122800475Y-137769437D01*
X118518142Y-133487104D01*
X118484657Y-133425781D01*
X118489641Y-133356089D01*
X118491262Y-133351970D01*
X118510130Y-133306420D01*
X118550500Y-133103465D01*
X118550500Y-132896535D01*
X118510130Y-132693580D01*
X118430941Y-132502402D01*
X118315977Y-132330345D01*
X118315975Y-132330342D01*
X118169657Y-132184024D01*
X118078656Y-132123220D01*
X117997598Y-132069059D01*
X117997595Y-132069057D01*
X117997594Y-132069057D01*
X117952045Y-132050189D01*
X117897643Y-132006347D01*
X117875579Y-131940053D01*
X117875500Y-131935629D01*
X117875500Y-129064369D01*
X117895185Y-128997330D01*
X117947989Y-128951575D01*
X117951992Y-128949831D01*
X117997598Y-128930941D01*
X118169655Y-128815977D01*
X118315977Y-128669655D01*
X118430941Y-128497598D01*
X118510130Y-128306420D01*
X118550500Y-128103465D01*
X118550500Y-127896535D01*
X118510130Y-127693580D01*
X118430941Y-127502402D01*
X118315977Y-127330345D01*
X118315975Y-127330342D01*
X118169657Y-127184024D01*
X118078655Y-127123219D01*
X117997598Y-127069059D01*
X117806420Y-126989870D01*
X117806412Y-126989868D01*
X117603469Y-126949500D01*
X117603465Y-126949500D01*
X117396535Y-126949500D01*
X117396530Y-126949500D01*
X117193587Y-126989868D01*
X117193579Y-126989870D01*
X117002403Y-127069058D01*
X116830342Y-127184024D01*
X116684024Y-127330342D01*
X116569058Y-127502403D01*
X116489870Y-127693579D01*
X116489868Y-127693587D01*
X116449500Y-127896530D01*
X116449500Y-128103469D01*
X116489868Y-128306412D01*
X116489870Y-128306420D01*
X116569058Y-128497596D01*
X116684024Y-128669657D01*
X116830342Y-128815975D01*
X116830345Y-128815977D01*
X117002402Y-128930941D01*
X117047955Y-128949809D01*
X117102355Y-128993648D01*
X117124421Y-129059942D01*
X117124500Y-129064369D01*
X117124500Y-131935629D01*
X117104815Y-132002668D01*
X117052011Y-132048423D01*
X117047955Y-132050189D01*
X117002405Y-132069057D01*
X116830342Y-132184024D01*
X116684024Y-132330342D01*
X116569058Y-132502403D01*
X116489870Y-132693579D01*
X116489868Y-132693587D01*
X116449500Y-132896530D01*
X116449500Y-133103469D01*
X116489868Y-133306412D01*
X116489870Y-133306420D01*
X116569058Y-133497596D01*
X116684024Y-133669657D01*
X116830342Y-133815975D01*
X116830345Y-133815977D01*
X117002402Y-133930941D01*
X117193580Y-134010130D01*
X117396530Y-134050499D01*
X117396534Y-134050500D01*
X117396535Y-134050500D01*
X117603466Y-134050500D01*
X117603467Y-134050499D01*
X117806420Y-134010130D01*
X117851970Y-133991261D01*
X117921439Y-133983793D01*
X117983918Y-134015068D01*
X117987104Y-134018142D01*
X122088181Y-138119218D01*
X122121666Y-138180541D01*
X122124500Y-138206899D01*
X122124500Y-139769635D01*
X122104815Y-139836674D01*
X122052011Y-139882429D01*
X122040017Y-139887100D01*
X122039169Y-139887451D01*
X121870800Y-139973240D01*
X121812178Y-140015832D01*
X121717927Y-140084310D01*
X121717925Y-140084312D01*
X121717924Y-140084312D01*
X121584312Y-140217924D01*
X121584312Y-140217925D01*
X121584310Y-140217927D01*
X121536610Y-140283579D01*
X121473240Y-140370800D01*
X121387454Y-140539163D01*
X121347931Y-140660803D01*
X121308493Y-140718478D01*
X121244134Y-140745676D01*
X121175288Y-140733761D01*
X121123812Y-140686516D01*
X121112069Y-140660803D01*
X121101649Y-140628734D01*
X121072547Y-140539168D01*
X121072545Y-140539165D01*
X121072545Y-140539163D01*
X121009460Y-140415352D01*
X120986760Y-140370801D01*
X120875690Y-140217927D01*
X120742073Y-140084310D01*
X120589199Y-139973240D01*
X120420836Y-139887454D01*
X120241118Y-139829059D01*
X120054486Y-139799500D01*
X120054481Y-139799500D01*
X119865519Y-139799500D01*
X119865514Y-139799500D01*
X119678880Y-139829060D01*
X119678877Y-139829060D01*
X119499169Y-139887452D01*
X119494670Y-139889316D01*
X119494239Y-139888277D01*
X119430807Y-139900180D01*
X119366071Y-139873894D01*
X119355519Y-139864482D01*
X104411819Y-124920782D01*
X104378334Y-124859459D01*
X104375500Y-124833101D01*
X104375500Y-123010250D01*
X104395185Y-122943211D01*
X104447989Y-122897456D01*
X104452016Y-122895702D01*
X104473914Y-122886632D01*
X104637782Y-122777139D01*
X104777139Y-122637782D01*
X104886632Y-122473914D01*
X104894505Y-122454908D01*
X104962049Y-122291839D01*
X104962051Y-122291835D01*
X105000500Y-122098541D01*
X105000500Y-121901459D01*
X105000500Y-121901456D01*
X104962052Y-121708170D01*
X104962051Y-121708169D01*
X104962051Y-121708165D01*
X104952992Y-121686296D01*
X104945523Y-121616830D01*
X104976796Y-121554350D01*
X104979844Y-121551191D01*
X111155074Y-115375963D01*
X111155075Y-115375962D01*
X111204510Y-115290338D01*
X111223649Y-115218912D01*
X111230100Y-115194836D01*
X111230100Y-115095964D01*
X111230100Y-101043672D01*
X111249785Y-100976633D01*
X111302589Y-100930878D01*
X111371747Y-100920934D01*
X111418327Y-100939875D01*
X111419319Y-100938258D01*
X111423466Y-100940799D01*
X111577742Y-101019408D01*
X111742415Y-101072914D01*
X111913429Y-101100000D01*
X112086571Y-101100000D01*
X112257584Y-101072914D01*
X112422257Y-101019408D01*
X112576525Y-100940803D01*
X112664646Y-100876778D01*
X112664647Y-100876778D01*
X112158334Y-100370465D01*
X112245606Y-100320080D01*
X112320080Y-100245606D01*
X112370465Y-100158334D01*
X112876778Y-100664647D01*
X112876778Y-100664646D01*
X112940803Y-100576525D01*
X113019408Y-100422257D01*
X113072914Y-100257584D01*
X113100000Y-100086571D01*
X113100000Y-99913428D01*
X113072914Y-99742415D01*
X113019408Y-99577742D01*
X112940801Y-99423471D01*
X112876780Y-99335352D01*
X112876778Y-99335351D01*
X112370465Y-99841663D01*
X112320080Y-99754394D01*
X112245606Y-99679920D01*
X112158332Y-99629533D01*
X112664647Y-99123219D01*
X112576528Y-99059198D01*
X112422257Y-98980591D01*
X112257586Y-98927086D01*
X112245671Y-98925199D01*
X112182537Y-98895267D01*
X112145607Y-98835955D01*
X112146607Y-98766092D01*
X112177388Y-98715048D01*
X113592875Y-97299563D01*
X113642311Y-97213937D01*
X113667900Y-97118436D01*
X113667900Y-97019564D01*
X113667900Y-67919499D01*
X113687585Y-67852460D01*
X113704219Y-67831818D01*
X120866819Y-60669218D01*
X120928142Y-60635733D01*
X120997834Y-60640717D01*
X121053767Y-60682589D01*
X121078184Y-60748053D01*
X121078500Y-60756899D01*
X121078500Y-61579217D01*
X121078501Y-61579236D01*
X121084634Y-61636284D01*
X121084635Y-61636288D01*
X121135879Y-61773678D01*
X121132698Y-61774864D01*
X121144044Y-61827144D01*
X121119593Y-61892596D01*
X121108045Y-61905916D01*
X114918538Y-68095425D01*
X114848626Y-68165336D01*
X114799191Y-68250959D01*
X114799191Y-68250960D01*
X114799190Y-68250962D01*
X114773600Y-68346465D01*
X114773600Y-89288835D01*
X114799190Y-89384338D01*
X114799191Y-89384339D01*
X114799191Y-89384340D01*
X114848626Y-89469963D01*
X117614881Y-92236218D01*
X117648366Y-92297541D01*
X117651200Y-92323899D01*
X117651200Y-92917264D01*
X117631515Y-92984303D01*
X117578711Y-93030058D01*
X117509553Y-93040002D01*
X117457059Y-93018696D01*
X117456887Y-93018978D01*
X117455188Y-93017936D01*
X117454316Y-93017583D01*
X117452734Y-93016433D01*
X117291447Y-92934252D01*
X117291444Y-92934251D01*
X117119293Y-92878317D01*
X116940506Y-92850000D01*
X116400000Y-92850000D01*
X116400000Y-93419026D01*
X116328991Y-93400000D01*
X116171009Y-93400000D01*
X116100000Y-93419026D01*
X116100000Y-92850000D01*
X115559494Y-92850000D01*
X115380706Y-92878317D01*
X115208555Y-92934251D01*
X115208552Y-92934252D01*
X115047265Y-93016434D01*
X114900830Y-93122823D01*
X114772823Y-93250830D01*
X114666434Y-93397265D01*
X114584252Y-93558552D01*
X114584251Y-93558555D01*
X114528317Y-93730706D01*
X114509423Y-93850000D01*
X115669027Y-93850000D01*
X115650000Y-93921009D01*
X115650000Y-94078991D01*
X115669027Y-94150000D01*
X114509423Y-94150000D01*
X114528317Y-94269293D01*
X114584251Y-94441444D01*
X114584252Y-94441447D01*
X114666434Y-94602734D01*
X114772823Y-94749169D01*
X114900830Y-94877176D01*
X115047265Y-94983565D01*
X115208552Y-95065747D01*
X115208555Y-95065748D01*
X115380706Y-95121682D01*
X115559494Y-95150000D01*
X116100000Y-95150000D01*
X116100000Y-94580973D01*
X116171009Y-94600000D01*
X116328991Y-94600000D01*
X116400000Y-94580973D01*
X116400000Y-95150000D01*
X116940506Y-95150000D01*
X117119293Y-95121682D01*
X117291444Y-95065748D01*
X117291447Y-95065747D01*
X117452727Y-94983569D01*
X117454304Y-94982424D01*
X117455010Y-94982171D01*
X117456887Y-94981022D01*
X117457128Y-94981415D01*
X117520108Y-94958938D01*
X117588164Y-94974756D01*
X117636864Y-95024857D01*
X117651200Y-95082735D01*
X117651200Y-97978449D01*
X117631515Y-98045488D01*
X117578711Y-98091243D01*
X117509553Y-98101187D01*
X117454314Y-98078767D01*
X117426788Y-98058768D01*
X117272447Y-97980128D01*
X117272446Y-97980127D01*
X117272445Y-97980127D01*
X117107701Y-97926598D01*
X117107699Y-97926597D01*
X117107698Y-97926597D01*
X116976271Y-97905781D01*
X116936611Y-97899500D01*
X115563389Y-97899500D01*
X115523728Y-97905781D01*
X115392302Y-97926597D01*
X115227552Y-97980128D01*
X115073211Y-98058768D01*
X115028514Y-98091243D01*
X114933072Y-98160586D01*
X114933070Y-98160588D01*
X114933069Y-98160588D01*
X114810588Y-98283069D01*
X114810588Y-98283070D01*
X114810586Y-98283072D01*
X114766859Y-98343256D01*
X114708768Y-98423211D01*
X114630128Y-98577552D01*
X114576597Y-98742302D01*
X114549500Y-98913388D01*
X114549500Y-99086610D01*
X114564928Y-99184023D01*
X114576598Y-99257701D01*
X114630127Y-99422445D01*
X114708768Y-99576788D01*
X114810586Y-99716928D01*
X114933072Y-99839414D01*
X115073212Y-99941232D01*
X115227555Y-100019873D01*
X115392299Y-100073402D01*
X115563389Y-100100500D01*
X115563390Y-100100500D01*
X116936610Y-100100500D01*
X116936611Y-100100500D01*
X117107701Y-100073402D01*
X117272445Y-100019873D01*
X117426788Y-99941232D01*
X117566928Y-99839414D01*
X117689414Y-99716928D01*
X117791232Y-99576788D01*
X117830612Y-99499500D01*
X117859295Y-99443206D01*
X117907269Y-99392409D01*
X117969780Y-99375500D01*
X118025100Y-99375500D01*
X118092139Y-99395185D01*
X118137894Y-99447989D01*
X118149100Y-99499500D01*
X118149100Y-113768500D01*
X118129415Y-113835539D01*
X118112781Y-113856182D01*
X117987104Y-113981858D01*
X117925781Y-114015342D01*
X117856089Y-114010358D01*
X117851972Y-114008738D01*
X117850980Y-114008327D01*
X117806420Y-113989870D01*
X117806416Y-113989869D01*
X117806412Y-113989867D01*
X117603469Y-113949500D01*
X117603465Y-113949500D01*
X117396535Y-113949500D01*
X117396530Y-113949500D01*
X117193587Y-113989868D01*
X117193579Y-113989870D01*
X117002403Y-114069058D01*
X116830342Y-114184024D01*
X116684024Y-114330342D01*
X116569058Y-114502403D01*
X116489870Y-114693579D01*
X116489868Y-114693587D01*
X116449500Y-114896530D01*
X116449500Y-115103469D01*
X116489868Y-115306412D01*
X116489870Y-115306420D01*
X116547629Y-115445863D01*
X116569059Y-115497598D01*
X116598303Y-115541365D01*
X116684024Y-115669657D01*
X116830342Y-115815975D01*
X116830345Y-115815977D01*
X117002402Y-115930941D01*
X117193580Y-116010130D01*
X117396530Y-116050499D01*
X117396534Y-116050500D01*
X117396535Y-116050500D01*
X117603466Y-116050500D01*
X117603467Y-116050499D01*
X117806420Y-116010130D01*
X117997598Y-115930941D01*
X118169655Y-115815977D01*
X118315977Y-115669655D01*
X118430941Y-115497598D01*
X118510130Y-115306420D01*
X118550500Y-115103465D01*
X118550500Y-114896535D01*
X118550499Y-114896530D01*
X126609500Y-114896530D01*
X126609500Y-115103469D01*
X126649868Y-115306412D01*
X126649870Y-115306420D01*
X126707629Y-115445863D01*
X126729059Y-115497598D01*
X126758303Y-115541365D01*
X126844024Y-115669657D01*
X126990342Y-115815975D01*
X126990345Y-115815977D01*
X127162402Y-115930941D01*
X127353580Y-116010130D01*
X127556530Y-116050499D01*
X127556534Y-116050500D01*
X127556535Y-116050500D01*
X127763466Y-116050500D01*
X127763467Y-116050499D01*
X127966420Y-116010130D01*
X128157598Y-115930941D01*
X128329655Y-115815977D01*
X128475977Y-115669655D01*
X128590941Y-115497598D01*
X128670130Y-115306420D01*
X128710500Y-115103465D01*
X128710500Y-114896535D01*
X128670130Y-114693580D01*
X128590941Y-114502402D01*
X128475977Y-114330345D01*
X128475975Y-114330342D01*
X128329657Y-114184024D01*
X128201721Y-114098541D01*
X128157598Y-114069059D01*
X128050832Y-114024835D01*
X127966420Y-113989870D01*
X127966412Y-113989868D01*
X127763469Y-113949500D01*
X127763465Y-113949500D01*
X127556535Y-113949500D01*
X127556530Y-113949500D01*
X127353587Y-113989868D01*
X127353579Y-113989870D01*
X127162403Y-114069058D01*
X126990342Y-114184024D01*
X126844024Y-114330342D01*
X126729058Y-114502403D01*
X126649870Y-114693579D01*
X126649868Y-114693587D01*
X126609500Y-114896530D01*
X118550499Y-114896530D01*
X118510130Y-114693580D01*
X118491260Y-114648025D01*
X118483792Y-114578560D01*
X118515066Y-114516080D01*
X118518081Y-114512954D01*
X118825074Y-114205963D01*
X118853973Y-114155909D01*
X118857674Y-114149500D01*
X118874507Y-114120343D01*
X118874508Y-114120342D01*
X118874508Y-114120340D01*
X118874510Y-114120338D01*
X118900100Y-114024835D01*
X118900100Y-112849999D01*
X134837204Y-112849999D01*
X134837205Y-112850000D01*
X135653590Y-112850000D01*
X135650556Y-112855255D01*
X135625000Y-112950630D01*
X135625000Y-113049370D01*
X135650556Y-113144745D01*
X135653590Y-113150000D01*
X134837204Y-113150000D01*
X134859584Y-113262512D01*
X134859587Y-113262522D01*
X134927428Y-113426307D01*
X134927433Y-113426316D01*
X135025923Y-113573716D01*
X135025926Y-113573720D01*
X135151279Y-113699073D01*
X135151283Y-113699076D01*
X135298683Y-113797566D01*
X135298692Y-113797571D01*
X135462479Y-113865413D01*
X135462487Y-113865415D01*
X135636353Y-113899999D01*
X135636357Y-113900000D01*
X135850000Y-113900000D01*
X135850000Y-113346410D01*
X135855255Y-113349444D01*
X135950630Y-113375000D01*
X136049370Y-113375000D01*
X136144745Y-113349444D01*
X136150000Y-113346410D01*
X136150000Y-113900000D01*
X136363643Y-113900000D01*
X136363646Y-113899999D01*
X136537512Y-113865415D01*
X136537520Y-113865413D01*
X136701307Y-113797571D01*
X136701316Y-113797566D01*
X136848716Y-113699076D01*
X136848720Y-113699073D01*
X136974073Y-113573720D01*
X136974076Y-113573716D01*
X137072566Y-113426316D01*
X137072571Y-113426307D01*
X137140412Y-113262522D01*
X137140415Y-113262512D01*
X137162795Y-113150000D01*
X136346410Y-113150000D01*
X136349444Y-113144745D01*
X136375000Y-113049370D01*
X136375000Y-112950630D01*
X136349444Y-112855255D01*
X136346410Y-112850000D01*
X137162795Y-112850000D01*
X137162795Y-112849999D01*
X137140415Y-112737487D01*
X137140412Y-112737477D01*
X137072571Y-112573692D01*
X137072566Y-112573683D01*
X136974076Y-112426283D01*
X136974073Y-112426279D01*
X136848720Y-112300926D01*
X136848716Y-112300923D01*
X136701316Y-112202433D01*
X136701307Y-112202428D01*
X136537520Y-112134586D01*
X136537512Y-112134584D01*
X136363646Y-112100000D01*
X136150000Y-112100000D01*
X136150000Y-112653589D01*
X136144745Y-112650556D01*
X136049370Y-112625000D01*
X135950630Y-112625000D01*
X135855255Y-112650556D01*
X135850000Y-112653589D01*
X135850000Y-112100000D01*
X135636353Y-112100000D01*
X135462487Y-112134584D01*
X135462479Y-112134586D01*
X135298692Y-112202428D01*
X135298683Y-112202433D01*
X135151283Y-112300923D01*
X135151279Y-112300926D01*
X135025926Y-112426279D01*
X135025923Y-112426283D01*
X134927433Y-112573683D01*
X134927428Y-112573692D01*
X134859587Y-112737477D01*
X134859584Y-112737487D01*
X134837204Y-112849999D01*
X118900100Y-112849999D01*
X118900100Y-100909448D01*
X121349500Y-100909448D01*
X121349500Y-101090551D01*
X121377829Y-101269410D01*
X121433787Y-101441636D01*
X121433788Y-101441639D01*
X121516006Y-101602997D01*
X121622441Y-101749494D01*
X121622445Y-101749499D01*
X121750500Y-101877554D01*
X121750505Y-101877558D01*
X121878287Y-101970396D01*
X121897006Y-101983996D01*
X121985588Y-102029131D01*
X122058360Y-102066211D01*
X122058363Y-102066212D01*
X122144476Y-102094191D01*
X122230591Y-102122171D01*
X122313429Y-102135291D01*
X122409449Y-102150500D01*
X122409454Y-102150500D01*
X122590551Y-102150500D01*
X122677259Y-102136765D01*
X122769409Y-102122171D01*
X122941639Y-102066211D01*
X123102994Y-101983996D01*
X123249501Y-101877553D01*
X123377553Y-101749501D01*
X123483996Y-101602994D01*
X123566211Y-101441639D01*
X123622171Y-101269409D01*
X123649003Y-101100000D01*
X123650500Y-101090551D01*
X123650500Y-100909448D01*
X123634019Y-100805397D01*
X123622171Y-100730591D01*
X123566211Y-100558361D01*
X123566211Y-100558360D01*
X123537740Y-100502484D01*
X123483996Y-100397006D01*
X123466367Y-100372741D01*
X123377558Y-100250505D01*
X123377554Y-100250500D01*
X123249499Y-100122445D01*
X123249494Y-100122441D01*
X123102997Y-100016006D01*
X123102996Y-100016005D01*
X123102994Y-100016004D01*
X123051300Y-99989664D01*
X122941639Y-99933788D01*
X122941636Y-99933787D01*
X122769410Y-99877829D01*
X122590551Y-99849500D01*
X122590546Y-99849500D01*
X122409454Y-99849500D01*
X122409449Y-99849500D01*
X122230589Y-99877829D01*
X122058363Y-99933787D01*
X122058360Y-99933788D01*
X121897002Y-100016006D01*
X121750505Y-100122441D01*
X121750500Y-100122445D01*
X121622445Y-100250500D01*
X121622441Y-100250505D01*
X121516006Y-100397002D01*
X121433788Y-100558360D01*
X121433787Y-100558363D01*
X121377829Y-100730589D01*
X121349500Y-100909448D01*
X118900100Y-100909448D01*
X118900100Y-98913388D01*
X127049500Y-98913388D01*
X127049500Y-99086610D01*
X127064928Y-99184023D01*
X127076598Y-99257701D01*
X127130127Y-99422445D01*
X127208768Y-99576788D01*
X127310586Y-99716928D01*
X127433072Y-99839414D01*
X127573212Y-99941232D01*
X127727555Y-100019873D01*
X127892299Y-100073402D01*
X128063389Y-100100500D01*
X128063390Y-100100500D01*
X129436610Y-100100500D01*
X129436611Y-100100500D01*
X129607701Y-100073402D01*
X129772445Y-100019873D01*
X129926788Y-99941232D01*
X130066928Y-99839414D01*
X130189414Y-99716928D01*
X130291232Y-99576788D01*
X130369873Y-99422445D01*
X130423402Y-99257701D01*
X130448610Y-99098543D01*
X135999499Y-99098543D01*
X136037947Y-99291829D01*
X136037950Y-99291839D01*
X136113364Y-99473907D01*
X136113371Y-99473920D01*
X136222860Y-99637781D01*
X136222863Y-99637785D01*
X136362214Y-99777136D01*
X136362218Y-99777139D01*
X136526079Y-99886628D01*
X136526092Y-99886635D01*
X136708160Y-99962049D01*
X136708165Y-99962051D01*
X136708169Y-99962051D01*
X136708170Y-99962052D01*
X136901456Y-100000500D01*
X136901459Y-100000500D01*
X137098543Y-100000500D01*
X137228582Y-99974632D01*
X137291835Y-99962051D01*
X137473914Y-99886632D01*
X137637782Y-99777139D01*
X137777139Y-99637782D01*
X137886632Y-99473914D01*
X137962051Y-99291835D01*
X137983496Y-99184024D01*
X138000500Y-99098543D01*
X138000500Y-98901456D01*
X137962052Y-98708170D01*
X137962051Y-98708169D01*
X137962051Y-98708165D01*
X137940593Y-98656360D01*
X137886635Y-98526092D01*
X137886628Y-98526079D01*
X137777139Y-98362218D01*
X137777136Y-98362214D01*
X137637785Y-98222863D01*
X137637781Y-98222860D01*
X137473920Y-98113371D01*
X137473907Y-98113364D01*
X137291839Y-98037950D01*
X137291829Y-98037947D01*
X137098543Y-97999500D01*
X137098541Y-97999500D01*
X136901459Y-97999500D01*
X136901457Y-97999500D01*
X136708170Y-98037947D01*
X136708160Y-98037950D01*
X136526092Y-98113364D01*
X136526079Y-98113371D01*
X136362218Y-98222860D01*
X136362214Y-98222863D01*
X136222863Y-98362214D01*
X136222860Y-98362218D01*
X136113371Y-98526079D01*
X136113364Y-98526092D01*
X136037950Y-98708160D01*
X136037947Y-98708170D01*
X135999500Y-98901456D01*
X135999500Y-98901459D01*
X135999500Y-99098541D01*
X135999500Y-99098543D01*
X135999499Y-99098543D01*
X130448610Y-99098543D01*
X130450500Y-99086611D01*
X130450500Y-98913389D01*
X130448610Y-98901459D01*
X130423402Y-98742302D01*
X130423402Y-98742299D01*
X130369873Y-98577555D01*
X130291232Y-98423212D01*
X130189414Y-98283072D01*
X130066928Y-98160586D01*
X129926788Y-98058768D01*
X129772445Y-97980127D01*
X129607701Y-97926598D01*
X129607699Y-97926597D01*
X129607698Y-97926597D01*
X129476271Y-97905781D01*
X129436611Y-97899500D01*
X128063389Y-97899500D01*
X128023728Y-97905781D01*
X127892302Y-97926597D01*
X127727552Y-97980128D01*
X127573211Y-98058768D01*
X127528514Y-98091243D01*
X127433072Y-98160586D01*
X127433070Y-98160588D01*
X127433069Y-98160588D01*
X127310588Y-98283069D01*
X127310588Y-98283070D01*
X127310586Y-98283072D01*
X127266859Y-98343256D01*
X127208768Y-98423211D01*
X127130128Y-98577552D01*
X127076597Y-98742302D01*
X127049500Y-98913388D01*
X118900100Y-98913388D01*
X118900100Y-93850000D01*
X127009423Y-93850000D01*
X128169027Y-93850000D01*
X128150000Y-93921009D01*
X128150000Y-94078991D01*
X128169027Y-94150000D01*
X127009423Y-94150000D01*
X127028317Y-94269293D01*
X127084251Y-94441444D01*
X127084252Y-94441447D01*
X127166434Y-94602734D01*
X127272823Y-94749169D01*
X127400830Y-94877176D01*
X127547265Y-94983565D01*
X127708552Y-95065747D01*
X127708555Y-95065748D01*
X127880706Y-95121682D01*
X128059494Y-95150000D01*
X128600000Y-95150000D01*
X128600000Y-94580973D01*
X128671009Y-94600000D01*
X128828991Y-94600000D01*
X128900000Y-94580973D01*
X128900000Y-95150000D01*
X129440506Y-95150000D01*
X129619293Y-95121682D01*
X129791444Y-95065748D01*
X129791447Y-95065747D01*
X129952734Y-94983565D01*
X130099169Y-94877176D01*
X130227176Y-94749169D01*
X130333565Y-94602734D01*
X130415747Y-94441447D01*
X130415748Y-94441444D01*
X130471682Y-94269293D01*
X130490577Y-94150000D01*
X129330973Y-94150000D01*
X129350000Y-94078991D01*
X129350000Y-93921009D01*
X129330973Y-93850000D01*
X130490577Y-93850000D01*
X130471682Y-93730706D01*
X130415748Y-93558555D01*
X130415747Y-93558552D01*
X130333565Y-93397265D01*
X130227176Y-93250830D01*
X130099169Y-93122823D01*
X129952734Y-93016434D01*
X129791447Y-92934252D01*
X129791444Y-92934251D01*
X129619293Y-92878317D01*
X129440506Y-92850000D01*
X128900000Y-92850000D01*
X128900000Y-93419026D01*
X128828991Y-93400000D01*
X128671009Y-93400000D01*
X128600000Y-93419026D01*
X128600000Y-92850000D01*
X128059494Y-92850000D01*
X127880706Y-92878317D01*
X127708555Y-92934251D01*
X127708552Y-92934252D01*
X127547265Y-93016434D01*
X127400830Y-93122823D01*
X127272823Y-93250830D01*
X127166434Y-93397265D01*
X127084252Y-93558552D01*
X127084251Y-93558555D01*
X127028317Y-93730706D01*
X127009423Y-93850000D01*
X118900100Y-93850000D01*
X118900100Y-91926565D01*
X118895514Y-91909448D01*
X121349500Y-91909448D01*
X121349500Y-92090551D01*
X121377829Y-92269410D01*
X121433787Y-92441636D01*
X121433788Y-92441639D01*
X121516006Y-92602997D01*
X121622441Y-92749494D01*
X121622445Y-92749499D01*
X121750500Y-92877554D01*
X121750505Y-92877558D01*
X121828539Y-92934252D01*
X121897006Y-92983996D01*
X121965662Y-93018978D01*
X122058360Y-93066211D01*
X122058363Y-93066212D01*
X122144476Y-93094191D01*
X122230591Y-93122171D01*
X122313429Y-93135291D01*
X122409449Y-93150500D01*
X122409454Y-93150500D01*
X122590551Y-93150500D01*
X122677259Y-93136765D01*
X122769409Y-93122171D01*
X122941639Y-93066211D01*
X123102994Y-92983996D01*
X123249501Y-92877553D01*
X123377553Y-92749501D01*
X123483996Y-92602994D01*
X123566211Y-92441639D01*
X123622171Y-92269409D01*
X123642187Y-92143033D01*
X123650500Y-92090551D01*
X123650500Y-91909448D01*
X123634019Y-91805397D01*
X123622171Y-91730591D01*
X123566211Y-91558361D01*
X123566211Y-91558360D01*
X123526851Y-91481114D01*
X123483996Y-91397006D01*
X123470396Y-91378287D01*
X123377558Y-91250505D01*
X123377554Y-91250500D01*
X123249499Y-91122445D01*
X123249494Y-91122441D01*
X123102997Y-91016006D01*
X123102996Y-91016005D01*
X123102994Y-91016004D01*
X123051300Y-90989664D01*
X122941639Y-90933788D01*
X122941636Y-90933787D01*
X122769410Y-90877829D01*
X122590551Y-90849500D01*
X122590546Y-90849500D01*
X122409454Y-90849500D01*
X122409449Y-90849500D01*
X122230589Y-90877829D01*
X122058363Y-90933787D01*
X122058360Y-90933788D01*
X121897002Y-91016006D01*
X121750505Y-91122441D01*
X121750500Y-91122445D01*
X121622445Y-91250500D01*
X121622441Y-91250505D01*
X121516006Y-91397002D01*
X121433788Y-91558360D01*
X121433787Y-91558363D01*
X121377829Y-91730589D01*
X121349500Y-91909448D01*
X118895514Y-91909448D01*
X118874510Y-91831062D01*
X118825075Y-91745438D01*
X118755162Y-91675525D01*
X116035919Y-88956282D01*
X116021215Y-88929354D01*
X116004623Y-88903536D01*
X116003731Y-88897335D01*
X116002434Y-88894959D01*
X115999600Y-88868601D01*
X115999600Y-87896579D01*
X135950000Y-87896579D01*
X135950000Y-88103420D01*
X135990348Y-88306266D01*
X135990350Y-88306274D01*
X136069502Y-88497363D01*
X136069502Y-88497364D01*
X136158021Y-88629843D01*
X136158023Y-88629843D01*
X136669397Y-88118470D01*
X136673852Y-88135095D01*
X136719930Y-88214905D01*
X136785095Y-88280070D01*
X136864905Y-88326148D01*
X136881529Y-88330602D01*
X136370155Y-88841975D01*
X136502631Y-88930494D01*
X136502641Y-88930499D01*
X136693725Y-89009649D01*
X136693733Y-89009651D01*
X136896579Y-89049999D01*
X136896583Y-89050000D01*
X137103417Y-89050000D01*
X137103420Y-89049999D01*
X137306266Y-89009651D01*
X137306274Y-89009649D01*
X137497359Y-88930499D01*
X137629844Y-88841976D01*
X137118471Y-88330602D01*
X137135095Y-88326148D01*
X137214905Y-88280070D01*
X137280070Y-88214905D01*
X137326148Y-88135095D01*
X137330602Y-88118470D01*
X137841976Y-88629844D01*
X137930499Y-88497359D01*
X138009649Y-88306274D01*
X138009651Y-88306266D01*
X138049999Y-88103420D01*
X138050000Y-88103417D01*
X138050000Y-87896583D01*
X138049999Y-87896579D01*
X138009651Y-87693733D01*
X138009649Y-87693725D01*
X137930499Y-87502641D01*
X137930494Y-87502631D01*
X137841975Y-87370155D01*
X137330602Y-87881528D01*
X137326148Y-87864905D01*
X137280070Y-87785095D01*
X137214905Y-87719930D01*
X137135095Y-87673852D01*
X137118470Y-87669397D01*
X137629843Y-87158023D01*
X137629843Y-87158021D01*
X137497363Y-87069502D01*
X137306274Y-86990350D01*
X137306266Y-86990348D01*
X137103420Y-86950000D01*
X136896579Y-86950000D01*
X136693733Y-86990348D01*
X136693725Y-86990350D01*
X136502639Y-87069501D01*
X136370155Y-87158023D01*
X136370154Y-87158023D01*
X136881529Y-87669397D01*
X136864905Y-87673852D01*
X136785095Y-87719930D01*
X136719930Y-87785095D01*
X136673852Y-87864905D01*
X136669397Y-87881528D01*
X136158023Y-87370154D01*
X136158023Y-87370155D01*
X136069501Y-87502639D01*
X135990350Y-87693725D01*
X135990348Y-87693733D01*
X135950000Y-87896579D01*
X115999600Y-87896579D01*
X115999600Y-87124000D01*
X116019285Y-87056961D01*
X116072089Y-87011206D01*
X116123600Y-87000000D01*
X129000000Y-87000000D01*
X129000000Y-75000000D01*
X116123600Y-75000000D01*
X116056561Y-74980315D01*
X116010806Y-74927511D01*
X115999600Y-74876000D01*
X115999600Y-73738499D01*
X116019285Y-73671460D01*
X116035919Y-73650818D01*
X117942759Y-71743978D01*
X118186737Y-71500000D01*
X124800000Y-71500000D01*
X137029600Y-71500000D01*
X137096639Y-71519685D01*
X137142394Y-71572489D01*
X137153600Y-71624000D01*
X137153600Y-77699501D01*
X137133915Y-77766540D01*
X137117281Y-77787182D01*
X131908282Y-82996181D01*
X131846959Y-83029666D01*
X131820601Y-83032500D01*
X131723443Y-83032500D01*
X131570716Y-83073423D01*
X131570709Y-83073426D01*
X131433790Y-83152475D01*
X131433782Y-83152481D01*
X131321981Y-83264282D01*
X131321975Y-83264290D01*
X131242926Y-83401209D01*
X131242923Y-83401216D01*
X131202000Y-83553943D01*
X131202000Y-83712057D01*
X131238997Y-83850130D01*
X131242923Y-83864783D01*
X131242926Y-83864790D01*
X131321975Y-84001709D01*
X131321979Y-84001714D01*
X131321980Y-84001716D01*
X131433784Y-84113520D01*
X131433786Y-84113521D01*
X131433790Y-84113524D01*
X131570709Y-84192573D01*
X131570716Y-84192577D01*
X131723443Y-84233500D01*
X131723445Y-84233500D01*
X131881555Y-84233500D01*
X131881557Y-84233500D01*
X132034284Y-84192577D01*
X132171216Y-84113520D01*
X132283020Y-84001716D01*
X132362077Y-83864784D01*
X132403000Y-83712057D01*
X132403000Y-83614899D01*
X132422685Y-83547860D01*
X132439319Y-83527218D01*
X135108684Y-80857853D01*
X137829574Y-78136963D01*
X137829575Y-78136962D01*
X137879010Y-78051338D01*
X137904600Y-77955835D01*
X137904600Y-69756500D01*
X137924285Y-69689461D01*
X137977089Y-69643706D01*
X138028600Y-69632500D01*
X140488217Y-69632500D01*
X140488226Y-69632500D01*
X140545287Y-69626365D01*
X140674369Y-69578220D01*
X140784659Y-69495659D01*
X140867220Y-69385369D01*
X140915365Y-69256287D01*
X140921500Y-69199226D01*
X140921500Y-68040774D01*
X140915365Y-67983713D01*
X140867220Y-67854631D01*
X140820016Y-67791573D01*
X140784659Y-67744340D01*
X140674368Y-67661779D01*
X140545288Y-67613635D01*
X140545284Y-67613634D01*
X140488236Y-67607501D01*
X140488234Y-67607500D01*
X140488226Y-67607500D01*
X140488218Y-67607500D01*
X138028600Y-67607500D01*
X137961561Y-67587815D01*
X137915806Y-67535011D01*
X137904600Y-67483500D01*
X137904600Y-67051696D01*
X137924285Y-66984657D01*
X137977089Y-66938902D01*
X138046247Y-66928958D01*
X138097492Y-66948595D01*
X138140396Y-66977263D01*
X138140397Y-66977264D01*
X138140399Y-66977265D01*
X138140401Y-66977266D01*
X138156913Y-66984105D01*
X138183770Y-66999398D01*
X138235266Y-67037947D01*
X138235631Y-67038220D01*
X138364713Y-67086365D01*
X138421774Y-67092500D01*
X138421783Y-67092500D01*
X140488217Y-67092500D01*
X140488226Y-67092500D01*
X140545287Y-67086365D01*
X140674369Y-67038220D01*
X140784659Y-66955659D01*
X140867220Y-66845369D01*
X140915365Y-66716287D01*
X140921500Y-66659226D01*
X140921500Y-65500774D01*
X140915365Y-65443713D01*
X140867220Y-65314631D01*
X140784659Y-65204340D01*
X140674368Y-65121779D01*
X140545288Y-65073635D01*
X140545284Y-65073634D01*
X140488236Y-65067501D01*
X140488234Y-65067500D01*
X140488226Y-65067500D01*
X138421774Y-65067500D01*
X138421766Y-65067500D01*
X138421763Y-65067501D01*
X138364715Y-65073634D01*
X138364711Y-65073635D01*
X138235631Y-65121779D01*
X138183769Y-65160601D01*
X138156920Y-65175890D01*
X138140405Y-65182731D01*
X138140399Y-65182734D01*
X138097489Y-65211406D01*
X138030812Y-65232283D01*
X137963432Y-65213798D01*
X137916742Y-65161818D01*
X137904600Y-65108303D01*
X137904600Y-64511696D01*
X137924285Y-64444657D01*
X137977089Y-64398902D01*
X138046247Y-64388958D01*
X138097492Y-64408595D01*
X138140396Y-64437263D01*
X138140397Y-64437264D01*
X138140399Y-64437265D01*
X138140401Y-64437266D01*
X138156913Y-64444105D01*
X138183771Y-64459398D01*
X138235631Y-64498220D01*
X138364713Y-64546365D01*
X138421774Y-64552500D01*
X138421783Y-64552500D01*
X140488217Y-64552500D01*
X140488226Y-64552500D01*
X140545287Y-64546365D01*
X140674369Y-64498220D01*
X140784659Y-64415659D01*
X140867220Y-64305369D01*
X140915365Y-64176287D01*
X140921500Y-64119226D01*
X140921500Y-62960774D01*
X140915365Y-62903713D01*
X140867220Y-62774631D01*
X140805576Y-62692283D01*
X140784659Y-62664340D01*
X140674368Y-62581779D01*
X140545288Y-62533635D01*
X140545284Y-62533634D01*
X140488236Y-62527501D01*
X140488234Y-62527500D01*
X140488226Y-62527500D01*
X138421774Y-62527500D01*
X138421766Y-62527500D01*
X138421763Y-62527501D01*
X138364715Y-62533634D01*
X138364711Y-62533635D01*
X138235631Y-62581779D01*
X138183769Y-62620601D01*
X138175230Y-62623785D01*
X138156920Y-62635890D01*
X138140405Y-62642731D01*
X138140399Y-62642734D01*
X138097489Y-62671406D01*
X138030812Y-62692283D01*
X137963432Y-62673798D01*
X137916742Y-62621818D01*
X137904600Y-62568303D01*
X137904600Y-62297798D01*
X137908566Y-62284291D01*
X137907701Y-62270241D01*
X137918214Y-62251432D01*
X137924285Y-62230759D01*
X137940915Y-62210121D01*
X138148099Y-62002936D01*
X138209420Y-61969453D01*
X138279111Y-61974437D01*
X138279112Y-61974438D01*
X138364704Y-62006362D01*
X138364707Y-62006362D01*
X138364713Y-62006365D01*
X138421774Y-62012500D01*
X138421783Y-62012500D01*
X140488217Y-62012500D01*
X140488226Y-62012500D01*
X140545287Y-62006365D01*
X140674369Y-61958220D01*
X140784659Y-61875659D01*
X140867220Y-61765369D01*
X140915365Y-61636287D01*
X140921500Y-61579226D01*
X140921500Y-60420774D01*
X140915365Y-60363713D01*
X140867220Y-60234631D01*
X140851431Y-60213539D01*
X140784659Y-60124340D01*
X140674368Y-60041779D01*
X140545288Y-59993635D01*
X140545284Y-59993634D01*
X140488236Y-59987501D01*
X140488234Y-59987500D01*
X140488226Y-59987500D01*
X138421774Y-59987500D01*
X138421766Y-59987500D01*
X138421763Y-59987501D01*
X138364715Y-59993634D01*
X138364711Y-59993635D01*
X138235631Y-60041779D01*
X138183769Y-60080601D01*
X138156920Y-60095890D01*
X138140405Y-60102731D01*
X138140403Y-60102732D01*
X137974569Y-60213539D01*
X137974565Y-60213542D01*
X137833542Y-60354565D01*
X137833539Y-60354569D01*
X137722737Y-60520394D01*
X137722730Y-60520407D01*
X137646411Y-60704660D01*
X137646408Y-60704670D01*
X137607500Y-60900274D01*
X137607500Y-60900277D01*
X137607500Y-61099723D01*
X137607500Y-61099725D01*
X137607499Y-61099725D01*
X137646409Y-61295333D01*
X137646410Y-61295335D01*
X137657822Y-61322888D01*
X137665289Y-61392357D01*
X137634014Y-61454836D01*
X137630941Y-61458020D01*
X137411681Y-61677281D01*
X137350358Y-61710766D01*
X137280667Y-61705782D01*
X137224733Y-61663911D01*
X137200316Y-61598446D01*
X137200000Y-61589600D01*
X137200000Y-58559725D01*
X137607499Y-58559725D01*
X137646408Y-58755329D01*
X137646411Y-58755339D01*
X137722730Y-58939592D01*
X137722737Y-58939605D01*
X137833539Y-59105430D01*
X137833542Y-59105434D01*
X137974565Y-59246457D01*
X137974569Y-59246460D01*
X138140397Y-59357264D01*
X138140399Y-59357265D01*
X138140401Y-59357266D01*
X138156913Y-59364105D01*
X138183771Y-59379398D01*
X138235631Y-59418220D01*
X138364713Y-59466365D01*
X138421774Y-59472500D01*
X138421783Y-59472500D01*
X140488217Y-59472500D01*
X140488226Y-59472500D01*
X140545287Y-59466365D01*
X140674369Y-59418220D01*
X140784659Y-59335659D01*
X140867220Y-59225369D01*
X140915365Y-59096287D01*
X140921500Y-59039226D01*
X140921500Y-57880774D01*
X140915365Y-57823713D01*
X140867220Y-57694631D01*
X140851431Y-57673539D01*
X140784659Y-57584340D01*
X140674368Y-57501779D01*
X140545288Y-57453635D01*
X140545284Y-57453634D01*
X140488236Y-57447501D01*
X140488234Y-57447500D01*
X140488226Y-57447500D01*
X138421774Y-57447500D01*
X138421766Y-57447500D01*
X138421763Y-57447501D01*
X138364715Y-57453634D01*
X138364711Y-57453635D01*
X138235631Y-57501779D01*
X138183769Y-57540601D01*
X138156920Y-57555890D01*
X138140405Y-57562731D01*
X138140403Y-57562732D01*
X137974569Y-57673539D01*
X137974565Y-57673542D01*
X137833542Y-57814565D01*
X137833539Y-57814569D01*
X137722737Y-57980394D01*
X137722730Y-57980407D01*
X137646411Y-58164660D01*
X137646408Y-58164670D01*
X137607500Y-58360274D01*
X137607500Y-58360277D01*
X137607500Y-58559723D01*
X137607500Y-58559725D01*
X137607499Y-58559725D01*
X137200000Y-58559725D01*
X137200000Y-56982000D01*
X138605131Y-56982000D01*
X138605132Y-56982001D01*
X140304868Y-56982001D01*
X140304868Y-56982000D01*
X139455000Y-56132133D01*
X138605131Y-56982000D01*
X137200000Y-56982000D01*
X137200000Y-55815398D01*
X137558000Y-55815398D01*
X137558000Y-56024603D01*
X137598809Y-56229767D01*
X137598812Y-56229776D01*
X137678863Y-56423039D01*
X137678869Y-56423050D01*
X137769371Y-56558496D01*
X137769371Y-56558497D01*
X138176329Y-56151539D01*
X138219901Y-56227008D01*
X138312993Y-56320100D01*
X138388460Y-56363670D01*
X137981503Y-56770628D01*
X137981503Y-56770630D01*
X138116948Y-56861130D01*
X138116956Y-56861135D01*
X138131945Y-56867343D01*
X138159423Y-56883102D01*
X138206092Y-56918493D01*
X138233548Y-56929319D01*
X138297644Y-56865225D01*
X138763747Y-56399121D01*
X138812993Y-56385926D01*
X138927007Y-56320100D01*
X139020099Y-56227008D01*
X139085925Y-56112994D01*
X139099120Y-56063748D01*
X139242868Y-55920001D01*
X139242868Y-55920000D01*
X139667132Y-55920000D01*
X139667132Y-55920001D01*
X140676450Y-56929319D01*
X140676451Y-56929319D01*
X140703906Y-56918493D01*
X140819691Y-56830692D01*
X140907490Y-56714911D01*
X140960799Y-56579729D01*
X140971000Y-56494787D01*
X140971000Y-55345214D01*
X140960799Y-55260272D01*
X140907490Y-55125090D01*
X140819691Y-55009309D01*
X140703910Y-54921510D01*
X140676451Y-54910681D01*
X140676450Y-54910681D01*
X139667132Y-55920000D01*
X139242868Y-55920000D01*
X139099120Y-55776252D01*
X139085925Y-55727008D01*
X139020099Y-55612994D01*
X138927007Y-55519902D01*
X138812993Y-55454076D01*
X138763748Y-55440880D01*
X138297644Y-54974777D01*
X138233548Y-54910681D01*
X138233546Y-54910681D01*
X138206091Y-54921508D01*
X138206088Y-54921510D01*
X138159421Y-54956899D01*
X138131956Y-54972654D01*
X138116952Y-54978869D01*
X138116950Y-54978870D01*
X137981503Y-55069372D01*
X137981502Y-55069372D01*
X138388460Y-55476330D01*
X138312993Y-55519902D01*
X138219901Y-55612994D01*
X138176329Y-55688461D01*
X137769371Y-55281503D01*
X137769371Y-55281504D01*
X137678869Y-55416951D01*
X137678863Y-55416962D01*
X137598812Y-55610225D01*
X137598809Y-55610234D01*
X137558000Y-55815398D01*
X137200000Y-55815398D01*
X137200000Y-54858001D01*
X138605131Y-54858001D01*
X139455000Y-55707869D01*
X140304868Y-54858001D01*
X138605131Y-54858001D01*
X137200000Y-54858001D01*
X137200000Y-53479725D01*
X137607499Y-53479725D01*
X137646408Y-53675329D01*
X137646411Y-53675339D01*
X137722730Y-53859592D01*
X137722737Y-53859605D01*
X137833539Y-54025430D01*
X137833542Y-54025434D01*
X137974565Y-54166457D01*
X137974569Y-54166460D01*
X138140397Y-54277264D01*
X138140399Y-54277265D01*
X138140401Y-54277266D01*
X138156913Y-54284105D01*
X138183771Y-54299398D01*
X138235631Y-54338220D01*
X138364713Y-54386365D01*
X138421774Y-54392500D01*
X138421783Y-54392500D01*
X140488217Y-54392500D01*
X140488226Y-54392500D01*
X140545287Y-54386365D01*
X140674369Y-54338220D01*
X140784659Y-54255659D01*
X140867220Y-54145369D01*
X140915365Y-54016287D01*
X140921500Y-53959226D01*
X140921500Y-52800774D01*
X140915365Y-52743713D01*
X140867220Y-52614631D01*
X140851431Y-52593539D01*
X140784659Y-52504340D01*
X140674368Y-52421779D01*
X140545288Y-52373635D01*
X140545284Y-52373634D01*
X140488236Y-52367501D01*
X140488234Y-52367500D01*
X140488226Y-52367500D01*
X138421774Y-52367500D01*
X138421766Y-52367500D01*
X138421763Y-52367501D01*
X138364715Y-52373634D01*
X138364711Y-52373635D01*
X138235631Y-52421779D01*
X138183769Y-52460601D01*
X138156920Y-52475890D01*
X138140405Y-52482731D01*
X138140403Y-52482732D01*
X137974569Y-52593539D01*
X137974565Y-52593542D01*
X137833542Y-52734565D01*
X137833539Y-52734569D01*
X137722737Y-52900394D01*
X137722730Y-52900407D01*
X137646411Y-53084660D01*
X137646408Y-53084670D01*
X137607500Y-53280274D01*
X137607500Y-53280277D01*
X137607500Y-53479723D01*
X137607500Y-53479725D01*
X137607499Y-53479725D01*
X137200000Y-53479725D01*
X137200000Y-51000000D01*
X124800000Y-51000000D01*
X124800000Y-71500000D01*
X118186737Y-71500000D01*
X119879674Y-69807063D01*
X119879675Y-69807062D01*
X119929110Y-69721438D01*
X119954700Y-69625935D01*
X119954700Y-68040782D01*
X121078500Y-68040782D01*
X121078500Y-69199217D01*
X121078501Y-69199236D01*
X121084634Y-69256284D01*
X121084635Y-69256288D01*
X121132779Y-69385368D01*
X121215340Y-69495659D01*
X121273774Y-69539401D01*
X121325631Y-69578220D01*
X121454713Y-69626365D01*
X121511774Y-69632500D01*
X121511783Y-69632500D01*
X123578217Y-69632500D01*
X123578226Y-69632500D01*
X123635287Y-69626365D01*
X123764369Y-69578220D01*
X123816227Y-69539398D01*
X123843084Y-69524105D01*
X123859599Y-69517266D01*
X124025431Y-69406460D01*
X124166460Y-69265431D01*
X124277266Y-69099599D01*
X124353590Y-68915335D01*
X124392500Y-68719723D01*
X124392500Y-68520277D01*
X124392500Y-68520274D01*
X124353591Y-68324670D01*
X124353590Y-68324669D01*
X124353590Y-68324665D01*
X124346033Y-68306420D01*
X124277269Y-68140407D01*
X124277262Y-68140394D01*
X124166460Y-67974569D01*
X124166457Y-67974565D01*
X124025434Y-67833542D01*
X124025430Y-67833539D01*
X123859596Y-67722732D01*
X123843084Y-67715893D01*
X123816228Y-67700600D01*
X123764368Y-67661779D01*
X123635288Y-67613635D01*
X123635284Y-67613634D01*
X123578236Y-67607501D01*
X123578234Y-67607500D01*
X123578226Y-67607500D01*
X121511774Y-67607500D01*
X121511766Y-67607500D01*
X121511763Y-67607501D01*
X121454715Y-67613634D01*
X121454711Y-67613635D01*
X121325631Y-67661779D01*
X121215340Y-67744340D01*
X121132779Y-67854631D01*
X121084635Y-67983711D01*
X121084634Y-67983715D01*
X121078501Y-68040763D01*
X121078500Y-68040782D01*
X119954700Y-68040782D01*
X119954700Y-66712699D01*
X119974385Y-66645660D01*
X119991019Y-66625018D01*
X120866819Y-65749218D01*
X120928142Y-65715733D01*
X120997834Y-65720717D01*
X121053767Y-65762589D01*
X121078184Y-65828053D01*
X121078500Y-65836899D01*
X121078500Y-66659225D01*
X121078500Y-66659233D01*
X121078501Y-66659235D01*
X121084634Y-66716283D01*
X121084635Y-66716287D01*
X121132779Y-66845367D01*
X121215340Y-66955658D01*
X121325268Y-67037947D01*
X121325631Y-67038219D01*
X121454713Y-67086364D01*
X121511774Y-67092499D01*
X121511783Y-67092499D01*
X123578217Y-67092499D01*
X123578226Y-67092499D01*
X123635287Y-67086364D01*
X123764369Y-67038219D01*
X123816227Y-66999397D01*
X123843084Y-66984104D01*
X123859599Y-66977265D01*
X124025431Y-66866459D01*
X124166460Y-66725430D01*
X124277266Y-66559598D01*
X124353590Y-66375334D01*
X124373501Y-66275235D01*
X124392500Y-66179724D01*
X124392500Y-65980273D01*
X124353591Y-65784669D01*
X124353590Y-65784668D01*
X124353590Y-65784664D01*
X124325038Y-65715733D01*
X124277269Y-65600406D01*
X124277262Y-65600393D01*
X124166460Y-65434568D01*
X124166457Y-65434564D01*
X124025434Y-65293541D01*
X124025430Y-65293538D01*
X123859596Y-65182731D01*
X123843084Y-65175892D01*
X123816228Y-65160599D01*
X123764368Y-65121778D01*
X123635288Y-65073634D01*
X123635284Y-65073633D01*
X123578236Y-65067500D01*
X123578234Y-65067499D01*
X123578226Y-65067499D01*
X123578218Y-65067499D01*
X121847900Y-65067499D01*
X121780861Y-65047814D01*
X121735106Y-64995010D01*
X121725162Y-64925852D01*
X121754187Y-64862296D01*
X121760219Y-64855818D01*
X122027218Y-64588819D01*
X122088541Y-64555334D01*
X122114899Y-64552500D01*
X123578217Y-64552500D01*
X123578226Y-64552500D01*
X123635287Y-64546365D01*
X123764369Y-64498220D01*
X123816227Y-64459398D01*
X123843084Y-64444105D01*
X123859599Y-64437266D01*
X124025431Y-64326460D01*
X124166460Y-64185431D01*
X124277266Y-64019599D01*
X124353590Y-63835335D01*
X124382543Y-63689781D01*
X124392500Y-63639725D01*
X124392500Y-63440274D01*
X124353591Y-63244670D01*
X124353590Y-63244669D01*
X124353590Y-63244665D01*
X124344446Y-63222589D01*
X124277269Y-63060407D01*
X124277262Y-63060394D01*
X124166460Y-62894569D01*
X124166457Y-62894565D01*
X124025434Y-62753542D01*
X124025430Y-62753539D01*
X123859596Y-62642732D01*
X123843084Y-62635893D01*
X123816228Y-62620600D01*
X123764368Y-62581779D01*
X123635288Y-62533635D01*
X123635284Y-62533634D01*
X123578236Y-62527501D01*
X123578234Y-62527500D01*
X123578226Y-62527500D01*
X123578218Y-62527500D01*
X121847899Y-62527500D01*
X121780860Y-62507815D01*
X121735105Y-62455011D01*
X121725161Y-62385853D01*
X121754186Y-62322297D01*
X121760218Y-62315819D01*
X122027218Y-62048819D01*
X122088541Y-62015334D01*
X122114899Y-62012500D01*
X123578217Y-62012500D01*
X123578226Y-62012500D01*
X123635287Y-62006365D01*
X123764369Y-61958220D01*
X123816227Y-61919398D01*
X123843084Y-61904105D01*
X123859599Y-61897266D01*
X124025431Y-61786460D01*
X124166460Y-61645431D01*
X124277266Y-61479599D01*
X124353590Y-61295335D01*
X124392500Y-61099723D01*
X124392500Y-60900277D01*
X124392500Y-60900274D01*
X124353591Y-60704670D01*
X124353590Y-60704669D01*
X124353590Y-60704665D01*
X124344446Y-60682589D01*
X124277269Y-60520407D01*
X124277262Y-60520394D01*
X124166460Y-60354569D01*
X124166457Y-60354565D01*
X124025434Y-60213542D01*
X124025430Y-60213539D01*
X123859596Y-60102732D01*
X123843084Y-60095893D01*
X123816228Y-60080600D01*
X123764368Y-60041779D01*
X123635288Y-59993635D01*
X123635284Y-59993634D01*
X123578236Y-59987501D01*
X123578234Y-59987500D01*
X123578226Y-59987500D01*
X123578218Y-59987500D01*
X121847899Y-59987500D01*
X121780860Y-59967815D01*
X121735105Y-59915011D01*
X121725161Y-59845853D01*
X121754186Y-59782297D01*
X121760218Y-59775819D01*
X122027218Y-59508819D01*
X122088541Y-59475334D01*
X122114899Y-59472500D01*
X123578217Y-59472500D01*
X123578226Y-59472500D01*
X123635287Y-59466365D01*
X123764369Y-59418220D01*
X123816227Y-59379398D01*
X123843084Y-59364105D01*
X123859599Y-59357266D01*
X124025431Y-59246460D01*
X124166460Y-59105431D01*
X124277266Y-58939599D01*
X124353590Y-58755335D01*
X124392500Y-58559723D01*
X124392500Y-58360277D01*
X124392500Y-58360274D01*
X124353591Y-58164670D01*
X124353590Y-58164669D01*
X124353590Y-58164665D01*
X124313989Y-58069058D01*
X124277269Y-57980407D01*
X124277262Y-57980394D01*
X124166460Y-57814569D01*
X124166457Y-57814565D01*
X124025434Y-57673542D01*
X124025430Y-57673539D01*
X123859596Y-57562732D01*
X123843084Y-57555893D01*
X123816228Y-57540600D01*
X123764368Y-57501779D01*
X123635288Y-57453635D01*
X123635284Y-57453634D01*
X123578236Y-57447501D01*
X123578234Y-57447500D01*
X123578226Y-57447500D01*
X123578218Y-57447500D01*
X121847899Y-57447500D01*
X121780860Y-57427815D01*
X121735105Y-57375011D01*
X121725161Y-57305853D01*
X121754186Y-57242297D01*
X121760218Y-57235819D01*
X122027218Y-56968819D01*
X122088541Y-56935334D01*
X122114899Y-56932500D01*
X123578217Y-56932500D01*
X123578226Y-56932500D01*
X123635287Y-56926365D01*
X123764369Y-56878220D01*
X123816227Y-56839398D01*
X123843084Y-56824105D01*
X123859599Y-56817266D01*
X124025431Y-56706460D01*
X124166460Y-56565431D01*
X124277266Y-56399599D01*
X124282930Y-56385926D01*
X124353588Y-56215339D01*
X124353590Y-56215335D01*
X124384272Y-56061089D01*
X124392500Y-56019725D01*
X124392500Y-55820274D01*
X124353591Y-55624670D01*
X124353590Y-55624669D01*
X124353590Y-55624665D01*
X124285022Y-55459125D01*
X124277269Y-55440407D01*
X124277262Y-55440394D01*
X124166460Y-55274569D01*
X124166457Y-55274565D01*
X124025434Y-55133542D01*
X124025430Y-55133539D01*
X123859596Y-55022732D01*
X123843084Y-55015893D01*
X123816228Y-55000600D01*
X123764368Y-54961779D01*
X123635288Y-54913635D01*
X123635284Y-54913634D01*
X123578236Y-54907501D01*
X123578234Y-54907500D01*
X123578226Y-54907500D01*
X121511774Y-54907500D01*
X121511766Y-54907500D01*
X121511763Y-54907501D01*
X121454715Y-54913634D01*
X121454711Y-54913635D01*
X121325631Y-54961779D01*
X121215340Y-55044340D01*
X121132779Y-55154631D01*
X121084635Y-55283711D01*
X121084634Y-55283715D01*
X121078501Y-55340763D01*
X121078500Y-55340782D01*
X121078500Y-56499217D01*
X121078501Y-56499236D01*
X121084634Y-56556284D01*
X121084635Y-56556288D01*
X121135879Y-56693678D01*
X121132698Y-56694864D01*
X121144044Y-56747144D01*
X121119593Y-56812596D01*
X121108045Y-56825916D01*
X120760538Y-57173425D01*
X120690626Y-57243336D01*
X120641191Y-57328959D01*
X120641191Y-57328960D01*
X120641190Y-57328962D01*
X120615600Y-57424465D01*
X120615600Y-57424467D01*
X120615600Y-58445000D01*
X120595915Y-58512039D01*
X120579281Y-58532681D01*
X115422181Y-63689781D01*
X115360858Y-63723266D01*
X115291166Y-63718282D01*
X115235233Y-63676410D01*
X115210816Y-63610946D01*
X115210500Y-63602100D01*
X115210500Y-63396534D01*
X115210499Y-63396530D01*
X115188885Y-63287868D01*
X115170130Y-63193580D01*
X115090941Y-63002402D01*
X114975977Y-62830345D01*
X114975975Y-62830342D01*
X114829657Y-62684024D01*
X114738656Y-62623220D01*
X114657598Y-62569059D01*
X114657595Y-62569057D01*
X114657594Y-62569057D01*
X114612045Y-62550189D01*
X114557643Y-62506347D01*
X114535579Y-62440053D01*
X114535500Y-62435629D01*
X114535500Y-60064369D01*
X114555185Y-59997330D01*
X114607989Y-59951575D01*
X114611992Y-59949831D01*
X114657598Y-59930941D01*
X114829655Y-59815977D01*
X114975977Y-59669655D01*
X115090941Y-59497598D01*
X115170130Y-59306420D01*
X115210500Y-59103465D01*
X115210500Y-58896535D01*
X115170130Y-58693580D01*
X115090941Y-58502402D01*
X114975977Y-58330345D01*
X114975975Y-58330342D01*
X114829657Y-58184024D01*
X114743626Y-58126541D01*
X114657598Y-58069059D01*
X114466420Y-57989870D01*
X114466412Y-57989868D01*
X114263469Y-57949500D01*
X114263465Y-57949500D01*
X114056535Y-57949500D01*
X114056530Y-57949500D01*
X113853587Y-57989868D01*
X113853579Y-57989870D01*
X113662403Y-58069058D01*
X113490342Y-58184024D01*
X113344024Y-58330342D01*
X113229058Y-58502403D01*
X113149870Y-58693579D01*
X113149868Y-58693587D01*
X113109500Y-58896530D01*
X113109500Y-59103469D01*
X113149868Y-59306412D01*
X113149870Y-59306420D01*
X113229058Y-59497596D01*
X113344024Y-59669657D01*
X113490342Y-59815975D01*
X113490345Y-59815977D01*
X113662402Y-59930941D01*
X113707955Y-59949809D01*
X113762355Y-59993648D01*
X113784421Y-60059942D01*
X113784500Y-60064369D01*
X113784500Y-62435629D01*
X113764815Y-62502668D01*
X113712011Y-62548423D01*
X113707955Y-62550189D01*
X113662405Y-62569057D01*
X113490342Y-62684024D01*
X113344024Y-62830342D01*
X113229058Y-63002403D01*
X113149870Y-63193579D01*
X113149868Y-63193587D01*
X113109500Y-63396530D01*
X113109500Y-63603469D01*
X113149868Y-63806412D01*
X113149870Y-63806420D01*
X113197851Y-63922257D01*
X113229059Y-63997598D01*
X113243764Y-64019605D01*
X113344024Y-64169657D01*
X113490342Y-64315975D01*
X113490345Y-64315977D01*
X113662402Y-64430941D01*
X113853580Y-64510130D01*
X114035742Y-64546364D01*
X114056530Y-64550499D01*
X114056534Y-64550500D01*
X114262100Y-64550500D01*
X114329139Y-64570185D01*
X114374894Y-64622989D01*
X114384838Y-64692147D01*
X114355813Y-64755703D01*
X114349781Y-64762181D01*
X111817338Y-67294625D01*
X111747426Y-67364536D01*
X111697991Y-67450159D01*
X111697991Y-67450160D01*
X111697990Y-67450162D01*
X111672400Y-67545665D01*
X111672400Y-67545667D01*
X111672400Y-96930601D01*
X111652715Y-96997640D01*
X111636081Y-97018282D01*
X110083626Y-98570736D01*
X110034191Y-98656359D01*
X110034191Y-98656360D01*
X110034190Y-98656362D01*
X110008600Y-98751865D01*
X110008600Y-101981735D01*
X110009206Y-101983996D01*
X110017075Y-102013362D01*
X110021300Y-102045456D01*
X110021300Y-103876000D01*
X110001615Y-103943039D01*
X109948811Y-103988794D01*
X109897300Y-104000000D01*
X100524500Y-104000000D01*
X100457461Y-103980315D01*
X100411706Y-103927511D01*
X100400500Y-103876000D01*
X100400500Y-81146808D01*
X102286800Y-81146808D01*
X102286800Y-87126991D01*
X102320908Y-87254287D01*
X102353854Y-87311350D01*
X102386800Y-87368414D01*
X102386802Y-87368416D01*
X103834529Y-88816143D01*
X103868014Y-88877466D01*
X103863030Y-88947158D01*
X103821158Y-89003091D01*
X103771041Y-89025441D01*
X103708169Y-89037947D01*
X103708160Y-89037950D01*
X103526092Y-89113364D01*
X103526079Y-89113371D01*
X103362218Y-89222860D01*
X103362214Y-89222863D01*
X103222863Y-89362214D01*
X103222860Y-89362218D01*
X103113371Y-89526079D01*
X103113364Y-89526092D01*
X103037950Y-89708160D01*
X103037947Y-89708170D01*
X102999500Y-89901456D01*
X102999500Y-89901459D01*
X102999500Y-90098541D01*
X102999500Y-90098543D01*
X102999499Y-90098543D01*
X103037947Y-90291829D01*
X103037950Y-90291839D01*
X103113364Y-90473907D01*
X103113371Y-90473920D01*
X103222860Y-90637781D01*
X103222863Y-90637785D01*
X103362214Y-90777136D01*
X103362218Y-90777139D01*
X103526079Y-90886628D01*
X103526092Y-90886635D01*
X103708160Y-90962049D01*
X103708165Y-90962051D01*
X103708169Y-90962051D01*
X103708170Y-90962052D01*
X103901456Y-91000500D01*
X103901459Y-91000500D01*
X104098543Y-91000500D01*
X104228582Y-90974632D01*
X104291835Y-90962051D01*
X104473914Y-90886632D01*
X104637782Y-90777139D01*
X104777139Y-90637782D01*
X104886632Y-90473914D01*
X104962051Y-90291835D01*
X104974558Y-90228960D01*
X105006943Y-90167049D01*
X105067658Y-90132475D01*
X105137428Y-90136214D01*
X105183856Y-90165470D01*
X106463181Y-91444795D01*
X106496666Y-91506118D01*
X106499500Y-91532476D01*
X106499500Y-92004718D01*
X106479815Y-92071757D01*
X106444390Y-92107820D01*
X106330349Y-92184019D01*
X106330341Y-92184025D01*
X106184024Y-92330342D01*
X106069058Y-92502403D01*
X105989870Y-92693579D01*
X105989868Y-92693587D01*
X105949500Y-92896530D01*
X105949500Y-93103469D01*
X105989868Y-93306412D01*
X105989870Y-93306420D01*
X106069058Y-93497596D01*
X106184024Y-93669657D01*
X106330342Y-93815975D01*
X106330345Y-93815977D01*
X106502402Y-93930941D01*
X106693580Y-94010130D01*
X106896530Y-94050499D01*
X106896534Y-94050500D01*
X106896535Y-94050500D01*
X107103466Y-94050500D01*
X107103467Y-94050499D01*
X107306420Y-94010130D01*
X107497598Y-93930941D01*
X107608311Y-93856965D01*
X107674987Y-93836088D01*
X107742367Y-93854572D01*
X107789057Y-93906551D01*
X107801200Y-93960068D01*
X107801200Y-98616400D01*
X107781515Y-98683439D01*
X107764881Y-98704081D01*
X107487104Y-98981857D01*
X107425781Y-99015342D01*
X107356089Y-99010358D01*
X107351972Y-99008738D01*
X107350980Y-99008327D01*
X107306420Y-98989870D01*
X107306416Y-98989869D01*
X107306412Y-98989867D01*
X107103469Y-98949500D01*
X107103465Y-98949500D01*
X106896535Y-98949500D01*
X106896530Y-98949500D01*
X106693587Y-98989868D01*
X106693579Y-98989870D01*
X106502403Y-99069058D01*
X106330342Y-99184024D01*
X106184024Y-99330342D01*
X106069058Y-99502403D01*
X105989870Y-99693579D01*
X105989868Y-99693587D01*
X105949500Y-99896530D01*
X105949500Y-100103469D01*
X105989868Y-100306412D01*
X105989870Y-100306420D01*
X106069058Y-100497596D01*
X106184024Y-100669657D01*
X106330342Y-100815975D01*
X106330345Y-100815977D01*
X106502402Y-100930941D01*
X106693580Y-101010130D01*
X106862208Y-101043672D01*
X106896530Y-101050499D01*
X106896534Y-101050500D01*
X106896535Y-101050500D01*
X107103466Y-101050500D01*
X107103467Y-101050499D01*
X107306420Y-101010130D01*
X107497598Y-100930941D01*
X107669655Y-100815977D01*
X107815977Y-100669655D01*
X107930941Y-100497598D01*
X108010130Y-100306420D01*
X108050500Y-100103465D01*
X108050500Y-99896535D01*
X108010130Y-99693580D01*
X107991260Y-99648025D01*
X107983792Y-99578560D01*
X108015066Y-99516080D01*
X108018110Y-99512925D01*
X108477174Y-99053863D01*
X108477175Y-99053862D01*
X108526610Y-98968238D01*
X108537637Y-98927086D01*
X108541308Y-98913388D01*
X108546753Y-98893062D01*
X108552200Y-98872736D01*
X108552200Y-98773864D01*
X108552200Y-83967265D01*
X108548506Y-83953480D01*
X108526610Y-83871763D01*
X108526610Y-83871762D01*
X108477175Y-83786138D01*
X108407262Y-83716225D01*
X108018141Y-83327104D01*
X107984656Y-83265781D01*
X107989640Y-83196089D01*
X107991237Y-83192029D01*
X108010130Y-83146420D01*
X108050500Y-82943465D01*
X108050500Y-82736535D01*
X108010130Y-82533580D01*
X107930941Y-82342402D01*
X107815977Y-82170345D01*
X107815975Y-82170342D01*
X107669657Y-82024024D01*
X107583626Y-81966541D01*
X107497598Y-81909059D01*
X107306420Y-81829870D01*
X107306412Y-81829868D01*
X107103469Y-81789500D01*
X107103465Y-81789500D01*
X106896535Y-81789500D01*
X106896530Y-81789500D01*
X106693587Y-81829868D01*
X106693579Y-81829870D01*
X106502403Y-81909058D01*
X106330342Y-82024024D01*
X106184024Y-82170342D01*
X106069058Y-82342403D01*
X105989870Y-82533579D01*
X105989868Y-82533587D01*
X105949500Y-82736530D01*
X105949500Y-82943469D01*
X105989868Y-83146412D01*
X105989870Y-83146420D01*
X106069059Y-83337598D01*
X106101147Y-83385621D01*
X106184024Y-83509657D01*
X106330342Y-83655975D01*
X106330345Y-83655977D01*
X106502402Y-83770941D01*
X106693580Y-83850130D01*
X106896530Y-83890499D01*
X106896534Y-83890500D01*
X106896535Y-83890500D01*
X107103466Y-83890500D01*
X107103467Y-83890499D01*
X107306420Y-83850130D01*
X107351972Y-83831261D01*
X107421437Y-83823792D01*
X107483917Y-83855065D01*
X107487104Y-83858141D01*
X107764881Y-84135918D01*
X107798366Y-84197241D01*
X107801200Y-84223599D01*
X107801200Y-92039931D01*
X107781515Y-92106970D01*
X107728711Y-92152725D01*
X107659553Y-92162669D01*
X107608309Y-92143033D01*
X107555609Y-92107820D01*
X107510804Y-92054208D01*
X107500500Y-92004718D01*
X107500500Y-91207910D01*
X107500500Y-91207908D01*
X107466392Y-91080614D01*
X107400500Y-90966486D01*
X107307314Y-90873300D01*
X103607615Y-87173601D01*
X103574130Y-87112278D01*
X103579114Y-87042586D01*
X103620986Y-86986653D01*
X103686450Y-86962236D01*
X103719485Y-86964302D01*
X103781711Y-86976680D01*
X103901456Y-87000500D01*
X103901459Y-87000500D01*
X104098543Y-87000500D01*
X104228582Y-86974632D01*
X104291835Y-86962051D01*
X104473914Y-86886632D01*
X104637782Y-86777139D01*
X104777139Y-86637782D01*
X104886632Y-86473914D01*
X104962051Y-86291835D01*
X105000500Y-86098541D01*
X105000500Y-85901459D01*
X105000500Y-85901456D01*
X104962052Y-85708170D01*
X104962051Y-85708169D01*
X104962051Y-85708165D01*
X104901131Y-85561089D01*
X104886635Y-85526092D01*
X104886628Y-85526079D01*
X104777139Y-85362218D01*
X104777136Y-85362214D01*
X104637785Y-85222863D01*
X104637781Y-85222860D01*
X104473920Y-85113371D01*
X104473907Y-85113364D01*
X104291839Y-85037950D01*
X104291829Y-85037947D01*
X104098543Y-84999500D01*
X104098541Y-84999500D01*
X103901459Y-84999500D01*
X103901457Y-84999500D01*
X103708170Y-85037947D01*
X103708160Y-85037950D01*
X103526092Y-85113364D01*
X103526081Y-85113370D01*
X103480690Y-85143700D01*
X103414013Y-85164577D01*
X103346633Y-85146092D01*
X103299943Y-85094113D01*
X103287800Y-85040597D01*
X103287800Y-82959402D01*
X103307485Y-82892363D01*
X103360289Y-82846608D01*
X103429447Y-82836664D01*
X103480689Y-82856299D01*
X103526086Y-82886632D01*
X103526088Y-82886633D01*
X103526092Y-82886635D01*
X103708160Y-82962049D01*
X103708165Y-82962051D01*
X103708169Y-82962051D01*
X103708170Y-82962052D01*
X103901456Y-83000500D01*
X103901459Y-83000500D01*
X104098543Y-83000500D01*
X104228582Y-82974632D01*
X104291835Y-82962051D01*
X104473914Y-82886632D01*
X104637782Y-82777139D01*
X104777139Y-82637782D01*
X104886632Y-82473914D01*
X104962051Y-82291835D01*
X105000500Y-82098541D01*
X105000500Y-81901459D01*
X105000500Y-81901456D01*
X104962052Y-81708170D01*
X104962051Y-81708169D01*
X104962051Y-81708165D01*
X104962049Y-81708160D01*
X104886635Y-81526092D01*
X104886628Y-81526079D01*
X104777139Y-81362218D01*
X104777136Y-81362214D01*
X104637785Y-81222863D01*
X104637781Y-81222860D01*
X104473920Y-81113371D01*
X104473907Y-81113364D01*
X104291839Y-81037950D01*
X104291829Y-81037947D01*
X104098543Y-80999500D01*
X104098541Y-80999500D01*
X104007675Y-80999500D01*
X103940636Y-80979815D01*
X103894881Y-80927011D01*
X103884937Y-80857853D01*
X103913962Y-80794297D01*
X103919994Y-80787819D01*
X104650138Y-80057674D01*
X104711459Y-80024191D01*
X104762005Y-80023740D01*
X104872127Y-80045644D01*
X104896534Y-80050500D01*
X104896535Y-80050500D01*
X105103466Y-80050500D01*
X105103467Y-80050499D01*
X105306420Y-80010130D01*
X105497598Y-79930941D01*
X105669655Y-79815977D01*
X105669658Y-79815974D01*
X105743795Y-79741838D01*
X105815974Y-79669658D01*
X105815975Y-79669657D01*
X105815977Y-79669655D01*
X105930941Y-79497598D01*
X106010130Y-79306420D01*
X106050500Y-79103465D01*
X106050500Y-78913428D01*
X108900000Y-78913428D01*
X108900000Y-79086571D01*
X108927085Y-79257584D01*
X108980591Y-79422257D01*
X109059198Y-79576528D01*
X109123219Y-79664646D01*
X109123220Y-79664647D01*
X109629533Y-79158334D01*
X109679920Y-79245606D01*
X109754394Y-79320080D01*
X109841665Y-79370465D01*
X109335351Y-79876778D01*
X109335352Y-79876780D01*
X109423471Y-79940801D01*
X109577742Y-80019408D01*
X109742415Y-80072914D01*
X109913429Y-80100000D01*
X110086571Y-80100000D01*
X110257584Y-80072914D01*
X110422257Y-80019408D01*
X110576525Y-79940803D01*
X110664646Y-79876778D01*
X110664647Y-79876778D01*
X110158334Y-79370465D01*
X110245606Y-79320080D01*
X110320080Y-79245606D01*
X110370465Y-79158334D01*
X110876778Y-79664647D01*
X110876778Y-79664646D01*
X110940803Y-79576525D01*
X111019408Y-79422257D01*
X111072914Y-79257584D01*
X111100000Y-79086571D01*
X111100000Y-78913428D01*
X111072914Y-78742415D01*
X111019408Y-78577742D01*
X110940801Y-78423471D01*
X110876780Y-78335352D01*
X110876778Y-78335351D01*
X110370465Y-78841664D01*
X110320080Y-78754394D01*
X110245606Y-78679920D01*
X110158334Y-78629534D01*
X110664647Y-78123220D01*
X110664646Y-78123219D01*
X110576528Y-78059198D01*
X110422257Y-77980591D01*
X110257584Y-77927085D01*
X110086571Y-77900000D01*
X109913429Y-77900000D01*
X109742415Y-77927085D01*
X109577742Y-77980591D01*
X109423478Y-78059194D01*
X109335352Y-78123220D01*
X109841665Y-78629533D01*
X109754394Y-78679920D01*
X109679920Y-78754394D01*
X109629533Y-78841665D01*
X109123220Y-78335352D01*
X109059194Y-78423478D01*
X108980591Y-78577742D01*
X108927085Y-78742415D01*
X108900000Y-78913428D01*
X106050500Y-78913428D01*
X106050500Y-78896535D01*
X106010130Y-78693580D01*
X105930941Y-78502402D01*
X105815977Y-78330345D01*
X105815975Y-78330342D01*
X105669658Y-78184025D01*
X105669650Y-78184019D01*
X105555610Y-78107820D01*
X105510804Y-78054208D01*
X105500500Y-78004718D01*
X105500500Y-74172351D01*
X105520185Y-74105312D01*
X105572989Y-74059557D01*
X105611247Y-74049061D01*
X105657483Y-74044091D01*
X105792331Y-73993796D01*
X105907546Y-73907546D01*
X105993796Y-73792331D01*
X106044091Y-73657483D01*
X106050500Y-73597873D01*
X106050499Y-72402128D01*
X106044091Y-72342517D01*
X106026860Y-72296319D01*
X105993797Y-72207671D01*
X105993793Y-72207664D01*
X105907547Y-72092455D01*
X105907544Y-72092452D01*
X105792335Y-72006206D01*
X105792328Y-72006202D01*
X105657482Y-71955908D01*
X105657483Y-71955908D01*
X105597883Y-71949501D01*
X105597881Y-71949500D01*
X105597873Y-71949500D01*
X105597864Y-71949500D01*
X104402129Y-71949500D01*
X104402123Y-71949501D01*
X104342516Y-71955908D01*
X104207671Y-72006202D01*
X104207664Y-72006206D01*
X104092455Y-72092452D01*
X104092452Y-72092455D01*
X104006206Y-72207664D01*
X104006202Y-72207671D01*
X103955908Y-72342517D01*
X103949501Y-72402116D01*
X103949501Y-72402123D01*
X103949500Y-72402135D01*
X103949500Y-73597870D01*
X103949501Y-73597876D01*
X103955908Y-73657483D01*
X104006202Y-73792328D01*
X104006206Y-73792335D01*
X104092452Y-73907544D01*
X104092455Y-73907547D01*
X104207664Y-73993793D01*
X104207671Y-73993797D01*
X104342516Y-74044091D01*
X104388757Y-74049063D01*
X104453307Y-74075801D01*
X104493155Y-74133194D01*
X104499500Y-74172352D01*
X104499500Y-78004718D01*
X104479815Y-78071757D01*
X104444390Y-78107820D01*
X104330349Y-78184019D01*
X104330341Y-78184025D01*
X104184024Y-78330342D01*
X104069058Y-78502403D01*
X103989870Y-78693579D01*
X103989868Y-78693587D01*
X103949500Y-78896530D01*
X103949500Y-79103469D01*
X103976258Y-79237990D01*
X103970031Y-79307582D01*
X103942322Y-79349862D01*
X102479986Y-80812200D01*
X102386802Y-80905383D01*
X102386800Y-80905386D01*
X102320908Y-81019512D01*
X102286800Y-81146808D01*
X100400500Y-81146808D01*
X100400500Y-67896530D01*
X103949500Y-67896530D01*
X103949500Y-68103469D01*
X103989868Y-68306412D01*
X103989870Y-68306420D01*
X104069059Y-68497598D01*
X104084211Y-68520274D01*
X104184024Y-68669657D01*
X104330342Y-68815975D01*
X104330345Y-68815977D01*
X104502402Y-68930941D01*
X104693580Y-69010130D01*
X104896530Y-69050499D01*
X104896534Y-69050500D01*
X104896535Y-69050500D01*
X105103466Y-69050500D01*
X105103467Y-69050499D01*
X105306420Y-69010130D01*
X105497598Y-68930941D01*
X105669655Y-68815977D01*
X105815977Y-68669655D01*
X105930941Y-68497598D01*
X106010130Y-68306420D01*
X106050500Y-68103465D01*
X106050500Y-67896535D01*
X106010130Y-67693580D01*
X105930941Y-67502402D01*
X105815977Y-67330345D01*
X105815975Y-67330342D01*
X105669657Y-67184024D01*
X105563916Y-67113371D01*
X105497598Y-67069059D01*
X105455680Y-67051696D01*
X105306420Y-66989870D01*
X105306412Y-66989868D01*
X105103469Y-66949500D01*
X105103465Y-66949500D01*
X104896535Y-66949500D01*
X104896530Y-66949500D01*
X104693587Y-66989868D01*
X104693579Y-66989870D01*
X104502403Y-67069058D01*
X104330342Y-67184024D01*
X104184024Y-67330342D01*
X104069058Y-67502403D01*
X103989870Y-67693579D01*
X103989868Y-67693587D01*
X103949500Y-67896530D01*
X100400500Y-67896530D01*
X100400500Y-63413428D01*
X102900000Y-63413428D01*
X102900000Y-63586571D01*
X102927085Y-63757584D01*
X102980591Y-63922257D01*
X103059198Y-64076528D01*
X103123219Y-64164646D01*
X103123220Y-64164647D01*
X103629533Y-63658334D01*
X103679920Y-63745606D01*
X103754394Y-63820080D01*
X103841665Y-63870465D01*
X103335351Y-64376778D01*
X103335352Y-64376780D01*
X103423471Y-64440801D01*
X103577742Y-64519408D01*
X103742415Y-64572914D01*
X103913429Y-64600000D01*
X104086571Y-64600000D01*
X104257584Y-64572914D01*
X104422257Y-64519408D01*
X104576525Y-64440803D01*
X104664646Y-64376778D01*
X104664647Y-64376778D01*
X104158334Y-63870465D01*
X104245606Y-63820080D01*
X104320080Y-63745606D01*
X104370466Y-63658334D01*
X104876778Y-64164647D01*
X104876778Y-64164646D01*
X104940803Y-64076525D01*
X105019408Y-63922257D01*
X105072914Y-63757584D01*
X105100000Y-63586571D01*
X105100000Y-63413428D01*
X105072914Y-63242415D01*
X105019408Y-63077742D01*
X104940801Y-62923471D01*
X104876780Y-62835352D01*
X104876778Y-62835351D01*
X104370465Y-63341664D01*
X104320080Y-63254394D01*
X104245606Y-63179920D01*
X104158334Y-63129534D01*
X104664647Y-62623220D01*
X104664646Y-62623219D01*
X104576528Y-62559198D01*
X104422257Y-62480591D01*
X104257584Y-62427085D01*
X104086571Y-62400000D01*
X103913429Y-62400000D01*
X103742415Y-62427085D01*
X103577742Y-62480591D01*
X103423478Y-62559194D01*
X103335352Y-62623220D01*
X103841665Y-63129533D01*
X103754394Y-63179920D01*
X103679920Y-63254394D01*
X103629533Y-63341665D01*
X103123220Y-62835352D01*
X103059194Y-62923478D01*
X102980591Y-63077742D01*
X102927085Y-63242415D01*
X102900000Y-63413428D01*
X100400500Y-63413428D01*
X100400500Y-58896530D01*
X102949500Y-58896530D01*
X102949500Y-59103469D01*
X102989868Y-59306412D01*
X102989870Y-59306420D01*
X103069058Y-59497596D01*
X103184024Y-59669657D01*
X103330342Y-59815975D01*
X103330345Y-59815977D01*
X103502402Y-59930941D01*
X103693580Y-60010130D01*
X103896530Y-60050499D01*
X103896534Y-60050500D01*
X103896535Y-60050500D01*
X104103466Y-60050500D01*
X104103467Y-60050499D01*
X104306420Y-60010130D01*
X104497598Y-59930941D01*
X104669655Y-59815977D01*
X104815977Y-59669655D01*
X104930941Y-59497598D01*
X105010130Y-59306420D01*
X105050500Y-59103465D01*
X105050500Y-58896535D01*
X105010130Y-58693580D01*
X104930941Y-58502402D01*
X104815977Y-58330345D01*
X104815975Y-58330342D01*
X104669657Y-58184024D01*
X104583626Y-58126541D01*
X104497598Y-58069059D01*
X104306420Y-57989870D01*
X104306412Y-57989868D01*
X104103469Y-57949500D01*
X104103465Y-57949500D01*
X103896535Y-57949500D01*
X103896530Y-57949500D01*
X103693587Y-57989868D01*
X103693579Y-57989870D01*
X103502403Y-58069058D01*
X103330342Y-58184024D01*
X103184024Y-58330342D01*
X103069058Y-58502403D01*
X102989870Y-58693579D01*
X102989868Y-58693587D01*
X102949500Y-58896530D01*
X100400500Y-58896530D01*
X100400500Y-58002125D01*
X100400572Y-57997892D01*
X100401169Y-57980407D01*
X100418071Y-57485609D01*
X100418647Y-57477190D01*
X100470851Y-56969385D01*
X100471996Y-56961055D01*
X100558733Y-56457999D01*
X100560455Y-56449715D01*
X100567696Y-56420001D01*
X100681312Y-55953772D01*
X100683581Y-55945674D01*
X100838014Y-55459095D01*
X100840840Y-55451147D01*
X100845081Y-55440394D01*
X100957771Y-55154631D01*
X101028103Y-54976282D01*
X101031467Y-54968536D01*
X101250706Y-54507542D01*
X101254576Y-54500073D01*
X101325442Y-54374038D01*
X103399500Y-54374038D01*
X103399500Y-54625961D01*
X103438910Y-54874785D01*
X103516760Y-55114383D01*
X103631132Y-55338848D01*
X103779201Y-55542649D01*
X103779205Y-55542654D01*
X103957345Y-55720794D01*
X103957350Y-55720798D01*
X104087557Y-55815398D01*
X104161155Y-55868870D01*
X104296703Y-55937935D01*
X104385616Y-55983239D01*
X104385618Y-55983239D01*
X104385621Y-55983241D01*
X104625215Y-56061090D01*
X104874038Y-56100500D01*
X104874039Y-56100500D01*
X105125961Y-56100500D01*
X105125962Y-56100500D01*
X105374785Y-56061090D01*
X105614379Y-55983241D01*
X105838845Y-55868870D01*
X106042656Y-55720793D01*
X106220793Y-55542656D01*
X106368870Y-55338845D01*
X106483241Y-55114379D01*
X106561090Y-54874785D01*
X106600500Y-54625962D01*
X106600500Y-54374038D01*
X106561090Y-54125215D01*
X106483241Y-53885621D01*
X106483239Y-53885618D01*
X106483239Y-53885616D01*
X106441747Y-53804184D01*
X106368870Y-53661155D01*
X106237054Y-53479725D01*
X106220798Y-53457350D01*
X106220794Y-53457345D01*
X106042654Y-53279205D01*
X106042649Y-53279201D01*
X105838848Y-53131132D01*
X105838847Y-53131131D01*
X105838845Y-53131130D01*
X105747652Y-53084665D01*
X105614383Y-53016760D01*
X105374785Y-52938909D01*
X105254926Y-52919926D01*
X105223603Y-52914965D01*
X105125962Y-52899500D01*
X104874038Y-52899500D01*
X104749626Y-52919205D01*
X104625214Y-52938910D01*
X104385616Y-53016760D01*
X104161151Y-53131132D01*
X103957350Y-53279201D01*
X103957345Y-53279205D01*
X103779205Y-53457345D01*
X103779201Y-53457350D01*
X103631132Y-53661151D01*
X103516760Y-53885616D01*
X103438910Y-54125214D01*
X103399500Y-54374038D01*
X101325442Y-54374038D01*
X101504770Y-54055103D01*
X101509155Y-54047892D01*
X101789132Y-53621033D01*
X101793984Y-53614159D01*
X102102432Y-53207408D01*
X102107762Y-53200857D01*
X102443240Y-52816116D01*
X102448990Y-52809959D01*
X102458167Y-52800782D01*
X121078500Y-52800782D01*
X121078500Y-53959217D01*
X121078501Y-53959236D01*
X121084634Y-54016284D01*
X121084635Y-54016288D01*
X121132779Y-54145368D01*
X121215340Y-54255659D01*
X121273770Y-54299398D01*
X121325631Y-54338220D01*
X121454713Y-54386365D01*
X121511774Y-54392500D01*
X121511783Y-54392500D01*
X124166676Y-54392500D01*
X124166677Y-54392499D01*
X124239740Y-54377966D01*
X124322601Y-54322601D01*
X124377966Y-54239740D01*
X124392500Y-54166674D01*
X124392500Y-52593326D01*
X124392500Y-52593323D01*
X124392499Y-52593321D01*
X124377967Y-52520264D01*
X124377966Y-52520260D01*
X124344339Y-52469933D01*
X124322601Y-52437399D01*
X124239740Y-52382034D01*
X124239739Y-52382033D01*
X124239735Y-52382032D01*
X124166677Y-52367500D01*
X124166674Y-52367500D01*
X123578226Y-52367500D01*
X121511774Y-52367500D01*
X121511766Y-52367500D01*
X121511763Y-52367501D01*
X121454715Y-52373634D01*
X121454711Y-52373635D01*
X121325631Y-52421779D01*
X121215340Y-52504340D01*
X121132779Y-52614631D01*
X121084635Y-52743711D01*
X121084634Y-52743715D01*
X121078501Y-52800763D01*
X121078500Y-52800782D01*
X102458167Y-52800782D01*
X102809959Y-52448990D01*
X102816116Y-52443240D01*
X103200857Y-52107762D01*
X103207408Y-52102432D01*
X103614159Y-51793984D01*
X103621033Y-51789132D01*
X104047892Y-51509155D01*
X104055103Y-51504770D01*
X104500073Y-51254576D01*
X104507542Y-51250706D01*
X104968536Y-51031467D01*
X104976282Y-51028103D01*
X105451147Y-50840840D01*
X105459095Y-50838014D01*
X105945674Y-50683581D01*
X105953772Y-50681312D01*
X106449722Y-50560453D01*
X106457999Y-50558733D01*
X106961055Y-50471996D01*
X106969385Y-50470851D01*
X107477190Y-50418647D01*
X107485609Y-50418071D01*
X107997892Y-50400571D01*
X108002125Y-50400500D01*
X108057583Y-50400500D01*
X136942417Y-50400500D01*
X136997875Y-50400500D01*
X137002107Y-50400571D01*
G37*
%TD.AperFunction*%
%TA.AperFunction,Conductor*%
G36*
X103486890Y-122860442D02*
G01*
X103508614Y-122874958D01*
X103526078Y-122886627D01*
X103526081Y-122886628D01*
X103526086Y-122886632D01*
X103547952Y-122895689D01*
X103602355Y-122939529D01*
X103624421Y-123005823D01*
X103624500Y-123010250D01*
X103624500Y-125089435D01*
X103631279Y-125114734D01*
X103650091Y-125184942D01*
X103650092Y-125184943D01*
X103669704Y-125218911D01*
X103669705Y-125218912D01*
X103699523Y-125270559D01*
X103699528Y-125270565D01*
X118225995Y-139797032D01*
X118259480Y-139858355D01*
X118254496Y-139928047D01*
X118212624Y-139983980D01*
X118147160Y-140008397D01*
X118078887Y-139993545D01*
X118065429Y-139985031D01*
X118049202Y-139973242D01*
X118049201Y-139973241D01*
X118049199Y-139973240D01*
X117966110Y-139930904D01*
X117880836Y-139887454D01*
X117701118Y-139829059D01*
X117514486Y-139799500D01*
X117514481Y-139799500D01*
X117325519Y-139799500D01*
X117325514Y-139799500D01*
X117138881Y-139829059D01*
X116959163Y-139887454D01*
X116790800Y-139973240D01*
X116732178Y-140015832D01*
X116637927Y-140084310D01*
X116637925Y-140084312D01*
X116637924Y-140084312D01*
X116504312Y-140217924D01*
X116504312Y-140217925D01*
X116504310Y-140217927D01*
X116456610Y-140283579D01*
X116393240Y-140370800D01*
X116307454Y-140539163D01*
X116267931Y-140660803D01*
X116228493Y-140718478D01*
X116164134Y-140745676D01*
X116095288Y-140733761D01*
X116043812Y-140686516D01*
X116032069Y-140660803D01*
X116021649Y-140628734D01*
X115992547Y-140539168D01*
X115992545Y-140539165D01*
X115992545Y-140539163D01*
X115929460Y-140415352D01*
X115906760Y-140370801D01*
X115795690Y-140217927D01*
X115662073Y-140084310D01*
X115509199Y-139973240D01*
X115340836Y-139887454D01*
X115161118Y-139829059D01*
X114974486Y-139799500D01*
X114974481Y-139799500D01*
X114785519Y-139799500D01*
X114785514Y-139799500D01*
X114598880Y-139829060D01*
X114598877Y-139829060D01*
X114419169Y-139887452D01*
X114414670Y-139889316D01*
X114414239Y-139888277D01*
X114350807Y-139900180D01*
X114286071Y-139873894D01*
X114275519Y-139864482D01*
X103330319Y-128919282D01*
X103296834Y-128857959D01*
X103294000Y-128831601D01*
X103294000Y-122963544D01*
X103313685Y-122896505D01*
X103366489Y-122850750D01*
X103435647Y-122840806D01*
X103486890Y-122860442D01*
G37*
%TD.AperFunction*%
%TD*%
M02*
