%TF.GenerationSoftware,KiCad,Pcbnew,10.0.6*%
%TF.CreationDate,2026-09-07T16:07:09+05:30*%
%TF.ProjectId,remote,72656d6f-7465-42e6-9b69-6361645f7063,rev?*%
%TF.SameCoordinates,Original*%
%TF.FileFunction,Soldermask,Top*%
%TF.FilePolarity,Negative*%
%FSLAX46Y46*%
G04 Gerber Fmt 4.6, Leading zero omitted, Abs format (unit mm)*
G04 Created by KiCad (PCBNEW 10.0.6) date 2026-09-07 16:07:09*
%MOMM*%
%LPD*%
G01*
G04 APERTURE LIST*
G04 Aperture macros list*
%AMRoundRect*
0 Rectangle with rounded corners*
0 $1 Rounding radius*
0 $2 $3 $4 $5 $6 $7 $8 $9 X,Y pos of 4 corners*
0 Add a 4 corners polygon primitive as box body*
4,1,4,$2,$3,$4,$5,$6,$7,$8,$9,$2,$3,0*
0 Add four circle primitives for the rounded corners*
1,1,$1+$1,$2,$3*
1,1,$1+$1,$4,$5*
1,1,$1+$1,$6,$7*
1,1,$1+$1,$8,$9*
0 Add four rect primitives between the rounded corners*
20,1,$1+$1,$2,$3,$4,$5,0*
20,1,$1+$1,$4,$5,$6,$7,0*
20,1,$1+$1,$6,$7,$8,$9,0*
20,1,$1+$1,$8,$9,$2,$3,0*%
G04 Aperture macros list end*
%ADD10C,1.600000*%
%ADD11C,1.500000*%
%ADD12RoundRect,0.250000X-0.550000X-0.550000X0.550000X-0.550000X0.550000X0.550000X-0.550000X0.550000X0*%
%ADD13R,1.900000X1.900000*%
%ADD14C,1.900000*%
%ADD15R,1.524000X1.524000*%
%ADD16RoundRect,0.228600X-0.987400X-0.533400X0.987400X-0.533400X0.987400X0.533400X-0.987400X0.533400X0*%
%ADD17C,1.524000*%
%ADD18C,3.200000*%
%ADD19R,2.500000X1.300000*%
%ADD20O,2.500000X1.300000*%
%ADD21R,3.000000X3.000000*%
%ADD22C,3.000000*%
%ADD23C,1.800000*%
%ADD24O,2.900000X1.700000*%
%ADD25R,2.200000X2.200000*%
%ADD26C,2.200000*%
%ADD27RoundRect,0.250000X0.625000X-0.350000X0.625000X0.350000X-0.625000X0.350000X-0.625000X-0.350000X0*%
%ADD28O,1.750000X1.200000*%
%ADD29RoundRect,0.250000X-0.350000X-0.625000X0.350000X-0.625000X0.350000X0.625000X-0.350000X0.625000X0*%
%ADD30O,1.200000X1.750000*%
G04 APERTURE END LIST*
D10*
%TO.C,C7*%
X107000000Y-100000000D03*
X112000000Y-100000000D03*
%TD*%
D11*
%TO.C,TP6*%
X104000000Y-90000000D03*
%TD*%
D10*
%TO.C,R4*%
X107000000Y-93000000D03*
X107000000Y-82840000D03*
%TD*%
%TO.C,R2*%
X104000000Y-59000000D03*
X114160000Y-59000000D03*
%TD*%
D12*
%TO.C,C3*%
X135000000Y-140000000D03*
D10*
X137500000Y-140000000D03*
%TD*%
D13*
%TO.C,U3*%
X130120000Y-141000000D03*
D14*
X127580000Y-141000000D03*
X125040000Y-141000000D03*
X122500000Y-141000000D03*
X117420000Y-141000000D03*
X114880000Y-141000000D03*
X119960000Y-141000000D03*
%TD*%
D11*
%TO.C,TP3*%
X104000000Y-122000000D03*
%TD*%
D15*
%TO.C,J4*%
X138620000Y-68620000D03*
D16*
X139455000Y-68620000D03*
D17*
X138620000Y-66080000D03*
D16*
X139455000Y-66080000D03*
D17*
X138620000Y-63540000D03*
D16*
X139455000Y-63540000D03*
D17*
X138620000Y-61000000D03*
D16*
X139455000Y-61000000D03*
D17*
X138620000Y-58460000D03*
D16*
X139455000Y-58460000D03*
D17*
X138620000Y-55920001D03*
D16*
X139455000Y-55920001D03*
D17*
X138620000Y-53380000D03*
D16*
X139455000Y-53380000D03*
%TD*%
D10*
%TO.C,C2*%
X105000000Y-79000000D03*
X110000000Y-79000000D03*
%TD*%
%TO.C,C6*%
X105000000Y-68000000D03*
X110000000Y-68000000D03*
%TD*%
D11*
%TO.C,TP11*%
X104000000Y-158000000D03*
%TD*%
%TO.C,TP9*%
X118000000Y-68000000D03*
%TD*%
D12*
%TO.C,C5*%
X135000000Y-154000000D03*
D10*
X137500000Y-154000000D03*
%TD*%
D12*
%TO.C,C1*%
X105000000Y-73000000D03*
D10*
X107500000Y-73000000D03*
%TD*%
D11*
%TO.C,TP5*%
X104000000Y-86000000D03*
%TD*%
D10*
%TO.C,R3*%
X114160000Y-63500000D03*
X104000000Y-63500000D03*
%TD*%
D11*
%TO.C,TP1*%
X104000000Y-114000000D03*
%TD*%
D18*
%TO.C,U2*%
X122500000Y-81000000D03*
D13*
X122500000Y-84810000D03*
D14*
X119960000Y-84810000D03*
X125040000Y-84810000D03*
X119960000Y-77190000D03*
X122500000Y-77190000D03*
X125040000Y-77190000D03*
%TD*%
D10*
%TO.C,R7*%
X117500000Y-120000000D03*
X127660000Y-120000000D03*
%TD*%
D19*
%TO.C,J6*%
X126555000Y-60618000D03*
D20*
X126555000Y-58713000D03*
%TD*%
D21*
%TO.C,SW2*%
X134000000Y-129700000D03*
D22*
X134000000Y-125000000D03*
X134000000Y-120300000D03*
%TD*%
D16*
%TO.C,J3*%
X122545000Y-53380000D03*
D15*
X123380000Y-53380000D03*
D16*
X122545000Y-55920000D03*
D17*
X123380000Y-55920000D03*
D16*
X122545000Y-58460000D03*
D17*
X123380000Y-58460000D03*
D16*
X122545000Y-61000000D03*
D17*
X123380000Y-61000000D03*
D16*
X122545000Y-63540000D03*
D17*
X123380000Y-63540000D03*
D16*
X122545000Y-66079999D03*
D17*
X123380000Y-66079999D03*
D16*
X122545000Y-68620000D03*
D17*
X123380000Y-68620000D03*
%TD*%
D10*
%TO.C,C4*%
X135000000Y-146000000D03*
X140000000Y-146000000D03*
%TD*%
D11*
%TO.C,TP10*%
X137000000Y-88000000D03*
%TD*%
%TO.C,TP7*%
X137000000Y-99000000D03*
%TD*%
D23*
%TO.C,SW1*%
X122500000Y-92000000D03*
X122500000Y-101000000D03*
D24*
X116250000Y-94000000D03*
X128750000Y-94000000D03*
X116250000Y-99000000D03*
X128750000Y-99000000D03*
%TD*%
D25*
%TO.C,J5*%
X124200000Y-153954000D03*
D26*
X120700000Y-153954000D03*
%TD*%
D10*
%TO.C,R1*%
X117500000Y-128000000D03*
X127660000Y-128000000D03*
%TD*%
D11*
%TO.C,TP4*%
X104000000Y-82000000D03*
%TD*%
%TO.C,TP2*%
X104000000Y-118000000D03*
%TD*%
D10*
%TO.C,R5*%
X117500000Y-133000000D03*
X127660000Y-133000000D03*
%TD*%
D27*
%TO.C,J1*%
X136000000Y-115000000D03*
D28*
X136000000Y-113000000D03*
%TD*%
D11*
%TO.C,TP8*%
X140000000Y-131000000D03*
%TD*%
D10*
%TO.C,R6*%
X117500000Y-115000000D03*
X127660000Y-115000000D03*
%TD*%
D29*
%TO.C,J2*%
X121500000Y-163000000D03*
D30*
X123500000Y-163000000D03*
%TD*%
M02*
